M48
;Layer_Color=9474304
;FILE_FORMAT=4:4
METRIC,TZ
;TYPE=PLATED
T1F00S00C0.3000
T2F00S00C0.7500
T4F00S00C0.8000
T5F00S00C0.9000
T6F00S00C1.0000
T7F00S00C1.0900
T8F00S00C1.1900
T9F00S00C3.2000
T10F00S00C3.2600
;TYPE=NON_PLATED
T11F00S00C1.0000
%
T01
X904750Y799500
X947500Y814250
X904750Y950250
Y1026750
X949500Y1043750
X1012250Y932250
X1059250Y950250
X828750Y951000
X828500Y1179500
X904750
X1031500Y1179250
X1014250Y1159250
X1270508Y1090422
X1402250Y1084250
X1387000Y1044750
X1373378Y1022858
X1369060Y1188720
X1502410Y1130808
X1651000Y839000
X1740000Y838500
X1722000Y890000
X1993392Y1003554
X2350008Y916686
X2465832Y1060704
X2489708Y1064768
X2552526Y1074594
X2589530Y1088390
X2633472Y1152398
X2708500Y1159250
X2698000Y1135000
X2712212Y1120648
X2770000Y1136000
X2699004Y1185672
X2513838Y1136142
X2818638Y1129030
X2816352Y1153922
X2825750Y1167250
X2857000
X2859750Y1135250
X2801620Y1105662
X2801366Y1177036
X2789174Y1185672
X2817500Y858000
X2901750Y909500
X2823532Y1199320
X2801000Y1192250
X2802500Y1224000
X2876000Y1324500
X2845308Y1374394
X2835402Y1365504
X2837180Y1393444
X2693416Y1374394
X2623058Y1408800
X2603750Y1426250
X2606250Y1445750
X2633980Y1442720
X2662000Y1458000
X2662428Y1484200
X2627000Y1502750
X2572750Y1518750
X2577846Y1533144
X2575000Y1557250
X2574036Y1573276
X2606250Y1573500
X2527250Y1558250
X2537968Y1538800
X2562737Y1468735
X2577910Y1463800
X2577846Y1478534
X2566750Y1452500
X2569972Y1439164
X2575560Y1423800
X2569972Y1387602
X2557412Y1388954
X2549144Y1383284
X2564000Y1377750
X2587500Y1368250
X2604211Y1324597
X2608750Y1280000
X2590800Y1277366
X2584030Y1291082
X2571250Y1269750
X2551938Y1339596
X2529332Y1324356
X2502662Y1334770
X2489500Y1339250
X2514500Y1349250
X2524500Y1377250
X2480500Y1382250
X2464750Y1379000
X2444750Y1378500
X2387250Y1375600
X2389124Y1348994
X2404000Y1349000
X2395474Y1331976
X2404250Y1313000
X2404750Y1294250
X2474750Y1296750
X2467356Y1315466
X2512000Y1424750
X2525230Y1437039
X2401500Y1422500
X2424000Y1486000
X2396998Y1207770
X2676652Y1225042
X2702750Y1225500
X2715768Y1226820
X2711000Y1208500
X2685034Y1196492
X2744500Y1199500
X2753000Y1214000
X2769000Y1247500
X2715514Y1271778
X2674620Y1269962
X2368500Y1293750
X2370490Y1316520
X2375408Y1331722
X2377948Y1345946
X2368250Y1342250
X2360750Y1334750
X2350262Y1343660
X2334768Y1346200
X2326640Y1349248
X2319710Y1327404
X2304000Y1341500
X2299462Y1369314
X2281750Y1374250
X2280611Y1394568
X2280500Y1404250
X2279111Y1418069
X2279250Y1428000
X2280750Y1439500
X2258250Y1430500
X2244250Y1429750
X2232750Y1413500
X2248750Y1393250
X2250250Y1372750
X2205750Y1379250
X2192500Y1388500
X2170938Y1395476
X2207768Y1437894
X2231500Y1464000
X2270750Y1462500
X2313500Y1458750
X2313250Y1471750
X2307750Y1505250
X2314000Y1522000
X2321560Y1533800
X2319250Y1549500
X2307500Y1558750
X2310250Y1573250
X2315113Y1584327
X2338000Y1587000
X2374000Y1582250
X2338324Y1542796
X2272030Y1549400
X2267000Y1571500
X2254250Y1564640
X2242820Y1562100
X2244500Y1547500
X2229358Y1558798
X2236724Y1581658
X2251456Y1516126
X2269744Y1517396
X2323250Y1441000
X2313000Y1425250
X2337816Y1402588
X2324750Y1381000
X2365750Y1429500
X2350008Y1467612
X1941500Y1503250
X1947164Y1524508
X1906000Y1510750
X1904750Y1495000
X1905254Y1479804
X1898904Y1468120
X1871726Y1464310
X1871980Y1447800
X1860550Y1442212
X1834000Y1438500
X1835500Y1449250
X1843439Y1466050
X1841250Y1429000
X1827250Y1422250
X1826750Y1408250
X1827250Y1391250
X1841500Y1393000
X1833504Y1374780
X1840250Y1336000
X1832250Y1318250
X1790700Y1335532
X1735582Y1354074
X1709674Y1327404
X1698498Y1393190
X1631188Y1392682
X1630000Y1360000
X1646900Y1478836
X1634490Y1549146
X1602994Y1530604
X1798250Y1486500
X1832000Y1502000
X1838250Y1518500
X1877568Y1414018
X1899920Y1432560
X1906016Y1388618
X1940566Y1361440
X1945000Y1342750
X1899250Y1333500
X1905750Y1318750
X1944750Y1422750
X1797250Y1406750
X1636750Y1222000
X1561338Y1224026
X1549654Y1296670
X1535000Y1366750
X1535500Y1381250
X1535250Y1412500
X1501750Y1400000
X1492500Y1403750
X1491500Y1420000
X1493250Y1437000
X1479042Y1391412
X1502250Y1384000
X1502750Y1359000
X1473500Y1364250
X1425500Y1364500
X1433500Y1378250
X1423670Y1390650
X1424250Y1405750
X1389250Y1414500
X1387602Y1447292
X1433000Y1462500
X1424690Y1503220
X1443736Y1527810
X1512062Y1520698
X1529334Y1528826
X1482598Y1581658
X1386500Y1551000
X1385372Y1348430
X1379301Y1266190
X1350010Y1249680
X1326896Y1255522
X1312926Y1260602
X1279398Y1296670
X1330198Y1391158
X1425702Y1234948
X1451273Y1213187
X945500Y1245250
X931250Y1304750
X904750Y1285000
Y1381250
X932000Y1381500
X949750Y1453250
X904250Y1520750
X931750Y1585250
X1031500Y1585500
X1105750Y1475250
X828500Y1382000
X818000Y1585500
X909774Y1867154
X1214120Y1878330
X1312418Y1880870
X1352804Y1893570
X1364750Y1902000
X1366500Y1868250
X1353500Y1868500
Y1858750
X1346750Y1839250
X1358250Y1836250
X1366250Y1844750
X1343500Y1819250
X1331976Y1810258
X1323086Y1786636
X1312245Y1793494
X1301496Y1783842
X1352804Y1782572
X1368806Y1785112
X1369314Y1775460
X1376370Y1748920
X1370694Y1714500
X1404750Y1715262
X1414500Y1726500
X1435862Y1721358
X1428000Y1703750
X1449000Y1703250
X1454571Y1690332
X1461722Y1676448
X1476250Y1678000
X1476967Y1692686
X1490500Y1682000
X1513000Y1700250
X1522730Y1662684
X1548384Y1634744
X1568750Y1606250
X1559306Y1702308
X1561630Y1771358
X1575250Y1776000
X1574500Y1799250
X1580250Y1813750
X1580896Y1834896
X1569974Y1826620
X1555750Y1852168
X1579372Y1869440
X1577848Y1883156
X1569720Y1880616
X1575600Y1899412
X1579000Y1917250
X1510792Y1917446
X1499000Y1934750
X1503750Y1977250
X1545000Y1978000
X1529000Y1889500
X1529588Y1867662
X1498750Y1847500
X1436878Y1869186
X1410500Y1889500
X1409500Y1902000
X1418250Y1911500
X1423750Y1937250
X1412500
X1394250Y1963500
X1365000Y1947250
X1351250Y1934500
X1323594Y1941322
X1435250Y1978750
X1471638Y1911896
X1473708Y1774432
X1449750Y1773250
X1430528Y1776222
X1422250Y1765000
X1409192Y1764792
X1404750Y1778500
X1413750Y1809750
X1408684Y1829160
X1399032Y1676146
X1403604Y1612646
X1468882Y1709928
X1507490Y1763268
X1526250Y1766500
X1522250Y1779500
X1540256Y1772666
X1230884Y1759712
X1592580Y1753362
X1591818Y1721104
X1632000Y1764250
X1651762Y1775968
X1615948Y1846620
Y1876298
X1615706Y1884680
X1636522Y1877568
X1630426Y1869948
X1670558Y1871472
X1692910Y1885188
X1678686Y1943862
X1642110Y1932940
X1625600Y1924050
X1634714Y1952244
X1607566Y1949704
X1613154Y1960545
X1611884Y1971548
X1796000Y1912750
X1955038Y1928876
X1974342Y1685798
X1784096Y1603502
X1725168Y1595374
X2045208Y1614932
X2101062Y1652550
X2170684Y1651762
X2208784Y1613154
X2224494Y1618704
X2245861Y1606631
X2264750Y1596250
X2281936Y1597914
X2281428Y1618996
X2309750Y1621500
X2309368Y1608328
X2313686Y1596644
X2324608Y1618742
X2337750Y1619250
X2351786Y1622044
X2366772Y1624076
X2367026Y1634744
X2356104Y1637284
X2341750Y1634750
X2362750Y1673750
X2361750Y1692500
X2314250Y1673750
X2275840Y1675638
X2314702Y1836166
X2298700Y1931924
X2278634Y1925574
X2204750Y1914250
X2196500Y1973750
X2085594Y1973834
X2075180Y1971548
X2042750Y1943750
X2046000Y1903250
X2001266Y1899412
X2015750Y1974000
X2049750Y1845500
X2059940Y1834134
X2090674Y1841754
X2101596Y1829562
X2110486Y1885334
X2150500Y1859750
X2167250
X2171750Y1845750
X2387500Y1929000
X2388870Y1958340
X2386360Y1975930
X2416556Y1939036
X2426970
X2426208Y1916176
X2458212Y1924304
X2452895Y1938020
X2469388Y1950212
X2497750Y1954000
X2496566Y1964944
X2499500Y1980000
X2531500Y1981500
X2530094Y1965390
X2498598Y1941322
X2559000Y1935750
X2548750Y1908250
X2570860Y1876827
X2569710Y1829562
X2564130Y1815084
X2590800Y1805648
X2603500Y1822450
X2591054Y1845310
X2598420Y1780540
X2548250Y1773500
X2554224Y1764792
X2550414Y1753779
X2536000Y1735500
X2541270Y1702308
X2542250Y1686500
X2536000Y1676750
X2527750Y1682750
X2504948Y1684274
X2494026Y1673352
X2477500Y1680000
X2452250Y1680250
X2458250Y1694250
X2449370Y1698333
X2457250Y1708250
X2485136Y1710182
X2498250Y1721750
X2497836Y1747774
X2504694Y1763522
X2504941Y1806963
X2521289Y1800098
X2479548Y1810004
X2469678Y1844512
X2482558Y1858010
X2512314Y1852930
X2512500Y1868250
X2648458Y1885442
X2668524Y1842554
X2694158Y1865886
X2694250Y1913750
X2681732Y1921002
X2685034Y1932432
X2707894Y1937766
X2707076Y1924304
X2703764Y1952498
X2703750Y1974000
X2743750Y1982500
X2751328Y1953006
X2771648Y1882394
X2766098Y1765338
X2740914Y1763014
X2742184Y1778762
X2716908Y1778636
X2649728Y1742186
X2657250Y1610000
X2577846Y1599438
X2576576Y1588800
X2557000Y1592500
X2558500Y1602750
X2557000Y1638500
X2572258Y1634490
X2597930Y1646420
X2543250Y1645000
X2527554Y1642618
X2510536Y1645666
X2496500Y1642750
X2482342Y1646174
X2474722Y1637538
X2464308Y1646936
X2439162Y1672082
X2412170Y1674640
X2412500Y1645000
X2408000Y1626250
X2427224Y1609852
X2381750Y1643000
X2387250Y1689000
X2386500Y1721750
X2422250Y1700750
X2518873Y1630330
X2513750Y1595750
X2735326Y1639062
X2613739Y1935730
X2603754Y1958086
X2591054Y1965390
X2579878Y1956054
X2817000Y1965000
X2812750Y1931000
X2822194Y1918660
X2861818Y1943862
X2799155Y1876827
X2812034Y1824258
X2815250Y1992000
X2798500Y2026750
X2705000Y2015250
X2687828Y2013712
X2671008Y2007870
X2663642Y2000504
X2663698Y2064004
X2690876Y2050542
X2700782Y2054660
X2596604Y2040928
X2612644Y2013712
X2590546Y2000504
X2536250Y2029500
X2500884Y2000758
X2474214
X2428500Y1994250
X2419604Y2007870
X2433990Y2021370
X2425946Y2050542
X2431542Y2078990
X2452750Y2060000
X2382500Y2027500
X2375250Y2013500
X2002790Y2054860
X1766500Y2187000
X1745250Y2342750
X1600000Y2339250
X1508250Y2327750
X1343500Y2340250
X1246000Y2339500
X1395222Y2003044
X1494500Y1993000
X968000Y2146000
X968500Y2172000
X763250Y2204000
X725500Y2279500
X777964Y2366120
X689250Y2132250
X562500Y2184500
X795500Y2384750
X795000Y2398250
X803500Y2412000
X842750Y2405750
X1318750Y2385500
X1420250Y2384750
X1516500Y2384250
X1552500Y2567500
X1348750Y2566000
X1638000Y2384750
T02
X684530Y865270
X689610Y1093870
X994410
Y865270
Y1297070
Y1500270
X689610
Y1297070
T04
X684530Y915270
X689610Y1143870
X994410
Y915270
Y1347070
Y1550270
X689610
Y1347070
T05
X588010Y890270
X613410
Y1118870
X588010
X1670050Y1032510
X1695450
X1720850
Y1007110
X1695450
X1670050
X1771650Y942340
Y916940
X1808480Y1090930
X1833880
X1859280
X1889760
X1915160
X1940560
X1971040
X1996440
X2021840
X2052320
X2077720
X2103120
X2133600
X2159000
X2184400
X2214880
X2240280
X2265680
X2296160
X2321560
X2346960
X2379980Y1093470
X2217420Y966470
X2192020
X2166620
X2136140
X2110740
X2085340
X2054860
X2029460
X2004060
X2405380Y1093470
X2430780
X2692400Y908050
Y882650
Y857250
X2743200Y858520
Y883920
Y909320
X2794000
Y883920
Y858520
X2818130Y814070
X2843530
X2868930
X1675130Y1210310
X1649730
Y1235710
X1624330
Y1210310
X1598930
Y1235710
X1675130
X1670050Y1565910
X1695450
X1644650
X1619250
X1593850
X1568450
X1543050
X1517650
X1492250
X1466850
X1441450
X1416050
X1390650
X1365250
X1339850
X1314450
X1289050
X1263650
X1238250
X1254760Y1234440
Y1209040
X1280160
Y1234440
X1305560
Y1209040
X1330960
Y1234440
X1356360
Y1209040
X1381760
Y1234440
X1471930Y1235710
X1497330
X1522730
X1548130
X1573530
Y1210310
X1548130
X1522730
X1497330
X1471930
X613410Y1322070
X588010
Y1525270
X613410
X704850Y1789230
X730250
X755650
X781050
X806450
X831850
X857250
X882650
X908050
X933450
X958850
X1187450Y1980630
X1238250Y1591310
X1263650
X1289050
X1314450
X1339850
X1365250
X1390650
X1416050
X1441450
X1466850
X1492250
X1517650
X1543050
X1568450
X1593850
X1619250
X1644650
X1670050
X1695450
X1757680Y1981200
X1806480
X1981200Y1971040
Y1940560
Y1915160
Y1889760
Y1854200
Y1828800
X2042160Y2032000
Y2057400
X2067560
Y2032000
X2092960
Y2057400
X2118360
Y2032000
X2143760
Y2057400
X2169160
Y2032000
X2194560
Y2057400
X1981200Y1996440
X1805940Y2108200
X1780540
X1755140
X1729740
X1704340
Y2133600
X1729740
X1755140
X1780540
X1805940
X1635760Y2161540
Y2186940
X1610360
Y2161540
X1584960
Y2186940
X1559560
Y2161540
X1498600
Y2186940
X1473200
Y2161540
X1447800
Y2186940
X1422400
Y2161540
X1341120
Y2186940
X1315720
Y2161540
X1290320
Y2186940
X1264920
Y2161540
X1187450Y2082230
Y2056830
Y2031430
Y2006030
X1096010Y2160270
Y2185670
Y2211070
X1045210Y2185670
Y2160270
X958850Y2094230
X933450
X908050
X882650
X857250
X831850
X806450
X991870Y2338070
Y2363470
X1017270
Y2338070
X781050Y2094230
X755650
X730250
X704850
X991870Y2388870
Y2414270
X1017270
Y2388870
T06
X791210Y890270
Y1118870
X816610
X842010
Y890270
X816610
X2077530
X2100430
X2123330
X2146230
X2169130
X2157730Y915670
X2134830
X2111930
X2089030
X2066130
X2089030Y864870
X2111930
X2134830
X2157730
X842010Y1322070
X816610
Y1525270
X842010
X791210
Y1322070
T07
X602770Y2372720
X631170Y2358870
Y2386570
Y2414270
Y2441970
Y2469670
X602770Y2455820
Y2428120
Y2400420
T08
X2066130Y864870
T09
X1988530Y890270
X2237730
T10
X616970Y2289320
Y2539220
T11
X1673450Y839470
X1717450
M30
