%FSLAX44Y44*%
%MOMM*%
G71*
G01*
G75*
%ADD10R,2.0000X1.8000*%
%ADD11R,2.0000X3.5000*%
%ADD12R,1.5000X2.0000*%
%ADD13R,1.2000X2.0000*%
%ADD14R,1.0000X2.0000*%
%ADD15R,0.7000X2.0000*%
%ADD16O,2.1000X0.4500*%
%ADD17R,1.7000X1.1000*%
%ADD18R,2.0000X3.3000*%
%ADD19R,2.0000X2.5000*%
%ADD20R,0.5000X3.1000*%
%ADD21O,0.2500X1.5500*%
%ADD22O,1.5500X0.2500*%
%ADD23O,1.7000X0.3500*%
%ADD24R,1.5500X0.5500*%
%ADD25R,1.2000X1.2000*%
%ADD26R,2.1000X1.4000*%
%ADD27O,2.5400X0.3000*%
%ADD28O,0.3000X2.5400*%
%ADD29R,1.5500X0.4500*%
%ADD30R,1.1000X1.7000*%
%ADD31R,1.4000X2.1000*%
%ADD32R,1.2000X1.2000*%
%ADD33C,0.1500*%
%ADD34C,1.5240*%
%ADD35C,4.5000*%
%ADD36R,1.6000X1.6000*%
%ADD37C,1.6000*%
%ADD38C,1.6900*%
%ADD39R,1.6900X1.6900*%
%ADD40C,4.7600*%
%ADD41O,1.5240X4.3180*%
%ADD42O,4.0640X1.5240*%
%ADD43O,1.5240X4.0640*%
%ADD44C,1.5000*%
%ADD45R,1.5000X1.5000*%
%ADD46R,1.5000X1.5000*%
%ADD47C,1.2000*%
%ADD48R,1.2500X1.2500*%
%ADD49C,1.3500*%
%ADD50C,0.7100*%
%ADD51C,1.0160*%
%ADD52C,0.2540*%
%ADD53C,2.0160*%
%ADD54C,2.2060*%
%ADD55C,4.2160*%
%ADD56C,1.9160*%
%ADD57C,2.0160*%
G04:AMPARAMS|DCode=58|XSize=2.524mm|YSize=2.524mm|CornerRadius=0mm|HoleSize=0mm|Usage=FLASHONLY|Rotation=0.000|XOffset=0mm|YOffset=0mm|HoleType=Round|Shape=Relief|Width=0.254mm|Gap=0.254mm|Entries=4|*
%AMTHD58*
7,0,0,2.5240,2.0160,0.2540,45*
%
%ADD58THD58*%
G04:AMPARAMS|DCode=59|XSize=2.424mm|YSize=2.424mm|CornerRadius=0mm|HoleSize=0mm|Usage=FLASHONLY|Rotation=0.000|XOffset=0mm|YOffset=0mm|HoleType=Round|Shape=Relief|Width=0.254mm|Gap=0.254mm|Entries=4|*
%AMTHD59*
7,0,0,2.4240,1.9160,0.2540,45*
%
%ADD59THD59*%
%ADD60C,2.1060*%
%ADD61C,4.2760*%
%AMTHOVALD62*
21,1,2.7940,2.2860,0,0,270.0*
1,1,2.2860,0.0000,1.3970*
1,1,2.2860,0.0000,-1.3970*
21,0,2.7940,1.7780,0,0,270.0*
1,0,1.7780,0.0000,1.3970*
1,0,1.7780,0.0000,-1.3970*
4,0,4,-0.0898,1.3072,-0.8980,2.1154,-0.7184,2.2950,0.0898,1.4868,-0.0898,1.3072,0.0*
4,0,4,-0.0898,-1.4868,0.7184,-2.2950,0.8980,-2.1154,0.0898,-1.3072,-0.0898,-1.4868,0.0*
4,0,4,-0.0898,1.4868,0.7184,2.2950,0.8980,2.1154,0.0898,1.3072,-0.0898,1.4868,0.0*
4,0,4,-0.0898,-1.3072,-0.8980,-2.1154,-0.7184,-2.2950,0.0898,-1.4868,-0.0898,-1.3072,0.0*
%
%ADD62THOVALD62*%

%ADD63O,4.3180X1.7780*%
%ADD64O,1.7780X4.3180*%
%ADD65C,1.9160*%
G04:AMPARAMS|DCode=66|XSize=2.424mm|YSize=2.424mm|CornerRadius=0mm|HoleSize=0mm|Usage=FLASHONLY|Rotation=0.000|XOffset=0mm|YOffset=0mm|HoleType=Round|Shape=Relief|Width=0.254mm|Gap=0.254mm|Entries=4|*
%AMTHD66*
7,0,0,2.4240,1.9160,0.2540,45*
%
%ADD66THD66*%
%ADD67C,1.7660*%
%ADD68C,1.8160*%
G04:AMPARAMS|DCode=69|XSize=2.274mm|YSize=2.274mm|CornerRadius=0mm|HoleSize=0mm|Usage=FLASHONLY|Rotation=0.000|XOffset=0mm|YOffset=0mm|HoleType=Round|Shape=Relief|Width=0.254mm|Gap=0.254mm|Entries=4|*
%AMTHD69*
7,0,0,2.2740,1.7660,0.2540,45*
%
%ADD69THD69*%
G04:AMPARAMS|DCode=70|XSize=1.824mm|YSize=1.824mm|CornerRadius=0mm|HoleSize=0mm|Usage=FLASHONLY|Rotation=0.000|XOffset=0mm|YOffset=0mm|HoleType=Round|Shape=Relief|Width=0.254mm|Gap=0.254mm|Entries=4|*
%AMTHD70*
7,0,0,1.8240,1.3160,0.2540,45*
%
%ADD70THD70*%
%ADD71C,1.3160*%
G04:AMPARAMS|DCode=72|XSize=2.524mm|YSize=2.524mm|CornerRadius=0mm|HoleSize=0mm|Usage=FLASHONLY|Rotation=0.000|XOffset=0mm|YOffset=0mm|HoleType=Round|Shape=Relief|Width=0.254mm|Gap=0.254mm|Entries=4|*
%AMTHD72*
7,0,0,2.5240,2.0160,0.2540,45*
%
%ADD72THD72*%
G04:AMPARAMS|DCode=73|XSize=2.614mm|YSize=2.614mm|CornerRadius=0mm|HoleSize=0mm|Usage=FLASHONLY|Rotation=0.000|XOffset=0mm|YOffset=0mm|HoleType=Round|Shape=Relief|Width=0.254mm|Gap=0.254mm|Entries=4|*
%AMTHD73*
7,0,0,2.6140,2.1060,0.2540,45*
%
%ADD73THD73*%
G04:AMPARAMS|DCode=74|XSize=4.784mm|YSize=4.784mm|CornerRadius=0mm|HoleSize=0mm|Usage=FLASHONLY|Rotation=0.000|XOffset=0mm|YOffset=0mm|HoleType=Round|Shape=Relief|Width=0.254mm|Gap=0.254mm|Entries=4|*
%AMTHD74*
7,0,0,4.7840,4.2760,0.2540,45*
%
%ADD74THD74*%
%ADD75O,1.7780X4.5720*%
%AMTHOVALD76*
21,1,2.5400,2.2860,0,0,180.0*
1,1,2.2860,1.2700,0.0000*
1,1,2.2860,-1.2700,0.0000*
21,0,2.5400,1.7780,0,0,180.0*
1,0,1.7780,1.2700,0.0000*
1,0,1.7780,-1.2700,0.0000*
4,0,4,1.1802,0.0898,1.9884,0.8980,2.1680,0.7184,1.3598,-0.0898,1.1802,0.0898,0.0*
4,0,4,-1.3598,0.0898,-2.1680,-0.7184,-1.9884,-0.8980,-1.1802,-0.0898,-1.3598,0.0898,0.0*
4,0,4,1.3598,0.0898,2.1680,-0.7184,1.9884,-0.8980,1.1802,-0.0898,1.3598,0.0898,0.0*
4,0,4,-1.1802,0.0898,-1.9884,0.8980,-2.1680,0.7184,-1.3598,-0.0898,-1.1802,0.0898,0.0*
%
%ADD76THOVALD76*%

%AMTHOVALD77*
21,1,2.5400,2.2860,0,0,90.0*
1,1,2.2860,0.0000,-1.2700*
1,1,2.2860,0.0000,1.2700*
21,0,2.5400,1.7780,0,0,90.0*
1,0,1.7780,0.0000,-1.2700*
1,0,1.7780,0.0000,1.2700*
4,0,4,0.0898,-1.1802,0.8980,-1.9884,0.7184,-2.1680,-0.0898,-1.3598,0.0898,-1.1802,0.0*
4,0,4,0.0898,1.3598,-0.7184,2.1680,-0.8980,1.9884,-0.0898,1.1802,0.0898,1.3598,0.0*
4,0,4,0.0898,-1.3598,-0.7184,-2.1680,-0.8980,-1.9884,-0.0898,-1.1802,0.0898,-1.3598,0.0*
4,0,4,0.0898,1.1802,0.8980,1.9884,0.7184,2.1680,-0.0898,1.3598,0.0898,1.1802,0.0*
%
%ADD77THOVALD77*%

G04:AMPARAMS|DCode=78|XSize=2.324mm|YSize=2.324mm|CornerRadius=0mm|HoleSize=0mm|Usage=FLASHONLY|Rotation=0.000|XOffset=0mm|YOffset=0mm|HoleType=Round|Shape=Relief|Width=0.254mm|Gap=0.254mm|Entries=4|*
%AMTHD78*
7,0,0,2.3240,1.8160,0.2540,45*
%
%ADD78THD78*%
D10*
X2877820Y858520D02*
D03*
X2835820D02*
D03*
Y909320D02*
D03*
X2877820D02*
D03*
D11*
X1268160Y828070D02*
D03*
Y1043070D02*
D03*
X1546660Y828070D02*
D03*
X1524660Y1043070D02*
D03*
D12*
X1502410Y1068070D02*
D03*
X1477410D02*
D03*
X1452410D02*
D03*
X1427410D02*
D03*
X1402410D02*
D03*
X1377410D02*
D03*
X1352410D02*
D03*
D13*
X1328160D02*
D03*
D14*
X1311160D02*
D03*
D15*
X1298160D02*
D03*
X1286160D02*
D03*
D16*
X823170Y2366120D02*
D03*
Y2372620D02*
D03*
Y2379120D02*
D03*
Y2385620D02*
D03*
Y2392120D02*
D03*
Y2398620D02*
D03*
Y2405120D02*
D03*
Y2411620D02*
D03*
X754170Y2366120D02*
D03*
Y2372620D02*
D03*
Y2379120D02*
D03*
Y2385620D02*
D03*
Y2392120D02*
D03*
Y2398620D02*
D03*
Y2405120D02*
D03*
Y2411620D02*
D03*
D17*
X613410Y2173770D02*
D03*
Y2146770D02*
D03*
X746760Y2475700D02*
D03*
Y2502700D02*
D03*
X711200Y2475700D02*
D03*
Y2502700D02*
D03*
X944880Y2172500D02*
D03*
Y2145500D02*
D03*
X994410Y2173770D02*
D03*
Y2146770D02*
D03*
X1692910Y950760D02*
D03*
Y923760D02*
D03*
X1718310Y950760D02*
D03*
Y923760D02*
D03*
X1645920Y2261400D02*
D03*
Y2234400D02*
D03*
X1554480Y2261400D02*
D03*
Y2234400D02*
D03*
X1508760Y2261400D02*
D03*
Y2234400D02*
D03*
X1600200Y2261400D02*
D03*
Y2234400D02*
D03*
X1270000Y2261400D02*
D03*
Y2234400D02*
D03*
X1224280Y2261400D02*
D03*
Y2234400D02*
D03*
X1315720Y2261400D02*
D03*
Y2234400D02*
D03*
X1366520Y2261400D02*
D03*
Y2234400D02*
D03*
X2024380Y1019010D02*
D03*
Y1046010D02*
D03*
X2105660Y1019010D02*
D03*
Y1046010D02*
D03*
X2131060Y1019010D02*
D03*
Y1046010D02*
D03*
X2186940Y1019010D02*
D03*
Y1046010D02*
D03*
X2217420Y1019010D02*
D03*
Y1046010D02*
D03*
X2512060Y1019010D02*
D03*
Y1046010D02*
D03*
X2379980Y1019010D02*
D03*
Y1046010D02*
D03*
X2049780Y1019010D02*
D03*
Y1046010D02*
D03*
X2430780Y1019010D02*
D03*
Y1046010D02*
D03*
X2476500Y1019010D02*
D03*
Y1046010D02*
D03*
X2293620Y1019010D02*
D03*
Y1046010D02*
D03*
X1859280Y1017740D02*
D03*
Y1044740D02*
D03*
X1887220Y1019010D02*
D03*
Y1046010D02*
D03*
X2349500Y1019010D02*
D03*
Y1046010D02*
D03*
X2268220Y1019010D02*
D03*
Y1046010D02*
D03*
X1943100Y1019010D02*
D03*
Y1046010D02*
D03*
X1808480Y1017740D02*
D03*
Y1044740D02*
D03*
X1968500Y1046010D02*
D03*
Y1019010D02*
D03*
X737870Y2326170D02*
D03*
Y2299170D02*
D03*
X712470Y2326170D02*
D03*
Y2299170D02*
D03*
D18*
X1739948Y868469D02*
D03*
X1650949D02*
D03*
D19*
Y809470D02*
D03*
X1739948D02*
D03*
D20*
X1711449Y869470D02*
D03*
X1703448D02*
D03*
X1695450D02*
D03*
X1687449D02*
D03*
X1679448D02*
D03*
D21*
X2314710Y1659550D02*
D03*
X2319710D02*
D03*
X2324710D02*
D03*
X2329710D02*
D03*
X2334710D02*
D03*
X2339710D02*
D03*
X2344710D02*
D03*
X2349710D02*
D03*
X2354710D02*
D03*
X2359710D02*
D03*
X2364710D02*
D03*
X2369710D02*
D03*
X2374710D02*
D03*
X2379710D02*
D03*
X2384710D02*
D03*
X2389710D02*
D03*
X2394710D02*
D03*
X2399710D02*
D03*
X2404710D02*
D03*
X2409710D02*
D03*
X2414710D02*
D03*
X2419710D02*
D03*
X2424710D02*
D03*
X2429710D02*
D03*
X2434710D02*
D03*
X2439710D02*
D03*
X2444710D02*
D03*
X2449710D02*
D03*
X2454710D02*
D03*
X2459710D02*
D03*
X2464710D02*
D03*
X2469710D02*
D03*
X2474710D02*
D03*
X2479710D02*
D03*
X2484710D02*
D03*
X2489710D02*
D03*
X2494710D02*
D03*
X2499710D02*
D03*
X2504710D02*
D03*
X2509710D02*
D03*
X2514710D02*
D03*
X2519710D02*
D03*
X2524710D02*
D03*
X2529710D02*
D03*
X2534710D02*
D03*
X2539710D02*
D03*
X2544710D02*
D03*
X2549710D02*
D03*
X2554710D02*
D03*
X2559710D02*
D03*
X2564710D02*
D03*
X2569710D02*
D03*
Y1363050D02*
D03*
X2564710D02*
D03*
X2559710D02*
D03*
X2554710D02*
D03*
X2549710D02*
D03*
X2544710D02*
D03*
X2539710D02*
D03*
X2534710D02*
D03*
X2529710D02*
D03*
X2524710D02*
D03*
X2519710D02*
D03*
X2514710D02*
D03*
X2509710D02*
D03*
X2504710D02*
D03*
X2499710D02*
D03*
X2494710D02*
D03*
X2489710D02*
D03*
X2484710D02*
D03*
X2479710D02*
D03*
X2474710D02*
D03*
X2469710D02*
D03*
X2464710D02*
D03*
X2459710D02*
D03*
X2454710D02*
D03*
X2449710D02*
D03*
X2444710D02*
D03*
X2439710D02*
D03*
X2434710D02*
D03*
X2429710D02*
D03*
X2424710D02*
D03*
X2419710D02*
D03*
X2414710D02*
D03*
X2409710D02*
D03*
X2404710D02*
D03*
X2399710D02*
D03*
X2394710D02*
D03*
X2389710D02*
D03*
X2384710D02*
D03*
X2379710D02*
D03*
X2374710D02*
D03*
X2369710D02*
D03*
X2364710D02*
D03*
X2359710D02*
D03*
X2354710D02*
D03*
X2349710D02*
D03*
X2344710D02*
D03*
X2339710D02*
D03*
X2334710D02*
D03*
X2329710D02*
D03*
X2324710D02*
D03*
X2319710D02*
D03*
X2314710D02*
D03*
D22*
X2590460Y1638800D02*
D03*
Y1633800D02*
D03*
Y1628800D02*
D03*
Y1623800D02*
D03*
Y1618800D02*
D03*
Y1613800D02*
D03*
Y1608800D02*
D03*
Y1603800D02*
D03*
Y1598800D02*
D03*
Y1593800D02*
D03*
Y1588800D02*
D03*
Y1583800D02*
D03*
Y1578800D02*
D03*
Y1573800D02*
D03*
Y1568800D02*
D03*
Y1563800D02*
D03*
Y1558800D02*
D03*
Y1553800D02*
D03*
Y1548800D02*
D03*
Y1543800D02*
D03*
Y1538800D02*
D03*
Y1533800D02*
D03*
Y1528800D02*
D03*
Y1523800D02*
D03*
Y1518800D02*
D03*
Y1513800D02*
D03*
Y1508800D02*
D03*
Y1503800D02*
D03*
Y1498800D02*
D03*
Y1493800D02*
D03*
Y1488800D02*
D03*
Y1483800D02*
D03*
Y1478800D02*
D03*
Y1473800D02*
D03*
Y1468800D02*
D03*
Y1463800D02*
D03*
Y1458800D02*
D03*
Y1453800D02*
D03*
Y1448800D02*
D03*
Y1443800D02*
D03*
Y1438800D02*
D03*
Y1433800D02*
D03*
Y1428800D02*
D03*
Y1423800D02*
D03*
Y1418800D02*
D03*
Y1413800D02*
D03*
Y1408800D02*
D03*
Y1403800D02*
D03*
Y1398800D02*
D03*
Y1393800D02*
D03*
Y1388800D02*
D03*
Y1383800D02*
D03*
X2293960D02*
D03*
Y1388800D02*
D03*
Y1393800D02*
D03*
Y1398800D02*
D03*
Y1403800D02*
D03*
Y1408800D02*
D03*
Y1413800D02*
D03*
Y1418800D02*
D03*
Y1423800D02*
D03*
Y1428800D02*
D03*
Y1433800D02*
D03*
Y1438800D02*
D03*
Y1443800D02*
D03*
Y1448800D02*
D03*
Y1453800D02*
D03*
Y1458800D02*
D03*
Y1463800D02*
D03*
Y1468800D02*
D03*
Y1473800D02*
D03*
Y1478800D02*
D03*
Y1483800D02*
D03*
Y1488800D02*
D03*
Y1493800D02*
D03*
Y1498800D02*
D03*
Y1503800D02*
D03*
Y1508800D02*
D03*
Y1513800D02*
D03*
Y1518800D02*
D03*
Y1523800D02*
D03*
Y1528800D02*
D03*
Y1533800D02*
D03*
Y1538800D02*
D03*
Y1543800D02*
D03*
Y1548800D02*
D03*
Y1553800D02*
D03*
Y1558800D02*
D03*
Y1563800D02*
D03*
Y1568800D02*
D03*
Y1573800D02*
D03*
Y1578800D02*
D03*
Y1583800D02*
D03*
Y1588800D02*
D03*
Y1593800D02*
D03*
Y1598800D02*
D03*
Y1603800D02*
D03*
Y1608800D02*
D03*
Y1613800D02*
D03*
Y1618800D02*
D03*
Y1623800D02*
D03*
Y1628800D02*
D03*
Y1633800D02*
D03*
Y1638800D02*
D03*
D23*
X2028900Y1959650D02*
D03*
Y1953150D02*
D03*
Y1946650D02*
D03*
Y1940150D02*
D03*
Y1933650D02*
D03*
Y1927150D02*
D03*
Y1920650D02*
D03*
Y1914150D02*
D03*
Y1907650D02*
D03*
Y1901150D02*
D03*
X2085900Y1959650D02*
D03*
Y1953150D02*
D03*
Y1946650D02*
D03*
Y1940150D02*
D03*
Y1933650D02*
D03*
Y1927150D02*
D03*
Y1920650D02*
D03*
Y1914150D02*
D03*
Y1907650D02*
D03*
Y1901150D02*
D03*
D24*
X1924170Y1310780D02*
D03*
Y1318780D02*
D03*
Y1326780D02*
D03*
Y1334780D02*
D03*
Y1342780D02*
D03*
Y1350780D02*
D03*
Y1358780D02*
D03*
Y1366780D02*
D03*
Y1374780D02*
D03*
Y1382780D02*
D03*
Y1390780D02*
D03*
Y1398780D02*
D03*
Y1406780D02*
D03*
Y1414780D02*
D03*
Y1422780D02*
D03*
Y1430780D02*
D03*
Y1438780D02*
D03*
Y1446780D02*
D03*
Y1454780D02*
D03*
Y1462780D02*
D03*
Y1470780D02*
D03*
Y1478780D02*
D03*
Y1486780D02*
D03*
Y1494780D02*
D03*
Y1502780D02*
D03*
Y1510780D02*
D03*
Y1518780D02*
D03*
X1812170Y1310780D02*
D03*
Y1318780D02*
D03*
Y1326780D02*
D03*
Y1334780D02*
D03*
Y1342780D02*
D03*
Y1350780D02*
D03*
Y1358780D02*
D03*
Y1366780D02*
D03*
Y1374780D02*
D03*
Y1382780D02*
D03*
Y1390780D02*
D03*
Y1398780D02*
D03*
Y1406780D02*
D03*
Y1414780D02*
D03*
Y1422780D02*
D03*
Y1430780D02*
D03*
Y1438780D02*
D03*
Y1446780D02*
D03*
Y1454780D02*
D03*
Y1462780D02*
D03*
Y1470780D02*
D03*
Y1478780D02*
D03*
Y1486780D02*
D03*
Y1494780D02*
D03*
Y1502780D02*
D03*
Y1510780D02*
D03*
Y1518780D02*
D03*
D25*
X1085510Y1525270D02*
D03*
X1106510D02*
D03*
X1085510Y890270D02*
D03*
X1106510D02*
D03*
X1085510Y1118870D02*
D03*
X1106510D02*
D03*
X1085510Y1322070D02*
D03*
X1106510D02*
D03*
D26*
X801810Y2184950D02*
D03*
X892810D02*
D03*
Y2139950D02*
D03*
X801810D02*
D03*
D27*
X1598250Y1939160D02*
D03*
Y1934160D02*
D03*
Y1929160D02*
D03*
Y1924160D02*
D03*
Y1919160D02*
D03*
Y1914160D02*
D03*
Y1909160D02*
D03*
Y1904160D02*
D03*
Y1899160D02*
D03*
Y1894160D02*
D03*
Y1889160D02*
D03*
Y1884160D02*
D03*
Y1879160D02*
D03*
Y1874160D02*
D03*
Y1869160D02*
D03*
Y1864160D02*
D03*
Y1859160D02*
D03*
Y1854160D02*
D03*
Y1849160D02*
D03*
Y1844160D02*
D03*
Y1839160D02*
D03*
Y1834160D02*
D03*
Y1829160D02*
D03*
Y1824160D02*
D03*
Y1819160D02*
D03*
Y1814160D02*
D03*
Y1809160D02*
D03*
Y1804160D02*
D03*
Y1799160D02*
D03*
Y1794160D02*
D03*
Y1789160D02*
D03*
Y1784160D02*
D03*
Y1779160D02*
D03*
Y1774160D02*
D03*
Y1769160D02*
D03*
Y1764160D02*
D03*
X1386250D02*
D03*
Y1769160D02*
D03*
Y1774160D02*
D03*
Y1779160D02*
D03*
Y1784160D02*
D03*
Y1789160D02*
D03*
Y1794160D02*
D03*
Y1799160D02*
D03*
Y1804160D02*
D03*
Y1809160D02*
D03*
Y1814160D02*
D03*
Y1819160D02*
D03*
Y1824160D02*
D03*
Y1829160D02*
D03*
Y1834160D02*
D03*
Y1839160D02*
D03*
Y1844160D02*
D03*
Y1849160D02*
D03*
Y1854160D02*
D03*
Y1859160D02*
D03*
Y1864160D02*
D03*
Y1869160D02*
D03*
Y1874160D02*
D03*
Y1879160D02*
D03*
Y1884160D02*
D03*
Y1889160D02*
D03*
Y1894160D02*
D03*
Y1899160D02*
D03*
Y1904160D02*
D03*
Y1909160D02*
D03*
Y1914160D02*
D03*
Y1919160D02*
D03*
Y1924160D02*
D03*
Y1929160D02*
D03*
Y1934160D02*
D03*
Y1939160D02*
D03*
D28*
X1579750Y1745660D02*
D03*
X1574750D02*
D03*
X1569750D02*
D03*
X1564750D02*
D03*
X1559750D02*
D03*
X1554750D02*
D03*
X1549750D02*
D03*
X1544750D02*
D03*
X1539750D02*
D03*
X1534750D02*
D03*
X1529750D02*
D03*
X1524750D02*
D03*
X1519750D02*
D03*
X1514750D02*
D03*
X1509750D02*
D03*
X1504750D02*
D03*
X1499750D02*
D03*
X1494750D02*
D03*
X1489750D02*
D03*
X1484750D02*
D03*
X1479750D02*
D03*
X1474750D02*
D03*
X1469750D02*
D03*
X1464750D02*
D03*
X1459750D02*
D03*
X1454750D02*
D03*
X1449750D02*
D03*
X1444750D02*
D03*
X1439750D02*
D03*
X1434750D02*
D03*
X1429750D02*
D03*
X1424750D02*
D03*
X1419750D02*
D03*
X1414750D02*
D03*
X1409750D02*
D03*
X1404750D02*
D03*
Y1957660D02*
D03*
X1409750D02*
D03*
X1414750D02*
D03*
X1419750D02*
D03*
X1424750D02*
D03*
X1429750D02*
D03*
X1434750D02*
D03*
X1439750D02*
D03*
X1444750D02*
D03*
X1449750D02*
D03*
X1454750D02*
D03*
X1459750D02*
D03*
X1464750D02*
D03*
X1469750D02*
D03*
X1474750D02*
D03*
X1479750D02*
D03*
X1484750D02*
D03*
X1489750D02*
D03*
X1494750D02*
D03*
X1499750D02*
D03*
X1504750D02*
D03*
X1509750D02*
D03*
X1514750D02*
D03*
X1519750D02*
D03*
X1524750D02*
D03*
X1529750D02*
D03*
X1534750D02*
D03*
X1539750D02*
D03*
X1544750D02*
D03*
X1549750D02*
D03*
X1554750D02*
D03*
X1559750D02*
D03*
X1564750D02*
D03*
X1569750D02*
D03*
X1574750D02*
D03*
X1579750D02*
D03*
D29*
X1517770Y1324430D02*
D03*
Y1332430D02*
D03*
Y1340430D02*
D03*
Y1348430D02*
D03*
Y1356430D02*
D03*
Y1364430D02*
D03*
Y1372430D02*
D03*
Y1380430D02*
D03*
Y1388430D02*
D03*
Y1396430D02*
D03*
Y1404430D02*
D03*
Y1412430D02*
D03*
Y1420430D02*
D03*
Y1428430D02*
D03*
Y1436430D02*
D03*
Y1444430D02*
D03*
Y1452430D02*
D03*
Y1460430D02*
D03*
Y1468430D02*
D03*
Y1476430D02*
D03*
Y1484430D02*
D03*
Y1492430D02*
D03*
X1405770Y1324430D02*
D03*
Y1332430D02*
D03*
Y1340430D02*
D03*
Y1348430D02*
D03*
Y1356430D02*
D03*
Y1364430D02*
D03*
Y1372430D02*
D03*
Y1380430D02*
D03*
Y1388430D02*
D03*
Y1396430D02*
D03*
Y1404430D02*
D03*
Y1412430D02*
D03*
Y1420430D02*
D03*
Y1428430D02*
D03*
Y1436430D02*
D03*
Y1444430D02*
D03*
Y1452430D02*
D03*
Y1460430D02*
D03*
Y1468430D02*
D03*
Y1476430D02*
D03*
Y1484430D02*
D03*
Y1492430D02*
D03*
X2839840Y1079320D02*
D03*
Y1087320D02*
D03*
Y1095320D02*
D03*
Y1103320D02*
D03*
Y1111320D02*
D03*
Y1119320D02*
D03*
Y1127320D02*
D03*
Y1135320D02*
D03*
Y1143320D02*
D03*
Y1151320D02*
D03*
Y1159320D02*
D03*
Y1167320D02*
D03*
Y1175320D02*
D03*
Y1183320D02*
D03*
Y1191320D02*
D03*
Y1199320D02*
D03*
Y1207320D02*
D03*
Y1215320D02*
D03*
Y1223320D02*
D03*
Y1231320D02*
D03*
Y1239320D02*
D03*
Y1247320D02*
D03*
X2727840Y1079320D02*
D03*
Y1087320D02*
D03*
Y1095320D02*
D03*
Y1103320D02*
D03*
Y1111320D02*
D03*
Y1119320D02*
D03*
Y1127320D02*
D03*
Y1135320D02*
D03*
Y1143320D02*
D03*
Y1151320D02*
D03*
Y1159320D02*
D03*
Y1167320D02*
D03*
Y1175320D02*
D03*
Y1183320D02*
D03*
Y1191320D02*
D03*
Y1199320D02*
D03*
Y1207320D02*
D03*
Y1215320D02*
D03*
Y1223320D02*
D03*
Y1231320D02*
D03*
Y1239320D02*
D03*
Y1247320D02*
D03*
X2401450Y2061390D02*
D03*
Y2053390D02*
D03*
Y2045390D02*
D03*
Y2037390D02*
D03*
Y2029390D02*
D03*
Y2021390D02*
D03*
Y2013390D02*
D03*
Y2005390D02*
D03*
Y1997390D02*
D03*
Y1989390D02*
D03*
Y1981390D02*
D03*
Y1973390D02*
D03*
Y1965390D02*
D03*
Y1957390D02*
D03*
Y1949390D02*
D03*
Y1941390D02*
D03*
Y1933390D02*
D03*
Y1925390D02*
D03*
Y1917390D02*
D03*
Y1909390D02*
D03*
Y1901390D02*
D03*
Y1893390D02*
D03*
X2513450Y2061390D02*
D03*
Y2053390D02*
D03*
Y2045390D02*
D03*
Y2037390D02*
D03*
Y2029390D02*
D03*
Y2021390D02*
D03*
Y2013390D02*
D03*
Y2005390D02*
D03*
Y1997390D02*
D03*
Y1989390D02*
D03*
Y1981390D02*
D03*
Y1973390D02*
D03*
Y1965390D02*
D03*
Y1957390D02*
D03*
Y1949390D02*
D03*
Y1941390D02*
D03*
Y1933390D02*
D03*
Y1925390D02*
D03*
Y1917390D02*
D03*
Y1909390D02*
D03*
Y1901390D02*
D03*
Y1893390D02*
D03*
X2722760Y2062660D02*
D03*
Y2054660D02*
D03*
Y2046660D02*
D03*
Y2038660D02*
D03*
Y2030660D02*
D03*
Y2022660D02*
D03*
Y2014660D02*
D03*
Y2006660D02*
D03*
Y1998660D02*
D03*
Y1990660D02*
D03*
Y1982660D02*
D03*
Y1974660D02*
D03*
Y1966660D02*
D03*
Y1958660D02*
D03*
Y1950660D02*
D03*
Y1942660D02*
D03*
Y1934660D02*
D03*
Y1926660D02*
D03*
Y1918660D02*
D03*
Y1910660D02*
D03*
Y1902660D02*
D03*
Y1894660D02*
D03*
X2834760Y2062660D02*
D03*
Y2054660D02*
D03*
Y2046660D02*
D03*
Y2038660D02*
D03*
Y2030660D02*
D03*
Y2022660D02*
D03*
Y2014660D02*
D03*
Y2006660D02*
D03*
Y1998660D02*
D03*
Y1990660D02*
D03*
Y1982660D02*
D03*
Y1974660D02*
D03*
Y1966660D02*
D03*
Y1958660D02*
D03*
Y1950660D02*
D03*
Y1942660D02*
D03*
Y1934660D02*
D03*
Y1926660D02*
D03*
Y1918660D02*
D03*
Y1910660D02*
D03*
Y1902660D02*
D03*
Y1894660D02*
D03*
D30*
X1031710Y814070D02*
D03*
X1058710D02*
D03*
X828510D02*
D03*
X855510D02*
D03*
X931710Y966470D02*
D03*
X904710D02*
D03*
Y814070D02*
D03*
X931710D02*
D03*
X855510Y966470D02*
D03*
X828510D02*
D03*
X1031710D02*
D03*
X1058710D02*
D03*
Y1042670D02*
D03*
X1031710D02*
D03*
X828510D02*
D03*
X855510D02*
D03*
X931710Y1195070D02*
D03*
X904710D02*
D03*
Y1042670D02*
D03*
X931710D02*
D03*
X855510Y1195070D02*
D03*
X828510D02*
D03*
X1058710D02*
D03*
X1031710D02*
D03*
X855510Y1245870D02*
D03*
X828510D02*
D03*
X904710Y1322070D02*
D03*
X931710D02*
D03*
X904710Y1245870D02*
D03*
X931710D02*
D03*
X1031710Y1454150D02*
D03*
X1058710D02*
D03*
X855510D02*
D03*
X828510D02*
D03*
X904710Y1601470D02*
D03*
X931710D02*
D03*
X904710Y1454150D02*
D03*
X931710D02*
D03*
X845350Y1601470D02*
D03*
X818350D02*
D03*
X1058710D02*
D03*
X1031710D02*
D03*
X701510Y2185670D02*
D03*
X728510D02*
D03*
Y2134870D02*
D03*
X701510D02*
D03*
X1962620Y2092960D02*
D03*
X1989620D02*
D03*
X1962620Y2067560D02*
D03*
X1989620D02*
D03*
X1962620Y2042160D02*
D03*
X1989620D02*
D03*
X2167420Y1950720D02*
D03*
X2140420D02*
D03*
X2167420Y1976120D02*
D03*
X2140420D02*
D03*
Y1899920D02*
D03*
X2167420D02*
D03*
Y1874520D02*
D03*
X2140420D02*
D03*
X2167420Y1925320D02*
D03*
X2140420D02*
D03*
X1711160Y2326640D02*
D03*
X1738160D02*
D03*
X1590510Y2551430D02*
D03*
X1617510D02*
D03*
X1488910D02*
D03*
X1515910D02*
D03*
X1387310D02*
D03*
X1414310D02*
D03*
X1285710D02*
D03*
X1312710D02*
D03*
X1749260Y1935480D02*
D03*
X1776260D02*
D03*
X1794980D02*
D03*
X1821980D02*
D03*
X1743240Y2169160D02*
D03*
X1716240D02*
D03*
X1617510Y2363470D02*
D03*
X1590510D02*
D03*
X1515910D02*
D03*
X1488910D02*
D03*
X1414310D02*
D03*
X1387310D02*
D03*
X1312710D02*
D03*
X1285710D02*
D03*
X855510Y1398270D02*
D03*
X828510D02*
D03*
X904710D02*
D03*
X931710D02*
D03*
D31*
X1623610Y2500190D02*
D03*
Y2409190D02*
D03*
X1578610D02*
D03*
Y2500190D02*
D03*
X1516930D02*
D03*
Y2409190D02*
D03*
X1471930D02*
D03*
Y2500190D02*
D03*
X1420410D02*
D03*
Y2409190D02*
D03*
X1375410D02*
D03*
Y2500190D02*
D03*
X1318810D02*
D03*
Y2409190D02*
D03*
X1273810D02*
D03*
Y2500190D02*
D03*
X1749340Y2300800D02*
D03*
Y2209800D02*
D03*
X1704340D02*
D03*
Y2300800D02*
D03*
D32*
X562610Y2149770D02*
D03*
Y2170770D02*
D03*
X1224280Y2293280D02*
D03*
Y2314280D02*
D03*
X1270000Y2293280D02*
D03*
Y2314280D02*
D03*
X1366520Y2293280D02*
D03*
Y2314280D02*
D03*
X1645920Y2293280D02*
D03*
Y2314280D02*
D03*
X1554480Y2293280D02*
D03*
Y2314280D02*
D03*
X1600200Y2293280D02*
D03*
Y2314280D02*
D03*
X1320800Y2293280D02*
D03*
Y2314280D02*
D03*
X1508760Y2293280D02*
D03*
Y2314280D02*
D03*
D34*
X2157730Y915670D02*
D03*
X2134830D02*
D03*
X2111930D02*
D03*
X2089030D02*
D03*
X2066130D02*
D03*
X2169130Y890270D02*
D03*
X2146230D02*
D03*
X2123330D02*
D03*
X2100430D02*
D03*
X2077530D02*
D03*
X2157730Y864870D02*
D03*
X2134830D02*
D03*
X2111930D02*
D03*
X2089030D02*
D03*
X2066130D02*
D03*
X1806480Y1981200D02*
D03*
X1757680D02*
D03*
X704850Y2094230D02*
D03*
X730250D02*
D03*
X958850D02*
D03*
X755650D02*
D03*
X806450D02*
D03*
X781050D02*
D03*
X857250D02*
D03*
X831850D02*
D03*
X908050D02*
D03*
X882650D02*
D03*
X933450D02*
D03*
Y1789230D02*
D03*
X882650D02*
D03*
X908050D02*
D03*
X831850D02*
D03*
X857250D02*
D03*
X781050D02*
D03*
X806450D02*
D03*
X755650D02*
D03*
X958850D02*
D03*
X730250D02*
D03*
X704850D02*
D03*
X1187450Y2056830D02*
D03*
Y2031430D02*
D03*
Y2006030D02*
D03*
Y1980630D02*
D03*
Y2082230D02*
D03*
D35*
X2237730Y890270D02*
D03*
X1988530D02*
D03*
D36*
X842010Y1525270D02*
D03*
Y890270D02*
D03*
Y1118870D02*
D03*
Y1322070D02*
D03*
D37*
X816610Y1525270D02*
D03*
X791210D02*
D03*
X816610Y890270D02*
D03*
X791210D02*
D03*
X816610Y1118870D02*
D03*
X791210D02*
D03*
X816610Y1322070D02*
D03*
X791210D02*
D03*
D38*
X631170Y2469670D02*
D03*
X602770Y2455820D02*
D03*
X631170Y2441970D02*
D03*
X602770Y2428120D02*
D03*
X631170Y2414270D02*
D03*
X602770Y2400420D02*
D03*
X631170Y2386570D02*
D03*
X602770Y2372720D02*
D03*
D39*
X631170Y2358870D02*
D03*
D40*
X616970Y2289320D02*
D03*
Y2539220D02*
D03*
D41*
X681760Y1656080D02*
D03*
D42*
X650760Y1606080D02*
D03*
D43*
X619760Y1656080D02*
D03*
D44*
X1675130Y1210310D02*
D03*
X1649730Y1235710D02*
D03*
Y1210310D02*
D03*
X1624330Y1235710D02*
D03*
Y1210310D02*
D03*
X1598930Y1235710D02*
D03*
Y1210310D02*
D03*
X1573530Y1235710D02*
D03*
Y1210310D02*
D03*
X1548130Y1235710D02*
D03*
Y1210310D02*
D03*
X1522730Y1235710D02*
D03*
Y1210310D02*
D03*
X1497330Y1235710D02*
D03*
Y1210310D02*
D03*
X1471930Y1235710D02*
D03*
Y1210310D02*
D03*
X1695450Y1565910D02*
D03*
X1670050Y1591310D02*
D03*
Y1565910D02*
D03*
X1644650Y1591310D02*
D03*
Y1565910D02*
D03*
X1619250Y1591310D02*
D03*
Y1565910D02*
D03*
X1593850Y1591310D02*
D03*
Y1565910D02*
D03*
X1568450Y1591310D02*
D03*
Y1565910D02*
D03*
X1543050Y1591310D02*
D03*
Y1565910D02*
D03*
X1517650Y1591310D02*
D03*
Y1565910D02*
D03*
X1492250Y1591310D02*
D03*
Y1565910D02*
D03*
X1466850Y1591310D02*
D03*
Y1565910D02*
D03*
X1441450Y1591310D02*
D03*
Y1565910D02*
D03*
X1416050Y1591310D02*
D03*
Y1565910D02*
D03*
X1390650Y1591310D02*
D03*
Y1565910D02*
D03*
X1365250Y1591310D02*
D03*
Y1565910D02*
D03*
X1339850Y1591310D02*
D03*
Y1565910D02*
D03*
X1314450Y1591310D02*
D03*
Y1565910D02*
D03*
X1289050Y1591310D02*
D03*
Y1565910D02*
D03*
X1263650Y1591310D02*
D03*
Y1565910D02*
D03*
X1238250Y1591310D02*
D03*
Y1565910D02*
D03*
X1254760Y1234440D02*
D03*
X1280160Y1209040D02*
D03*
Y1234440D02*
D03*
X1305560Y1209040D02*
D03*
Y1234440D02*
D03*
X1330960Y1209040D02*
D03*
Y1234440D02*
D03*
X1356360Y1209040D02*
D03*
Y1234440D02*
D03*
X1381760Y1209040D02*
D03*
Y1234440D02*
D03*
X1017270Y2414270D02*
D03*
X991870Y2388870D02*
D03*
X1017270D02*
D03*
X991870Y2363470D02*
D03*
X1017270D02*
D03*
X991870Y2338070D02*
D03*
X1017270D02*
D03*
X1720850Y1032510D02*
D03*
Y1007110D02*
D03*
X1695450Y1032510D02*
D03*
Y1007110D02*
D03*
X1670050Y1032510D02*
D03*
X1045210Y2160270D02*
D03*
X1704340Y2133600D02*
D03*
X1729740Y2108200D02*
D03*
Y2133600D02*
D03*
X1755140Y2108200D02*
D03*
Y2133600D02*
D03*
X1780540Y2108200D02*
D03*
Y2133600D02*
D03*
X1805940Y2108200D02*
D03*
Y2133600D02*
D03*
X2042160Y2032000D02*
D03*
Y2057400D02*
D03*
X2067560Y2032000D02*
D03*
Y2057400D02*
D03*
X2092960Y2032000D02*
D03*
Y2057400D02*
D03*
X2118360Y2032000D02*
D03*
Y2057400D02*
D03*
X2143760Y2032000D02*
D03*
Y2057400D02*
D03*
X2169160Y2032000D02*
D03*
Y2057400D02*
D03*
X2194560Y2032000D02*
D03*
X2843530Y814070D02*
D03*
X2818130D02*
D03*
X613410Y890270D02*
D03*
Y1118870D02*
D03*
Y1322070D02*
D03*
Y1525270D02*
D03*
X1771650Y916940D02*
D03*
X2692400Y857250D02*
D03*
Y882650D02*
D03*
X2430780Y1093470D02*
D03*
X2405380D02*
D03*
X2743200Y858520D02*
D03*
Y883920D02*
D03*
X2184400Y1090930D02*
D03*
X2159000D02*
D03*
X2103120D02*
D03*
X2077720D02*
D03*
X2794000Y858520D02*
D03*
Y883920D02*
D03*
X2021840Y1090930D02*
D03*
X1996440D02*
D03*
X1940560D02*
D03*
X1915160D02*
D03*
X1859280D02*
D03*
X1833880D02*
D03*
X1096010Y2160270D02*
D03*
Y2185670D02*
D03*
X2346960Y1090930D02*
D03*
X2321560D02*
D03*
X2265680D02*
D03*
X2240280D02*
D03*
X2004060Y966470D02*
D03*
X2029460D02*
D03*
X2166620D02*
D03*
X2192020D02*
D03*
X2085340D02*
D03*
X2110740D02*
D03*
X1981200Y1854200D02*
D03*
Y1889760D02*
D03*
Y1915160D02*
D03*
X1341120Y2161540D02*
D03*
X1315720Y2186940D02*
D03*
Y2161540D02*
D03*
X1290320Y2186940D02*
D03*
Y2161540D02*
D03*
X1264920Y2186940D02*
D03*
Y2161540D02*
D03*
X1498600D02*
D03*
X1473200Y2186940D02*
D03*
Y2161540D02*
D03*
X1447800Y2186940D02*
D03*
Y2161540D02*
D03*
X1422400Y2186940D02*
D03*
Y2161540D02*
D03*
X1635760D02*
D03*
X1610360Y2186940D02*
D03*
Y2161540D02*
D03*
X1584960Y2186940D02*
D03*
Y2161540D02*
D03*
X1559560Y2186940D02*
D03*
Y2161540D02*
D03*
X1981200Y1971040D02*
D03*
D45*
X1675130Y1235710D02*
D03*
X1695450Y1591310D02*
D03*
X1254760Y1209040D02*
D03*
X1670050Y1007110D02*
D03*
X1704340Y2108200D02*
D03*
X2194560Y2057400D02*
D03*
X2868930Y814070D02*
D03*
X588010Y890270D02*
D03*
Y1118870D02*
D03*
Y1322070D02*
D03*
Y1525270D02*
D03*
X2379980Y1093470D02*
D03*
X2133600Y1090930D02*
D03*
X2052320D02*
D03*
X1971040D02*
D03*
X1889760D02*
D03*
X1808480D02*
D03*
X2296160D02*
D03*
X2214880D02*
D03*
X2054860Y966470D02*
D03*
X2217420D02*
D03*
X2136140D02*
D03*
X1341120Y2186940D02*
D03*
X1498600D02*
D03*
X1635760D02*
D03*
D46*
X991870Y2414270D02*
D03*
X1045210Y2185670D02*
D03*
X1771650Y942340D02*
D03*
X2692400Y908050D02*
D03*
X2743200Y909320D02*
D03*
X2794000D02*
D03*
X1096010Y2211070D02*
D03*
X1981200Y1828800D02*
D03*
Y1940560D02*
D03*
Y1996440D02*
D03*
D47*
X1717450Y839470D02*
D03*
X1673450D02*
D03*
D48*
X689610Y1500270D02*
D03*
X684530Y865270D02*
D03*
X994410D02*
D03*
X689610Y1093870D02*
D03*
X994410D02*
D03*
X689610Y1297070D02*
D03*
X994410D02*
D03*
Y1500270D02*
D03*
D49*
X689610Y1550270D02*
D03*
X684530Y915270D02*
D03*
X994410D02*
D03*
X689610Y1143870D02*
D03*
X994410D02*
D03*
X689610Y1347070D02*
D03*
X994410D02*
D03*
Y1550270D02*
D03*
M02*
