%FSLAX44Y44*%
%MOMM*%
G71*
G01*
G75*
G04 Layer_Color=16711935*
%ADD10R,1.1000X1.7000*%
%ADD11R,1.5500X0.4500*%
%ADD12R,1.7000X1.1000*%
%ADD13R,1.4000X2.1000*%
%ADD14R,1.2000X1.2000*%
%ADD15R,1.2000X1.2000*%
%ADD16O,0.3000X2.5400*%
%ADD17O,2.5400X0.3000*%
%ADD18R,2.1000X1.4000*%
%ADD19R,1.5500X0.5500*%
%ADD20O,1.7000X0.3500*%
%ADD21O,1.5500X0.2500*%
%ADD22O,0.2500X1.5500*%
%ADD23R,0.5000X3.1000*%
%ADD24R,2.0000X2.5000*%
%ADD25R,2.0000X3.3000*%
%ADD26O,2.1000X0.4500*%
%ADD27R,0.7000X2.0000*%
%ADD28R,1.0000X2.0000*%
%ADD29R,1.2000X2.0000*%
%ADD30R,1.5000X2.0000*%
%ADD31R,2.0000X3.5000*%
%ADD32R,2.0000X1.8000*%
%ADD33C,0.1500*%
%ADD34R,1.5000X1.5000*%
%ADD35C,1.5000*%
%ADD36R,1.5000X1.5000*%
%ADD37C,1.3500*%
%ADD38R,1.2500X1.2500*%
%ADD39C,1.6000*%
%ADD40R,1.6000X1.6000*%
%ADD41C,1.2000*%
%ADD42O,1.5240X4.0640*%
%ADD43O,4.0640X1.5240*%
%ADD44O,1.5240X4.3180*%
%ADD45C,4.7600*%
%ADD46R,1.6900X1.6900*%
%ADD47C,1.6900*%
%ADD48C,1.5240*%
%ADD49C,4.5000*%
%ADD50C,0.7100*%
%ADD51C,1.0160*%
%ADD52C,0.2540*%
%ADD53C,1.9160*%
G04:AMPARAMS|DCode=54|XSize=2.424mm|YSize=2.424mm|CornerRadius=0mm|HoleSize=0mm|Usage=FLASHONLY|Rotation=0.000|XOffset=0mm|YOffset=0mm|HoleType=Round|Shape=Relief|Width=0.254mm|Gap=0.254mm|Entries=4|*
%AMTHD54*
7,0,0,2.4240,1.9160,0.2540,45*
%
%ADD54THD54*%
%ADD55C,1.8160*%
G04:AMPARAMS|DCode=56|XSize=2.274mm|YSize=2.274mm|CornerRadius=0mm|HoleSize=0mm|Usage=FLASHONLY|Rotation=0.000|XOffset=0mm|YOffset=0mm|HoleType=Round|Shape=Relief|Width=0.254mm|Gap=0.254mm|Entries=4|*
%AMTHD56*
7,0,0,2.2740,1.7660,0.2540,45*
%
%ADD56THD56*%
%ADD57C,2.0160*%
G04:AMPARAMS|DCode=58|XSize=2.524mm|YSize=2.524mm|CornerRadius=0mm|HoleSize=0mm|Usage=FLASHONLY|Rotation=0.000|XOffset=0mm|YOffset=0mm|HoleType=Round|Shape=Relief|Width=0.254mm|Gap=0.254mm|Entries=4|*
%AMTHD58*
7,0,0,2.5240,2.0160,0.2540,45*
%
%ADD58THD58*%
%ADD59C,1.7660*%
%ADD60O,1.7780X4.3180*%
%ADD61O,4.3180X1.7780*%
%AMTHOVALD62*
21,1,2.7940,2.2860,0,0,270.0*
1,1,2.2860,0.0000,1.3970*
1,1,2.2860,0.0000,-1.3970*
21,0,2.7940,1.7780,0,0,270.0*
1,0,1.7780,0.0000,1.3970*
1,0,1.7780,0.0000,-1.3970*
4,0,4,-0.0898,1.3072,-0.8980,2.1154,-0.7184,2.2950,0.0898,1.4868,-0.0898,1.3072,0.0*
4,0,4,-0.0898,-1.4868,0.7184,-2.2950,0.8980,-2.1154,0.0898,-1.3072,-0.0898,-1.4868,0.0*
4,0,4,-0.0898,1.4868,0.7184,2.2950,0.8980,2.1154,0.0898,1.3072,-0.0898,1.4868,0.0*
4,0,4,-0.0898,-1.3072,-0.8980,-2.1154,-0.7184,-2.2950,0.0898,-1.4868,-0.0898,-1.3072,0.0*
%
%ADD62THOVALD62*%

%ADD63C,4.2760*%
%ADD64C,2.1060*%
G04:AMPARAMS|DCode=65|XSize=2.424mm|YSize=2.424mm|CornerRadius=0mm|HoleSize=0mm|Usage=FLASHONLY|Rotation=0.000|XOffset=0mm|YOffset=0mm|HoleType=Round|Shape=Relief|Width=0.254mm|Gap=0.254mm|Entries=4|*
%AMTHD65*
7,0,0,2.4240,1.9160,0.2540,45*
%
%ADD65THD65*%
%ADD66C,1.9160*%
%ADD67C,4.2160*%
%ADD68C,2.2060*%
%ADD69C,2.0160*%
%ADD70C,1.3160*%
G04:AMPARAMS|DCode=71|XSize=1.824mm|YSize=1.824mm|CornerRadius=0mm|HoleSize=0mm|Usage=FLASHONLY|Rotation=0.000|XOffset=0mm|YOffset=0mm|HoleType=Round|Shape=Relief|Width=0.254mm|Gap=0.254mm|Entries=4|*
%AMTHD71*
7,0,0,1.8240,1.3160,0.2540,45*
%
%ADD71THD71*%
G04:AMPARAMS|DCode=72|XSize=2.324mm|YSize=2.324mm|CornerRadius=0mm|HoleSize=0mm|Usage=FLASHONLY|Rotation=0.000|XOffset=0mm|YOffset=0mm|HoleType=Round|Shape=Relief|Width=0.254mm|Gap=0.254mm|Entries=4|*
%AMTHD72*
7,0,0,2.3240,1.8160,0.2540,45*
%
%ADD72THD72*%
%AMTHOVALD73*
21,1,2.5400,2.2860,0,0,90.0*
1,1,2.2860,0.0000,-1.2700*
1,1,2.2860,0.0000,1.2700*
21,0,2.5400,1.7780,0,0,90.0*
1,0,1.7780,0.0000,-1.2700*
1,0,1.7780,0.0000,1.2700*
4,0,4,0.0898,-1.1802,0.8980,-1.9884,0.7184,-2.1680,-0.0898,-1.3598,0.0898,-1.1802,0.0*
4,0,4,0.0898,1.3598,-0.7184,2.1680,-0.8980,1.9884,-0.0898,1.1802,0.0898,1.3598,0.0*
4,0,4,0.0898,-1.3598,-0.7184,-2.1680,-0.8980,-1.9884,-0.0898,-1.1802,0.0898,-1.3598,0.0*
4,0,4,0.0898,1.1802,0.8980,1.9884,0.7184,2.1680,-0.0898,1.3598,0.0898,1.1802,0.0*
%
%ADD73THOVALD73*%

%AMTHOVALD74*
21,1,2.5400,2.2860,0,0,180.0*
1,1,2.2860,1.2700,0.0000*
1,1,2.2860,-1.2700,0.0000*
21,0,2.5400,1.7780,0,0,180.0*
1,0,1.7780,1.2700,0.0000*
1,0,1.7780,-1.2700,0.0000*
4,0,4,1.1802,0.0898,1.9884,0.8980,2.1680,0.7184,1.3598,-0.0898,1.1802,0.0898,0.0*
4,0,4,-1.3598,0.0898,-2.1680,-0.7184,-1.9884,-0.8980,-1.1802,-0.0898,-1.3598,0.0898,0.0*
4,0,4,1.3598,0.0898,2.1680,-0.7184,1.9884,-0.8980,1.1802,-0.0898,1.3598,0.0898,0.0*
4,0,4,-1.1802,0.0898,-1.9884,0.8980,-2.1680,0.7184,-1.3598,-0.0898,-1.1802,0.0898,0.0*
%
%ADD74THOVALD74*%

%ADD75O,1.7780X4.5720*%
G04:AMPARAMS|DCode=76|XSize=4.784mm|YSize=4.784mm|CornerRadius=0mm|HoleSize=0mm|Usage=FLASHONLY|Rotation=0.000|XOffset=0mm|YOffset=0mm|HoleType=Round|Shape=Relief|Width=0.254mm|Gap=0.254mm|Entries=4|*
%AMTHD76*
7,0,0,4.7840,4.2760,0.2540,45*
%
%ADD76THD76*%
G04:AMPARAMS|DCode=77|XSize=2.614mm|YSize=2.614mm|CornerRadius=0mm|HoleSize=0mm|Usage=FLASHONLY|Rotation=0.000|XOffset=0mm|YOffset=0mm|HoleType=Round|Shape=Relief|Width=0.254mm|Gap=0.254mm|Entries=4|*
%AMTHD77*
7,0,0,2.6140,2.1060,0.2540,45*
%
%ADD77THD77*%
G04:AMPARAMS|DCode=78|XSize=2.524mm|YSize=2.524mm|CornerRadius=0mm|HoleSize=0mm|Usage=FLASHONLY|Rotation=0.000|XOffset=0mm|YOffset=0mm|HoleType=Round|Shape=Relief|Width=0.254mm|Gap=0.254mm|Entries=4|*
%AMTHD78*
7,0,0,2.5240,2.0160,0.2540,45*
%
%ADD78THD78*%
%ADD79C,0.6000*%
%ADD80C,0.2500*%
%ADD81C,0.2000*%
%ADD82C,0.1016*%
%ADD83C,0.1778*%
%ADD84C,0.2032*%
%ADD85C,0.5080*%
%ADD86C,0.2794*%
%ADD87R,1.3032X1.9032*%
%ADD88R,1.7532X0.6532*%
%ADD89R,1.9032X1.3032*%
%ADD90R,1.6032X2.3032*%
%ADD91R,1.4032X1.4032*%
%ADD92R,1.4032X1.4032*%
%ADD93O,0.5032X2.7432*%
%ADD94O,2.7432X0.5032*%
%ADD95R,2.3032X1.6032*%
%ADD96R,1.7532X0.7532*%
%ADD97O,1.9032X0.5532*%
%ADD98O,1.7532X0.4532*%
%ADD99O,0.4532X1.7532*%
%ADD100R,0.7032X3.3032*%
%ADD101R,2.2032X2.7032*%
%ADD102R,2.2032X3.5032*%
%ADD103O,2.3032X0.6532*%
%ADD104R,0.9032X2.2032*%
%ADD105R,1.2032X2.2032*%
%ADD106R,1.4032X2.2032*%
%ADD107R,1.7032X2.2032*%
%ADD108R,2.2032X3.7032*%
%ADD109R,2.2032X2.0032*%
%ADD110R,1.7032X1.7032*%
%ADD111C,1.7032*%
%ADD112R,1.7032X1.7032*%
%ADD113C,1.5532*%
%ADD114R,1.4532X1.4532*%
%ADD115C,1.8032*%
%ADD116R,1.8032X1.8032*%
%ADD117C,1.4032*%
%ADD118O,1.7272X4.2672*%
%ADD119O,4.2672X1.7272*%
%ADD120O,1.7272X4.5212*%
%ADD121C,4.9632*%
%ADD122R,1.8932X1.8932*%
%ADD123C,1.8932*%
%ADD124C,1.7272*%
%ADD125C,4.7032*%
%ADD126C,0.9132*%
D87*
X2770340Y1153160D02*
D03*
X2797340D02*
D03*
X2525230Y1409700D02*
D03*
X2552230D02*
D03*
X2615400Y1477010D02*
D03*
X2642400D02*
D03*
X2615400Y1426210D02*
D03*
X2642400D02*
D03*
X2271560Y1532890D02*
D03*
X2244560D02*
D03*
Y1477010D02*
D03*
X2271560D02*
D03*
X2242020Y1445000D02*
D03*
X2269020D02*
D03*
X2327110Y1572260D02*
D03*
X2354110D02*
D03*
X2530310Y1617980D02*
D03*
X2557310D02*
D03*
X2775420Y1209040D02*
D03*
X2802420D02*
D03*
X1632750Y1748790D02*
D03*
X1605750D02*
D03*
X1440980Y1793240D02*
D03*
X1413980D02*
D03*
X1422870Y1845310D02*
D03*
X1449870D02*
D03*
X1422870Y1870710D02*
D03*
X1449870D02*
D03*
X2354110Y1602740D02*
D03*
X2327110D02*
D03*
X2552230Y1450340D02*
D03*
X2525230D02*
D03*
X1351750Y1962150D02*
D03*
X1378750D02*
D03*
X1534630Y1804670D02*
D03*
X1561630D02*
D03*
X831380Y2433320D02*
D03*
X804380D02*
D03*
D89*
X1477010Y1406690D02*
D03*
Y1379690D02*
D03*
X2767330Y2037880D02*
D03*
Y2010880D02*
D03*
X2447290Y2021370D02*
D03*
Y1994370D02*
D03*
X2350770Y1321600D02*
D03*
Y1294600D02*
D03*
X2386330Y1321600D02*
D03*
Y1294600D02*
D03*
X2421890Y1321600D02*
D03*
Y1294600D02*
D03*
X2493010Y1321600D02*
D03*
Y1294600D02*
D03*
Y1428280D02*
D03*
Y1401280D02*
D03*
X2265680Y1373340D02*
D03*
Y1400340D02*
D03*
X2386330Y1599400D02*
D03*
Y1626400D02*
D03*
X2626360Y1598460D02*
D03*
Y1571460D02*
D03*
X2498090Y1626400D02*
D03*
Y1599400D02*
D03*
X2524760Y1721650D02*
D03*
Y1694650D02*
D03*
X2473960Y1721650D02*
D03*
Y1694650D02*
D03*
X2402840Y1721650D02*
D03*
Y1694650D02*
D03*
X2341880Y1720380D02*
D03*
Y1693380D02*
D03*
X2032000Y1872780D02*
D03*
Y1845780D02*
D03*
X2067560Y1872780D02*
D03*
Y1845780D02*
D03*
X2057400Y1916900D02*
D03*
Y1943900D02*
D03*
X2797810Y1965160D02*
D03*
Y1992160D02*
D03*
X2482850Y1980730D02*
D03*
Y1953730D02*
D03*
X1856740Y1394930D02*
D03*
Y1421930D02*
D03*
Y1493050D02*
D03*
Y1466050D02*
D03*
X1882140Y1481290D02*
D03*
Y1508290D02*
D03*
Y1308570D02*
D03*
Y1335570D02*
D03*
X1856740D02*
D03*
Y1308570D02*
D03*
X1446530Y1452410D02*
D03*
Y1425410D02*
D03*
X1497330Y1695920D02*
D03*
Y1722920D02*
D03*
X1461770Y1786090D02*
D03*
Y1813090D02*
D03*
X1507490D02*
D03*
Y1786090D02*
D03*
X1548130Y1892770D02*
D03*
Y1919770D02*
D03*
X1497330Y1892770D02*
D03*
Y1919770D02*
D03*
X1441450D02*
D03*
Y1892770D02*
D03*
X2386330Y1423200D02*
D03*
Y1396200D02*
D03*
X1624330Y1909280D02*
D03*
Y1936280D02*
D03*
D110*
X1981200Y1996440D02*
D03*
Y1940560D02*
D03*
Y1828800D02*
D03*
X1096010Y2211070D02*
D03*
X2794000Y909320D02*
D03*
X2743200D02*
D03*
X2692400Y908050D02*
D03*
X1771650Y942340D02*
D03*
X1045210Y2185670D02*
D03*
X991870Y2414270D02*
D03*
D111*
X1981200Y1971040D02*
D03*
X1559560Y2161540D02*
D03*
Y2186940D02*
D03*
X1584960Y2161540D02*
D03*
Y2186940D02*
D03*
X1610360Y2161540D02*
D03*
Y2186940D02*
D03*
X1635760Y2161540D02*
D03*
X1422400D02*
D03*
Y2186940D02*
D03*
X1447800Y2161540D02*
D03*
Y2186940D02*
D03*
X1473200Y2161540D02*
D03*
Y2186940D02*
D03*
X1498600Y2161540D02*
D03*
X1264920D02*
D03*
Y2186940D02*
D03*
X1290320Y2161540D02*
D03*
Y2186940D02*
D03*
X1315720Y2161540D02*
D03*
Y2186940D02*
D03*
X1341120Y2161540D02*
D03*
X1981200Y1915160D02*
D03*
Y1889760D02*
D03*
Y1854200D02*
D03*
X2110740Y966470D02*
D03*
X2085340D02*
D03*
X2192020D02*
D03*
X2166620D02*
D03*
X2029460D02*
D03*
X2004060D02*
D03*
X2240280Y1090930D02*
D03*
X2265680D02*
D03*
X2321560D02*
D03*
X2346960D02*
D03*
X1096010Y2185670D02*
D03*
Y2160270D02*
D03*
X1833880Y1090930D02*
D03*
X1859280D02*
D03*
X1915160D02*
D03*
X1940560D02*
D03*
X1996440D02*
D03*
X2021840D02*
D03*
X2794000Y883920D02*
D03*
Y858520D02*
D03*
X2077720Y1090930D02*
D03*
X2103120D02*
D03*
X2159000D02*
D03*
X2184400D02*
D03*
X2743200Y883920D02*
D03*
Y858520D02*
D03*
X2405380Y1093470D02*
D03*
X2430780D02*
D03*
X2692400Y882650D02*
D03*
Y857250D02*
D03*
X1771650Y916940D02*
D03*
X613410Y1525270D02*
D03*
Y1322070D02*
D03*
Y1118870D02*
D03*
Y890270D02*
D03*
X2818130Y814070D02*
D03*
X2843530D02*
D03*
X2194560Y2032000D02*
D03*
X2169160Y2057400D02*
D03*
Y2032000D02*
D03*
X2143760Y2057400D02*
D03*
Y2032000D02*
D03*
X2118360Y2057400D02*
D03*
Y2032000D02*
D03*
X2092960Y2057400D02*
D03*
Y2032000D02*
D03*
X2067560Y2057400D02*
D03*
Y2032000D02*
D03*
X2042160Y2057400D02*
D03*
Y2032000D02*
D03*
X1805940Y2133600D02*
D03*
Y2108200D02*
D03*
X1780540Y2133600D02*
D03*
Y2108200D02*
D03*
X1755140Y2133600D02*
D03*
Y2108200D02*
D03*
X1729740Y2133600D02*
D03*
Y2108200D02*
D03*
X1704340Y2133600D02*
D03*
X1045210Y2160270D02*
D03*
X1670050Y1032510D02*
D03*
X1695450Y1007110D02*
D03*
Y1032510D02*
D03*
X1720850Y1007110D02*
D03*
Y1032510D02*
D03*
X1017270Y2338070D02*
D03*
X991870D02*
D03*
X1017270Y2363470D02*
D03*
X991870D02*
D03*
X1017270Y2388870D02*
D03*
X991870D02*
D03*
X1017270Y2414270D02*
D03*
X1381760Y1234440D02*
D03*
Y1209040D02*
D03*
X1356360Y1234440D02*
D03*
Y1209040D02*
D03*
X1330960Y1234440D02*
D03*
Y1209040D02*
D03*
X1305560Y1234440D02*
D03*
Y1209040D02*
D03*
X1280160Y1234440D02*
D03*
Y1209040D02*
D03*
X1254760Y1234440D02*
D03*
X1238250Y1565910D02*
D03*
Y1591310D02*
D03*
X1263650Y1565910D02*
D03*
Y1591310D02*
D03*
X1289050Y1565910D02*
D03*
Y1591310D02*
D03*
X1314450Y1565910D02*
D03*
Y1591310D02*
D03*
X1339850Y1565910D02*
D03*
Y1591310D02*
D03*
X1365250Y1565910D02*
D03*
Y1591310D02*
D03*
X1390650Y1565910D02*
D03*
Y1591310D02*
D03*
X1416050Y1565910D02*
D03*
Y1591310D02*
D03*
X1441450Y1565910D02*
D03*
Y1591310D02*
D03*
X1466850Y1565910D02*
D03*
Y1591310D02*
D03*
X1492250Y1565910D02*
D03*
Y1591310D02*
D03*
X1517650Y1565910D02*
D03*
Y1591310D02*
D03*
X1543050Y1565910D02*
D03*
Y1591310D02*
D03*
X1568450Y1565910D02*
D03*
Y1591310D02*
D03*
X1593850Y1565910D02*
D03*
Y1591310D02*
D03*
X1619250Y1565910D02*
D03*
Y1591310D02*
D03*
X1644650Y1565910D02*
D03*
Y1591310D02*
D03*
X1670050Y1565910D02*
D03*
Y1591310D02*
D03*
X1695450Y1565910D02*
D03*
X1471930Y1210310D02*
D03*
Y1235710D02*
D03*
X1497330Y1210310D02*
D03*
Y1235710D02*
D03*
X1522730Y1210310D02*
D03*
Y1235710D02*
D03*
X1548130Y1210310D02*
D03*
Y1235710D02*
D03*
X1573530Y1210310D02*
D03*
Y1235710D02*
D03*
X1598930Y1210310D02*
D03*
Y1235710D02*
D03*
X1624330Y1210310D02*
D03*
Y1235710D02*
D03*
X1649730Y1210310D02*
D03*
Y1235710D02*
D03*
X1675130Y1210310D02*
D03*
D112*
X1635760Y2186940D02*
D03*
X1498600D02*
D03*
X1341120D02*
D03*
X2136140Y966470D02*
D03*
X2217420D02*
D03*
X2054860D02*
D03*
X2214880Y1090930D02*
D03*
X2296160D02*
D03*
X1808480D02*
D03*
X1889760D02*
D03*
X1971040D02*
D03*
X2052320D02*
D03*
X2133600D02*
D03*
X2379980Y1093470D02*
D03*
X588010Y1525270D02*
D03*
Y1322070D02*
D03*
Y1118870D02*
D03*
Y890270D02*
D03*
X2868930Y814070D02*
D03*
X2194560Y2057400D02*
D03*
X1704340Y2108200D02*
D03*
X1670050Y1007110D02*
D03*
X1254760Y1209040D02*
D03*
X1695450Y1591310D02*
D03*
X1675130Y1235710D02*
D03*
D113*
X994410Y1550270D02*
D03*
Y1347070D02*
D03*
X689610D02*
D03*
X994410Y1143870D02*
D03*
X689610D02*
D03*
X994410Y915270D02*
D03*
X684530D02*
D03*
X689610Y1550270D02*
D03*
D114*
X994410Y1500270D02*
D03*
Y1297070D02*
D03*
X689610D02*
D03*
X994410Y1093870D02*
D03*
X689610D02*
D03*
X994410Y865270D02*
D03*
X684530D02*
D03*
X689610Y1500270D02*
D03*
D115*
X791210Y1322070D02*
D03*
X816610D02*
D03*
X791210Y1118870D02*
D03*
X816610D02*
D03*
X791210Y890270D02*
D03*
X816610D02*
D03*
X791210Y1525270D02*
D03*
X816610D02*
D03*
D116*
X842010Y1322070D02*
D03*
Y1118870D02*
D03*
Y890270D02*
D03*
Y1525270D02*
D03*
D117*
X1673450Y839470D02*
D03*
X1717450D02*
D03*
D118*
X619760Y1656080D02*
D03*
D119*
X650760Y1606080D02*
D03*
D120*
X681760Y1656080D02*
D03*
D121*
X616970Y2539220D02*
D03*
Y2289320D02*
D03*
D122*
X631170Y2358870D02*
D03*
D123*
X602770Y2372720D02*
D03*
X631170Y2386570D02*
D03*
X602770Y2400420D02*
D03*
X631170Y2414270D02*
D03*
X602770Y2428120D02*
D03*
X631170Y2441970D02*
D03*
X602770Y2455820D02*
D03*
X631170Y2469670D02*
D03*
D124*
X1187450Y2082230D02*
D03*
Y1980630D02*
D03*
Y2006030D02*
D03*
Y2031430D02*
D03*
Y2056830D02*
D03*
X704850Y1789230D02*
D03*
X730250D02*
D03*
X958850D02*
D03*
X755650D02*
D03*
X806450D02*
D03*
X781050D02*
D03*
X857250D02*
D03*
X831850D02*
D03*
X908050D02*
D03*
X882650D02*
D03*
X933450D02*
D03*
Y2094230D02*
D03*
X882650D02*
D03*
X908050D02*
D03*
X831850D02*
D03*
X857250D02*
D03*
X781050D02*
D03*
X806450D02*
D03*
X755650D02*
D03*
X958850D02*
D03*
X730250D02*
D03*
X704850D02*
D03*
X1757680Y1981200D02*
D03*
X1806480D02*
D03*
X2066130Y864870D02*
D03*
X2089030D02*
D03*
X2111930D02*
D03*
X2134830D02*
D03*
X2157730D02*
D03*
X2077530Y890270D02*
D03*
X2100430D02*
D03*
X2123330D02*
D03*
X2146230D02*
D03*
X2169130D02*
D03*
X2066130Y915670D02*
D03*
X2089030D02*
D03*
X2111930D02*
D03*
X2134830D02*
D03*
X2157730D02*
D03*
D125*
X1988530Y890270D02*
D03*
X2237730D02*
D03*
D126*
X2608750Y1280000D02*
D03*
X2571250Y1269750D02*
D03*
X2424000Y1486000D02*
D03*
X2248750Y1393250D02*
D03*
X2280611Y1394568D02*
D03*
X2250250Y1372750D02*
D03*
X2281750Y1374250D02*
D03*
X2205750Y1379250D02*
D03*
X2192500Y1388500D02*
D03*
X2694250Y1913750D02*
D03*
X2694158Y1865886D02*
D03*
X2716908Y1778636D02*
D03*
X2627000Y1502750D02*
D03*
X2341750Y1634750D02*
D03*
X2351786Y1622044D02*
D03*
X2356104Y1637284D02*
D03*
X2367026Y1634744D02*
D03*
X2337750Y1619250D02*
D03*
X2366772Y1624076D02*
D03*
X1941500Y1503250D02*
D03*
X1435250Y1978750D02*
D03*
X1545000Y1978000D02*
D03*
X1503750Y1977250D02*
D03*
X1494750Y1983500D02*
D03*
X2383750Y2021250D02*
D03*
X2375250Y2013500D02*
D03*
X2536000Y1735500D02*
D03*
X2408000Y1626250D02*
D03*
X2315113Y1584327D02*
D03*
X1745250Y2342750D02*
D03*
X2542250Y1686500D02*
D03*
X2564000Y1377750D02*
D03*
X2514500Y1349250D02*
D03*
X2444750Y1378500D02*
D03*
X2464750Y1379000D02*
D03*
X2475000Y1380250D02*
D03*
X2452750Y2060000D02*
D03*
X2512500Y1868250D02*
D03*
X2387250Y1689000D02*
D03*
X2412170Y1674640D02*
D03*
X2477500Y1679000D02*
D03*
X2049750Y1845500D02*
D03*
X2046000Y1903250D02*
D03*
X2204750Y1914250D02*
D03*
X2194750Y1975250D02*
D03*
X2171750Y1845750D02*
D03*
X2570250Y1451250D02*
D03*
X2323250Y1441000D02*
D03*
X1826750Y1408250D02*
D03*
X2244250Y1429750D02*
D03*
X2313000Y1425250D02*
D03*
X2258250Y1430500D02*
D03*
X2310250Y1573250D02*
D03*
X2313686Y1596644D02*
D03*
X2309368Y1608328D02*
D03*
X2314750Y1552250D02*
D03*
X2267000Y1571500D02*
D03*
X2271250Y1596340D02*
D03*
X2281936Y1597914D02*
D03*
X2272030Y1549400D02*
D03*
X2254250Y1564640D02*
D03*
X2242820Y1562100D02*
D03*
X1642110Y1932940D02*
D03*
X1625600Y1924050D02*
D03*
X1423670Y1390650D02*
D03*
X1369060Y1188720D02*
D03*
X2901750Y909500D02*
D03*
X2433990Y2021370D02*
D03*
X2577910Y1463800D02*
D03*
X2525230Y1437039D02*
D03*
X1343500Y2340250D02*
D03*
X1843439Y1466050D02*
D03*
X725500Y2279500D02*
D03*
X904750Y1381250D02*
D03*
X1012250Y932250D02*
D03*
X904750Y1026750D02*
D03*
Y799500D02*
D03*
X1031500Y1585500D02*
D03*
X932000Y1381500D02*
D03*
X828500Y1382000D02*
D03*
X945500Y1245250D02*
D03*
X1031500Y1179250D02*
D03*
X904750Y1179500D02*
D03*
X828500D02*
D03*
X949500Y1043750D02*
D03*
X828750Y951000D02*
D03*
X2606250Y1573500D02*
D03*
X2690876Y2050542D02*
D03*
X2663698Y2064004D02*
D03*
X2431542Y2078990D02*
D03*
X2386360Y1975930D02*
D03*
X1370694Y1714500D02*
D03*
X1376370Y1748920D02*
D03*
X1835912Y1446780D02*
D03*
X2269744Y1517396D02*
D03*
X1899920Y1432560D02*
D03*
X1860550Y1442212D02*
D03*
X2321560Y1533800D02*
D03*
X1831594Y1434846D02*
D03*
X1833504Y1374780D02*
D03*
X2170938Y1395476D02*
D03*
X1512062Y1520698D02*
D03*
X2700782Y2054660D02*
D03*
X2597930Y1646420D02*
D03*
X1580750Y1811780D02*
D03*
X2612644Y2013712D02*
D03*
X1499000Y1934750D02*
D03*
X1473708Y1774432D02*
D03*
X2327110Y1586900D02*
D03*
X2309050Y1618960D02*
D03*
X1476967Y1692686D02*
D03*
X1482598Y1581658D02*
D03*
X2236724D02*
D03*
X1947164Y1524508D02*
D03*
X1548384Y1634744D02*
D03*
X2338324Y1542796D02*
D03*
X2671008Y2007870D02*
D03*
X2419604D02*
D03*
X1678686Y1943862D02*
D03*
X2603500Y1822450D02*
D03*
X1510792Y1917446D02*
D03*
X1529334Y1528826D02*
D03*
X1561338Y1224026D02*
D03*
X1502750Y1359000D02*
D03*
X1387602Y1447292D02*
D03*
X1385372Y1348430D02*
D03*
X1425940Y1380430D02*
D03*
X1425702Y1234948D02*
D03*
X1451273Y1213187D02*
D03*
X1502250Y1384000D02*
D03*
X1602994Y1530604D02*
D03*
X1425500Y1364500D02*
D03*
X2449790Y1672100D02*
D03*
X2458836Y1686201D02*
D03*
X2421250Y1690500D02*
D03*
X2452895Y1938020D02*
D03*
X2388870Y1958340D02*
D03*
X2492250Y1644460D02*
D03*
X2500884Y2000758D02*
D03*
X2474214D02*
D03*
X1507490Y1763268D02*
D03*
X1561630Y1771358D02*
D03*
X2845308Y1374394D02*
D03*
X2693416D02*
D03*
X1408684Y1829160D02*
D03*
X1399032Y1676146D02*
D03*
X2633980Y1442720D02*
D03*
X2835402Y1365504D02*
D03*
X1430528Y1776222D02*
D03*
X2510536Y1645666D02*
D03*
X1630426Y1869948D02*
D03*
X2657250Y1610000D02*
D03*
X2457196Y1701911D02*
D03*
X2497836Y1747774D02*
D03*
X2603754Y1958086D02*
D03*
X2416556Y1939036D02*
D03*
X2751328Y1953006D02*
D03*
X2703764Y1952498D02*
D03*
X2579878Y1956054D02*
D03*
X2482342Y1646174D02*
D03*
X2527750Y1682750D02*
D03*
X2557000Y1638500D02*
D03*
X2685034Y1932432D02*
D03*
X2426208Y1916176D02*
D03*
X2799155Y1876827D02*
D03*
X2570860D02*
D03*
X2426970Y1939036D02*
D03*
X2707894Y1937766D02*
D03*
X1529588Y1867662D02*
D03*
X2275840Y1675638D02*
D03*
X2314702Y1836166D02*
D03*
X2090674Y1841754D02*
D03*
X2537968Y1538800D02*
D03*
X1579372Y1869440D02*
D03*
X1905254Y1479804D02*
D03*
X1940566Y1361440D02*
D03*
X2224494Y1618704D02*
D03*
X1559306Y1702308D02*
D03*
X2229358Y1558798D02*
D03*
X2337816Y1402588D02*
D03*
X2075180Y1971548D02*
D03*
X2623058Y1408800D02*
D03*
X1577848Y1883156D02*
D03*
X777964Y2366120D02*
D03*
X2395474Y1331976D02*
D03*
X2396998Y1207770D02*
D03*
X2513838Y1136142D02*
D03*
X2801620Y1105662D02*
D03*
X2101062Y1652550D02*
D03*
X2549144Y1383284D02*
D03*
X2715514Y1271778D02*
D03*
X2818638Y1129030D02*
D03*
X2467356Y1315466D02*
D03*
X2698000Y1135000D02*
D03*
X2816352Y1153922D02*
D03*
X2685034Y1196492D02*
D03*
X2577910Y1381260D02*
D03*
X2370490Y1316520D02*
D03*
X2557412Y1388954D02*
D03*
X1790700Y1335532D02*
D03*
X2319790Y1375600D02*
D03*
X1350010Y1249680D02*
D03*
X1214120Y1878330D02*
D03*
X1413750Y1809750D02*
D03*
X1230884Y1759712D02*
D03*
X2699004Y1185672D02*
D03*
X2837180Y1393444D02*
D03*
X2662428Y1484200D02*
D03*
X2876000Y1324500D02*
D03*
X1409192Y1764792D02*
D03*
X1404750Y1715262D02*
D03*
X909774Y1867154D02*
D03*
X1352804Y1893570D02*
D03*
X1331976Y1810258D02*
D03*
X1364488Y1935480D02*
D03*
X2674620Y1269962D02*
D03*
X2529332Y1324356D02*
D03*
X2712212Y1120648D02*
D03*
X2633472Y1152398D02*
D03*
X2584030Y1291082D02*
D03*
X2676652Y1225042D02*
D03*
X2604211Y1324597D02*
D03*
X2702750Y1225500D02*
D03*
X2590800Y1277366D02*
D03*
X2551938Y1339596D02*
D03*
X2715768Y1226820D02*
D03*
X2575560Y1423800D02*
D03*
X2823532Y1199320D02*
D03*
X2801366Y1177036D02*
D03*
X2502662Y1334770D02*
D03*
X1574500Y1799250D02*
D03*
X2489708Y1064768D02*
D03*
X1993392Y1003554D02*
D03*
X2375408Y1331722D02*
D03*
X2350262Y1343660D02*
D03*
X2742184Y1778762D02*
D03*
X2554224Y1764792D02*
D03*
X2550414Y1753779D02*
D03*
X2740914Y1763014D02*
D03*
X2547112Y1645158D02*
D03*
X2577846Y1599438D02*
D03*
X2649728Y1742186D02*
D03*
X2668524Y1842554D02*
D03*
X2521289Y1800098D02*
D03*
X2648458Y1885442D02*
D03*
X2574036Y1573276D02*
D03*
X2766098Y1765338D02*
D03*
X2771648Y1882394D02*
D03*
X2512314Y1852930D02*
D03*
X2494026Y1673352D02*
D03*
X2504948Y1684274D02*
D03*
X2464308Y1646936D02*
D03*
X2541270Y1702308D02*
D03*
X2530094Y1965390D02*
D03*
X2591054D02*
D03*
Y1845310D02*
D03*
X2469678Y1844512D02*
D03*
X2469388Y1950212D02*
D03*
X2496566Y1964944D02*
D03*
X2735326Y1639062D02*
D03*
X2577846Y1533144D02*
D03*
X2707076Y1924304D02*
D03*
X2458212D02*
D03*
X2681732Y1921002D02*
D03*
X2812034Y1824258D02*
D03*
X2576576Y1588800D02*
D03*
X2861818Y1943862D02*
D03*
X2498598Y1941322D02*
D03*
X2504694Y1763522D02*
D03*
X2822194Y1918660D02*
D03*
X2536000Y1676750D02*
D03*
X2527554Y1642618D02*
D03*
X2613739Y1935730D02*
D03*
X2812750Y1931000D02*
D03*
X2572258Y1634490D02*
D03*
X2485136Y1710182D02*
D03*
X2425946Y2050542D02*
D03*
X2596604Y2040928D02*
D03*
X2663642Y2000504D02*
D03*
X2590546D02*
D03*
X2687828Y2013712D02*
D03*
X1479042Y1391412D02*
D03*
X1443736Y1527810D02*
D03*
X1424690Y1503220D02*
D03*
X1646900Y1478836D02*
D03*
X1502410Y1130808D02*
D03*
X2298700Y1931924D02*
D03*
X1955038Y1928876D02*
D03*
X2278634Y1925574D02*
D03*
X2564130Y1815084D02*
D03*
X2059940Y1834134D02*
D03*
X2001266Y1899412D02*
D03*
X2598420Y1780540D02*
D03*
X2589530Y1088390D02*
D03*
X2552526Y1074594D02*
D03*
X1569720Y1880616D02*
D03*
X1611884Y1971548D02*
D03*
X1725168Y1595374D02*
D03*
X1403604Y1612646D02*
D03*
X1369314Y1775460D02*
D03*
X1323086Y1786636D02*
D03*
X1373378Y1022858D02*
D03*
X1368806Y1785112D02*
D03*
X1312245Y1793494D02*
D03*
X1270508Y1090422D02*
D03*
X1395222Y2003044D02*
D03*
X1436878Y1869186D02*
D03*
X1326896Y1255522D02*
D03*
X1323594Y1941322D02*
D03*
X1471638Y1911896D02*
D03*
X1540256Y1772666D02*
D03*
X1592580Y1753362D02*
D03*
X1591818Y1721104D02*
D03*
X1513078Y1775714D02*
D03*
X1549654Y1296670D02*
D03*
X1279398D02*
D03*
X1312418Y1880870D02*
D03*
X1651762Y1775968D02*
D03*
X1312926Y1260602D02*
D03*
X1330198Y1391158D02*
D03*
X2465832Y1060704D02*
D03*
X2389124Y1348994D02*
D03*
X2377948Y1345946D02*
D03*
X1555750Y1852168D02*
D03*
X2449087Y1690859D02*
D03*
X1692910Y1885188D02*
D03*
X2439162Y1672082D02*
D03*
X1670558Y1871472D02*
D03*
X2479548Y1810004D02*
D03*
X1613154Y1960545D02*
D03*
X2482558Y1858010D02*
D03*
X2504941Y1806963D02*
D03*
X1634714Y1952244D02*
D03*
X1575600Y1899412D02*
D03*
X2590800Y1805648D02*
D03*
X1636522Y1877568D02*
D03*
X2474722Y1637538D02*
D03*
X1615948Y1876298D02*
D03*
X2577846Y1478534D02*
D03*
X1615706Y1884680D02*
D03*
X2562737Y1468735D02*
D03*
X1615948Y1846620D02*
D03*
X2394204Y1644904D02*
D03*
X1580896Y1834896D02*
D03*
X1569974Y1826620D02*
D03*
X1735582Y1354074D02*
D03*
X2334768Y1346200D02*
D03*
X1698498Y1393190D02*
D03*
X2326640Y1349248D02*
D03*
X2319710Y1327404D02*
D03*
X1709674D02*
D03*
X1634490Y1549146D02*
D03*
X1631188Y1392682D02*
D03*
X1522730Y1662684D02*
D03*
X2245861Y1606631D02*
D03*
X2281428Y1618996D02*
D03*
X2045208Y1614932D02*
D03*
X1974342Y1685798D02*
D03*
X1519750Y1764538D02*
D03*
X2208784Y1613154D02*
D03*
X1468882Y1709928D02*
D03*
X1435862Y1721358D02*
D03*
X1461722Y1676448D02*
D03*
X2324608Y1618742D02*
D03*
X2569710Y1829562D02*
D03*
X2101596D02*
D03*
X2002790Y2054860D02*
D03*
X2085594Y1973834D02*
D03*
X2110486Y1885334D02*
D03*
X2569972Y1387602D02*
D03*
Y1439164D02*
D03*
X2427224Y1609852D02*
D03*
X2170684Y1651762D02*
D03*
X2350008Y1467612D02*
D03*
X2325341Y1383792D02*
D03*
X1784096Y1603502D02*
D03*
X1906016Y1388618D02*
D03*
X2299462Y1369314D02*
D03*
X1871980Y1447800D02*
D03*
X2207768Y1437894D02*
D03*
X1877568Y1414018D02*
D03*
X2251456Y1516126D02*
D03*
X1898904Y1468120D02*
D03*
X1871726Y1464310D02*
D03*
X2313940Y1517396D02*
D03*
X1352804Y1782572D02*
D03*
X1301496Y1783842D02*
D03*
X1379301Y1266190D02*
D03*
X2350008Y916686D02*
D03*
X1630000Y1360000D02*
D03*
X1535000Y1366750D02*
D03*
X1535250Y1378000D02*
D03*
Y1412500D02*
D03*
X1493250Y1437000D02*
D03*
X1491500Y1420000D02*
D03*
X1492500Y1403750D02*
D03*
X1501750Y1400000D02*
D03*
X1473500Y1364250D02*
D03*
X1424250Y1405750D02*
D03*
X1433000Y1462500D02*
D03*
X1389250Y1414500D02*
D03*
X1636750Y1222000D02*
D03*
X1059250Y950250D02*
D03*
X904750D02*
D03*
X947500Y814250D02*
D03*
X904750Y1285000D02*
D03*
X931750Y1585250D02*
D03*
X818000Y1585500D02*
D03*
X968000Y2146000D02*
D03*
X968500Y2172000D02*
D03*
X763250Y2204000D02*
D03*
X689250Y2132250D02*
D03*
X562500Y2184500D02*
D03*
X842750Y2405750D02*
D03*
X803500Y2412000D02*
D03*
X1516500Y2384250D02*
D03*
X1508250Y2327750D02*
D03*
X795500Y2384750D02*
D03*
X792250Y2404000D02*
D03*
X1318750Y2385500D02*
D03*
X1420250Y2384750D02*
D03*
X1638000D02*
D03*
X1600000Y2339250D02*
D03*
X1246000Y2339500D02*
D03*
X1766500Y2187000D02*
D03*
X904250Y1520750D02*
D03*
X1105750Y1475250D02*
D03*
X931250Y1304750D02*
D03*
X1014250Y1159250D02*
D03*
X1387000Y1044750D02*
D03*
X1651000Y839000D02*
D03*
X1740000Y838500D02*
D03*
X1722000Y890000D02*
D03*
X2708500Y1159250D02*
D03*
X2744500Y1199500D02*
D03*
X2711000Y1208500D02*
D03*
X2859750Y1135250D02*
D03*
X2857000Y1167250D02*
D03*
X2827290Y1164400D02*
D03*
X2769000Y1247500D02*
D03*
X2789174Y1185672D02*
D03*
X2801000Y1192250D02*
D03*
X2802500Y1224000D02*
D03*
X2770000Y1136000D02*
D03*
X1568750Y1606250D02*
D03*
X1386500Y1551000D02*
D03*
X1832250Y1318250D02*
D03*
X1899250Y1333500D02*
D03*
X1905750Y1318750D02*
D03*
X1945000Y1342750D02*
D03*
X1827250Y1422250D02*
D03*
X1841250Y1429000D02*
D03*
X1944750Y1422750D02*
D03*
X1798250Y1486500D02*
D03*
X1906000Y1510750D02*
D03*
X1796000Y1912750D02*
D03*
X1365000Y1947250D02*
D03*
X1364750Y1902000D02*
D03*
X1410500Y1889500D02*
D03*
X1418250Y1911500D02*
D03*
X1409500Y1902000D02*
D03*
X1412500Y1937250D02*
D03*
X1423750D02*
D03*
X1498750Y1847500D02*
D03*
X1529000Y1889500D02*
D03*
X1449750Y1773250D02*
D03*
X1414500Y1726500D02*
D03*
X1513000Y1700250D02*
D03*
X1428000Y1703750D02*
D03*
X1454571Y1690332D02*
D03*
X1449000Y1703250D02*
D03*
X1476250Y1678000D02*
D03*
X1490500Y1682000D02*
D03*
X1632000Y1764250D02*
D03*
X1575250Y1776000D02*
D03*
X1422250Y1765000D02*
D03*
X1404750Y1778500D02*
D03*
X1358250Y1836250D02*
D03*
X1366250Y1844750D02*
D03*
X1579000Y1917250D02*
D03*
X1607566Y1949704D02*
D03*
X2167250Y1859750D02*
D03*
X2387500Y1929000D02*
D03*
X2536250Y2029500D02*
D03*
X2497750Y1954000D02*
D03*
X2428500Y1994250D02*
D03*
X2531500Y1981500D02*
D03*
X2548750Y1908250D02*
D03*
X2743750Y1982500D02*
D03*
X2703750Y1974000D02*
D03*
X2705000Y2015250D02*
D03*
X2798500Y2026750D02*
D03*
X2815250Y1992000D02*
D03*
X2662000Y1458000D02*
D03*
X2606250Y1445750D02*
D03*
X2474750Y1296750D02*
D03*
X2524500Y1377250D02*
D03*
X2404750Y1294250D02*
D03*
X2368500Y1293750D02*
D03*
X2368250Y1342250D02*
D03*
X2360750Y1334750D02*
D03*
X2280750Y1439500D02*
D03*
X2309250Y1459000D02*
D03*
X2313250Y1471750D02*
D03*
X2270750Y1462500D02*
D03*
X2244500Y1547500D02*
D03*
X2307750Y1505250D02*
D03*
X2307500Y1558750D02*
D03*
X2314250Y1673750D02*
D03*
X2374000Y1582250D02*
D03*
X2386500Y1721750D02*
D03*
X2548250Y1773500D02*
D03*
X2498250Y1721750D02*
D03*
X2519873Y1631080D02*
D03*
X2513750Y1595750D02*
D03*
X2557000Y1592500D02*
D03*
X2558500Y1602750D02*
D03*
X2572750Y1518750D02*
D03*
X2512000Y1424750D02*
D03*
X2150500Y1859750D02*
D03*
X2559000Y1935750D02*
D03*
X1343500Y1819250D02*
D03*
X1346750Y1839250D02*
D03*
X1353500Y1868500D02*
D03*
Y1858750D02*
D03*
X1365250Y1868250D02*
D03*
X2376750Y1645000D02*
D03*
X2404000Y1349000D02*
D03*
X2231500Y1464000D02*
D03*
X949750Y1453250D02*
D03*
X1348750Y2566000D02*
D03*
X1552500Y2567500D02*
D03*
X1402250Y1084250D02*
D03*
X2817500Y858000D02*
D03*
X2753250Y1211750D02*
D03*
X2817000Y1965000D02*
D03*
X2499500Y1980000D02*
D03*
X2042750Y1943750D02*
D03*
X2015750Y1974000D02*
D03*
X1904750Y1495000D02*
D03*
X1838250Y1518500D02*
D03*
X1832000Y1502000D02*
D03*
X1797250Y1406750D02*
D03*
X1831750Y1393750D02*
D03*
X1841750Y1394250D02*
D03*
X1840250Y1336000D02*
D03*
X1394250Y1963500D02*
D03*
X2232750Y1413500D02*
D03*
X2280500Y1404250D02*
D03*
X2279111Y1418069D02*
D03*
X2404000Y1325000D02*
D03*
X2387250Y1375600D02*
D03*
X2365750Y1429500D02*
D03*
X2401500Y1422500D02*
D03*
X2489500Y1339250D02*
D03*
X2603750Y1426250D02*
D03*
X2575000Y1557250D02*
D03*
X2527250Y1558250D02*
D03*
X2360750Y1692000D02*
D03*
X2362750Y1673750D02*
D03*
X2279250Y1428000D02*
D03*
M02*
