%FSLAX44Y44*%
%MOMM*%
G71*
G01*
G75*
G04 Layer_Color=32896*
%ADD10R,1.1000X1.7000*%
%ADD11R,1.5500X0.4500*%
%ADD12R,1.7000X1.1000*%
%ADD13R,1.4000X2.1000*%
%ADD14R,1.2000X1.2000*%
%ADD15R,1.2000X1.2000*%
%ADD16O,0.3000X2.5400*%
%ADD17O,2.5400X0.3000*%
%ADD18R,2.1000X1.4000*%
%ADD19R,1.5500X0.5500*%
%ADD20O,1.7000X0.3500*%
%ADD21O,1.5500X0.2500*%
%ADD22O,0.2500X1.5500*%
%ADD23R,0.5000X3.1000*%
%ADD24R,2.0000X2.5000*%
%ADD25R,2.0000X3.3000*%
%ADD26O,2.1000X0.4500*%
%ADD27R,0.7000X2.0000*%
%ADD28R,1.0000X2.0000*%
%ADD29R,1.2000X2.0000*%
%ADD30R,1.5000X2.0000*%
%ADD31R,2.0000X3.5000*%
%ADD32R,2.0000X1.8000*%
%ADD33C,0.1500*%
%ADD34R,1.5000X1.5000*%
%ADD35C,1.5000*%
%ADD36R,1.5000X1.5000*%
%ADD37C,1.3500*%
%ADD38R,1.2500X1.2500*%
%ADD39C,1.6000*%
%ADD40R,1.6000X1.6000*%
%ADD41C,1.2000*%
%ADD42O,1.5240X4.0640*%
%ADD43O,4.0640X1.5240*%
%ADD44O,1.5240X4.3180*%
%ADD45C,4.7600*%
%ADD46R,1.6900X1.6900*%
%ADD47C,1.6900*%
%ADD48C,1.5240*%
%ADD49C,4.5000*%
%ADD50C,0.7100*%
%ADD51C,1.0160*%
%ADD52C,0.2540*%
%ADD53C,1.9160*%
G04:AMPARAMS|DCode=54|XSize=2.424mm|YSize=2.424mm|CornerRadius=0mm|HoleSize=0mm|Usage=FLASHONLY|Rotation=0.000|XOffset=0mm|YOffset=0mm|HoleType=Round|Shape=Relief|Width=0.254mm|Gap=0.254mm|Entries=4|*
%AMTHD54*
7,0,0,2.4240,1.9160,0.2540,45*
%
%ADD54THD54*%
%ADD55C,1.8160*%
G04:AMPARAMS|DCode=56|XSize=2.274mm|YSize=2.274mm|CornerRadius=0mm|HoleSize=0mm|Usage=FLASHONLY|Rotation=0.000|XOffset=0mm|YOffset=0mm|HoleType=Round|Shape=Relief|Width=0.254mm|Gap=0.254mm|Entries=4|*
%AMTHD56*
7,0,0,2.2740,1.7660,0.2540,45*
%
%ADD56THD56*%
%ADD57C,2.0160*%
G04:AMPARAMS|DCode=58|XSize=2.524mm|YSize=2.524mm|CornerRadius=0mm|HoleSize=0mm|Usage=FLASHONLY|Rotation=0.000|XOffset=0mm|YOffset=0mm|HoleType=Round|Shape=Relief|Width=0.254mm|Gap=0.254mm|Entries=4|*
%AMTHD58*
7,0,0,2.5240,2.0160,0.2540,45*
%
%ADD58THD58*%
%ADD59C,1.7660*%
%ADD60O,1.7780X4.3180*%
%ADD61O,4.3180X1.7780*%
%AMTHOVALD62*
21,1,2.7940,2.2860,0,0,270.0*
1,1,2.2860,0.0000,1.3970*
1,1,2.2860,0.0000,-1.3970*
21,0,2.7940,1.7780,0,0,270.0*
1,0,1.7780,0.0000,1.3970*
1,0,1.7780,0.0000,-1.3970*
4,0,4,-0.0898,1.3072,-0.8980,2.1154,-0.7184,2.2950,0.0898,1.4868,-0.0898,1.3072,0.0*
4,0,4,-0.0898,-1.4868,0.7184,-2.2950,0.8980,-2.1154,0.0898,-1.3072,-0.0898,-1.4868,0.0*
4,0,4,-0.0898,1.4868,0.7184,2.2950,0.8980,2.1154,0.0898,1.3072,-0.0898,1.4868,0.0*
4,0,4,-0.0898,-1.3072,-0.8980,-2.1154,-0.7184,-2.2950,0.0898,-1.4868,-0.0898,-1.3072,0.0*
%
%ADD62THOVALD62*%

%ADD63C,4.2760*%
%ADD64C,2.1060*%
G04:AMPARAMS|DCode=65|XSize=2.424mm|YSize=2.424mm|CornerRadius=0mm|HoleSize=0mm|Usage=FLASHONLY|Rotation=0.000|XOffset=0mm|YOffset=0mm|HoleType=Round|Shape=Relief|Width=0.254mm|Gap=0.254mm|Entries=4|*
%AMTHD65*
7,0,0,2.4240,1.9160,0.2540,45*
%
%ADD65THD65*%
%ADD66C,1.9160*%
%ADD67C,4.2160*%
%ADD68C,2.2060*%
%ADD69C,2.0160*%
%ADD70C,1.3160*%
G04:AMPARAMS|DCode=71|XSize=1.824mm|YSize=1.824mm|CornerRadius=0mm|HoleSize=0mm|Usage=FLASHONLY|Rotation=0.000|XOffset=0mm|YOffset=0mm|HoleType=Round|Shape=Relief|Width=0.254mm|Gap=0.254mm|Entries=4|*
%AMTHD71*
7,0,0,1.8240,1.3160,0.2540,45*
%
%ADD71THD71*%
G04:AMPARAMS|DCode=72|XSize=2.324mm|YSize=2.324mm|CornerRadius=0mm|HoleSize=0mm|Usage=FLASHONLY|Rotation=0.000|XOffset=0mm|YOffset=0mm|HoleType=Round|Shape=Relief|Width=0.254mm|Gap=0.254mm|Entries=4|*
%AMTHD72*
7,0,0,2.3240,1.8160,0.2540,45*
%
%ADD72THD72*%
%AMTHOVALD73*
21,1,2.5400,2.2860,0,0,90.0*
1,1,2.2860,0.0000,-1.2700*
1,1,2.2860,0.0000,1.2700*
21,0,2.5400,1.7780,0,0,90.0*
1,0,1.7780,0.0000,-1.2700*
1,0,1.7780,0.0000,1.2700*
4,0,4,0.0898,-1.1802,0.8980,-1.9884,0.7184,-2.1680,-0.0898,-1.3598,0.0898,-1.1802,0.0*
4,0,4,0.0898,1.3598,-0.7184,2.1680,-0.8980,1.9884,-0.0898,1.1802,0.0898,1.3598,0.0*
4,0,4,0.0898,-1.3598,-0.7184,-2.1680,-0.8980,-1.9884,-0.0898,-1.1802,0.0898,-1.3598,0.0*
4,0,4,0.0898,1.1802,0.8980,1.9884,0.7184,2.1680,-0.0898,1.3598,0.0898,1.1802,0.0*
%
%ADD73THOVALD73*%

%AMTHOVALD74*
21,1,2.5400,2.2860,0,0,180.0*
1,1,2.2860,1.2700,0.0000*
1,1,2.2860,-1.2700,0.0000*
21,0,2.5400,1.7780,0,0,180.0*
1,0,1.7780,1.2700,0.0000*
1,0,1.7780,-1.2700,0.0000*
4,0,4,1.1802,0.0898,1.9884,0.8980,2.1680,0.7184,1.3598,-0.0898,1.1802,0.0898,0.0*
4,0,4,-1.3598,0.0898,-2.1680,-0.7184,-1.9884,-0.8980,-1.1802,-0.0898,-1.3598,0.0898,0.0*
4,0,4,1.3598,0.0898,2.1680,-0.7184,1.9884,-0.8980,1.1802,-0.0898,1.3598,0.0898,0.0*
4,0,4,-1.1802,0.0898,-1.9884,0.8980,-2.1680,0.7184,-1.3598,-0.0898,-1.1802,0.0898,0.0*
%
%ADD74THOVALD74*%

%ADD75O,1.7780X4.5720*%
G04:AMPARAMS|DCode=76|XSize=4.784mm|YSize=4.784mm|CornerRadius=0mm|HoleSize=0mm|Usage=FLASHONLY|Rotation=0.000|XOffset=0mm|YOffset=0mm|HoleType=Round|Shape=Relief|Width=0.254mm|Gap=0.254mm|Entries=4|*
%AMTHD76*
7,0,0,4.7840,4.2760,0.2540,45*
%
%ADD76THD76*%
G04:AMPARAMS|DCode=77|XSize=2.614mm|YSize=2.614mm|CornerRadius=0mm|HoleSize=0mm|Usage=FLASHONLY|Rotation=0.000|XOffset=0mm|YOffset=0mm|HoleType=Round|Shape=Relief|Width=0.254mm|Gap=0.254mm|Entries=4|*
%AMTHD77*
7,0,0,2.6140,2.1060,0.2540,45*
%
%ADD77THD77*%
G04:AMPARAMS|DCode=78|XSize=2.524mm|YSize=2.524mm|CornerRadius=0mm|HoleSize=0mm|Usage=FLASHONLY|Rotation=0.000|XOffset=0mm|YOffset=0mm|HoleType=Round|Shape=Relief|Width=0.254mm|Gap=0.254mm|Entries=4|*
%AMTHD78*
7,0,0,2.5240,2.0160,0.2540,45*
%
%ADD78THD78*%
%ADD79C,0.6000*%
%ADD80C,0.2500*%
%ADD81C,0.2000*%
%ADD82C,0.1016*%
%ADD83C,0.1778*%
%ADD84C,0.2032*%
%ADD85C,0.5080*%
%ADD86C,0.2794*%
%ADD87R,1.3032X1.9032*%
%ADD88R,1.7532X0.6532*%
%ADD89R,1.9032X1.3032*%
%ADD90R,1.6032X2.3032*%
%ADD91R,1.4032X1.4032*%
%ADD92R,1.4032X1.4032*%
%ADD93O,0.5032X2.7432*%
%ADD94O,2.7432X0.5032*%
%ADD95R,2.3032X1.6032*%
%ADD96R,1.7532X0.7532*%
%ADD97O,1.9032X0.5532*%
%ADD98O,1.7532X0.4532*%
%ADD99O,0.4532X1.7532*%
%ADD100R,0.7032X3.3032*%
%ADD101R,2.2032X2.7032*%
%ADD102R,2.2032X3.5032*%
%ADD103O,2.3032X0.6532*%
%ADD104R,0.9032X2.2032*%
%ADD105R,1.2032X2.2032*%
%ADD106R,1.4032X2.2032*%
%ADD107R,1.7032X2.2032*%
%ADD108R,2.2032X3.7032*%
%ADD109R,2.2032X2.0032*%
%ADD110R,1.7032X1.7032*%
%ADD111C,1.7032*%
%ADD112R,1.7032X1.7032*%
%ADD113C,1.5532*%
%ADD114R,1.4532X1.4532*%
%ADD115C,1.8032*%
%ADD116R,1.8032X1.8032*%
%ADD117C,1.4032*%
%ADD118O,1.7272X4.2672*%
%ADD119O,4.2672X1.7272*%
%ADD120O,1.7272X4.5212*%
%ADD121C,4.9632*%
%ADD122R,1.8932X1.8932*%
%ADD123C,1.8932*%
%ADD124C,1.7272*%
%ADD125C,4.7032*%
%ADD126C,0.9132*%
D52*
X2476504Y1934213D02*
X2473965Y1936752D01*
Y1941831D01*
X2476504Y1944370D01*
X2486661D01*
X2489200Y1941831D01*
Y1936752D01*
X2486661Y1934213D01*
X2473965Y1929135D02*
Y1918978D01*
X2476504D01*
X2486661Y1929135D01*
X2489200D01*
X2486661Y1913900D02*
X2489200Y1911361D01*
Y1906282D01*
X2486661Y1903743D01*
X2476504D01*
X2473965Y1906282D01*
Y1911361D01*
X2476504Y1913900D01*
X2479043D01*
X2481582Y1911361D01*
Y1903743D01*
X2449827Y2034544D02*
X2447287Y2032005D01*
X2442209D01*
X2439670Y2034544D01*
Y2044701D01*
X2442209Y2047240D01*
X2447287D01*
X2449827Y2044701D01*
X2454905Y2032005D02*
X2465062D01*
Y2034544D01*
X2454905Y2044701D01*
Y2047240D01*
X2470140Y2034544D02*
X2472679Y2032005D01*
X2477758D01*
X2480297Y2034544D01*
Y2037083D01*
X2477758Y2039622D01*
X2480297Y2042162D01*
Y2044701D01*
X2477758Y2047240D01*
X2472679D01*
X2470140Y2044701D01*
Y2042162D01*
X2472679Y2039622D01*
X2470140Y2037083D01*
Y2034544D01*
X2472679Y2039622D02*
X2477758D01*
X1875794Y1287783D02*
X1873255Y1290323D01*
Y1295401D01*
X1875794Y1297940D01*
X1885951D01*
X1888490Y1295401D01*
Y1290323D01*
X1885951Y1287783D01*
X1873255Y1282705D02*
Y1272548D01*
X1875794D01*
X1885951Y1282705D01*
X1888490D01*
X1873255Y1267470D02*
Y1257313D01*
X1875794D01*
X1885951Y1267470D01*
X1888490D01*
X1850394Y1289053D02*
X1847855Y1291593D01*
Y1296671D01*
X1850394Y1299210D01*
X1860551D01*
X1863090Y1296671D01*
Y1291593D01*
X1860551Y1289053D01*
X1847855Y1283975D02*
Y1273818D01*
X1850394D01*
X1860551Y1283975D01*
X1863090D01*
X1847855Y1258583D02*
X1850394Y1263661D01*
X1855473Y1268740D01*
X1860551D01*
X1863090Y1266201D01*
Y1261122D01*
X1860551Y1258583D01*
X1858012D01*
X1855473Y1261122D01*
Y1268740D01*
X1873254Y1418593D02*
X1870715Y1421133D01*
Y1426211D01*
X1873254Y1428750D01*
X1883411D01*
X1885950Y1426211D01*
Y1421133D01*
X1883411Y1418593D01*
X1870715Y1413515D02*
Y1403358D01*
X1873254D01*
X1883411Y1413515D01*
X1885950D01*
X1870715Y1388123D02*
Y1398280D01*
X1878333D01*
X1875793Y1393201D01*
Y1390662D01*
X1878333Y1388123D01*
X1883411D01*
X1885950Y1390662D01*
Y1395741D01*
X1883411Y1398280D01*
X1888494Y1460503D02*
X1885955Y1463042D01*
Y1468121D01*
X1888494Y1470660D01*
X1898651D01*
X1901190Y1468121D01*
Y1463042D01*
X1898651Y1460503D01*
X1885955Y1455425D02*
Y1445268D01*
X1888494D01*
X1898651Y1455425D01*
X1901190D01*
Y1432572D02*
X1885955D01*
X1893573Y1440190D01*
Y1430033D01*
X1851664Y1534163D02*
X1849125Y1536703D01*
Y1541781D01*
X1851664Y1544320D01*
X1861821D01*
X1864360Y1541781D01*
Y1536703D01*
X1861821Y1534163D01*
X1849125Y1529085D02*
Y1518928D01*
X1851664D01*
X1861821Y1529085D01*
X1864360D01*
X1851664Y1513850D02*
X1849125Y1511311D01*
Y1506232D01*
X1851664Y1503693D01*
X1854203D01*
X1856743Y1506232D01*
Y1508772D01*
Y1506232D01*
X1859282Y1503693D01*
X1861821D01*
X1864360Y1506232D01*
Y1511311D01*
X1861821Y1513850D01*
X1447804Y1403353D02*
X1445265Y1405892D01*
Y1410971D01*
X1447804Y1413510D01*
X1457961D01*
X1460500Y1410971D01*
Y1405892D01*
X1457961Y1403353D01*
X1445265Y1398275D02*
Y1388118D01*
X1447804D01*
X1457961Y1398275D01*
X1460500D01*
Y1372883D02*
Y1383040D01*
X1450343Y1372883D01*
X1447804D01*
X1445265Y1375422D01*
Y1380501D01*
X1447804Y1383040D01*
X1457963Y1479546D02*
X1460502Y1482085D01*
X1465581D01*
X1468120Y1479546D01*
Y1469389D01*
X1465581Y1466850D01*
X1460502D01*
X1457963Y1469389D01*
X1452885Y1482085D02*
X1442728D01*
Y1479546D01*
X1452885Y1469389D01*
Y1466850D01*
X1437650D02*
X1432572D01*
X1435111D01*
Y1482085D01*
X1437650Y1479546D01*
X2828286Y1191257D02*
X2830825Y1188717D01*
Y1183639D01*
X2828286Y1181100D01*
X2818129D01*
X2815590Y1183639D01*
Y1188717D01*
X2818129Y1191257D01*
X2830825Y1196335D02*
Y1206492D01*
X2828286D01*
X2818129Y1196335D01*
X2815590D01*
X2828286Y1211570D02*
X2830825Y1214109D01*
Y1219188D01*
X2828286Y1221727D01*
X2818129D01*
X2815590Y1219188D01*
Y1214109D01*
X2818129Y1211570D01*
X2828286D01*
X2781303Y1183636D02*
X2783842Y1186175D01*
X2788921D01*
X2791460Y1183636D01*
Y1173479D01*
X2788921Y1170940D01*
X2783842D01*
X2781303Y1173479D01*
X2766068Y1186175D02*
X2771147Y1183636D01*
X2776225Y1178558D01*
Y1173479D01*
X2773686Y1170940D01*
X2768607D01*
X2766068Y1173479D01*
Y1176018D01*
X2768607Y1178558D01*
X2776225D01*
X2760990Y1173479D02*
X2758451Y1170940D01*
X2753372D01*
X2750833Y1173479D01*
Y1183636D01*
X2753372Y1186175D01*
X2758451D01*
X2760990Y1183636D01*
Y1181097D01*
X2758451Y1178558D01*
X2750833D01*
X2792734Y1943103D02*
X2790195Y1945643D01*
Y1950721D01*
X2792734Y1953260D01*
X2802891D01*
X2805430Y1950721D01*
Y1945643D01*
X2802891Y1943103D01*
X2790195Y1927868D02*
X2792734Y1932947D01*
X2797812Y1938025D01*
X2802891D01*
X2805430Y1935486D01*
Y1930407D01*
X2802891Y1927868D01*
X2800352D01*
X2797812Y1930407D01*
Y1938025D01*
X2792734Y1922790D02*
X2790195Y1920251D01*
Y1915172D01*
X2792734Y1912633D01*
X2795273D01*
X2797812Y1915172D01*
X2800352Y1912633D01*
X2802891D01*
X2805430Y1915172D01*
Y1920251D01*
X2802891Y1922790D01*
X2800352D01*
X2797812Y1920251D01*
X2795273Y1922790D01*
X2792734D01*
X2797812Y1920251D02*
Y1915172D01*
X2769867Y2051054D02*
X2767328Y2048515D01*
X2762249D01*
X2759710Y2051054D01*
Y2061211D01*
X2762249Y2063750D01*
X2767328D01*
X2769867Y2061211D01*
X2785102Y2048515D02*
X2780023Y2051054D01*
X2774945Y2056133D01*
Y2061211D01*
X2777484Y2063750D01*
X2782563D01*
X2785102Y2061211D01*
Y2058672D01*
X2782563Y2056133D01*
X2774945D01*
X2790180Y2048515D02*
X2800337D01*
Y2051054D01*
X2790180Y2061211D01*
Y2063750D01*
X2002794Y1865633D02*
X2000255Y1868172D01*
Y1873251D01*
X2002794Y1875790D01*
X2012951D01*
X2015490Y1873251D01*
Y1868172D01*
X2012951Y1865633D01*
X2000255Y1850398D02*
X2002794Y1855477D01*
X2007872Y1860555D01*
X2012951D01*
X2015490Y1858016D01*
Y1852937D01*
X2012951Y1850398D01*
X2010412D01*
X2007872Y1852937D01*
Y1860555D01*
X2000255Y1835163D02*
X2002794Y1840242D01*
X2007872Y1845320D01*
X2012951D01*
X2015490Y1842781D01*
Y1837702D01*
X2012951Y1835163D01*
X2010412D01*
X2007872Y1837702D01*
Y1845320D01*
X2086614Y1866903D02*
X2084075Y1869442D01*
Y1874521D01*
X2086614Y1877060D01*
X2096771D01*
X2099310Y1874521D01*
Y1869442D01*
X2096771Y1866903D01*
X2084075Y1851668D02*
X2086614Y1856747D01*
X2091693Y1861825D01*
X2096771D01*
X2099310Y1859286D01*
Y1854207D01*
X2096771Y1851668D01*
X2094232D01*
X2091693Y1854207D01*
Y1861825D01*
X2084075Y1836433D02*
Y1846590D01*
X2091693D01*
X2089153Y1841512D01*
Y1838972D01*
X2091693Y1836433D01*
X2096771D01*
X2099310Y1838972D01*
Y1844051D01*
X2096771Y1846590D01*
X2063746Y1968497D02*
X2066285Y1965957D01*
Y1960879D01*
X2063746Y1958340D01*
X2053589D01*
X2051050Y1960879D01*
Y1965957D01*
X2053589Y1968497D01*
X2066285Y1983732D02*
X2063746Y1978653D01*
X2058667Y1973575D01*
X2053589D01*
X2051050Y1976114D01*
Y1981193D01*
X2053589Y1983732D01*
X2056128D01*
X2058667Y1981193D01*
Y1973575D01*
X2051050Y1996428D02*
X2066285D01*
X2058667Y1988810D01*
Y1998967D01*
X2471424Y1620523D02*
X2468885Y1623062D01*
Y1628141D01*
X2471424Y1630680D01*
X2481581D01*
X2484120Y1628141D01*
Y1623062D01*
X2481581Y1620523D01*
X2468885Y1605288D02*
X2471424Y1610367D01*
X2476503Y1615445D01*
X2481581D01*
X2484120Y1612906D01*
Y1607827D01*
X2481581Y1605288D01*
X2479042D01*
X2476503Y1607827D01*
Y1615445D01*
X2471424Y1600210D02*
X2468885Y1597671D01*
Y1592592D01*
X2471424Y1590053D01*
X2473963D01*
X2476503Y1592592D01*
Y1595132D01*
Y1592592D01*
X2479042Y1590053D01*
X2481581D01*
X2484120Y1592592D01*
Y1597671D01*
X2481581Y1600210D01*
X2349503Y1554476D02*
X2352043Y1557015D01*
X2357121D01*
X2359660Y1554476D01*
Y1544319D01*
X2357121Y1541780D01*
X2352043D01*
X2349503Y1544319D01*
X2334268Y1557015D02*
X2339347Y1554476D01*
X2344425Y1549397D01*
Y1544319D01*
X2341886Y1541780D01*
X2336807D01*
X2334268Y1544319D01*
Y1546858D01*
X2336807Y1549397D01*
X2344425D01*
X2319033Y1541780D02*
X2329190D01*
X2319033Y1551937D01*
Y1554476D01*
X2321572Y1557015D01*
X2326651D01*
X2329190Y1554476D01*
X2381254Y1275083D02*
X2378715Y1277623D01*
Y1282701D01*
X2381254Y1285240D01*
X2391411D01*
X2393950Y1282701D01*
Y1277623D01*
X2391411Y1275083D01*
X2378715Y1259848D02*
X2381254Y1264927D01*
X2386333Y1270005D01*
X2391411D01*
X2393950Y1267466D01*
Y1262387D01*
X2391411Y1259848D01*
X2388872D01*
X2386333Y1262387D01*
Y1270005D01*
X2393950Y1254770D02*
Y1249691D01*
Y1252231D01*
X2378715D01*
X2381254Y1254770D01*
X2546607Y1480562D02*
X2549147Y1483101D01*
X2554225D01*
X2556764Y1480562D01*
Y1470405D01*
X2554225Y1467866D01*
X2549147D01*
X2546607Y1470405D01*
X2531372Y1483101D02*
X2536451Y1480562D01*
X2541529Y1475484D01*
Y1470405D01*
X2538990Y1467866D01*
X2533911D01*
X2531372Y1470405D01*
Y1472944D01*
X2533911Y1475484D01*
X2541529D01*
X2526294Y1480562D02*
X2523755Y1483101D01*
X2518676D01*
X2516137Y1480562D01*
Y1470405D01*
X2518676Y1467866D01*
X2523755D01*
X2526294Y1470405D01*
Y1480562D01*
X2348487Y1632962D02*
X2351026Y1635501D01*
X2356105D01*
X2358644Y1632962D01*
Y1622805D01*
X2356105Y1620266D01*
X2351026D01*
X2348487Y1622805D01*
X2333252Y1635501D02*
X2343409D01*
Y1627883D01*
X2338331Y1630423D01*
X2335791D01*
X2333252Y1627883D01*
Y1622805D01*
X2335791Y1620266D01*
X2340870D01*
X2343409Y1622805D01*
X2328174D02*
X2325635Y1620266D01*
X2320556D01*
X2318017Y1622805D01*
Y1632962D01*
X2320556Y1635501D01*
X2325635D01*
X2328174Y1632962D01*
Y1630423D01*
X2325635Y1627883D01*
X2318017D01*
X2467614Y1427483D02*
X2465075Y1430022D01*
Y1435101D01*
X2467614Y1437640D01*
X2477771D01*
X2480310Y1435101D01*
Y1430022D01*
X2477771Y1427483D01*
X2465075Y1412248D02*
Y1422405D01*
X2472693D01*
X2470153Y1417327D01*
Y1414787D01*
X2472693Y1412248D01*
X2477771D01*
X2480310Y1414787D01*
Y1419866D01*
X2477771Y1422405D01*
X2467614Y1407170D02*
X2465075Y1404631D01*
Y1399552D01*
X2467614Y1397013D01*
X2470153D01*
X2472693Y1399552D01*
X2475232Y1397013D01*
X2477771D01*
X2480310Y1399552D01*
Y1404631D01*
X2477771Y1407170D01*
X2475232D01*
X2472693Y1404631D01*
X2470153Y1407170D01*
X2467614D01*
X2472693Y1404631D02*
Y1399552D01*
X2383539Y1450590D02*
X2386078Y1453129D01*
X2391157D01*
X2393696Y1450590D01*
Y1440433D01*
X2391157Y1437894D01*
X2386078D01*
X2383539Y1440433D01*
X2368304Y1453129D02*
X2378461D01*
Y1445511D01*
X2373383Y1448051D01*
X2370843D01*
X2368304Y1445511D01*
Y1440433D01*
X2370843Y1437894D01*
X2375922D01*
X2378461Y1440433D01*
X2363226Y1453129D02*
X2353069D01*
Y1450590D01*
X2363226Y1440433D01*
Y1437894D01*
X2236474Y1394463D02*
X2233935Y1397003D01*
Y1402081D01*
X2236474Y1404620D01*
X2246631D01*
X2249170Y1402081D01*
Y1397003D01*
X2246631Y1394463D01*
X2233935Y1379228D02*
Y1389385D01*
X2241552D01*
X2239013Y1384307D01*
Y1381767D01*
X2241552Y1379228D01*
X2246631D01*
X2249170Y1381767D01*
Y1386846D01*
X2246631Y1389385D01*
X2233935Y1363993D02*
X2236474Y1369072D01*
X2241552Y1374150D01*
X2246631D01*
X2249170Y1371611D01*
Y1366532D01*
X2246631Y1363993D01*
X2244092D01*
X2241552Y1366532D01*
Y1374150D01*
X2496824Y1718313D02*
X2494285Y1720853D01*
Y1725931D01*
X2496824Y1728470D01*
X2506981D01*
X2509520Y1725931D01*
Y1720853D01*
X2506981Y1718313D01*
X2494285Y1703078D02*
Y1713235D01*
X2501902D01*
X2499363Y1708157D01*
Y1705617D01*
X2501902Y1703078D01*
X2506981D01*
X2509520Y1705617D01*
Y1710696D01*
X2506981Y1713235D01*
X2494285Y1687843D02*
Y1698000D01*
X2501902D01*
X2499363Y1692921D01*
Y1690382D01*
X2501902Y1687843D01*
X2506981D01*
X2509520Y1690382D01*
Y1695461D01*
X2506981Y1698000D01*
X2404114Y1621793D02*
X2401575Y1624332D01*
Y1629411D01*
X2404114Y1631950D01*
X2414271D01*
X2416810Y1629411D01*
Y1624332D01*
X2414271Y1621793D01*
X2401575Y1606558D02*
Y1616715D01*
X2409193D01*
X2406653Y1611637D01*
Y1609097D01*
X2409193Y1606558D01*
X2414271D01*
X2416810Y1609097D01*
Y1614176D01*
X2414271Y1616715D01*
X2416810Y1593862D02*
X2401575D01*
X2409193Y1601480D01*
Y1591323D01*
X2553973Y1602736D02*
X2556512Y1605275D01*
X2561591D01*
X2564130Y1602736D01*
Y1592579D01*
X2561591Y1590040D01*
X2556512D01*
X2553973Y1592579D01*
X2538738Y1605275D02*
X2548895D01*
Y1597657D01*
X2543817Y1600197D01*
X2541277D01*
X2538738Y1597657D01*
Y1592579D01*
X2541277Y1590040D01*
X2546356D01*
X2548895Y1592579D01*
X2533660Y1602736D02*
X2531121Y1605275D01*
X2526042D01*
X2523503Y1602736D01*
Y1600197D01*
X2526042Y1597657D01*
X2528582D01*
X2526042D01*
X2523503Y1595118D01*
Y1592579D01*
X2526042Y1590040D01*
X2531121D01*
X2533660Y1592579D01*
X2547623Y1393186D02*
X2550163Y1395725D01*
X2555241D01*
X2557780Y1393186D01*
Y1383029D01*
X2555241Y1380490D01*
X2550163D01*
X2547623Y1383029D01*
X2532388Y1395725D02*
X2542545D01*
Y1388107D01*
X2537467Y1390647D01*
X2534927D01*
X2532388Y1388107D01*
Y1383029D01*
X2534927Y1380490D01*
X2540006D01*
X2542545Y1383029D01*
X2517153Y1380490D02*
X2527310D01*
X2517153Y1390647D01*
Y1393186D01*
X2519692Y1395725D01*
X2524771D01*
X2527310Y1393186D01*
X2222503Y1537966D02*
X2225043Y1540505D01*
X2230121D01*
X2232660Y1537966D01*
Y1527809D01*
X2230121Y1525270D01*
X2225043D01*
X2222503Y1527809D01*
X2207268Y1540505D02*
X2217425D01*
Y1532888D01*
X2212347Y1535427D01*
X2209807D01*
X2207268Y1532888D01*
Y1527809D01*
X2209807Y1525270D01*
X2214886D01*
X2217425Y1527809D01*
X2202190Y1525270D02*
X2197112D01*
X2199651D01*
Y1540505D01*
X2202190Y1537966D01*
X2509524Y1315723D02*
X2506985Y1318262D01*
Y1323341D01*
X2509524Y1325880D01*
X2519681D01*
X2522220Y1323341D01*
Y1318262D01*
X2519681Y1315723D01*
X2506985Y1300488D02*
Y1310645D01*
X2514603D01*
X2512063Y1305567D01*
Y1303027D01*
X2514603Y1300488D01*
X2519681D01*
X2522220Y1303027D01*
Y1308106D01*
X2519681Y1310645D01*
X2509524Y1295410D02*
X2506985Y1292871D01*
Y1287792D01*
X2509524Y1285253D01*
X2519681D01*
X2522220Y1287792D01*
Y1292871D01*
X2519681Y1295410D01*
X2509524D01*
X2439674Y1318263D02*
X2437135Y1320802D01*
Y1325881D01*
X2439674Y1328420D01*
X2449831D01*
X2452370Y1325881D01*
Y1320802D01*
X2449831Y1318263D01*
X2452370Y1305567D02*
X2437135D01*
X2444753Y1313185D01*
Y1303028D01*
X2449831Y1297950D02*
X2452370Y1295411D01*
Y1290332D01*
X2449831Y1287793D01*
X2439674D01*
X2437135Y1290332D01*
Y1295411D01*
X2439674Y1297950D01*
X2442213D01*
X2444753Y1295411D01*
Y1287793D01*
X2684783Y1431286D02*
X2687322Y1433825D01*
X2692401D01*
X2694940Y1431286D01*
Y1421129D01*
X2692401Y1418590D01*
X2687322D01*
X2684783Y1421129D01*
X2672087Y1418590D02*
Y1433825D01*
X2679705Y1426207D01*
X2669548D01*
X2664470Y1431286D02*
X2661931Y1433825D01*
X2656852D01*
X2654313Y1431286D01*
Y1428747D01*
X2656852Y1426207D01*
X2654313Y1423668D01*
Y1421129D01*
X2656852Y1418590D01*
X2661931D01*
X2664470Y1421129D01*
Y1423668D01*
X2661931Y1426207D01*
X2664470Y1428747D01*
Y1431286D01*
X2661931Y1426207D02*
X2656852D01*
X2324104Y1315723D02*
X2321565Y1318262D01*
Y1323341D01*
X2324104Y1325880D01*
X2334261D01*
X2336800Y1323341D01*
Y1318262D01*
X2334261Y1315723D01*
X2336800Y1303027D02*
X2321565D01*
X2329182Y1310645D01*
Y1300488D01*
X2321565Y1295410D02*
Y1285253D01*
X2324104D01*
X2334261Y1295410D01*
X2336800D01*
X2684783Y1482086D02*
X2687322Y1484625D01*
X2692401D01*
X2694940Y1482086D01*
Y1471929D01*
X2692401Y1469390D01*
X2687322D01*
X2684783Y1471929D01*
X2672087Y1469390D02*
Y1484625D01*
X2679705Y1477007D01*
X2669548D01*
X2654313Y1484625D02*
X2659391Y1482086D01*
X2664470Y1477007D01*
Y1471929D01*
X2661931Y1469390D01*
X2656852D01*
X2654313Y1471929D01*
Y1474468D01*
X2656852Y1477007D01*
X2664470D01*
X2644144Y1595123D02*
X2641605Y1597663D01*
Y1602741D01*
X2644144Y1605280D01*
X2654301D01*
X2656840Y1602741D01*
Y1597663D01*
X2654301Y1595123D01*
X2656840Y1582427D02*
X2641605D01*
X2649222Y1590045D01*
Y1579888D01*
X2641605Y1564653D02*
Y1574810D01*
X2649222D01*
X2646683Y1569731D01*
Y1567192D01*
X2649222Y1564653D01*
X2654301D01*
X2656840Y1567192D01*
Y1572271D01*
X2654301Y1574810D01*
X2447294Y1717043D02*
X2444755Y1719583D01*
Y1724661D01*
X2447294Y1727200D01*
X2457451D01*
X2459990Y1724661D01*
Y1719583D01*
X2457451Y1717043D01*
X2459990Y1704347D02*
X2444755D01*
X2452372Y1711965D01*
Y1701808D01*
X2459990Y1689112D02*
X2444755D01*
X2452372Y1696730D01*
Y1686573D01*
X2223773Y1484626D02*
X2226313Y1487165D01*
X2231391D01*
X2233930Y1484626D01*
Y1474469D01*
X2231391Y1471930D01*
X2226313D01*
X2223773Y1474469D01*
X2211077Y1471930D02*
Y1487165D01*
X2218695Y1479547D01*
X2208538D01*
X2203460Y1484626D02*
X2200921Y1487165D01*
X2195842D01*
X2193303Y1484626D01*
Y1482087D01*
X2195842Y1479547D01*
X2198382D01*
X2195842D01*
X2193303Y1477008D01*
Y1474469D01*
X2195842Y1471930D01*
X2200921D01*
X2203460Y1474469D01*
X2377444Y1717043D02*
X2374905Y1719583D01*
Y1724661D01*
X2377444Y1727200D01*
X2387601D01*
X2390140Y1724661D01*
Y1719583D01*
X2387601Y1717043D01*
X2390140Y1704347D02*
X2374905D01*
X2382522Y1711965D01*
Y1701808D01*
X2390140Y1686573D02*
Y1696730D01*
X2379983Y1686573D01*
X2377444D01*
X2374905Y1689112D01*
Y1694191D01*
X2377444Y1696730D01*
X2316484Y1714503D02*
X2313945Y1717043D01*
Y1722121D01*
X2316484Y1724660D01*
X2326641D01*
X2329180Y1722121D01*
Y1717043D01*
X2326641Y1714503D01*
X2329180Y1701807D02*
X2313945D01*
X2321562Y1709425D01*
Y1699268D01*
X2329180Y1694190D02*
Y1689111D01*
Y1691651D01*
X2313945D01*
X2316484Y1694190D01*
X2221233Y1451346D02*
X2223772Y1453885D01*
X2228851D01*
X2231390Y1451346D01*
Y1441189D01*
X2228851Y1438650D01*
X2223772D01*
X2221233Y1441189D01*
X2208537Y1438650D02*
Y1453885D01*
X2216155Y1446268D01*
X2205998D01*
X2200920Y1451346D02*
X2198381Y1453885D01*
X2193302D01*
X2190763Y1451346D01*
Y1441189D01*
X2193302Y1438650D01*
X2198381D01*
X2200920Y1441189D01*
Y1451346D01*
X1510033Y1835146D02*
X1512572Y1837685D01*
X1517651D01*
X1520190Y1835146D01*
Y1824989D01*
X1517651Y1822450D01*
X1512572D01*
X1510033Y1824989D01*
X1504955Y1835146D02*
X1502416Y1837685D01*
X1497337D01*
X1494798Y1835146D01*
Y1832607D01*
X1497337Y1830067D01*
X1499877D01*
X1497337D01*
X1494798Y1827528D01*
Y1824989D01*
X1497337Y1822450D01*
X1502416D01*
X1504955Y1824989D01*
X1489720D02*
X1487181Y1822450D01*
X1482102D01*
X1479563Y1824989D01*
Y1835146D01*
X1482102Y1837685D01*
X1487181D01*
X1489720Y1835146D01*
Y1832607D01*
X1487181Y1830067D01*
X1479563D01*
X1631953Y1732276D02*
X1634492Y1734815D01*
X1639571D01*
X1642110Y1732276D01*
Y1722119D01*
X1639571Y1719580D01*
X1634492D01*
X1631953Y1722119D01*
X1626875Y1732276D02*
X1624336Y1734815D01*
X1619257D01*
X1616718Y1732276D01*
Y1729737D01*
X1619257Y1727198D01*
X1621797D01*
X1619257D01*
X1616718Y1724658D01*
Y1722119D01*
X1619257Y1719580D01*
X1624336D01*
X1626875Y1722119D01*
X1611640Y1732276D02*
X1609101Y1734815D01*
X1604022D01*
X1601483Y1732276D01*
Y1729737D01*
X1604022Y1727198D01*
X1601483Y1724658D01*
Y1722119D01*
X1604022Y1719580D01*
X1609101D01*
X1611640Y1722119D01*
Y1724658D01*
X1609101Y1727198D01*
X1611640Y1729737D01*
Y1732276D01*
X1609101Y1727198D02*
X1604022D01*
X1556007Y1834892D02*
X1558546Y1837431D01*
X1563625D01*
X1566164Y1834892D01*
Y1824735D01*
X1563625Y1822196D01*
X1558546D01*
X1556007Y1824735D01*
X1550929Y1834892D02*
X1548390Y1837431D01*
X1543311D01*
X1540772Y1834892D01*
Y1832353D01*
X1543311Y1829814D01*
X1545851D01*
X1543311D01*
X1540772Y1827274D01*
Y1824735D01*
X1543311Y1822196D01*
X1548390D01*
X1550929Y1824735D01*
X1535694Y1837431D02*
X1525537D01*
Y1834892D01*
X1535694Y1824735D01*
Y1822196D01*
X1469394Y1717043D02*
X1466855Y1719583D01*
Y1724661D01*
X1469394Y1727200D01*
X1479551D01*
X1482090Y1724661D01*
Y1719583D01*
X1479551Y1717043D01*
X1469394Y1711965D02*
X1466855Y1709426D01*
Y1704347D01*
X1469394Y1701808D01*
X1471933D01*
X1474473Y1704347D01*
Y1706887D01*
Y1704347D01*
X1477012Y1701808D01*
X1479551D01*
X1482090Y1704347D01*
Y1709426D01*
X1479551Y1711965D01*
X1466855Y1686573D02*
X1469394Y1691651D01*
X1474473Y1696730D01*
X1479551D01*
X1482090Y1694191D01*
Y1689112D01*
X1479551Y1686573D01*
X1477012D01*
X1474473Y1689112D01*
Y1696730D01*
X1437643Y1818636D02*
X1440182Y1821175D01*
X1445261D01*
X1447800Y1818636D01*
Y1808479D01*
X1445261Y1805940D01*
X1440182D01*
X1437643Y1808479D01*
X1432565Y1818636D02*
X1430026Y1821175D01*
X1424947D01*
X1422408Y1818636D01*
Y1816097D01*
X1424947Y1813557D01*
X1427487D01*
X1424947D01*
X1422408Y1811018D01*
Y1808479D01*
X1424947Y1805940D01*
X1430026D01*
X1432565Y1808479D01*
X1407173Y1821175D02*
X1417330D01*
Y1813557D01*
X1412251Y1816097D01*
X1409712D01*
X1407173Y1813557D01*
Y1808479D01*
X1409712Y1805940D01*
X1414791D01*
X1417330Y1808479D01*
X1521464Y1915163D02*
X1518925Y1917702D01*
Y1922781D01*
X1521464Y1925320D01*
X1531621D01*
X1534160Y1922781D01*
Y1917702D01*
X1531621Y1915163D01*
X1521464Y1910085D02*
X1518925Y1907546D01*
Y1902467D01*
X1521464Y1899928D01*
X1524003D01*
X1526543Y1902467D01*
Y1905007D01*
Y1902467D01*
X1529082Y1899928D01*
X1531621D01*
X1534160Y1902467D01*
Y1907546D01*
X1531621Y1910085D01*
X1534160Y1887232D02*
X1518925D01*
X1526543Y1894850D01*
Y1884693D01*
X1471934Y1916433D02*
X1469395Y1918972D01*
Y1924051D01*
X1471934Y1926590D01*
X1482091D01*
X1484630Y1924051D01*
Y1918972D01*
X1482091Y1916433D01*
X1471934Y1911355D02*
X1469395Y1908816D01*
Y1903737D01*
X1471934Y1901198D01*
X1474473D01*
X1477012Y1903737D01*
Y1906277D01*
Y1903737D01*
X1479552Y1901198D01*
X1482091D01*
X1484630Y1903737D01*
Y1908816D01*
X1482091Y1911355D01*
X1471934Y1896120D02*
X1469395Y1893581D01*
Y1888502D01*
X1471934Y1885963D01*
X1474473D01*
X1477012Y1888502D01*
Y1891042D01*
Y1888502D01*
X1479552Y1885963D01*
X1482091D01*
X1484630Y1888502D01*
Y1893581D01*
X1482091Y1896120D01*
X1373127Y1992372D02*
X1375667Y1994911D01*
X1380745D01*
X1383284Y1992372D01*
Y1982215D01*
X1380745Y1979676D01*
X1375667D01*
X1373127Y1982215D01*
X1368049Y1992372D02*
X1365510Y1994911D01*
X1360431D01*
X1357892Y1992372D01*
Y1989833D01*
X1360431Y1987294D01*
X1362971D01*
X1360431D01*
X1357892Y1984754D01*
Y1982215D01*
X1360431Y1979676D01*
X1365510D01*
X1368049Y1982215D01*
X1342657Y1979676D02*
X1352814D01*
X1342657Y1989833D01*
Y1992372D01*
X1345196Y1994911D01*
X1350275D01*
X1352814Y1992372D01*
X1471927Y1845314D02*
X1469388Y1842775D01*
X1464309D01*
X1461770Y1845314D01*
Y1855471D01*
X1464309Y1858010D01*
X1469388D01*
X1471927Y1855471D01*
X1477005Y1845314D02*
X1479544Y1842775D01*
X1484623D01*
X1487162Y1845314D01*
Y1847853D01*
X1484623Y1850392D01*
X1482083D01*
X1484623D01*
X1487162Y1852932D01*
Y1855471D01*
X1484623Y1858010D01*
X1479544D01*
X1477005Y1855471D01*
X1492240Y1858010D02*
X1497319D01*
X1494779D01*
Y1842775D01*
X1492240Y1845314D01*
X1478284Y1805943D02*
X1475745Y1808483D01*
Y1813561D01*
X1478284Y1816100D01*
X1488441D01*
X1490980Y1813561D01*
Y1808483D01*
X1488441Y1805943D01*
X1478284Y1800865D02*
X1475745Y1798326D01*
Y1793247D01*
X1478284Y1790708D01*
X1480823D01*
X1483362Y1793247D01*
Y1795787D01*
Y1793247D01*
X1485902Y1790708D01*
X1488441D01*
X1490980Y1793247D01*
Y1798326D01*
X1488441Y1800865D01*
X1478284Y1785630D02*
X1475745Y1783091D01*
Y1778012D01*
X1478284Y1775473D01*
X1488441D01*
X1490980Y1778012D01*
Y1783091D01*
X1488441Y1785630D01*
X1478284D01*
X1621539Y1963670D02*
X1624079Y1966209D01*
X1629157D01*
X1631696Y1963670D01*
Y1953513D01*
X1629157Y1950974D01*
X1624079D01*
X1621539Y1953513D01*
X1606304Y1950974D02*
X1616461D01*
X1606304Y1961131D01*
Y1963670D01*
X1608843Y1966209D01*
X1613922D01*
X1616461Y1963670D01*
X1601226Y1953513D02*
X1598687Y1950974D01*
X1593608D01*
X1591069Y1953513D01*
Y1963670D01*
X1593608Y1966209D01*
X1598687D01*
X1601226Y1963670D01*
Y1961131D01*
X1598687Y1958591D01*
X1591069D01*
X1413514Y1916433D02*
X1410975Y1918972D01*
Y1924051D01*
X1413514Y1926590D01*
X1423671D01*
X1426210Y1924051D01*
Y1918972D01*
X1423671Y1916433D01*
X1426210Y1901198D02*
Y1911355D01*
X1416053Y1901198D01*
X1413514D01*
X1410975Y1903737D01*
Y1908816D01*
X1413514Y1911355D01*
Y1896120D02*
X1410975Y1893581D01*
Y1888502D01*
X1413514Y1885963D01*
X1416053D01*
X1418593Y1888502D01*
X1421132Y1885963D01*
X1423671D01*
X1426210Y1888502D01*
Y1893581D01*
X1423671Y1896120D01*
X1421132D01*
X1418593Y1893581D01*
X1416053Y1896120D01*
X1413514D01*
X1418593Y1893581D02*
Y1888502D01*
X1471927Y1868174D02*
X1469388Y1865635D01*
X1464309D01*
X1461770Y1868174D01*
Y1878331D01*
X1464309Y1880870D01*
X1469388D01*
X1471927Y1878331D01*
X1487162Y1880870D02*
X1477005D01*
X1487162Y1870713D01*
Y1868174D01*
X1484623Y1865635D01*
X1479544D01*
X1477005Y1868174D01*
X1492240Y1865635D02*
X1502397D01*
Y1868174D01*
X1492240Y1878331D01*
Y1880870D01*
X825757Y2463542D02*
X828297Y2466081D01*
X833375D01*
X835914Y2463542D01*
Y2453385D01*
X833375Y2450846D01*
X828297D01*
X825757Y2453385D01*
X810522Y2466081D02*
X820679D01*
Y2458463D01*
X815601Y2461003D01*
X813061D01*
X810522Y2458463D01*
Y2453385D01*
X813061Y2450846D01*
X818140D01*
X820679Y2453385D01*
D81*
X1469510Y1389190D02*
Y1397190D01*
X1484510Y1389190D02*
Y1397190D01*
X2759830Y2020380D02*
Y2028380D01*
X2774830Y2020380D02*
Y2028380D01*
X2439790Y2003870D02*
Y2011870D01*
X2454790Y2003870D02*
Y2011870D01*
X2779840Y1145660D02*
X2787840D01*
X2779840Y1160660D02*
X2787840D01*
X2343270Y1304100D02*
Y1312100D01*
X2358270Y1304100D02*
Y1312100D01*
X2378830Y1304100D02*
Y1312100D01*
X2393830Y1304100D02*
Y1312100D01*
X2414390Y1304100D02*
Y1312100D01*
X2429390Y1304100D02*
Y1312100D01*
X2485510Y1304100D02*
Y1312100D01*
X2500510Y1304100D02*
Y1312100D01*
X2485510Y1410780D02*
Y1418780D01*
X2500510Y1410780D02*
Y1418780D01*
X2534730Y1402200D02*
X2542730D01*
X2534730Y1417200D02*
X2542730D01*
X2624900Y1469510D02*
X2632900D01*
X2624900Y1484510D02*
X2632900D01*
X2624900Y1418710D02*
X2632900D01*
X2624900Y1433710D02*
X2632900D01*
X2273180Y1382840D02*
Y1390840D01*
X2258180Y1382840D02*
Y1390840D01*
X2254060Y1540390D02*
X2262060D01*
X2254060Y1525390D02*
X2262060D01*
X2254060Y1469510D02*
X2262060D01*
X2254060Y1484510D02*
X2262060D01*
X2251520Y1437500D02*
X2259520D01*
X2251520Y1452500D02*
X2259520D01*
X2336610Y1564760D02*
X2344610D01*
X2336610Y1579760D02*
X2344610D01*
X2393830Y1608900D02*
Y1616900D01*
X2378830Y1608900D02*
Y1616900D01*
X2618860Y1580960D02*
Y1588960D01*
X2633860Y1580960D02*
Y1588960D01*
X2539810Y1610480D02*
X2547810D01*
X2539810Y1625480D02*
X2547810D01*
X2490590Y1608900D02*
Y1616900D01*
X2505590Y1608900D02*
Y1616900D01*
X2517260Y1704150D02*
Y1712150D01*
X2532260Y1704150D02*
Y1712150D01*
X2466460Y1704150D02*
Y1712150D01*
X2481460Y1704150D02*
Y1712150D01*
X2395340Y1704150D02*
Y1712150D01*
X2410340Y1704150D02*
Y1712150D01*
X2334380Y1702880D02*
Y1710880D01*
X2349380Y1702880D02*
Y1710880D01*
X2024500Y1855280D02*
Y1863280D01*
X2039500Y1855280D02*
Y1863280D01*
X2060060Y1855280D02*
Y1863280D01*
X2075060Y1855280D02*
Y1863280D01*
X2064900Y1926400D02*
Y1934400D01*
X2049900Y1926400D02*
Y1934400D01*
X2805310Y1974660D02*
Y1982660D01*
X2790310Y1974660D02*
Y1982660D01*
X2475350Y1963230D02*
Y1971230D01*
X2490350Y1963230D02*
Y1971230D01*
X2784920Y1201540D02*
X2792920D01*
X2784920Y1216540D02*
X2792920D01*
X1864240Y1404430D02*
Y1412430D01*
X1849240Y1404430D02*
Y1412430D01*
Y1475550D02*
Y1483550D01*
X1864240Y1475550D02*
Y1483550D01*
X1889640Y1490790D02*
Y1498790D01*
X1874640Y1490790D02*
Y1498790D01*
X1889640Y1318070D02*
Y1326070D01*
X1874640Y1318070D02*
Y1326070D01*
X1849240Y1318070D02*
Y1326070D01*
X1864240Y1318070D02*
Y1326070D01*
X1439030Y1434910D02*
Y1442910D01*
X1454030Y1434910D02*
Y1442910D01*
X1504830Y1705420D02*
Y1713420D01*
X1489830Y1705420D02*
Y1713420D01*
X1615250Y1756290D02*
X1623250D01*
X1615250Y1741290D02*
X1623250D01*
X1469270Y1795590D02*
Y1803590D01*
X1454270Y1795590D02*
Y1803590D01*
X1499990Y1795590D02*
Y1803590D01*
X1514990Y1795590D02*
Y1803590D01*
X1423480Y1800740D02*
X1431480D01*
X1423480Y1785740D02*
X1431480D01*
X1432370Y1837810D02*
X1440370D01*
X1432370Y1852810D02*
X1440370D01*
X1555630Y1902270D02*
Y1910270D01*
X1540630Y1902270D02*
Y1910270D01*
X1504830Y1902270D02*
Y1910270D01*
X1489830Y1902270D02*
Y1910270D01*
X1433950Y1902270D02*
Y1910270D01*
X1448950Y1902270D02*
Y1910270D01*
X1432370Y1863210D02*
X1440370D01*
X1432370Y1878210D02*
X1440370D01*
X2378830Y1405700D02*
Y1413700D01*
X2393830Y1405700D02*
Y1413700D01*
X2336610Y1610240D02*
X2344610D01*
X2336610Y1595240D02*
X2344610D01*
X2534730Y1457840D02*
X2542730D01*
X2534730Y1442840D02*
X2542730D01*
X1631830Y1918780D02*
Y1926780D01*
X1616830Y1918780D02*
Y1926780D01*
X1361250Y1954650D02*
X1369250D01*
X1361250Y1969650D02*
X1369250D01*
X1544130Y1797170D02*
X1552130D01*
X1544130Y1812170D02*
X1552130D01*
X813880Y2440820D02*
X821880D01*
X813880Y2425820D02*
X821880D01*
M02*
