%FSLAX44Y44*%
%MOMM*%
G71*
G01*
G75*
G04 Layer_Physical_Order=1*
G04 Layer_Color=255*
%ADD10R,1.1000X1.7000*%
%ADD11R,1.5500X0.4500*%
%ADD12R,1.7000X1.1000*%
%ADD13R,1.4000X2.1000*%
%ADD14R,1.2000X1.2000*%
%ADD15R,1.2000X1.2000*%
%ADD16O,0.3000X2.5400*%
%ADD17O,2.5400X0.3000*%
%ADD18R,2.1000X1.4000*%
%ADD19R,1.5500X0.5500*%
%ADD20O,1.7000X0.3500*%
%ADD21O,1.5500X0.2500*%
%ADD22O,0.2500X1.5500*%
%ADD23R,0.5000X3.1000*%
%ADD24R,2.0000X2.5000*%
%ADD25R,2.0000X3.3000*%
%ADD26O,2.1000X0.4500*%
%ADD27R,0.7000X2.0000*%
%ADD28R,1.0000X2.0000*%
%ADD29R,1.2000X2.0000*%
%ADD30R,1.5000X2.0000*%
%ADD31R,2.0000X3.5000*%
%ADD32R,2.0000X1.8000*%
%ADD33C,0.1500*%
%ADD34R,1.5000X1.5000*%
%ADD35C,1.5000*%
%ADD36R,1.5000X1.5000*%
%ADD37C,1.3500*%
%ADD38R,1.2500X1.2500*%
%ADD39C,1.6000*%
%ADD40R,1.6000X1.6000*%
%ADD41C,1.2000*%
%ADD42O,1.5240X4.0640*%
%ADD43O,4.0640X1.5240*%
%ADD44O,1.5240X4.3180*%
%ADD45C,4.7600*%
%ADD46R,1.6900X1.6900*%
%ADD47C,1.6900*%
%ADD48C,1.5240*%
%ADD49C,4.5000*%
%ADD50C,0.7100*%
D10*
X931710Y1398270D02*
D03*
X904710D02*
D03*
X828510D02*
D03*
X855510D02*
D03*
X1285710Y2363470D02*
D03*
X1312710D02*
D03*
X1387310D02*
D03*
X1414310D02*
D03*
X1488910D02*
D03*
X1515910D02*
D03*
X1590510D02*
D03*
X1617510D02*
D03*
X1716240Y2169160D02*
D03*
X1743240D02*
D03*
X1821980Y1935480D02*
D03*
X1794980D02*
D03*
X1776260D02*
D03*
X1749260D02*
D03*
X1312710Y2551430D02*
D03*
X1285710D02*
D03*
X1414310D02*
D03*
X1387310D02*
D03*
X1515910D02*
D03*
X1488910D02*
D03*
X1617510D02*
D03*
X1590510D02*
D03*
X1738160Y2326640D02*
D03*
X1711160D02*
D03*
X2140420Y1925320D02*
D03*
X2167420D02*
D03*
X2140420Y1874520D02*
D03*
X2167420D02*
D03*
Y1899920D02*
D03*
X2140420D02*
D03*
Y1976120D02*
D03*
X2167420D02*
D03*
X2140420Y1950720D02*
D03*
X2167420D02*
D03*
X1989620Y2042160D02*
D03*
X1962620D02*
D03*
X1989620Y2067560D02*
D03*
X1962620D02*
D03*
X1989620Y2092960D02*
D03*
X1962620D02*
D03*
X701510Y2134870D02*
D03*
X728510D02*
D03*
Y2185670D02*
D03*
X701510D02*
D03*
X1031710Y1601470D02*
D03*
X1058710D02*
D03*
X818350D02*
D03*
X845350D02*
D03*
X931710Y1454150D02*
D03*
X904710D02*
D03*
X931710Y1601470D02*
D03*
X904710D02*
D03*
X828510Y1454150D02*
D03*
X855510D02*
D03*
X1058710D02*
D03*
X1031710D02*
D03*
X931710Y1245870D02*
D03*
X904710D02*
D03*
X931710Y1322070D02*
D03*
X904710D02*
D03*
X828510Y1245870D02*
D03*
X855510D02*
D03*
X1031710Y1195070D02*
D03*
X1058710D02*
D03*
X828510D02*
D03*
X855510D02*
D03*
X931710Y1042670D02*
D03*
X904710D02*
D03*
Y1195070D02*
D03*
X931710D02*
D03*
X855510Y1042670D02*
D03*
X828510D02*
D03*
X1031710D02*
D03*
X1058710D02*
D03*
Y966470D02*
D03*
X1031710D02*
D03*
X828510D02*
D03*
X855510D02*
D03*
X931710Y814070D02*
D03*
X904710D02*
D03*
Y966470D02*
D03*
X931710D02*
D03*
X855510Y814070D02*
D03*
X828510D02*
D03*
X1058710D02*
D03*
X1031710D02*
D03*
D11*
X2834760Y1894660D02*
D03*
Y1902660D02*
D03*
Y1910660D02*
D03*
Y1918660D02*
D03*
Y1926660D02*
D03*
Y1934660D02*
D03*
Y1942660D02*
D03*
Y1950660D02*
D03*
Y1958660D02*
D03*
Y1966660D02*
D03*
Y1974660D02*
D03*
Y1982660D02*
D03*
Y1990660D02*
D03*
Y1998660D02*
D03*
Y2006660D02*
D03*
Y2014660D02*
D03*
Y2022660D02*
D03*
Y2030660D02*
D03*
Y2038660D02*
D03*
Y2046660D02*
D03*
Y2054660D02*
D03*
Y2062660D02*
D03*
X2722760Y1894660D02*
D03*
Y1902660D02*
D03*
Y1910660D02*
D03*
Y1918660D02*
D03*
Y1926660D02*
D03*
Y1934660D02*
D03*
Y1942660D02*
D03*
Y1950660D02*
D03*
Y1958660D02*
D03*
Y1966660D02*
D03*
Y1974660D02*
D03*
Y1982660D02*
D03*
Y1990660D02*
D03*
Y1998660D02*
D03*
Y2006660D02*
D03*
Y2014660D02*
D03*
Y2022660D02*
D03*
Y2030660D02*
D03*
Y2038660D02*
D03*
Y2046660D02*
D03*
Y2054660D02*
D03*
Y2062660D02*
D03*
X2513450Y1893390D02*
D03*
Y1901390D02*
D03*
Y1909390D02*
D03*
Y1917390D02*
D03*
Y1925390D02*
D03*
Y1933390D02*
D03*
Y1941390D02*
D03*
Y1949390D02*
D03*
Y1957390D02*
D03*
Y1965390D02*
D03*
Y1973390D02*
D03*
Y1981390D02*
D03*
Y1989390D02*
D03*
Y1997390D02*
D03*
Y2005390D02*
D03*
Y2013390D02*
D03*
Y2021390D02*
D03*
Y2029390D02*
D03*
Y2037390D02*
D03*
Y2045390D02*
D03*
Y2053390D02*
D03*
Y2061390D02*
D03*
X2401450Y1893390D02*
D03*
Y1901390D02*
D03*
Y1909390D02*
D03*
Y1917390D02*
D03*
Y1925390D02*
D03*
Y1933390D02*
D03*
Y1941390D02*
D03*
Y1949390D02*
D03*
Y1957390D02*
D03*
Y1965390D02*
D03*
Y1973390D02*
D03*
Y1981390D02*
D03*
Y1989390D02*
D03*
Y1997390D02*
D03*
Y2005390D02*
D03*
Y2013390D02*
D03*
Y2021390D02*
D03*
Y2029390D02*
D03*
Y2037390D02*
D03*
Y2045390D02*
D03*
Y2053390D02*
D03*
Y2061390D02*
D03*
X2727840Y1247320D02*
D03*
Y1239320D02*
D03*
Y1231320D02*
D03*
Y1223320D02*
D03*
Y1215320D02*
D03*
Y1207320D02*
D03*
Y1199320D02*
D03*
Y1191320D02*
D03*
Y1183320D02*
D03*
Y1175320D02*
D03*
Y1167320D02*
D03*
Y1159320D02*
D03*
Y1151320D02*
D03*
Y1143320D02*
D03*
Y1135320D02*
D03*
Y1127320D02*
D03*
Y1119320D02*
D03*
Y1111320D02*
D03*
Y1103320D02*
D03*
Y1095320D02*
D03*
Y1087320D02*
D03*
Y1079320D02*
D03*
X2839840Y1247320D02*
D03*
Y1239320D02*
D03*
Y1231320D02*
D03*
Y1223320D02*
D03*
Y1215320D02*
D03*
Y1207320D02*
D03*
Y1199320D02*
D03*
Y1191320D02*
D03*
Y1183320D02*
D03*
Y1175320D02*
D03*
Y1167320D02*
D03*
Y1159320D02*
D03*
Y1151320D02*
D03*
Y1143320D02*
D03*
Y1135320D02*
D03*
Y1127320D02*
D03*
Y1119320D02*
D03*
Y1111320D02*
D03*
Y1103320D02*
D03*
Y1095320D02*
D03*
Y1087320D02*
D03*
Y1079320D02*
D03*
X1405770Y1492430D02*
D03*
Y1484430D02*
D03*
Y1476430D02*
D03*
Y1468430D02*
D03*
Y1460430D02*
D03*
Y1452430D02*
D03*
Y1444430D02*
D03*
Y1436430D02*
D03*
Y1428430D02*
D03*
Y1420430D02*
D03*
Y1412430D02*
D03*
Y1404430D02*
D03*
Y1396430D02*
D03*
Y1388430D02*
D03*
Y1380430D02*
D03*
Y1372430D02*
D03*
Y1364430D02*
D03*
Y1356430D02*
D03*
Y1348430D02*
D03*
Y1340430D02*
D03*
Y1332430D02*
D03*
Y1324430D02*
D03*
X1517770Y1492430D02*
D03*
Y1484430D02*
D03*
Y1476430D02*
D03*
Y1468430D02*
D03*
Y1460430D02*
D03*
Y1452430D02*
D03*
Y1444430D02*
D03*
Y1436430D02*
D03*
Y1428430D02*
D03*
Y1420430D02*
D03*
Y1412430D02*
D03*
Y1404430D02*
D03*
Y1396430D02*
D03*
Y1388430D02*
D03*
Y1380430D02*
D03*
Y1372430D02*
D03*
Y1364430D02*
D03*
Y1356430D02*
D03*
Y1348430D02*
D03*
Y1340430D02*
D03*
Y1332430D02*
D03*
Y1324430D02*
D03*
D12*
X712470Y2299170D02*
D03*
Y2326170D02*
D03*
X737870Y2299170D02*
D03*
Y2326170D02*
D03*
X1968500Y1019010D02*
D03*
Y1046010D02*
D03*
X1808480Y1044740D02*
D03*
Y1017740D02*
D03*
X1943100Y1046010D02*
D03*
Y1019010D02*
D03*
X2268220Y1046010D02*
D03*
Y1019010D02*
D03*
X2349500Y1046010D02*
D03*
Y1019010D02*
D03*
X1887220Y1046010D02*
D03*
Y1019010D02*
D03*
X1859280Y1044740D02*
D03*
Y1017740D02*
D03*
X2293620Y1046010D02*
D03*
Y1019010D02*
D03*
X2476500Y1046010D02*
D03*
Y1019010D02*
D03*
X2430780Y1046010D02*
D03*
Y1019010D02*
D03*
X2049780Y1046010D02*
D03*
Y1019010D02*
D03*
X2379980Y1046010D02*
D03*
Y1019010D02*
D03*
X2512060Y1046010D02*
D03*
Y1019010D02*
D03*
X2217420Y1046010D02*
D03*
Y1019010D02*
D03*
X2186940Y1046010D02*
D03*
Y1019010D02*
D03*
X2131060Y1046010D02*
D03*
Y1019010D02*
D03*
X2105660Y1046010D02*
D03*
Y1019010D02*
D03*
X2024380Y1046010D02*
D03*
Y1019010D02*
D03*
X1366520Y2234400D02*
D03*
Y2261400D02*
D03*
X1315720Y2234400D02*
D03*
Y2261400D02*
D03*
X1224280Y2234400D02*
D03*
Y2261400D02*
D03*
X1270000Y2234400D02*
D03*
Y2261400D02*
D03*
X1600200Y2234400D02*
D03*
Y2261400D02*
D03*
X1508760Y2234400D02*
D03*
Y2261400D02*
D03*
X1554480Y2234400D02*
D03*
Y2261400D02*
D03*
X1645920Y2234400D02*
D03*
Y2261400D02*
D03*
X1718310Y923760D02*
D03*
Y950760D02*
D03*
X1692910Y923760D02*
D03*
Y950760D02*
D03*
X994410Y2146770D02*
D03*
Y2173770D02*
D03*
X944880Y2145500D02*
D03*
Y2172500D02*
D03*
X711200Y2502700D02*
D03*
Y2475700D02*
D03*
X746760Y2502700D02*
D03*
Y2475700D02*
D03*
X613410Y2146770D02*
D03*
Y2173770D02*
D03*
D13*
X1704340Y2300800D02*
D03*
Y2209800D02*
D03*
X1749340D02*
D03*
Y2300800D02*
D03*
X1273810Y2500190D02*
D03*
Y2409190D02*
D03*
X1318810D02*
D03*
Y2500190D02*
D03*
X1375410D02*
D03*
Y2409190D02*
D03*
X1420410D02*
D03*
Y2500190D02*
D03*
X1471930D02*
D03*
Y2409190D02*
D03*
X1516930D02*
D03*
Y2500190D02*
D03*
X1578610D02*
D03*
Y2409190D02*
D03*
X1623610D02*
D03*
Y2500190D02*
D03*
D14*
X1508760Y2314280D02*
D03*
Y2293280D02*
D03*
X1320800Y2314280D02*
D03*
Y2293280D02*
D03*
X1600200Y2314280D02*
D03*
Y2293280D02*
D03*
X1554480Y2314280D02*
D03*
Y2293280D02*
D03*
X1645920Y2314280D02*
D03*
Y2293280D02*
D03*
X1366520Y2314280D02*
D03*
Y2293280D02*
D03*
X1270000Y2314280D02*
D03*
Y2293280D02*
D03*
X1224280Y2314280D02*
D03*
Y2293280D02*
D03*
X562610Y2170770D02*
D03*
Y2149770D02*
D03*
D15*
X1106510Y1322070D02*
D03*
X1085510D02*
D03*
X1106510Y1118870D02*
D03*
X1085510D02*
D03*
X1106510Y890270D02*
D03*
X1085510D02*
D03*
X1106510Y1525270D02*
D03*
X1085510D02*
D03*
D16*
X1579750Y1957660D02*
D03*
X1574750D02*
D03*
X1569750D02*
D03*
X1564750D02*
D03*
X1559750D02*
D03*
X1554750D02*
D03*
X1549750D02*
D03*
X1544750D02*
D03*
X1539750D02*
D03*
X1534750D02*
D03*
X1529750D02*
D03*
X1524750D02*
D03*
X1519750D02*
D03*
X1514750D02*
D03*
X1509750D02*
D03*
X1504750D02*
D03*
X1499750D02*
D03*
X1494750D02*
D03*
X1489750D02*
D03*
X1484750D02*
D03*
X1479750D02*
D03*
X1474750D02*
D03*
X1469750D02*
D03*
X1464750D02*
D03*
X1459750D02*
D03*
X1454750D02*
D03*
X1449750D02*
D03*
X1444750D02*
D03*
X1439750D02*
D03*
X1434750D02*
D03*
X1429750D02*
D03*
X1424750D02*
D03*
X1419750D02*
D03*
X1414750D02*
D03*
X1409750D02*
D03*
X1404750D02*
D03*
Y1745660D02*
D03*
X1409750D02*
D03*
X1414750D02*
D03*
X1419750D02*
D03*
X1424750D02*
D03*
X1429750D02*
D03*
X1434750D02*
D03*
X1439750D02*
D03*
X1444750D02*
D03*
X1449750D02*
D03*
X1454750D02*
D03*
X1459750D02*
D03*
X1464750D02*
D03*
X1469750D02*
D03*
X1474750D02*
D03*
X1479750D02*
D03*
X1484750D02*
D03*
X1489750D02*
D03*
X1494750D02*
D03*
X1499750D02*
D03*
X1504750D02*
D03*
X1509750D02*
D03*
X1514750D02*
D03*
X1519750D02*
D03*
X1524750D02*
D03*
X1529750D02*
D03*
X1534750D02*
D03*
X1539750D02*
D03*
X1544750D02*
D03*
X1549750D02*
D03*
X1554750D02*
D03*
X1559750D02*
D03*
X1564750D02*
D03*
X1569750D02*
D03*
X1574750D02*
D03*
X1579750D02*
D03*
D17*
X1386250Y1939160D02*
D03*
Y1934160D02*
D03*
Y1929160D02*
D03*
Y1924160D02*
D03*
Y1919160D02*
D03*
Y1914160D02*
D03*
Y1909160D02*
D03*
Y1904160D02*
D03*
Y1899160D02*
D03*
Y1894160D02*
D03*
Y1889160D02*
D03*
Y1884160D02*
D03*
Y1879160D02*
D03*
Y1874160D02*
D03*
Y1869160D02*
D03*
Y1864160D02*
D03*
Y1859160D02*
D03*
Y1854160D02*
D03*
Y1849160D02*
D03*
Y1844160D02*
D03*
Y1839160D02*
D03*
Y1834160D02*
D03*
Y1829160D02*
D03*
Y1824160D02*
D03*
Y1819160D02*
D03*
Y1814160D02*
D03*
Y1809160D02*
D03*
Y1804160D02*
D03*
Y1799160D02*
D03*
Y1794160D02*
D03*
Y1789160D02*
D03*
Y1784160D02*
D03*
Y1779160D02*
D03*
Y1774160D02*
D03*
Y1769160D02*
D03*
Y1764160D02*
D03*
X1598250D02*
D03*
Y1769160D02*
D03*
Y1774160D02*
D03*
Y1779160D02*
D03*
Y1784160D02*
D03*
Y1789160D02*
D03*
Y1794160D02*
D03*
Y1799160D02*
D03*
Y1804160D02*
D03*
Y1809160D02*
D03*
Y1814160D02*
D03*
Y1819160D02*
D03*
Y1824160D02*
D03*
Y1829160D02*
D03*
Y1834160D02*
D03*
Y1839160D02*
D03*
Y1844160D02*
D03*
Y1849160D02*
D03*
Y1854160D02*
D03*
Y1859160D02*
D03*
Y1864160D02*
D03*
Y1869160D02*
D03*
Y1874160D02*
D03*
Y1879160D02*
D03*
Y1884160D02*
D03*
Y1889160D02*
D03*
Y1894160D02*
D03*
Y1899160D02*
D03*
Y1904160D02*
D03*
Y1909160D02*
D03*
Y1914160D02*
D03*
Y1919160D02*
D03*
Y1924160D02*
D03*
Y1929160D02*
D03*
Y1934160D02*
D03*
Y1939160D02*
D03*
D18*
X801810Y2139950D02*
D03*
X892810D02*
D03*
Y2184950D02*
D03*
X801810D02*
D03*
D19*
X1812170Y1518780D02*
D03*
Y1510780D02*
D03*
Y1502780D02*
D03*
Y1494780D02*
D03*
Y1486780D02*
D03*
Y1478780D02*
D03*
Y1470780D02*
D03*
Y1462780D02*
D03*
Y1454780D02*
D03*
Y1446780D02*
D03*
Y1438780D02*
D03*
Y1430780D02*
D03*
Y1422780D02*
D03*
Y1414780D02*
D03*
Y1406780D02*
D03*
Y1398780D02*
D03*
Y1390780D02*
D03*
Y1382780D02*
D03*
Y1374780D02*
D03*
Y1366780D02*
D03*
Y1358780D02*
D03*
Y1350780D02*
D03*
Y1342780D02*
D03*
Y1334780D02*
D03*
Y1326780D02*
D03*
Y1318780D02*
D03*
Y1310780D02*
D03*
X1924170Y1518780D02*
D03*
Y1510780D02*
D03*
Y1502780D02*
D03*
Y1494780D02*
D03*
Y1486780D02*
D03*
Y1478780D02*
D03*
Y1470780D02*
D03*
Y1462780D02*
D03*
Y1454780D02*
D03*
Y1446780D02*
D03*
Y1438780D02*
D03*
Y1430780D02*
D03*
Y1422780D02*
D03*
Y1414780D02*
D03*
Y1406780D02*
D03*
Y1398780D02*
D03*
Y1390780D02*
D03*
Y1382780D02*
D03*
Y1374780D02*
D03*
Y1366780D02*
D03*
Y1358780D02*
D03*
Y1350780D02*
D03*
Y1342780D02*
D03*
Y1334780D02*
D03*
Y1326780D02*
D03*
Y1318780D02*
D03*
Y1310780D02*
D03*
D20*
X2085900Y1901150D02*
D03*
Y1907650D02*
D03*
Y1914150D02*
D03*
Y1920650D02*
D03*
Y1927150D02*
D03*
Y1933650D02*
D03*
Y1940150D02*
D03*
Y1946650D02*
D03*
Y1953150D02*
D03*
Y1959650D02*
D03*
X2028900Y1901150D02*
D03*
Y1907650D02*
D03*
Y1914150D02*
D03*
Y1920650D02*
D03*
Y1927150D02*
D03*
Y1933650D02*
D03*
Y1940150D02*
D03*
Y1946650D02*
D03*
Y1953150D02*
D03*
Y1959650D02*
D03*
D21*
X2293960Y1638800D02*
D03*
Y1633800D02*
D03*
Y1628800D02*
D03*
Y1623800D02*
D03*
Y1618800D02*
D03*
Y1613800D02*
D03*
Y1608800D02*
D03*
Y1603800D02*
D03*
Y1598800D02*
D03*
Y1593800D02*
D03*
Y1588800D02*
D03*
Y1583800D02*
D03*
Y1578800D02*
D03*
Y1573800D02*
D03*
Y1568800D02*
D03*
Y1563800D02*
D03*
Y1558800D02*
D03*
Y1553800D02*
D03*
Y1548800D02*
D03*
Y1543800D02*
D03*
Y1538800D02*
D03*
Y1533800D02*
D03*
Y1528800D02*
D03*
Y1523800D02*
D03*
Y1518800D02*
D03*
Y1513800D02*
D03*
Y1508800D02*
D03*
Y1503800D02*
D03*
Y1498800D02*
D03*
Y1493800D02*
D03*
Y1488800D02*
D03*
Y1483800D02*
D03*
Y1478800D02*
D03*
Y1473800D02*
D03*
Y1468800D02*
D03*
Y1463800D02*
D03*
Y1458800D02*
D03*
Y1453800D02*
D03*
Y1448800D02*
D03*
Y1443800D02*
D03*
Y1438800D02*
D03*
Y1433800D02*
D03*
Y1428800D02*
D03*
Y1423800D02*
D03*
Y1418800D02*
D03*
Y1413800D02*
D03*
Y1408800D02*
D03*
Y1403800D02*
D03*
Y1398800D02*
D03*
Y1393800D02*
D03*
Y1388800D02*
D03*
Y1383800D02*
D03*
X2590460D02*
D03*
Y1388800D02*
D03*
Y1393800D02*
D03*
Y1398800D02*
D03*
Y1403800D02*
D03*
Y1408800D02*
D03*
Y1413800D02*
D03*
Y1418800D02*
D03*
Y1423800D02*
D03*
Y1428800D02*
D03*
Y1433800D02*
D03*
Y1438800D02*
D03*
Y1443800D02*
D03*
Y1448800D02*
D03*
Y1453800D02*
D03*
Y1458800D02*
D03*
Y1463800D02*
D03*
Y1468800D02*
D03*
Y1473800D02*
D03*
Y1478800D02*
D03*
Y1483800D02*
D03*
Y1488800D02*
D03*
Y1493800D02*
D03*
Y1498800D02*
D03*
Y1503800D02*
D03*
Y1508800D02*
D03*
Y1513800D02*
D03*
Y1518800D02*
D03*
Y1523800D02*
D03*
Y1528800D02*
D03*
Y1533800D02*
D03*
Y1538800D02*
D03*
Y1543800D02*
D03*
Y1548800D02*
D03*
Y1553800D02*
D03*
Y1558800D02*
D03*
Y1563800D02*
D03*
Y1568800D02*
D03*
Y1573800D02*
D03*
Y1578800D02*
D03*
Y1583800D02*
D03*
Y1588800D02*
D03*
Y1593800D02*
D03*
Y1598800D02*
D03*
Y1603800D02*
D03*
Y1608800D02*
D03*
Y1613800D02*
D03*
Y1618800D02*
D03*
Y1623800D02*
D03*
Y1628800D02*
D03*
Y1633800D02*
D03*
Y1638800D02*
D03*
D22*
X2314710Y1363050D02*
D03*
X2319710D02*
D03*
X2324710D02*
D03*
X2329710D02*
D03*
X2334710D02*
D03*
X2339710D02*
D03*
X2344710D02*
D03*
X2349710D02*
D03*
X2354710D02*
D03*
X2359710D02*
D03*
X2364710D02*
D03*
X2369710D02*
D03*
X2374710D02*
D03*
X2379710D02*
D03*
X2384710D02*
D03*
X2389710D02*
D03*
X2394710D02*
D03*
X2399710D02*
D03*
X2404710D02*
D03*
X2409710D02*
D03*
X2414710D02*
D03*
X2419710D02*
D03*
X2424710D02*
D03*
X2429710D02*
D03*
X2434710D02*
D03*
X2439710D02*
D03*
X2444710D02*
D03*
X2449710D02*
D03*
X2454710D02*
D03*
X2459710D02*
D03*
X2464710D02*
D03*
X2469710D02*
D03*
X2474710D02*
D03*
X2479710D02*
D03*
X2484710D02*
D03*
X2489710D02*
D03*
X2494710D02*
D03*
X2499710D02*
D03*
X2504710D02*
D03*
X2509710D02*
D03*
X2514710D02*
D03*
X2519710D02*
D03*
X2524710D02*
D03*
X2529710D02*
D03*
X2534710D02*
D03*
X2539710D02*
D03*
X2544710D02*
D03*
X2549710D02*
D03*
X2554710D02*
D03*
X2559710D02*
D03*
X2564710D02*
D03*
X2569710D02*
D03*
Y1659550D02*
D03*
X2564710D02*
D03*
X2559710D02*
D03*
X2554710D02*
D03*
X2549710D02*
D03*
X2544710D02*
D03*
X2539710D02*
D03*
X2534710D02*
D03*
X2529710D02*
D03*
X2524710D02*
D03*
X2519710D02*
D03*
X2514710D02*
D03*
X2509710D02*
D03*
X2504710D02*
D03*
X2499710D02*
D03*
X2494710D02*
D03*
X2489710D02*
D03*
X2484710D02*
D03*
X2479710D02*
D03*
X2474710D02*
D03*
X2469710D02*
D03*
X2464710D02*
D03*
X2459710D02*
D03*
X2454710D02*
D03*
X2449710D02*
D03*
X2444710D02*
D03*
X2439710D02*
D03*
X2434710D02*
D03*
X2429710D02*
D03*
X2424710D02*
D03*
X2419710D02*
D03*
X2414710D02*
D03*
X2409710D02*
D03*
X2404710D02*
D03*
X2399710D02*
D03*
X2394710D02*
D03*
X2389710D02*
D03*
X2384710D02*
D03*
X2379710D02*
D03*
X2374710D02*
D03*
X2369710D02*
D03*
X2364710D02*
D03*
X2359710D02*
D03*
X2354710D02*
D03*
X2349710D02*
D03*
X2344710D02*
D03*
X2339710D02*
D03*
X2334710D02*
D03*
X2329710D02*
D03*
X2324710D02*
D03*
X2319710D02*
D03*
X2314710D02*
D03*
D23*
X1679448Y869470D02*
D03*
X1687449D02*
D03*
X1695450D02*
D03*
X1703448D02*
D03*
X1711449D02*
D03*
D24*
X1739948Y809470D02*
D03*
X1650949D02*
D03*
D25*
Y868469D02*
D03*
X1739948D02*
D03*
D26*
X754170Y2411620D02*
D03*
Y2405120D02*
D03*
Y2398620D02*
D03*
Y2392120D02*
D03*
Y2385620D02*
D03*
Y2379120D02*
D03*
Y2372620D02*
D03*
Y2366120D02*
D03*
X823170Y2411620D02*
D03*
Y2405120D02*
D03*
Y2398620D02*
D03*
Y2392120D02*
D03*
Y2385620D02*
D03*
Y2379120D02*
D03*
Y2372620D02*
D03*
Y2366120D02*
D03*
D27*
X1286160Y1068070D02*
D03*
X1298160D02*
D03*
D28*
X1311160D02*
D03*
D29*
X1328160D02*
D03*
D30*
X1352410D02*
D03*
X1377410D02*
D03*
X1402410D02*
D03*
X1427410D02*
D03*
X1452410D02*
D03*
X1477410D02*
D03*
X1502410D02*
D03*
D31*
X1524660Y1043070D02*
D03*
X1546660Y828070D02*
D03*
X1268160Y1043070D02*
D03*
Y828070D02*
D03*
D32*
X2877820Y909320D02*
D03*
X2835820D02*
D03*
Y858520D02*
D03*
X2877820D02*
D03*
D33*
X2600292Y1280000D02*
X2608750D01*
X2600198Y1279906D02*
X2600292Y1280000D01*
X2595118Y1284986D02*
X2600198Y1279906D01*
X2570222Y1269750D02*
X2571250D01*
X2566162Y1273810D02*
X2570222Y1269750D01*
X2582880Y1251250D02*
X2625344Y1208786D01*
X2579099Y1251250D02*
X2582880D01*
X2559688Y1270661D02*
X2579099Y1251250D01*
X2409500Y1490750D02*
X2413500Y1494750D01*
X2409500Y1456379D02*
Y1490750D01*
Y1456379D02*
X2484710Y1381169D01*
X2419750Y1464250D02*
X2419750D01*
X2413000Y1471000D02*
X2419750Y1464250D01*
X2413000Y1471000D02*
Y1490000D01*
X2417750Y1494750D01*
X2434250Y1471168D02*
X2451544D01*
X2434250Y1471156D02*
Y1471168D01*
X2424000Y1481406D02*
X2434250Y1471156D01*
X2424000Y1481406D02*
Y1486000D01*
X2417750Y1494750D02*
Y1629500D01*
X2413500Y1494750D02*
Y1622258D01*
X2217676Y1381000D02*
X2277889D01*
X2214985Y1384500D02*
X2277500D01*
X2287864Y1393800D02*
X2293960D01*
X2284210Y1390146D02*
X2287864Y1393800D01*
X2279543Y1394500D02*
X2280682D01*
Y1394568D01*
X2280611D02*
X2280682D01*
X2284210Y1390111D02*
Y1390146D01*
X2283049Y1388950D02*
X2284210Y1390111D01*
X2281842Y1388950D02*
X2283049D01*
X2281160Y1388268D02*
X2281842Y1388950D01*
X2278861Y1393818D02*
X2279543Y1394500D01*
X2287154Y1388800D02*
X2293960D01*
X2284222Y1385868D02*
X2287154Y1388800D01*
X2282757Y1385868D02*
X2284222D01*
X2277889Y1381000D02*
X2282757Y1385868D01*
X2283896Y1383117D02*
X2286960D01*
X2281750Y1380972D02*
X2283896Y1383117D01*
X2281160Y1388160D02*
Y1388268D01*
X2283228Y1398800D02*
X2293960D01*
X2278634Y1394206D02*
X2283228Y1398800D01*
X2277500Y1384500D02*
X2281160Y1388160D01*
X2281750Y1374500D02*
Y1380972D01*
X2210867Y1388618D02*
X2214985Y1384500D01*
X2215926Y1379250D02*
X2217676Y1381000D01*
X2205750Y1379250D02*
X2215926D01*
X2312670Y1376642D02*
Y1390650D01*
X2309832Y1377693D02*
Y1391920D01*
X2306625Y1374486D02*
X2309832Y1377693D01*
X2311400Y1375372D02*
X2312670Y1376642D01*
X2311400Y1347216D02*
Y1375372D01*
X2306625Y1365809D02*
Y1374486D01*
X2307082Y1378832D02*
Y1393059D01*
X2299462Y1371212D02*
X2307082Y1378832D01*
X2299462Y1369314D02*
Y1371212D01*
X1954750Y1363250D02*
X2285326D01*
X1943220Y1374780D02*
X1954750Y1363250D01*
X1924170Y1374780D02*
X1943220D01*
X2285326Y1363250D02*
X2303780Y1381704D01*
X2192500Y1388500D02*
X2210749D01*
X2596506Y1503750D02*
X2617006Y1524250D01*
X2590510Y1503750D02*
X2596506D01*
X2590460Y1503800D02*
X2590510Y1503750D01*
X2705090Y1902660D02*
X2722760D01*
X2694114Y1913636D02*
X2705090Y1902660D01*
X2692908Y1913636D02*
X2694114D01*
X2693022Y1913750D02*
X2694250D01*
X2692908Y1913636D02*
X2693022Y1913750D01*
X2685034Y1932432D02*
X2706806Y1910660D01*
X2716750Y1630090D02*
Y1778750D01*
X2694158Y1865886D02*
Y1913000D01*
X2652224Y1565564D02*
X2716750Y1630090D01*
X2652224Y1539835D02*
Y1565564D01*
X2636639Y1524250D02*
X2652224Y1539835D01*
X2617006Y1524250D02*
X2636639D01*
X2649474Y1540974D02*
Y1727708D01*
X2635500Y1527000D02*
X2649474Y1540974D01*
X2606707Y1527000D02*
X2635500D01*
X2598507Y1518800D02*
X2606707Y1527000D01*
X2644161Y1539661D02*
Y1765554D01*
X2634500Y1530000D02*
X2644161Y1539661D01*
X2604620Y1530000D02*
X2634500D01*
X2598420Y1523800D02*
X2604620Y1530000D01*
X2590460Y1498800D02*
X2604800D01*
X2604050Y1493800D02*
X2626641Y1516391D01*
X2590460Y1493800D02*
X2604050D01*
X2625142Y1519142D02*
X2739930D01*
X2604800Y1498800D02*
X2625142Y1519142D01*
X2626641Y1516391D02*
X2712963D01*
X2620500Y1505750D02*
X2620500D01*
X2603550Y1488800D02*
X2620500Y1505750D01*
X2590460Y1488800D02*
X2603550D01*
X2620500Y1505750D02*
X2620672Y1505922D01*
X2628391Y1513641D01*
X2707077D01*
X2622250Y1502500D02*
X2626750D01*
X2603550Y1483800D02*
X2622250Y1502500D01*
X2629000Y1496250D02*
X2708466D01*
X2618650Y1485900D02*
X2629000Y1496250D01*
X2618486Y1485900D02*
X2618650D01*
X2708466Y1496250D02*
X2709926Y1494790D01*
X2694150Y1490500D02*
X2699004Y1485646D01*
X2633000Y1490500D02*
X2694150D01*
X2623500Y1481000D02*
X2633000Y1490500D01*
X2623500Y1480995D02*
Y1481000D01*
X2611306Y1468800D02*
X2623500Y1480995D01*
X2334500Y1624750D02*
X2337750Y1621500D01*
X2327946Y1631304D02*
X2334500D01*
Y1624750D02*
Y1631304D01*
X2344710Y1637460D02*
Y1659550D01*
X2342000Y1634750D02*
X2344710Y1637460D01*
X2330704Y1612646D02*
X2345944D01*
X2324608Y1618742D02*
X2330704Y1612646D01*
X2345944D02*
X2346236Y1612938D01*
X2341880Y1607312D02*
X2348484Y1600708D01*
X2326640Y1607312D02*
X2341880D01*
X2336800Y1602232D02*
X2343912Y1595120D01*
X2310892Y1602232D02*
X2336800D01*
X2350554Y1623276D02*
Y1641049D01*
X2346236Y1625092D02*
X2347803Y1626660D01*
X2346236Y1612938D02*
Y1625092D01*
X2347803Y1626660D02*
Y1644303D01*
X2354710Y1651210D01*
X2350554Y1641049D02*
X2359710Y1650205D01*
X2356104Y1637284D02*
X2361184Y1632204D01*
X2323236Y1636014D02*
X2327946Y1631304D01*
X2323236Y1636014D02*
X2339710Y1652489D01*
Y1659550D01*
X2590460Y1573800D02*
X2606200D01*
X1924170Y1478780D02*
X1940560D01*
X1937750Y1499000D02*
X1941500Y1502750D01*
X1937553Y1498803D02*
X1937606Y1498750D01*
X1440590Y1975160D02*
X1440630D01*
X1437000Y1978750D02*
X1440590Y1975160D01*
X1435250Y1978750D02*
X1437000D01*
X1545000Y1975410D02*
Y1978000D01*
X1544750Y1975160D02*
X1545000Y1975410D01*
X1503750Y1975542D02*
X1504750Y1974542D01*
X1503750Y1975542D02*
Y1977250D01*
X1509750Y1957660D02*
Y2009166D01*
X1412748Y2106168D02*
X1509750Y2009166D01*
X1494750Y1975160D02*
Y1983500D01*
X1494750Y1975160D02*
X1494750Y1975160D01*
X2383750Y2021250D02*
X2388540D01*
X2375500Y2015250D02*
Y2023250D01*
X2381640Y2029390D02*
X2401450D01*
X2375500Y2023250D02*
X2381640Y2029390D01*
X2406620Y1672181D02*
Y1676939D01*
X2409871Y1680190D01*
X2409940D02*
X2419625Y1689875D01*
X2409871Y1680190D02*
X2409940D01*
X2537070Y1734430D02*
X2543611Y1727889D01*
X2536000Y1734500D02*
X2537070Y1734430D01*
X2543611Y1718310D02*
Y1727889D01*
X2536000Y1733360D02*
Y1735500D01*
X2529600Y1686066D02*
Y1820686D01*
X2526849Y1695033D02*
Y1822761D01*
X2409754Y1626004D02*
X2413500Y1622258D01*
X2409754Y1626004D02*
X2410004D01*
Y1626250D01*
X2408000D02*
X2410004D01*
X2402346Y1644904D02*
X2417750Y1629500D01*
X2394204Y1644904D02*
X2402346D01*
X2315113Y1583500D02*
Y1584327D01*
Y1583500D02*
X2315528D01*
X2316734Y1584706D01*
X1740970Y2342750D02*
X1745250D01*
X1738160Y2339940D02*
X1740970Y2342750D01*
X1751240Y2318000D02*
X1756000D01*
X1749340Y2316100D02*
X1751240Y2318000D01*
X2533000Y1675500D02*
X2534666Y1677166D01*
X2522020Y1675500D02*
X2533000D01*
X2522020D02*
Y1690203D01*
X2542250Y1688500D02*
Y1691978D01*
X2548555Y1671358D02*
Y1713216D01*
X2551305Y1669680D02*
Y1710521D01*
X2554055Y1686268D02*
Y1707771D01*
Y1686268D02*
X2554710Y1685614D01*
X2544710Y1667513D02*
X2548555Y1671358D01*
X2554710Y1659550D02*
Y1685614D01*
X2531198Y1672292D02*
X2534710Y1668780D01*
X2520632Y1672292D02*
X2531198D01*
X2519270Y1673654D02*
X2520632Y1672292D01*
X2519270Y1673654D02*
Y1798079D01*
X2517708Y1669542D02*
X2527678D01*
X2517460Y1669790D02*
X2517708Y1669542D01*
X2517460Y1669790D02*
Y1671574D01*
X2516519Y1672515D02*
X2517460Y1671574D01*
X2516519Y1672515D02*
Y1792089D01*
X2534710Y1659550D02*
Y1668780D01*
X2564000Y1376804D02*
Y1377750D01*
X2563876Y1376680D02*
X2564000Y1376804D01*
X2569710Y1363050D02*
Y1387602D01*
X2514500Y1349250D02*
Y1349910D01*
X2515616Y1351026D01*
X2444750Y1375640D02*
Y1378500D01*
X2444710Y1375600D02*
X2444750Y1375640D01*
X2464750Y1374500D02*
Y1379000D01*
X2474750Y1374500D02*
Y1378100D01*
X2475000Y1377850D02*
Y1380250D01*
X2453000Y2048642D02*
Y2058250D01*
X2450000Y2057250D02*
X2452750Y2060000D01*
X2414628Y2057250D02*
X2450000D01*
X2414524Y2057146D02*
X2414628Y2057250D01*
X2415794Y2063242D02*
X2431542Y2078990D01*
X2408936Y2063242D02*
X2415794D01*
X2519172Y1806708D02*
Y1861578D01*
X2514750Y1866000D02*
X2519172Y1861578D01*
X2514750Y1866000D02*
Y1868250D01*
X2512500D02*
X2514750D01*
X2813500Y1930750D02*
X2822098D01*
X2399750Y1659330D02*
Y1676949D01*
X2387699Y1689000D02*
X2399750Y1676949D01*
X2387250Y1689000D02*
X2387699D01*
X2403869Y1667180D02*
X2404710Y1666340D01*
X2403869Y1667180D02*
Y1873745D01*
X2394710Y1659550D02*
Y1668540D01*
X2389710Y1659550D02*
Y1669040D01*
X2406620Y1672181D02*
X2409710Y1669090D01*
X2404710Y1659550D02*
Y1666340D01*
X2412170Y1674640D02*
X2414710Y1672100D01*
X2477500Y1678500D02*
Y1679000D01*
X2474710Y1675710D02*
X2477500Y1678500D01*
X2474710Y1659550D02*
Y1675710D01*
X2480260Y1669750D02*
X2484750Y1674240D01*
X2480260Y1666550D02*
Y1669750D01*
X2484750Y1674240D02*
Y1687901D01*
X2480260Y1692490D02*
X2481960Y1690790D01*
Y1690691D02*
Y1690790D01*
Y1690691D02*
X2484750Y1687901D01*
X2480260Y1692490D02*
Y1701137D01*
X2484710Y1691830D02*
Y1702590D01*
Y1691830D02*
X2488031Y1688509D01*
X2484710Y1659550D02*
Y1670310D01*
X2488031Y1673632D01*
X2471718Y1682802D02*
Y1812588D01*
X2464710Y1675794D02*
X2471718Y1682802D01*
X2464710Y1659550D02*
Y1675794D01*
X2468967Y1683941D02*
Y1843802D01*
X2459710Y1674684D02*
X2468967Y1683941D01*
X2459710Y1659550D02*
Y1674684D01*
X2172000Y1846750D02*
X2183384Y1858134D01*
Y1879600D01*
X2175764Y1887220D02*
X2183384Y1879600D01*
X2038600Y1914150D02*
X2046500Y1906250D01*
X2046000Y1903250D02*
Y1903851D01*
X2042201Y1907650D02*
X2046000Y1903851D01*
X2167500Y1925000D02*
X2169000D01*
X2167420Y1973072D02*
X2194500D01*
X2180000Y1914000D02*
X2204250D01*
X2169000Y1925000D02*
X2180000Y1914000D01*
X2167420Y1934210D02*
X2168960D01*
X2570250Y1451250D02*
X2570460D01*
X2577910Y1443800D01*
X2305500Y1435250D02*
X2311250Y1441000D01*
X2305500Y1428800D02*
Y1435250D01*
X2293960Y1428800D02*
X2305500D01*
X2311250Y1441000D02*
X2323250D01*
X2293960Y1453800D02*
X2294510Y1453250D01*
X2294510Y1464350D02*
X2304330D01*
X2293960Y1463800D02*
X2294510Y1464350D01*
X2304330D02*
X2305560Y1465580D01*
X2332000Y1421866D02*
Y1449000D01*
X2323934Y1413800D02*
X2332000Y1421866D01*
X2293960Y1413800D02*
X2323934D01*
X2307082Y1393059D02*
X2334750Y1420727D01*
Y1458000D01*
X2327170Y1465580D02*
X2334750Y1458000D01*
X2305560Y1465580D02*
X2327170D01*
X1831594Y1402334D02*
Y1402344D01*
X1826750Y1408250D02*
X1827000D01*
X1825500Y1406750D02*
X1827000Y1408250D01*
X1812200Y1406750D02*
X1825500D01*
X1812170Y1406780D02*
X1812200Y1406750D01*
X2292750Y1423750D02*
X2312750D01*
X2202142Y1443444D02*
X2268518D01*
X2199193Y1446195D02*
X2264155D01*
X2252872Y1448945D02*
X2259347Y1455420D01*
X2193107Y1448945D02*
X2252872D01*
X2247058Y1470780D02*
X2275078Y1498800D01*
X1924170Y1470780D02*
X2247058D01*
X2208654Y1438780D02*
X2270183D01*
X2284438Y1445514D02*
X2287524D01*
X2284222Y1445730D02*
X2284438Y1445514D01*
X2277133Y1445730D02*
X2284222D01*
X2273873Y1448800D02*
X2293960D01*
X2240188Y1398778D02*
X2243950Y1402540D01*
X2278861Y1393818D02*
Y1393979D01*
X2278634Y1394206D02*
X2278861Y1393979D01*
X2207768Y1437894D02*
X2208654Y1438780D01*
X2474722Y1583182D02*
X2549104Y1508800D01*
X2474722Y1583182D02*
Y1637538D01*
X2549104Y1508800D02*
X2590460D01*
X2310250Y1573250D02*
Y1575060D01*
X2306510Y1578800D02*
X2310250Y1575060D01*
X2303780Y1595120D02*
X2310892Y1602232D01*
X2348484Y1553464D02*
X2350008Y1551940D01*
Y1467612D02*
Y1551940D01*
X2268250Y1570250D02*
X2269750Y1568750D01*
X2294000D01*
X2274300Y1573800D02*
X2293960D01*
X2266950Y1581150D02*
X2274300Y1573800D01*
X2237232Y1581150D02*
X2266950D01*
X2236724Y1581658D02*
X2237232Y1581150D01*
X2256326Y1603800D02*
X2293960D01*
X2252536Y1613306D02*
X2286960D01*
X2322322Y1549400D02*
Y1579118D01*
X2316722Y1543800D02*
X2322322Y1549400D01*
X2316734Y1584706D02*
X2322322Y1579118D01*
X2278541Y1544159D02*
X2283900Y1538800D01*
X2293960D01*
X2273300Y1549400D02*
X2278380Y1544320D01*
X2255899Y1553230D02*
X2262483Y1559814D01*
X2240392Y1553230D02*
X2255899D01*
X2231481Y1544320D02*
X2240392Y1553230D01*
X2303780Y1610070D02*
Y1613690D01*
X2302510Y1608800D02*
X2303780Y1610070D01*
X2255520Y1563370D02*
X2293960Y1563800D01*
X2242820Y1562100D02*
Y1565694D01*
X2234946Y1556004D02*
Y1564386D01*
X2224786Y1574546D02*
X2234946Y1564386D01*
X701171Y2132199D02*
X701510Y2131860D01*
X690880Y2132199D02*
X701171D01*
X1619727Y1924050D02*
X1624615D01*
X1619727Y1915018D02*
Y1924050D01*
X1421506Y1390650D02*
X1423670D01*
X1419286Y1388430D02*
X1421506Y1390650D01*
X1428050Y1396430D02*
X1431491Y1392989D01*
X1405770Y1396430D02*
X1428050D01*
X1369060Y1188720D02*
Y1553972D01*
X2822210Y2038660D02*
X2834760D01*
X2877820Y909320D02*
X2901250D01*
X2513450Y2029390D02*
X2526000D01*
X2839840Y1167320D02*
X2852390D01*
X2839840Y1135320D02*
X2852390D01*
X2513450Y1981390D02*
X2526000D01*
X2388900Y2021390D02*
X2401450D01*
X2715290Y1159320D02*
X2727840D01*
X2577910Y1463800D02*
X2590460D01*
X2524710Y1363050D02*
Y1375600D01*
X2444710Y1363050D02*
Y1375600D01*
X2314710Y1659550D02*
Y1672100D01*
X2167420Y1861219D02*
Y1874520D01*
X1623610Y2393889D02*
Y2409190D01*
X1749340Y2300800D02*
Y2316100D01*
X2293960Y1558800D02*
X2306510D01*
X2028900Y1959650D02*
X2042201D01*
X1645920Y2314280D02*
Y2325080D01*
X1420410Y2393889D02*
Y2409190D01*
X1743240Y2169160D02*
Y2182460D01*
X1554480Y2314280D02*
Y2325080D01*
X1508760Y2314280D02*
Y2325080D01*
X1414310Y2363470D02*
Y2376770D01*
X1318810Y2393889D02*
Y2409190D01*
X1366520Y2314280D02*
Y2325080D01*
X1320800Y2314280D02*
Y2325080D01*
X1270000Y2314280D02*
Y2325080D01*
X1224280Y2314280D02*
Y2325080D01*
X1911620Y1510780D02*
X1924170D01*
X1544750Y1957660D02*
Y1975160D01*
X1924170Y1422780D02*
X1936720D01*
X1494750Y1957660D02*
Y1975160D01*
X1924170Y1342780D02*
X1936720D01*
X1812120Y1318530D02*
X1831750D01*
X1509750Y1731977D02*
Y1745660D01*
X562610Y2170770D02*
Y2181570D01*
X1454750Y1745660D02*
Y1769000D01*
X1739948Y847169D02*
Y868469D01*
Y809470D02*
Y838250D01*
X1517770Y1412430D02*
X1530320D01*
X1650949Y847169D02*
Y868469D01*
Y809470D02*
Y838750D01*
X1427410Y1053270D02*
Y1068070D01*
X1031710Y1440849D02*
Y1454150D01*
X1106510Y1311270D02*
Y1322070D01*
X904710Y1384969D02*
Y1398270D01*
Y1308770D02*
Y1322070D01*
X1058710Y1029370D02*
Y1042670D01*
X1106510Y879470D02*
Y890270D01*
X855510Y1245740D02*
Y1245870D01*
X1031710Y800770D02*
Y814070D01*
X904710Y1027500D02*
Y1042670D01*
X828510Y1029370D02*
Y1042670D01*
X904710Y800770D02*
Y814070D01*
X828510Y800770D02*
Y814070D01*
X1031710Y1588170D02*
Y1601470D01*
X931710Y1588170D02*
Y1601470D01*
X818350Y1588170D02*
Y1601470D01*
X2822210Y1974660D02*
X2834760D01*
X2722760Y1982660D02*
X2735310D01*
X2401450Y1981390D02*
X2414000D01*
X1738160Y2326640D02*
Y2339940D01*
X2028900Y1907650D02*
X2042201D01*
X2028900Y1901150D02*
X2045250D01*
X807869Y2411620D02*
X823170D01*
X1911620Y1318780D02*
X1924170D01*
X1799620Y1414780D02*
X1812170D01*
X1799620Y1398780D02*
X1812170D01*
X1405770Y1412430D02*
X1418320D01*
X1402410Y1068070D02*
Y1082870D01*
X931710Y1384969D02*
Y1398270D01*
X828510Y1384969D02*
Y1398270D01*
X931710Y1245870D02*
Y1246040D01*
X1031710Y1181769D02*
Y1195070D01*
X904710Y1181769D02*
Y1195070D01*
X828510Y1181769D02*
Y1195070D01*
X2577910Y1443800D02*
X2590460D01*
X2293960Y1578800D02*
X2306510D01*
X1058710Y953169D02*
Y966470D01*
X904710Y953169D02*
Y966470D01*
X828510Y953169D02*
Y966470D01*
X2349710Y1659550D02*
Y1679150D01*
X2167420Y1889760D02*
Y1899920D01*
Y1889760D02*
X2169960Y1887220D01*
X2175764D01*
X2167420Y1973072D02*
Y1976120D01*
X2379980Y1074928D02*
Y1093470D01*
Y1074928D02*
X2390648Y1064260D01*
Y1037844D02*
Y1064260D01*
X2379980Y1027176D02*
X2390648Y1037844D01*
X2379980Y1019010D02*
Y1027176D01*
X728510Y2134870D02*
Y2185670D01*
Y2134870D02*
X762508D01*
X767588Y2139950D01*
X801810D01*
X892810D01*
X1273810Y2409190D02*
Y2500190D01*
Y2519680D01*
X1285710Y2531580D01*
Y2551430D01*
X1375410Y2409190D02*
Y2500190D01*
Y2519680D01*
X1387310Y2531580D01*
Y2551430D01*
X1471930Y2409190D02*
Y2500190D01*
Y2517140D01*
X1488910Y2534120D01*
Y2551430D01*
X1578610Y2409190D02*
Y2500190D01*
Y2519680D01*
X1590510Y2531580D01*
Y2551430D01*
X842010Y1525270D02*
Y1561592D01*
X845350Y1564932D01*
Y1601470D01*
X1968500Y1046010D02*
Y1067054D01*
X1971040Y1069594D01*
Y1090930D01*
X1718310Y950760D02*
Y977646D01*
X1720850Y980186D01*
Y1007110D01*
X1692910Y950760D02*
Y977646D01*
X1695450Y980186D01*
Y1007110D01*
X1687449Y869470D02*
Y893826D01*
X1692910Y899287D01*
Y923760D01*
X1508760Y2261400D02*
Y2293280D01*
X1554480Y2261400D02*
Y2293280D01*
X1600200Y2261400D02*
Y2293280D01*
X1645920Y2261400D02*
Y2293280D01*
X1224280Y2261400D02*
Y2293280D01*
X1270000Y2261400D02*
Y2293280D01*
X1315720Y2261400D02*
Y2274570D01*
X1320800Y2279650D01*
Y2293280D01*
X1366520Y2261400D02*
Y2293280D01*
X562610Y2149770D02*
X586486D01*
X589486Y2146770D01*
X613410D01*
X1704340Y2209800D02*
Y2300800D01*
Y2310130D01*
X1711160Y2316950D01*
Y2326640D01*
X2140420Y1874520D02*
Y1899920D01*
X2476500Y1046010D02*
X2512060D01*
X2205228Y1049020D02*
X2208238Y1046010D01*
X2205228Y1100582D02*
X2280920D01*
X2286254Y1095248D01*
Y1046010D02*
X2293620D01*
X1989290D02*
X2024380D01*
X1983740Y1051560D02*
X1989290Y1046010D01*
X1983740Y1051560D02*
Y1124712D01*
X1976120Y1132332D02*
X1983740Y1124712D01*
X1940560Y1132332D02*
X1976120D01*
X1930908Y1122680D02*
X1940560Y1132332D01*
X1930908Y1069594D02*
Y1122680D01*
Y1069594D02*
X1940306Y1060196D01*
Y1046010D02*
X1943100D01*
X2044192D02*
X2049780D01*
X2042668Y1075690D02*
X2044192Y1074166D01*
X2042668Y1075690D02*
Y1122680D01*
X2052320Y1132332D01*
X2115312D01*
X2123694Y1123950D01*
X2340318Y1046010D02*
X2349500D01*
X2337308Y1049020D02*
Y1107440D01*
X2344928Y1115060D01*
X2382520D01*
X2390140Y1107440D01*
Y1075944D02*
Y1107440D01*
Y1075944D02*
X2420074Y1046010D01*
X2430780D01*
X620522Y2431322D02*
X631170Y2441970D01*
X620522Y2369518D02*
Y2431322D01*
Y2369518D02*
X631170Y2358870D01*
X1902460Y1051560D02*
X1908010Y1046010D01*
X1902460Y1051560D02*
Y1098042D01*
X1899920Y1100582D02*
X1902460Y1098042D01*
X1852930Y1100582D02*
X1899920D01*
X1849628Y1097280D02*
X1852930Y1100582D01*
X1849628Y1067816D02*
Y1097280D01*
Y1067816D02*
X1857756Y1059688D01*
Y1044740D02*
X1859280D01*
X1670050Y1007110D02*
X1679448Y997712D01*
Y869470D02*
Y997712D01*
X1405770Y1460430D02*
X1414780D01*
X1416050Y1461700D01*
Y1565910D01*
X1321308Y1224788D02*
X1330960Y1234440D01*
X1321308Y1183640D02*
Y1224788D01*
Y1183640D02*
X1377410Y1127538D01*
Y1068070D02*
Y1127538D01*
X1387310Y2360422D02*
Y2363470D01*
Y2360422D02*
X1435100Y2312632D01*
Y2164080D02*
Y2312632D01*
Y2164080D02*
X1437640Y2161540D01*
X1447800D01*
X737870Y2326170D02*
Y2375310D01*
X741680Y2379120D01*
X754170D01*
X1058710Y1552070D02*
X1085510Y1525270D01*
X1058710Y1552070D02*
Y1601470D01*
Y1145670D02*
X1085510Y1118870D01*
X1058710Y1145670D02*
Y1195070D01*
X1554480Y2234400D02*
X1564640D01*
X1572260Y2226780D01*
Y2174240D02*
Y2226780D01*
Y2174240D02*
X1584960Y2161540D01*
X1695450Y869470D02*
Y891540D01*
X1713484Y909574D01*
Y923760D02*
X1718310D01*
X2134830Y915670D02*
Y942380D01*
X2110740Y966470D02*
X2134830Y942380D01*
X791210Y1283170D02*
X828510Y1245870D01*
X791210Y1283170D02*
Y1322070D01*
X1524750Y1674610D02*
Y1745660D01*
X1441450Y1591310D02*
X1524750Y1674610D01*
X1381760Y1234440D02*
X1477410Y1138790D01*
Y1068070D02*
Y1138790D01*
X1346708Y1224788D02*
X1356360Y1234440D01*
X1346708Y1184910D02*
Y1224788D01*
Y1184910D02*
X1452410Y1079208D01*
Y1068070D02*
Y1079208D01*
X1989620Y2086356D02*
Y2092960D01*
Y2086356D02*
X2031276Y2044700D01*
X2087880D01*
X2092960Y2039620D01*
Y2032000D02*
Y2039620D01*
X2157730Y915670D02*
X2192020Y949960D01*
Y966470D01*
X2843530Y814070D02*
Y843534D01*
X2858516Y858520D01*
X2877820D01*
X855510Y1042670D02*
Y1054570D01*
X791210Y1118870D02*
X855510Y1054570D01*
Y814070D02*
Y825970D01*
X791210Y890270D02*
X855510Y825970D01*
X1745742Y2142998D02*
X1755140Y2133600D01*
X1731988Y2142998D02*
X1745742D01*
X1716240Y2158746D02*
X1731988Y2142998D01*
X1716240Y2158746D02*
Y2169160D01*
X2275078Y1498800D02*
X2293960D01*
X1887220Y1019010D02*
X1898904Y1030694D01*
Y1063752D01*
X1889760Y1072896D02*
X1898904Y1063752D01*
X1889760Y1072896D02*
Y1090930D01*
X1989620Y2041652D02*
Y2042160D01*
Y2041652D02*
X2008924Y2022348D01*
X2098040D01*
X2102612Y2026920D01*
Y2036064D01*
X2108200Y2041652D01*
X2153158D01*
X2160524Y2034286D01*
Y2032000D02*
Y2034286D01*
Y2032000D02*
X2169160D01*
X2325624Y1039914D02*
X2331720Y1046010D01*
X2325624Y1016000D02*
Y1039914D01*
X2320544Y1010920D02*
X2325624Y1016000D01*
X2258822Y1010920D02*
X2320544D01*
X2257552Y1012190D02*
X2258822Y1010920D01*
X2257552Y1012190D02*
Y1044232D01*
X2259330Y1046010D02*
X2268220D01*
X2174240D02*
X2186940D01*
X2166620Y1038390D02*
X2174240Y1046010D01*
X2166620Y966470D02*
Y1038390D01*
X2092960Y1046010D02*
X2105660D01*
X2085340Y1038390D02*
X2092960Y1046010D01*
X2085340Y966470D02*
Y1038390D01*
X1538986Y2166366D02*
X1559560Y2186940D01*
X1538986Y1971294D02*
Y2166366D01*
Y1971294D02*
X1539750Y1970530D01*
Y1957660D02*
Y1970530D01*
X2420794Y2045390D02*
X2425946Y2050542D01*
X2690876D02*
X2694758Y2046660D01*
X2722760D01*
X2401450Y2061390D02*
X2408936D01*
X2834760Y2054660D02*
X2843584D01*
X2845054Y2056130D01*
Y2077720D01*
X2839720Y2083054D02*
X2845054Y2077720D01*
X2509012Y2083054D02*
X2839720D01*
X2503678Y2077720D02*
X2509012Y2083054D01*
X2503678Y2054860D02*
Y2077720D01*
Y2054860D02*
X2505148Y2053390D01*
X2513450D01*
X2834760Y2046660D02*
X2844800D01*
X2847848Y2049708D01*
Y2082800D01*
X2840228Y2090420D02*
X2847848Y2082800D01*
X2508504Y2090420D02*
X2840228D01*
X2500884Y2082800D02*
X2508504Y2090420D01*
X2500884Y2048946D02*
Y2082800D01*
Y2048946D02*
X2504440Y2045390D01*
X2513450D01*
X2389124Y1997390D02*
X2401450D01*
X2390138Y1973390D02*
X2401450D01*
X2387598Y1975930D02*
X2390138Y1973390D01*
X2386360Y1975930D02*
X2387598D01*
X2714470Y2022660D02*
X2722760D01*
X1877060Y1046010D02*
X1887220D01*
X1875028Y1043978D02*
X1877060Y1046010D01*
X1875028Y1013460D02*
Y1043978D01*
X1800860Y1007872D02*
X1869440D01*
X1797812Y1010920D02*
X1800860Y1007872D01*
X1797812Y1042962D02*
X1799590Y1044740D01*
X1859280Y1090930D02*
X1869948Y1080262D01*
Y1036574D02*
Y1080262D01*
X1859280Y1025906D02*
X1869948Y1036574D01*
X1859280Y1017740D02*
Y1025906D01*
X1439750Y1871980D02*
Y1957660D01*
X1401064Y1850684D02*
Y1867636D01*
X1399540Y1849160D02*
X1401064Y1850684D01*
X1386250Y1849160D02*
X1399540D01*
X2512060Y1046010D02*
X2520950D01*
X2521458Y1010920D02*
X2522728Y1012190D01*
X2364740Y1016000D02*
X2369820Y1010920D01*
X2364740Y1016000D02*
Y1043470D01*
X2367280Y1046010D01*
X2379980D01*
X2208238D02*
X2217420D01*
X2202688Y1051560D02*
Y1097534D01*
X2186686Y1113536D02*
X2202688Y1097534D01*
X2130044Y1113536D02*
X2186686D01*
X2123694Y1046010D02*
X2131060D01*
X1280160Y1234440D02*
X1292860Y1221740D01*
Y1092708D02*
Y1221740D01*
Y1092708D02*
X1306830Y1078738D01*
Y1068070D02*
X1311160D01*
X1305560Y1234440D02*
X1315212Y1224788D01*
Y1093210D02*
Y1224788D01*
Y1093210D02*
X1328160Y1080262D01*
Y1068070D02*
Y1080262D01*
X1374301Y1789160D02*
X1386250D01*
X1372798Y1790662D02*
X1374301Y1789160D01*
X1365250Y1790662D02*
X1372798D01*
X1372870Y1764160D02*
X1386250D01*
X1371479Y1762769D02*
X1372870Y1764160D01*
X1371479Y1753812D02*
Y1762769D01*
Y1753812D02*
X1376370Y1748920D01*
X1386250Y1779160D02*
X1402190D01*
X1598250Y1819160D02*
X1689850D01*
X1695450Y1813560D01*
Y1591310D02*
Y1813560D01*
X1598250Y1809160D02*
X1664290D01*
X1670050Y1803400D01*
Y1591310D02*
Y1803400D01*
X1598250Y1789160D02*
X1638570D01*
X1644650Y1783080D01*
Y1591310D02*
Y1783080D01*
X1598250Y1779160D02*
X1613010D01*
X1619250Y1772920D01*
Y1591310D02*
Y1772920D01*
X1812170Y1446780D02*
X1835912D01*
X2269744Y1517396D02*
X2281148Y1528800D01*
X2293960D01*
Y1508800D02*
X2303970D01*
X1924170Y1446780D02*
X2190941D01*
X2193107Y1448945D01*
X2259347Y1455420D02*
Y1460022D01*
X2278126Y1478800D01*
X2293960D01*
X1924170Y1438780D02*
X2191778D01*
X2199193Y1446195D01*
X2264155D02*
X2277860Y1459900D01*
Y1465822D01*
X2285838Y1473800D01*
X2293960D01*
Y1458800D02*
X2306510D01*
X1902460Y1382780D02*
X1924170D01*
X1899920Y1385320D02*
X1902460Y1382780D01*
X1899920Y1385320D02*
Y1432560D01*
X1812170Y1358780D02*
X1854200D01*
X1860550Y1365130D01*
Y1442212D01*
X2281936Y1440180D02*
X2283316Y1438800D01*
X2293960D01*
X1798250Y1486530D02*
X1812430D01*
X1544750Y1643810D02*
Y1745660D01*
X1492250Y1591310D02*
X1544750Y1643810D01*
X1517650Y1591310D02*
X1554750Y1628410D01*
Y1696833D01*
X1553650Y1697934D02*
X1554750Y1696833D01*
X1553650Y1697934D02*
Y1707934D01*
X1554750Y1709034D01*
Y1745660D01*
X2293960Y1468800D02*
X2304460D01*
X1820040Y1390780D02*
X1831594Y1402334D01*
X1812170Y1390780D02*
X1820040D01*
X2293960Y1533800D02*
X2321560D01*
X1827660Y1438780D02*
X1831594Y1434846D01*
X1812170Y1438780D02*
X1827660D01*
X2286960Y1383800D02*
X2293960D01*
X1812170Y1374780D02*
X1833504D01*
X2170938Y1395476D02*
Y1412240D01*
X2202142Y1443444D01*
X2268518D02*
X2273873Y1448800D01*
X1613869Y1909160D02*
X1619727Y1915018D01*
X1598250Y1909160D02*
X1613869D01*
X1506220Y1460430D02*
X1517770D01*
X1504950Y1461700D02*
X1506220Y1460430D01*
X1504950Y1461700D02*
Y1553210D01*
X1517650Y1565910D01*
X1517770Y1452430D02*
X1537520D01*
X1543050Y1457960D01*
Y1565910D01*
X1507998Y1516634D02*
X1512062Y1520698D01*
X1507998Y1478280D02*
Y1516634D01*
Y1478280D02*
X1509848Y1476430D01*
X1517770D01*
X1395984Y1468430D02*
X1405770D01*
X1395984D02*
Y1514348D01*
X1406398Y1524762D01*
Y1569720D01*
X1412240Y1575562D01*
X1419860D01*
X1429512Y1565910D01*
X1441450D01*
X2700782Y2054660D02*
X2722760D01*
X2513450Y2061390D02*
X2616200D01*
X2627450Y2072640D01*
X2776728D02*
X2786708Y2062660D01*
X2834760D01*
X2513450Y2045390D02*
X2579044D01*
X2582418Y2048764D01*
X2600198D01*
X2620264Y2028698D01*
Y1564976D02*
Y2028698D01*
X2609088Y1553800D02*
X2620264Y1564976D01*
X2590460Y1553800D02*
X2609088D01*
X2590460Y1638800D02*
X2597480D01*
Y1646420D02*
X2597930D01*
X1582420Y1804160D02*
X1598250D01*
X1580750Y1805830D02*
X1582420Y1804160D01*
X1580750Y1805830D02*
Y1811780D01*
X1386250Y1889160D02*
X1401664D01*
X1368686Y1844160D02*
X1386250D01*
X1368044Y1844802D02*
X1368686Y1844160D01*
X1372870Y1839160D02*
X1386250D01*
X1354074Y1812345D02*
Y1820364D01*
X1337353Y1795625D02*
X1354074Y1812345D01*
X1337353Y1618401D02*
Y1795625D01*
Y1618401D02*
X1352252Y1603502D01*
Y1538776D02*
Y1603502D01*
Y1538776D02*
X1360678Y1530350D01*
Y1249680D02*
Y1530350D01*
X1355090Y1244092D02*
X1360678Y1249680D01*
X1351280Y1244092D02*
X1355090D01*
X1343660Y1236472D02*
X1351280Y1244092D01*
X1343660Y1221740D02*
Y1236472D01*
X1330960Y1209040D02*
X1343660Y1221740D01*
X2612644Y1943354D02*
Y2013712D01*
X2606040Y1936750D02*
X2612644Y1943354D01*
X2606040Y1929638D02*
Y1936750D01*
Y1929638D02*
X2610739Y1924939D01*
Y1603629D02*
Y1924939D01*
X2600910Y1593800D02*
X2610739Y1603629D01*
X2590460Y1593800D02*
X2600910D01*
X1514750Y1732894D02*
Y1745660D01*
Y1732894D02*
X1521206Y1726438D01*
Y1696466D02*
Y1726438D01*
X1416050Y1591310D02*
X1521206Y1696466D01*
X1463548Y2177288D02*
X1473200Y2186940D01*
X1463548Y2069338D02*
Y2177288D01*
Y2069338D02*
X1519750Y2013136D01*
Y1957660D02*
Y2013136D01*
X1447800Y2186940D02*
X1458468Y2176272D01*
Y2070354D02*
Y2176272D01*
Y2070354D02*
X1514750Y2014072D01*
Y1957660D02*
Y2014072D01*
X1459750Y1760474D02*
X1473708Y1774432D01*
X1459750Y1745660D02*
Y1760474D01*
X2293960Y1608800D02*
X2302510D01*
X2303780Y1613690D02*
X2309050Y1618960D01*
X1484750Y1700468D02*
Y1745660D01*
X1476967Y1692686D02*
X1484750Y1700468D01*
X1474750Y1706496D02*
Y1745660D01*
X1459639Y1691386D02*
X1474750Y1706496D01*
X1454658Y1691386D02*
X1459639D01*
X1494750Y1695685D02*
Y1745660D01*
Y1695685D02*
X1497292Y1693143D01*
X1390650Y1591310D02*
X1471460Y1672120D01*
X1539750Y1657860D02*
Y1745660D01*
X1482598Y1600708D02*
X1539750Y1657860D01*
X1482598Y1581658D02*
Y1600708D01*
X2287448Y1593800D02*
X2293960D01*
X2286012Y1592364D02*
X2287448Y1593800D01*
X2276447Y1592364D02*
X2286012D01*
X2275010Y1593800D02*
X2276447Y1592364D01*
X2272569Y1593800D02*
X2275010D01*
X2271250Y1595120D02*
X2272569Y1593800D01*
X2271250Y1595120D02*
Y1596340D01*
X2293960Y1543800D02*
X2316722D01*
X1548384Y1634744D02*
X1549750Y1636110D01*
Y1745660D01*
X2293960Y1483800D02*
X2331720D01*
X2338324Y1490404D01*
Y1542796D01*
X1569750Y1606750D02*
Y1745660D01*
X2451544Y1471168D02*
X2509710Y1413002D01*
X2577700Y1513800D02*
X2590460D01*
X2701798Y2038660D02*
X2722760D01*
X2671008Y2007870D02*
X2701798Y2038660D01*
X2419604Y2007870D02*
Y2032000D01*
X2414214Y2037390D02*
X2419604Y2032000D01*
X2401450Y2037390D02*
X2414214D01*
X1598250Y1914160D02*
X1614170D01*
X1616710Y1916700D01*
Y1926153D01*
X1634419Y1943862D01*
X1678686D01*
X2603500Y1822450D02*
X2607989Y1817961D01*
Y1606213D02*
Y1817961D01*
X2600576Y1598800D02*
X2607989Y1606213D01*
X2590460Y1598800D02*
X2600576D01*
X2387600Y1965390D02*
X2401450D01*
X2414710Y1659550D02*
Y1672100D01*
X1371600Y1824160D02*
X1386250D01*
X1359601Y1812160D02*
X1371600Y1824160D01*
X1359601Y1806654D02*
Y1812160D01*
X1342854Y1789907D02*
X1359601Y1806654D01*
X1342854Y1629454D02*
Y1789907D01*
Y1629454D02*
X1374750Y1597558D01*
Y1559662D02*
Y1597558D01*
X1369060Y1553972D02*
X1374750Y1559662D01*
X1373127Y1834160D02*
X1386250D01*
X1356850Y1810041D02*
Y1817884D01*
X1340103Y1793294D02*
X1356850Y1810041D01*
X1340103Y1623738D02*
Y1793294D01*
Y1623738D02*
X1355525Y1608316D01*
Y1558871D02*
Y1608316D01*
Y1558871D02*
X1366012Y1548384D01*
Y1218692D02*
Y1548384D01*
X1356360Y1209040D02*
X1366012Y1218692D01*
X1620266Y2171446D02*
X1635760Y2186940D01*
X1620266Y2060956D02*
Y2171446D01*
X1569750Y2010440D02*
X1620266Y2060956D01*
X1569750Y1957660D02*
Y2010440D01*
X1584960Y2186940D02*
X1594460Y2177440D01*
Y2156460D02*
Y2177440D01*
X1554750Y2116750D02*
X1594460Y2156460D01*
X1554750Y1957660D02*
Y2116750D01*
X1559750Y1957660D02*
Y2065718D01*
X1597210Y2103178D01*
Y2173790D01*
X1610360Y2186940D01*
X1489750Y1957660D02*
Y1972564D01*
X1331468Y2130846D02*
X1489750Y1972564D01*
X1331468Y2130846D02*
Y2177288D01*
X1341120Y2186940D01*
X1315720Y2161540D02*
X1325372Y2171192D01*
Y2205990D01*
X1315720Y2215642D02*
X1325372Y2205990D01*
X1315720Y2215642D02*
Y2234400D01*
X1504750Y1923488D02*
X1510792Y1917446D01*
X1504750Y1923488D02*
Y1957660D01*
X1306068Y2177288D02*
X1315720Y2186940D01*
X1306068Y2152142D02*
Y2177288D01*
Y2152142D02*
X1484750Y1973460D01*
Y1957660D02*
Y1973460D01*
X1444750Y1957660D02*
Y1971040D01*
X1440630Y1975160D02*
X1444750Y1971040D01*
X1290320Y2186940D02*
X1300734Y2176526D01*
Y2150056D02*
Y2176526D01*
Y2150056D02*
X1479750Y1971040D01*
Y1957660D02*
Y1971040D01*
X1270000Y2234400D02*
X1277620D01*
Y2166222D02*
X1282302Y2161540D01*
X1290320D01*
X1504750Y1957660D02*
Y1974542D01*
X2028900Y1914150D02*
X2038600D01*
X1529334Y1471224D02*
Y1528826D01*
X1526540Y1468430D02*
X1529334Y1471224D01*
X1517770Y1468430D02*
X1526540D01*
X1535870Y1203960D02*
X1541712Y1198118D01*
X1637538D01*
X1649730Y1210310D01*
X1613683Y1220957D02*
X1624330Y1210310D01*
X1569370Y1220957D02*
X1613683D01*
X1566888Y1218476D02*
X1569370Y1220957D01*
X1558269Y1218476D02*
X1566888D01*
X1555788Y1220957D02*
X1558269Y1218476D01*
X1544320Y1220957D02*
X1555788D01*
X1538621Y1226656D02*
X1544320Y1220957D01*
X1517770Y1428430D02*
X1538036D01*
X1544066Y1273048D02*
X1561338Y1255776D01*
Y1224026D02*
Y1255776D01*
X1517770Y1380430D02*
X1530320D01*
X1619250Y1557020D02*
Y1565910D01*
Y1557020D02*
X1623060Y1553210D01*
Y1544320D02*
Y1553210D01*
Y1544320D02*
X1638046Y1529334D01*
X1490400Y1340430D02*
X1517770D01*
X1394680Y1404430D02*
X1405770D01*
X1393220Y1405890D02*
X1394680Y1404430D01*
X1397000Y1372430D02*
X1405770D01*
X1385372Y1348430D02*
X1405770D01*
Y1380430D02*
X1425940D01*
X1425702Y1234948D02*
X1437737Y1246983D01*
Y1410365D01*
X1419672Y1428430D02*
X1437737Y1410365D01*
X1405770Y1428430D02*
X1419672D01*
X1426127Y1213187D02*
X1451273D01*
X1420114Y1219200D02*
X1426127Y1213187D01*
X1420114Y1219200D02*
Y1322157D01*
X1434987Y1337030D01*
Y1406966D01*
X1421523Y1420430D02*
X1434987Y1406966D01*
X1405770Y1420430D02*
X1421523D01*
X1510284Y1197864D02*
X1522730Y1210310D01*
X1429766Y1197864D02*
X1510284D01*
X1416304Y1211326D02*
X1429766Y1197864D01*
X1506930Y1388430D02*
X1517770D01*
X1593850Y1539748D02*
X1602994Y1530604D01*
X1593850Y1539748D02*
Y1565910D01*
X1405770Y1364430D02*
X1424500D01*
X2444710Y1659550D02*
Y1668780D01*
X2448030Y1672100D01*
X2449790D01*
X2499250Y1973390D02*
X2513450D01*
X2401450Y1957390D02*
X2451109D01*
X2472993Y1935506D01*
Y1875780D02*
Y1935506D01*
X2460325Y1863112D02*
X2472993Y1875780D01*
X2460325Y1840101D02*
Y1863112D01*
Y1840101D02*
X2463417Y1837009D01*
Y1690782D02*
Y1837009D01*
X2458836Y1686201D02*
X2463417Y1690782D01*
X2409710Y1659550D02*
Y1669090D01*
X2499710Y1659550D02*
Y1680368D01*
X2490686Y1689392D02*
X2499710Y1680368D01*
X2490686Y1689392D02*
Y1714500D01*
X2483277Y1721910D02*
X2490686Y1714500D01*
X2483277Y1721910D02*
Y1793359D01*
X2490859Y1800942D01*
Y1863808D01*
X2485817Y1868851D02*
X2490859Y1863808D01*
X2485817Y1868851D02*
Y2011978D01*
X2487229Y2013390D01*
X2513450D01*
X2419710Y1659550D02*
Y1678551D01*
X2439000Y1697841D01*
Y1858602D01*
X2466086Y1885688D01*
Y1924829D01*
X2452895Y1938020D02*
X2466086Y1924829D01*
X2388870Y1953550D02*
Y1958340D01*
Y1953550D02*
X2393029Y1949390D01*
X2401450D01*
X2424710Y1659550D02*
Y1678940D01*
X2457575Y1711805D01*
Y1864492D01*
X2469789Y1876706D01*
Y1929167D01*
X2453824Y1945132D02*
X2469789Y1929167D01*
X2414710Y1945132D02*
X2453824D01*
X2410968Y1941390D02*
X2414710Y1945132D01*
X2401450Y1941390D02*
X2410968D01*
X2489710Y1649540D02*
Y1659550D01*
Y1649540D02*
X2492250Y1647000D01*
Y1644460D02*
Y1647000D01*
X2504440Y1989390D02*
X2513450D01*
X2500884Y1992946D02*
X2504440Y1989390D01*
X2500884Y1992946D02*
Y2000758D01*
X2474214D02*
X2478532Y1996440D01*
Y1862328D02*
Y1996440D01*
X2476500Y1860296D02*
X2478532Y1862328D01*
X2476500Y1817370D02*
Y1860296D01*
X2471718Y1812588D02*
X2476500Y1817370D01*
X1224280Y2175256D02*
Y2234400D01*
Y2175256D02*
X1229360Y2170176D01*
X1264920D01*
Y2161540D02*
Y2170176D01*
X1370220Y1864160D02*
X1386250D01*
X1366065Y1868315D02*
X1370220Y1864160D01*
X1404750Y1957660D02*
Y1968754D01*
X1386250Y1929160D02*
X1405897D01*
X1264920Y2186940D02*
X1274572Y2177288D01*
Y2136297D02*
Y2177288D01*
Y2136297D02*
X1416896Y1993974D01*
X1450012D01*
X1474750Y1969236D01*
Y1957660D02*
Y1969236D01*
X1459750Y1957660D02*
Y1971040D01*
X1442317Y1988473D02*
X1459750Y1971040D01*
X1389727Y1988473D02*
X1442317D01*
X1220724Y2157476D02*
X1389727Y1988473D01*
X1220724Y2157476D02*
Y2210816D01*
X1017270Y2414270D02*
X1220724Y2210816D01*
X1424750Y1957660D02*
Y1971040D01*
X1415568Y1980222D02*
X1424750Y1971040D01*
X1382992Y1980222D02*
X1415568D01*
X1211326Y2151888D02*
X1382992Y1980222D01*
X1211326Y2151888D02*
Y2194814D01*
X1017270Y2388870D02*
X1211326Y2194814D01*
X1504750Y1760474D02*
X1507490Y1763214D01*
Y1763268D01*
X1577972Y1760728D02*
X1579750Y1758950D01*
Y1745660D02*
Y1758950D01*
X2839840Y1151320D02*
X2852104D01*
X1386250Y1829160D02*
X1408684D01*
X1399032Y1676146D02*
Y1757680D01*
X1402564Y1761212D01*
Y1766584D01*
X1386250Y1799160D02*
X1399540D01*
X2590460Y1418800D02*
X2619248D01*
X2633980Y1433532D01*
Y1442720D01*
X2835402Y1365504D02*
X2849880Y1351026D01*
Y1223893D02*
Y1351026D01*
X2849307Y1223320D02*
X2849880Y1223893D01*
X2839840Y1223320D02*
X2849307D01*
X2590460Y1428800D02*
X2600470D01*
X1386250Y1809160D02*
X1400919D01*
X1431024Y1819160D02*
X1436624Y1813560D01*
X1386250Y1819160D02*
X1431024D01*
X1386586Y1455674D02*
Y1553718D01*
X1388110Y1356430D02*
X1405770D01*
X2580450Y1563800D02*
X2590460D01*
X2579338Y1568800D02*
X2590460D01*
X2578264Y1567726D02*
X2579338Y1568800D01*
X2552916Y1567726D02*
X2578264D01*
X1630426Y1869948D02*
X1640840D01*
X1644650Y1873758D01*
Y1895270D01*
X1635760Y1904160D02*
X1644650Y1895270D01*
X1598250Y1904160D02*
X1635760D01*
X2429710Y1659550D02*
Y1679448D01*
X2452173Y1701911D01*
X2457196D01*
X2496360Y1749250D02*
X2497836Y1747774D01*
X2496360Y1749250D02*
Y1871811D01*
X2491994Y1876177D02*
X2496360Y1871811D01*
X2491994Y1876177D02*
Y1943100D01*
X2501900Y1946910D02*
X2504186Y1944624D01*
Y1941390D02*
Y1944624D01*
Y1941390D02*
X2513450D01*
X2590460Y1623800D02*
X2598398D01*
X2605238Y1630640D01*
Y1811859D01*
X2597950Y1819148D02*
X2605238Y1811859D01*
X2597950Y1819148D02*
Y1837009D01*
X2599355Y1838414D01*
Y1953687D01*
X2603754Y1958086D01*
X2732982Y1934660D02*
X2751328Y1953006D01*
X2401450Y1933390D02*
X2410910D01*
X2416556Y1939036D01*
X2722760Y1934660D02*
X2732982D01*
X2703750Y1974660D02*
X2722760D01*
X2709926Y1958660D02*
X2722760D01*
X2703764Y1952498D02*
X2709926Y1958660D01*
X2579878Y1956054D02*
X2582672Y1953260D01*
Y1887982D02*
Y1953260D01*
Y1887982D02*
X2587837Y1882817D01*
Y1870970D02*
Y1882817D01*
X2536444Y1819577D02*
X2587837Y1870970D01*
X2536444Y1759242D02*
Y1819577D01*
Y1759242D02*
X2550160Y1745526D01*
Y1714822D02*
Y1745526D01*
X2548555Y1713216D02*
X2550160Y1714822D01*
X2544710Y1659550D02*
Y1667513D01*
X2449710Y1651000D02*
Y1659550D01*
Y1651000D02*
X2459324Y1641386D01*
X2469910D01*
X2474699Y1646174D01*
X2482342D01*
X2527808Y1684274D02*
X2529600Y1686066D01*
Y1820686D02*
X2582337Y1873423D01*
Y1879427D01*
X2573782Y1887982D02*
X2582337Y1879427D01*
X2573782Y1887982D02*
Y1943608D01*
X2568000Y1949390D02*
X2573782Y1943608D01*
X2513450Y1949390D02*
X2568000D01*
X2524710Y1649730D02*
Y1659550D01*
Y1649730D02*
X2525071Y1649369D01*
X2529840D01*
X2540147Y1639062D01*
X2641411Y1541337D02*
Y2046797D01*
X2633874Y1533800D02*
X2641411Y1541337D01*
X2590460Y1533800D02*
X2633874D01*
X2585035Y1603800D02*
X2590460D01*
X2583739Y1605096D02*
X2585035Y1603800D01*
X2569443Y1605096D02*
X2583739D01*
X2557272Y1617267D02*
X2569443Y1605096D01*
X2557272Y1617267D02*
Y1638750D01*
X2392100Y1909390D02*
X2401450D01*
X2706806Y1910660D02*
X2722760D01*
X2411422Y1901390D02*
X2426208Y1916176D01*
X2401450Y1901390D02*
X2411422D01*
X2722760Y1910660D02*
X2730682D01*
X2732532Y1908810D01*
Y1810766D02*
Y1908810D01*
X2649474Y1727708D02*
X2732532Y1810766D01*
X2590460Y1518800D02*
X2598507D01*
X2824988Y1902660D02*
X2834760D01*
X2546297Y1901390D02*
X2570860Y1876827D01*
X2513450Y1901390D02*
X2546297D01*
X2401450Y1925390D02*
X2413324D01*
X2426970Y1939036D01*
X2707894Y1932686D02*
Y1937766D01*
Y1932686D02*
X2713920Y1926660D01*
X2722760D01*
X1439750Y1726946D02*
Y1745660D01*
X1464750D02*
Y1758950D01*
X1466274Y1760474D01*
X1485646D01*
X1495298Y1770126D01*
X1518666D01*
X1526540Y1778000D01*
Y1864614D01*
X1529588Y1867662D01*
X2275840Y1675638D02*
X2306574Y1644904D01*
X2323614D01*
X2329710Y1651000D01*
Y1659550D01*
X2167420Y1941830D02*
Y1950720D01*
X2159762Y1935480D02*
X2166112Y1941830D01*
X2159762Y1913885D02*
Y1935480D01*
X1497330Y1235710D02*
X1506982Y1226058D01*
Y1203960D02*
Y1226058D01*
X1503680Y1200658D02*
X1506982Y1203960D01*
X1467866Y1200658D02*
X1503680D01*
X1459484Y1209040D02*
X1467866Y1200658D01*
X1459484Y1209040D02*
Y1515364D01*
X1502156Y1558036D01*
Y1575054D01*
X1508760Y1581658D01*
X1574800D01*
X1578102Y1584960D01*
Y1629664D02*
X1583436Y1634998D01*
Y1762271D01*
X1582017Y1763690D02*
X1583436Y1762271D01*
X1577426Y1763690D02*
X1582017D01*
X1544828Y1796288D02*
X1577426Y1763690D01*
X1544828Y1796288D02*
Y1878076D01*
X1585436Y1764160D02*
X1598250D01*
X1580750Y1768846D02*
X1585436Y1764160D01*
X1580750Y1768846D02*
Y1769240D01*
X2077466Y1828546D02*
X2090674Y1841754D01*
X2058416Y1828546D02*
X2077466D01*
X2058162Y1828800D02*
X2058416Y1828546D01*
X1981200Y1828800D02*
X2058162D01*
X2379710Y1651000D02*
Y1659550D01*
X2375710Y1647000D02*
X2379710Y1651000D01*
X2374630Y1647000D02*
X2375710D01*
X2537968Y1538800D02*
X2590460D01*
X1570594Y1869440D02*
X1579372D01*
X1564099Y1875935D02*
X1570594Y1869440D01*
X1564099Y1875935D02*
Y1883085D01*
X1567180Y1886166D01*
X1571966D01*
X1584960Y1899160D01*
X1598250D01*
X1913128Y1334780D02*
X1924170D01*
X1903994Y1343914D02*
X1913128Y1334780D01*
X1892046Y1343914D02*
X1903994D01*
X1871980Y1363980D02*
X1892046Y1343914D01*
X1871980Y1363980D02*
Y1432560D01*
X1905254Y1465834D01*
Y1479804D01*
X2231174Y1577340D02*
X2242820Y1565694D01*
X2231174Y1577340D02*
Y1587903D01*
X2232071Y1588800D01*
X2293960D01*
X2282756Y1403800D02*
X2293960D01*
X2281682Y1404874D02*
X2282756Y1403800D01*
X1935226Y1366780D02*
X1940566Y1361440D01*
X1924170Y1366780D02*
X1935226D01*
X2224494Y1618704D02*
X2230336Y1624546D01*
X2286960D01*
Y1623800D02*
X2293960D01*
Y1513800D02*
X2307590D01*
X2309582Y1511808D01*
X2329180D01*
X2332736Y1515364D01*
Y1595628D01*
X2331720Y1596644D02*
X2332736Y1595628D01*
X2313686Y1596644D02*
X2331720D01*
X1559306Y1702308D02*
X1559750Y1702752D01*
Y1745660D01*
X2113794Y1946650D02*
X2119884Y1940560D01*
Y1668272D02*
X2229358Y1558798D01*
X2337816Y1381506D02*
Y1402588D01*
X2329710Y1373400D02*
X2337816Y1381506D01*
X2329710Y1363050D02*
Y1373400D01*
X2075180Y1927150D02*
X2085900D01*
X2072386Y1929944D02*
X2075180Y1927150D01*
X2072386Y1929944D02*
Y1968754D01*
X2075180Y1971548D01*
X2085900Y1959650D02*
X2087372D01*
X2091396Y1963674D01*
X2136864D01*
X2140420Y1967230D01*
X2132838Y1914868D02*
X2140420Y1907286D01*
X2132838Y1914868D02*
Y1935988D01*
X2150872Y1938020D02*
Y1983740D01*
X2147824Y1986788D02*
X2150872Y1983740D01*
X2072894Y1986788D02*
X2147824D01*
X2069592Y1983486D02*
X2072894Y1986788D01*
X2069592Y1920240D02*
Y1983486D01*
Y1920240D02*
X2075682Y1914150D01*
X2085900D01*
X1598250Y1864160D02*
X1619613D01*
X1623141Y1860631D01*
X1678859D01*
X1681493Y1863266D01*
X1692737D01*
X1704340Y1874869D01*
Y2108200D01*
X2590460Y1408800D02*
X2623058D01*
X1577848Y1883156D02*
X1581844Y1879160D01*
X1598250D01*
X1720088Y2117852D02*
X1729740Y2108200D01*
X1694688Y2117852D02*
X1720088D01*
X1694688Y1999488D02*
Y2117852D01*
Y1999488D02*
X1699260Y1994916D01*
Y1882217D02*
Y1994916D01*
X1685467Y1868424D02*
X1699260Y1882217D01*
X1675384Y1868424D02*
X1685467D01*
X1671358Y1864398D02*
X1675384Y1868424D01*
X1624876Y1864398D02*
X1671358D01*
X1620113Y1869160D02*
X1624876Y1864398D01*
X1598250Y1869160D02*
X1620113D01*
X2020316Y1946650D02*
X2028900D01*
X2015744Y1951222D02*
X2020316Y1946650D01*
X2015744Y1951222D02*
Y1961896D01*
X2019300Y1920650D02*
X2028900D01*
X2016760Y1923190D02*
X2019300Y1920650D01*
X2016760Y1923190D02*
Y1938317D01*
X2021840Y2001266D02*
X2087626D01*
X2118360Y2032000D01*
X823170Y2379120D02*
X956720D01*
X991870Y2414270D01*
X975620Y2372620D02*
X991870Y2388870D01*
X823170Y2372620D02*
X975620D01*
X984250Y2363470D02*
X991870D01*
X982472Y2361692D02*
X984250Y2363470D01*
X812800Y2361692D02*
X982472D01*
X810260Y2364232D02*
X812800Y2361692D01*
X810260Y2364232D02*
Y2384350D01*
X811530Y2385620D01*
X823170D01*
X872998Y2084578D02*
X882650Y2094230D01*
X695198Y2084578D02*
X872998D01*
X616458Y2163318D02*
X695198Y2084578D01*
X613410Y2173770D02*
X616458D01*
X1058710Y1454150D02*
Y1500848D01*
X944118Y1615440D02*
X1058710Y1500848D01*
X850430Y1615440D02*
X944118D01*
X845350Y1610360D02*
X850430Y1615440D01*
X845350Y1601470D02*
Y1610360D01*
X1031710Y1042670D02*
Y1071880D01*
X1026376Y1077214D02*
X1031710Y1071880D01*
X944118Y1077214D02*
X1026376D01*
X855510Y1165822D02*
Y1195070D01*
X1058710Y814070D02*
Y840702D01*
X1051560Y847852D02*
X1058710Y840702D01*
X861098Y847852D02*
X1051560D01*
X855510Y853440D02*
X861098Y847852D01*
X742950Y2372620D02*
X754170D01*
X741426Y2371096D02*
X742950Y2372620D01*
X741426Y2340864D02*
Y2371096D01*
Y2340864D02*
X748538Y2333752D01*
Y2319020D02*
Y2333752D01*
X744474Y2314956D02*
X748538Y2319020D01*
X634238Y2314956D02*
X744474D01*
X592074Y2357120D02*
X634238Y2314956D01*
X592074Y2357120D02*
Y2389724D01*
X602770Y2400420D01*
X823170Y2392120D02*
X838402D01*
X754170Y2366120D02*
X777964D01*
X1422400Y2161540D02*
X1432052Y2171192D01*
Y2252472D01*
X1378458Y2306066D02*
X1432052Y2252472D01*
X1291044Y2306066D02*
X1378458D01*
X1285710Y2311400D02*
X1291044Y2306066D01*
X1285710Y2311400D02*
Y2363470D01*
X2392680Y2013390D02*
X2401450D01*
X2369710Y1659550D02*
Y1667510D01*
X2399710Y1353629D02*
Y1363050D01*
Y1353629D02*
X2402840Y1350500D01*
X2404790D01*
X2293960Y1583800D02*
X2302510D01*
X2303780Y1585070D01*
Y1595120D01*
X2343912Y1426000D02*
Y1595120D01*
X2309832Y1391920D02*
X2343912Y1426000D01*
X2291596Y1350780D02*
X2306625Y1365809D01*
X1924170Y1350780D02*
X2291596D01*
X2394710Y1332740D02*
Y1363050D01*
Y1332740D02*
X2395474Y1331976D01*
X2396998Y1207770D02*
X2405380Y1199388D01*
Y1093470D02*
Y1199388D01*
X2419710Y1264814D02*
Y1363050D01*
Y1264814D02*
X2455672Y1228852D01*
Y1028662D02*
Y1228852D01*
Y1028662D02*
X2465324Y1019010D01*
X2476500D01*
X1956778D02*
X1968500D01*
X1953768Y1016000D02*
X1956778Y1019010D01*
X1953768Y1010920D02*
Y1016000D01*
X1950720Y1007872D02*
X1953768Y1010920D01*
X1797812D02*
Y1042962D01*
X1799590Y1044740D02*
X1808480D01*
X2424710Y1295374D02*
Y1363050D01*
Y1295374D02*
X2459228Y1260856D01*
Y1043178D02*
Y1260856D01*
Y1043178D02*
X2467610Y1034796D01*
X2479294D01*
X2495080Y1019010D01*
X2512060D01*
X2439710Y1301710D02*
Y1363050D01*
Y1301710D02*
X2502154Y1239266D01*
Y1147826D02*
Y1239266D01*
Y1147826D02*
X2513838Y1136142D01*
X2801620Y1105662D02*
X2811962Y1095320D01*
X2839840D01*
X2727840Y1135320D02*
X2738120D01*
X2484710Y1363050D02*
Y1381169D01*
X2085086Y1668526D02*
X2101062Y1652550D01*
X2085086Y1668526D02*
Y1824266D01*
X2096224Y1835404D01*
Y1899664D01*
X2094738Y1901150D02*
X2096224Y1899664D01*
X2085900Y1901150D02*
X2094738D01*
X2474710Y1363050D02*
Y1374140D01*
X2831290Y1159320D02*
X2839840D01*
X2827290Y1163320D02*
X2831290Y1159320D01*
X2827290Y1163320D02*
Y1164400D01*
X2549710Y1363050D02*
Y1382718D01*
X2549144Y1383284D02*
X2549710Y1382718D01*
X2716130Y1215320D02*
X2727840D01*
X2606386Y1473800D02*
X2618486Y1485900D01*
X2590460Y1473800D02*
X2606386D01*
X2824480Y1103320D02*
X2839840D01*
X2818638Y1109162D02*
X2824480Y1103320D01*
X2818638Y1109162D02*
Y1129030D01*
X2459710Y1323112D02*
X2467356Y1315466D01*
X2459710Y1323112D02*
Y1363050D01*
X2542032Y1033018D02*
X2692400Y882650D01*
X2542032Y1033018D02*
Y1271594D01*
X2507946Y1305679D02*
X2542032Y1271594D01*
X2467237Y1305679D02*
X2507946D01*
X2454710Y1318206D02*
X2467237Y1305679D01*
X2454710Y1318206D02*
Y1363050D01*
X2529710Y1335167D02*
Y1363050D01*
Y1335167D02*
X2534975Y1329901D01*
Y1303952D02*
Y1329901D01*
Y1303952D02*
X2565117Y1273810D01*
X2566162D01*
X2464710Y1363050D02*
Y1374542D01*
X2816352Y1153922D02*
X2826004Y1144270D01*
Y1114876D02*
Y1144270D01*
Y1114876D02*
X2829560Y1111320D01*
X2839840D01*
X2590460Y1433800D02*
X2622266D01*
X2626106Y1437640D01*
Y1444244D01*
X1038036Y2130044D02*
X1187450Y1980630D01*
X933450Y2130044D02*
X1038036D01*
X923544Y2139950D02*
X933450Y2130044D01*
X892810Y2139950D02*
X923544D01*
X2523970Y1413800D02*
X2590460D01*
X2509710Y1363050D02*
Y1399540D01*
X2580450Y1383800D02*
X2590460D01*
X2577910Y1381260D02*
X2580450Y1383800D01*
X2554710Y1363050D02*
Y1386252D01*
X2557412Y1388954D01*
X1789684Y1576578D02*
Y1879600D01*
X1768602Y1900682D02*
X1789684Y1879600D01*
X1768602Y1900682D02*
Y1987296D01*
X1762760Y1993138D02*
X1768602Y1987296D01*
X1744726Y1993138D02*
X1762760D01*
X1737868Y1986280D02*
X1744726Y1993138D01*
X1737868Y1889760D02*
Y1986280D01*
X1702268Y1854160D02*
X1737868Y1889760D01*
X1598250Y1854160D02*
X1702268D01*
X2344710Y1330960D02*
Y1363050D01*
X2314710D02*
X2316170Y1375600D01*
X2319790D01*
X1357392Y1914160D02*
X1386250D01*
X1337919Y1894687D02*
X1357392Y1914160D01*
X1337919Y1802053D02*
Y1894687D01*
X1334241Y1798375D02*
X1337919Y1802053D01*
X1334241Y1610932D02*
Y1798375D01*
Y1610932D02*
X1349502Y1595672D01*
Y1250188D02*
Y1595672D01*
Y1250188D02*
X1350010Y1249680D01*
X1177798Y2047178D02*
X1187450Y2056830D01*
X1177798Y2021586D02*
Y2047178D01*
Y2021586D02*
X1183640Y2015744D01*
X1197102D01*
X1214120Y1998726D01*
Y1878330D02*
Y1998726D01*
X1187450Y2031430D02*
X1230884Y1987996D01*
Y1759712D02*
Y1987996D01*
X2727840Y1143320D02*
X2743200D01*
X2727840Y1151320D02*
X2742754D01*
X2727840Y1175320D02*
X2735642D01*
X2699004Y1234785D02*
Y1485646D01*
X2590460Y1468800D02*
X2611306D01*
X2839840Y1175320D02*
X2848926D01*
X2852674Y1179068D01*
Y1357884D01*
X2837180Y1373378D02*
X2852674Y1357884D01*
X2837180Y1373378D02*
Y1393444D01*
X2637028Y1458800D02*
X2662428Y1484200D01*
X2590460Y1458800D02*
X2637028D01*
X2590460Y1438800D02*
X2600342D01*
X2839840Y1143320D02*
X2860040D01*
X1409750Y1745660D02*
Y1764234D01*
X1409192Y1764792D02*
X1409750Y1764234D01*
X1404750Y1715262D02*
Y1745660D01*
X831850Y1789230D02*
X909774Y1867154D01*
X1352804Y1893570D02*
X1353394Y1894160D01*
X1356649Y1909160D02*
X1386250D01*
X1331976Y1810258D02*
Y1894776D01*
X1356360Y1919160D01*
X1386250D01*
X2697480Y1103320D02*
X2727840D01*
X2673858Y1126942D02*
X2697480Y1103320D01*
X2673858Y1126942D02*
Y1219708D01*
X2671102Y1222464D02*
X2673858Y1219708D01*
X2671102Y1222464D02*
Y1266444D01*
X2674620Y1269962D01*
X2526792Y1326896D02*
X2529332Y1324356D01*
X2526792Y1326896D02*
Y1337310D01*
X2521204Y1342898D02*
X2526792Y1337310D01*
X2521204Y1342898D02*
Y1355598D01*
X2519710D02*
Y1363050D01*
X2713540Y1119320D02*
X2727840D01*
X2712212Y1120648D02*
X2713540Y1119320D01*
X2633472Y1152398D02*
Y1220053D01*
X2572862Y1280663D02*
X2633472Y1220053D01*
X2562630Y1280663D02*
X2572862D01*
X2537726Y1305568D02*
X2562630Y1280663D01*
X2537726Y1305568D02*
Y1332305D01*
X2534710Y1335321D02*
X2537726Y1332305D01*
X2534710Y1335321D02*
Y1363050D01*
X2539710Y1335402D02*
Y1363050D01*
Y1335402D02*
X2584030Y1291082D01*
X2676652Y1165928D02*
Y1225042D01*
Y1165928D02*
X2715260Y1127320D01*
X2727840D01*
X2590460Y1393800D02*
X2600421D01*
X2602961Y1391260D01*
X2604211Y1324597D01*
X2727840Y1199320D02*
X2744250D01*
X2595118Y1284986D02*
Y1376172D01*
X2600210Y1381264D01*
Y1385570D01*
X2598166Y1388800D02*
X2600210Y1385570D01*
X2590460Y1388800D02*
X2598166D01*
X2710500Y1207250D02*
X2727840Y1207320D01*
X2590800Y1277366D02*
Y1324102D01*
X2559710Y1355192D02*
X2590800Y1324102D01*
X2559710Y1355192D02*
Y1363050D01*
X2544710Y1346824D02*
Y1363050D01*
Y1346824D02*
X2551938Y1339596D01*
X2715768Y1226820D02*
X2719268Y1223320D01*
X2727840D01*
X2575560Y1423800D02*
X2590460D01*
Y1403800D02*
X2618740D01*
X2666264Y1356276D01*
Y1122654D02*
Y1356276D01*
Y1122654D02*
X2713990Y1074928D01*
X2758948D01*
X2779268Y1095248D01*
X2786888Y1211580D02*
X2827782D01*
X2831522Y1215320D01*
X2839840D01*
X2590460Y1398800D02*
X2616200D01*
X2641854Y1373146D01*
Y1134618D02*
Y1373146D01*
Y1134618D02*
X2704592Y1071880D01*
X2776982D01*
X2782062Y1076960D01*
X2788920Y1207320D02*
X2839840D01*
X2514710Y1351932D02*
Y1363050D01*
Y1351932D02*
X2515616Y1351026D01*
X2823532Y1199320D02*
X2839840D01*
X2499710Y1351280D02*
Y1363050D01*
Y1351280D02*
X2523782Y1327208D01*
Y1311257D02*
Y1327208D01*
Y1311257D02*
X2559688Y1275350D01*
Y1270661D02*
Y1275350D01*
X2625344Y1135634D02*
Y1208786D01*
Y1135634D02*
X2693416Y1067562D01*
X2849880D01*
X2854960Y1072642D01*
Y1122240D01*
X2849880Y1127320D02*
X2854960Y1122240D01*
X2839840Y1127320D02*
X2849880D01*
X2830068Y1119320D02*
X2839840D01*
X2830068D02*
Y1148334D01*
X2801366Y1177036D02*
X2830068Y1148334D01*
X2494710Y1342722D02*
X2502662Y1334770D01*
X2494710Y1342722D02*
Y1363050D01*
X1574500Y1799250D02*
X1598250Y1799160D01*
X1549750Y1808638D02*
X1559228Y1799160D01*
X1549750Y1808638D02*
Y1957660D01*
X2434710Y1296356D02*
Y1363050D01*
Y1296356D02*
X2489708Y1241358D01*
Y1064768D02*
Y1241358D01*
X1449750Y1957660D02*
Y1973916D01*
X1437943Y1985723D02*
X1449750Y1973916D01*
X1381708Y1985723D02*
X1437943D01*
X1215644Y2151786D02*
X1381708Y1985723D01*
X1215644Y2151786D02*
Y2209800D01*
X1026922Y2398522D02*
X1215644Y2209800D01*
X1013460Y2398522D02*
X1026922D01*
X1007618Y2392680D02*
X1013460Y2398522D01*
X1007618Y2373122D02*
Y2392680D01*
Y2373122D02*
X1017270Y2363470D01*
X1968500Y1019010D02*
X1977936D01*
X1993392Y1003554D01*
X1996440Y1090930D02*
X2247646Y1342136D01*
X2306320D01*
X2311400Y1347216D01*
X2312670Y1390650D02*
X2330196Y1408176D01*
X2352802D01*
X2354710Y1352042D02*
Y1363050D01*
Y1352042D02*
X2357493Y1349259D01*
Y1343010D02*
Y1349259D01*
X2354080Y1339596D02*
X2357493Y1343010D01*
X2354080Y1330960D02*
Y1339596D01*
Y1330960D02*
X2356634Y1328406D01*
X2372092D01*
X2375408Y1331722D01*
X2349710Y1344212D02*
X2350262Y1343660D01*
X2349710Y1344212D02*
Y1363050D01*
X2722760Y1942660D02*
X2732638D01*
X2748534Y1958556D01*
X2756446D01*
X2759202Y1955800D01*
Y1795780D02*
Y1955800D01*
X2742184Y1778762D02*
X2759202Y1795780D01*
X2554224Y1764792D02*
X2556855Y1762161D01*
Y1710571D02*
Y1762161D01*
X2554055Y1707771D02*
X2556855Y1710571D01*
X2549710Y1659550D02*
X2551305Y1669680D01*
Y1710521D02*
X2554105Y1713321D01*
Y1750088D01*
X2550414Y1753779D02*
X2554105Y1750088D01*
X2740914Y1763014D02*
X2763347Y1785447D01*
Y1960291D01*
X2760980Y1962658D02*
X2763347Y1960291D01*
X2747010Y1962658D02*
X2760980D01*
X2735012Y1950660D02*
X2747010Y1962658D01*
X2722760Y1950660D02*
X2735012D01*
X2539710Y1650528D02*
Y1659550D01*
Y1650528D02*
X2545080Y1645158D01*
X2547112D01*
X2559304Y1604518D02*
X2563622Y1600200D01*
X2577084D01*
X2577846Y1599438D01*
X2649728Y1742186D02*
X2687320Y1779778D01*
Y1925574D01*
X2686050Y1926844D02*
X2687320Y1925574D01*
X2682240Y1926844D02*
X2686050D01*
X2679446Y1929638D02*
X2682240Y1926844D01*
X2679446Y1929638D02*
Y1962404D01*
X2683702Y1966660D01*
X2722760D01*
X2703576Y1990660D02*
X2722760D01*
X2673951Y1961035D02*
X2703576Y1990660D01*
X2673951Y1847981D02*
Y1961035D01*
X2668524Y1842554D02*
X2673951Y1847981D01*
X2519270Y1798079D02*
X2521289Y1800098D01*
X2529710Y1659550D02*
Y1667510D01*
X2527678Y1669542D02*
X2529710Y1667510D01*
X2515654Y1792955D02*
X2516519Y1792089D01*
X2515654Y1792955D02*
Y1803190D01*
X2519172Y1806708D01*
X2648458Y1885442D02*
Y1957070D01*
X2690048Y1998660D01*
X2722760D01*
X2519710Y1613916D02*
X2560350Y1573276D01*
X2574036D01*
X2766098Y1765338D02*
Y1972586D01*
X2732024Y2006660D02*
X2766098Y1972586D01*
X2722760Y2006660D02*
X2732024D01*
X2722760Y2014660D02*
X2734818D01*
X2771648Y1977830D01*
Y1882394D02*
Y1977830D01*
X2512314Y1852930D02*
X2512903Y1852341D01*
Y1790123D02*
Y1852341D01*
Y1790123D02*
X2513769Y1789257D01*
Y1671376D02*
Y1789257D01*
Y1671376D02*
X2514710Y1670435D01*
Y1659550D02*
Y1670435D01*
X2494710Y1659550D02*
Y1672668D01*
X2494026Y1673352D02*
X2494710Y1672668D01*
X2504948Y1684274D02*
Y1724152D01*
X2492286Y1736814D02*
X2504948Y1724152D01*
X2492286Y1736814D02*
Y1753324D01*
X2493609Y1754648D01*
Y1869061D01*
X2489243Y1873427D02*
X2493609Y1869061D01*
X2489243Y1873427D02*
Y1998732D01*
X2496820Y2006308D01*
X2506450D01*
Y2005390D02*
X2513450D01*
X2469710Y1650306D02*
Y1659550D01*
X2466340Y1646936D02*
X2469710Y1650306D01*
X2464308Y1646936D02*
X2466340D01*
X2541270Y1702308D02*
Y1711432D01*
X2546361Y1716523D01*
Y1741413D01*
X2532350Y1755424D02*
X2546361Y1741413D01*
X2532350Y1755424D02*
Y1819372D01*
X2585087Y1872109D01*
Y1880566D01*
X2579370Y1886283D02*
X2585087Y1880566D01*
X2579370Y1886283D02*
Y1945461D01*
X2527441Y1997390D02*
X2579370Y1945461D01*
X2513450Y1997390D02*
X2527441D01*
X2513450Y1965390D02*
X2530094D01*
X2591054D02*
X2593338Y1963106D01*
Y1847594D02*
Y1963106D01*
X2591054Y1845310D02*
X2593338Y1847594D01*
X2468967Y1843802D02*
X2469678Y1844512D01*
X2454710Y1659550D02*
X2456619Y1670181D01*
Y1675482D01*
X2466217Y1685080D01*
Y1839760D01*
X2463076Y1842901D02*
X2466217Y1839760D01*
X2463076Y1842901D02*
Y1861096D01*
X2475744Y1873764D01*
Y1943856D01*
X2469388Y1950212D02*
X2475744Y1943856D01*
X2496566Y1964944D02*
X2504120Y1957390D01*
X2513450D01*
X2391299Y1989390D02*
X2401450D01*
X2389124Y2005390D02*
X2401450D01*
X2722760Y1926660D02*
X2731446D01*
X2735326Y1922780D01*
Y1639062D02*
Y1922780D01*
X2577846Y1533144D02*
X2582190Y1528800D01*
X2590460D01*
X2712720Y1918660D02*
X2722760D01*
X2707076Y1924304D02*
X2712720Y1918660D01*
X2681732Y1803125D02*
Y1921002D01*
X2644161Y1765554D02*
X2681732Y1803125D01*
X2590460Y1523800D02*
X2598420D01*
X2812034Y1889706D02*
X2824988Y1902660D01*
X2576576Y1588800D02*
X2590460D01*
X2834760Y1910660D02*
X2846070D01*
X2861818Y1926408D01*
Y1943862D01*
X2498598Y1914470D02*
Y1941322D01*
Y1914470D02*
X2505528Y1909390D01*
X2513450D01*
X2499360Y1903222D02*
X2505528Y1909390D01*
X2499360Y1768856D02*
Y1903222D01*
Y1768856D02*
X2504694Y1763522D01*
X2534968Y1709667D02*
X2543611Y1718310D01*
X2534968Y1699260D02*
Y1709667D01*
Y1699260D02*
X2542250Y1691978D01*
X2581292Y1582966D02*
X2582126Y1583800D01*
X2590460D01*
X2513450Y1917390D02*
X2526284D01*
X2822194Y1918660D02*
X2834760D01*
X2577592Y1873504D02*
Y1879600D01*
X2526849Y1822761D02*
X2577592Y1873504D01*
X2522020Y1690203D02*
X2526849Y1695033D01*
X2527554Y1642618D02*
X2550519Y1619653D01*
X2559271Y1578897D02*
X2579435Y1578800D01*
X2590460D01*
X2613489Y1563707D02*
X2613739Y1935730D01*
X2608582Y1558800D02*
X2613489Y1563707D01*
X2590460Y1558800D02*
X2608582D01*
X2822098Y1930750D02*
X2826188Y1926660D01*
X2834760D01*
X2590460Y1548800D02*
X2615396D01*
X2623564Y1556968D01*
Y2037843D01*
X2608018Y2053390D02*
X2623564Y2037843D01*
X2513450Y2053390D02*
X2608018D01*
X2656586Y2072640D02*
X2776728D01*
X2632174Y1548598D02*
Y2048228D01*
X2627376Y1543800D02*
X2632174Y1548598D01*
X2590460Y1543800D02*
X2627376D01*
X2581910Y1618800D02*
X2590460D01*
X2572258Y1628452D02*
X2581910Y1618800D01*
X2572258Y1628452D02*
Y1634490D01*
X2480526Y1714792D02*
X2485136Y1710182D01*
X2480526Y1714792D02*
Y1797131D01*
X2488109Y1804714D01*
Y1861058D01*
X2482763Y1866404D02*
X2488109Y1861058D01*
X2482763Y1866404D02*
Y2018879D01*
X2453000Y2048642D02*
X2482763Y2018879D01*
X2401450Y2053390D02*
X2410768D01*
X2401450Y2045390D02*
X2420794D01*
X2596604Y1839760D02*
Y2040928D01*
X2583607Y1826762D02*
X2596604Y1839760D01*
X2583607Y1655110D02*
Y1826762D01*
X2565573Y1637076D02*
X2583607Y1655110D01*
X2565573Y1626073D02*
Y1637076D01*
Y1626073D02*
X2577846Y1613800D01*
X2590460D01*
X2585466Y1995424D02*
X2590546Y2000504D01*
X2585466Y1889524D02*
Y1995424D01*
Y1889524D02*
X2590588Y1884402D01*
Y1867808D02*
Y1884402D01*
X2580856Y1858076D02*
X2590588Y1867808D01*
X2580856Y1657825D02*
Y1858076D01*
X2562822Y1639792D02*
X2580856Y1657825D01*
X2562822Y1624077D02*
Y1639792D01*
Y1624077D02*
X2578100Y1608800D01*
X2590460D01*
X2715260Y2030660D02*
X2722760D01*
X2712396Y2033524D02*
X2715260Y2030660D01*
X2707640Y2033524D02*
X2712396D01*
X2687828Y2013712D02*
X2707640Y2033524D01*
X1462278Y1219962D02*
X1471930Y1210310D01*
X1462278Y1219962D02*
Y1430782D01*
X1467926Y1436430D01*
X1489457Y1445500D02*
X1496239D01*
X1341120Y2161540D02*
X1366520Y2186940D01*
Y2234400D01*
X1508252D02*
X1508760D01*
X1498600Y2177288D02*
X1508252D01*
X1489100Y2167788D02*
X1498600Y2177288D01*
X1489100Y2155800D02*
Y2167788D01*
Y2155800D02*
X1493012Y2151888D01*
X1515110D01*
X1522222Y2159000D01*
Y2173224D01*
X1545590Y2196592D01*
X1564640D01*
X1569212Y2192020D01*
Y2171700D02*
Y2192020D01*
X1564894Y2167382D02*
X1569212Y2171700D01*
X1559560Y2161540D02*
Y2167382D01*
X1600200Y2234400D02*
X1622044Y2212556D01*
Y2180082D02*
Y2212556D01*
X1610360Y2168398D02*
X1622044Y2180082D01*
X1610360Y2161540D02*
Y2168398D01*
X1635760Y2161540D02*
X1645920Y2171700D01*
Y2234400D01*
X1405770Y1388430D02*
X1419286D01*
X1479042Y1391412D02*
X1481582Y1388872D01*
X1273810Y2375370D02*
X1285710Y2363470D01*
X1273810Y2375370D02*
Y2409190D01*
X1375410Y2375370D02*
X1387310Y2363470D01*
X1375410Y2375370D02*
Y2409190D01*
X1471930Y2380450D02*
X1488910Y2363470D01*
X1471930Y2380450D02*
Y2409190D01*
X1488910Y2184108D02*
Y2363470D01*
X1473200Y2168398D02*
X1488910Y2184108D01*
X1473200Y2161540D02*
Y2168398D01*
X1578610Y2375370D02*
X1590510Y2363470D01*
X1578610Y2375370D02*
Y2409190D01*
X1498600Y2161540D02*
X1524762Y2187702D01*
Y2326894D01*
X1549362Y2351494D01*
X1587500D01*
X1590510Y2354504D01*
Y2363470D01*
X1405770Y1436430D02*
X1429826D01*
X1405770Y1444430D02*
X1415728D01*
X1392136Y1456474D02*
X1396180Y1452430D01*
X1405770D01*
X1568450Y1452880D02*
Y1565910D01*
X1560000Y1444430D02*
X1568450Y1452880D01*
X1517770Y1444430D02*
X1560000D01*
X1644650Y1565910D02*
X1646900Y1478836D01*
X1507583Y1348430D02*
X1517770D01*
X855510Y903770D02*
Y966470D01*
X842010Y1118870D02*
X855510Y1132370D01*
X2430780Y1093470D02*
X2441448Y1082802D01*
Y1037844D02*
Y1082802D01*
X2430780Y1027176D02*
X2441448Y1037844D01*
X2430780Y1019010D02*
Y1027176D01*
X2346960Y1090930D02*
X2361184Y1076706D01*
Y1038352D02*
Y1076706D01*
X2349500Y1026668D02*
X2361184Y1038352D01*
X2349500Y1019010D02*
Y1026668D01*
X2293620Y1019010D02*
X2305304Y1030694D01*
Y1063752D01*
X2296160Y1072896D02*
X2305304Y1063752D01*
X2296160Y1072896D02*
Y1090930D01*
X2265680D02*
X2279904Y1076706D01*
Y1038352D02*
Y1076706D01*
X2268220Y1026668D02*
X2279904Y1038352D01*
X2268220Y1019010D02*
Y1026668D01*
X2214880Y1090930D02*
X2229104Y1076706D01*
Y1038352D02*
Y1076706D01*
X2217420Y1026668D02*
X2229104Y1038352D01*
X2217420Y1019010D02*
Y1026668D01*
X2184400Y1090930D02*
X2198624Y1076706D01*
Y1038352D02*
Y1076706D01*
X2186940Y1026668D02*
X2198624Y1038352D01*
X2186940Y1019010D02*
Y1026668D01*
X2131060Y1019010D02*
X2142744Y1030694D01*
Y1063752D01*
X2133600Y1072896D02*
X2142744Y1063752D01*
X2133600Y1072896D02*
Y1090930D01*
X2103120D02*
X2117344Y1076706D01*
Y1038352D02*
Y1076706D01*
X2105660Y1026668D02*
X2117344Y1038352D01*
X2105660Y1019010D02*
Y1026668D01*
X2049780Y1019010D02*
X2061464Y1030694D01*
Y1063752D01*
X2052320Y1072896D02*
X2061464Y1063752D01*
X2052320Y1072896D02*
Y1090930D01*
X2021840D02*
X2036064Y1076706D01*
Y1038352D02*
Y1076706D01*
X2024380Y1026668D02*
X2036064Y1038352D01*
X2024380Y1019010D02*
Y1026668D01*
X1940560Y1090930D02*
X1954784Y1076706D01*
Y1038352D02*
Y1076706D01*
X1943100Y1026668D02*
X1954784Y1038352D01*
X1943100Y1019010D02*
Y1026668D01*
X1808480Y1090930D02*
X1819148Y1080262D01*
Y1036574D02*
Y1080262D01*
X1808480Y1025906D02*
X1819148Y1036574D01*
X1808480Y1017740D02*
Y1025906D01*
X1502410Y1068070D02*
Y1130808D01*
X991870Y2338070D02*
X1001522Y2347722D01*
Y2368042D01*
X995680Y2373884D02*
X1001522Y2368042D01*
X982472Y2373884D02*
X995680D01*
X974708Y2366120D02*
X982472Y2373884D01*
X823170Y2366120D02*
X974708D01*
X1758566Y942340D02*
X1771650D01*
X1703448Y887222D02*
X1758566Y942340D01*
X1703448Y869470D02*
Y887222D01*
X2319710Y1659550D02*
X2320290Y1666566D01*
Y1679194D01*
X2298700Y1700784D02*
X2320290Y1679194D01*
X2298700Y1700784D02*
Y1931924D01*
X1955038Y1928876D02*
Y2087880D01*
X1957070Y2089912D01*
X1962620D02*
Y2092960D01*
X2278634Y1925574D02*
X2284984Y1919224D01*
Y1671320D02*
Y1919224D01*
Y1671320D02*
X2306574Y1649730D01*
X2324100D01*
X2324710Y1650340D01*
Y1659550D01*
X2564130Y1687304D02*
X2564710Y1659550D01*
X2564130Y1687304D02*
Y1815084D01*
X2059940Y1834134D02*
Y1877060D01*
X2057400Y1879600D02*
X2059940Y1877060D01*
X2027682Y1879600D02*
X2057400D01*
X2008378Y1898904D02*
X2027682Y1879600D01*
X2008378Y1898904D02*
Y1936750D01*
X2002028Y1943100D02*
X2008378Y1936750D01*
X2002028Y1943100D02*
Y1996186D01*
X1973072Y2025142D02*
X2002028Y1996186D01*
X1973072Y2025142D02*
Y2065020D01*
X1970532Y2067560D02*
X1973072Y2065020D01*
X1962620Y2067560D02*
X1970532D01*
X1962620Y1911388D02*
Y2042160D01*
Y1911388D02*
X1974596Y1899412D01*
X2001266D01*
X2598420Y1658874D02*
Y1780540D01*
X2580710Y1641164D02*
X2598420Y1658874D01*
X2580710Y1634998D02*
Y1641164D01*
Y1634998D02*
X2581908Y1633800D01*
X2590460D01*
X2556303Y1121617D02*
X2589530Y1088390D01*
X2556303Y1121617D02*
Y1274774D01*
X2510785Y1320292D02*
X2556303Y1274774D01*
X2479802Y1320292D02*
X2510785D01*
X2474214Y1325880D02*
X2479802Y1320292D01*
X2474214Y1325880D02*
Y1345276D01*
X2479710Y1350772D01*
Y1363050D01*
X2469710Y1324139D02*
Y1363050D01*
Y1324139D02*
X2473049Y1320800D01*
X2474159Y1308430D01*
X2514681D01*
X2552526Y1270584D01*
Y1074594D02*
Y1270584D01*
X2449710Y1311014D02*
Y1363050D01*
Y1311014D02*
X2531364Y1229360D01*
Y1009904D02*
Y1229360D01*
Y1009904D02*
X2671572Y869696D01*
X2702052D01*
X2728976Y896620D01*
X2805176D01*
X2817876Y909320D01*
X2835820D01*
X1031710Y944070D02*
X1085510Y890270D01*
X1031710Y944070D02*
Y966470D01*
X985012Y1322070D02*
X1085510D01*
X961898Y1345184D02*
X985012Y1322070D01*
X890524Y1345184D02*
X961898D01*
X855510Y1380198D02*
X890524Y1345184D01*
X855510Y1380198D02*
Y1398270D01*
X791210Y1525270D02*
X828510Y1487970D01*
Y1454150D02*
Y1487970D01*
X712470Y2326170D02*
X715518D01*
X754170Y2411620D02*
X754380D01*
X1569720Y1880616D02*
X1574038Y1876298D01*
X1580790D01*
X1582928Y1874160D01*
X1598250D01*
X1726692Y2079752D02*
X1755140Y2108200D01*
X1726692Y1889157D02*
Y2079752D01*
X1695416Y1857881D02*
X1726692Y1889157D01*
X1621507Y1857881D02*
X1695416D01*
X1620228Y1859160D02*
X1621507Y1857881D01*
X1598250Y1859160D02*
X1620228D01*
X1794980Y1969700D02*
X1806480Y1981200D01*
X1794980Y1935480D02*
Y1969700D01*
X1579880Y1844160D02*
X1598250D01*
X1561349Y1862691D02*
X1579880Y1844160D01*
X1561349Y1862691D02*
Y1886598D01*
X1569591Y1894840D01*
X1749260Y1972780D02*
X1757680Y1981200D01*
X1749260Y1935480D02*
Y1972780D01*
X1598250Y1839160D02*
X1698952D01*
X1749260Y1889468D01*
Y1935480D01*
X1720850Y1032510D02*
X1725168Y1036828D01*
Y1595374D01*
X1385824Y1630426D02*
X1403604Y1612646D01*
X1385824Y1630426D02*
Y1722120D01*
X1366012Y1741932D02*
X1385824Y1722120D01*
X1366012Y1741932D02*
X1367332Y1769160D01*
X1386250D01*
X1370614Y1774160D02*
X1386250D01*
X1369314Y1775460D02*
X1370614Y1774160D01*
X1323086Y1786636D02*
X1324102Y1785620D01*
Y1560068D02*
Y1785620D01*
X1318514Y1554480D02*
X1324102Y1560068D01*
X1318514Y1108202D02*
Y1554480D01*
Y1108202D02*
X1336294Y1090422D01*
Y1059942D02*
Y1090422D01*
Y1059942D02*
X1373378Y1022858D01*
X1369758Y1784160D02*
X1386250D01*
X1368806Y1785112D02*
X1369758Y1784160D01*
X1312245Y1758269D02*
Y1793494D01*
X1300226Y1746250D02*
X1312245Y1758269D01*
X1300226Y1275842D02*
Y1746250D01*
X1270508Y1246124D02*
X1300226Y1275842D01*
X1270508Y1090422D02*
Y1246124D01*
X1716240Y2169160D02*
Y2171700D01*
X1704340Y2183600D02*
X1716240Y2171700D01*
X1704340Y2183600D02*
Y2209800D01*
X1469750Y1957660D02*
Y1970347D01*
X1448873Y1991223D02*
X1469750Y1970347D01*
X1407043Y1991223D02*
X1448873D01*
X1395222Y2003044D02*
X1407043Y1991223D01*
X1464056Y1869186D02*
X1473708Y1859534D01*
Y1774432D02*
Y1859534D01*
X1323378Y1259040D02*
X1326896Y1255522D01*
X1323378Y1259040D02*
Y1396708D01*
X1326896Y1400227D01*
Y1781086D01*
X1328636Y1782826D01*
Y1793024D01*
X1323594Y1798066D02*
X1328636Y1793024D01*
X1323594Y1798066D02*
Y1941322D01*
X1471638Y1911896D02*
X1518220D01*
X1524750Y1918425D01*
Y1957660D01*
X1464750Y1902460D02*
Y1957660D01*
X1540256Y1772666D02*
Y1870964D01*
X1592580Y1753362D02*
X1597368Y1748574D01*
Y1615910D02*
Y1748574D01*
X1584198Y1583944D02*
X1589532Y1578610D01*
X1595120D01*
X1603502Y1570228D01*
Y1539748D02*
Y1570228D01*
Y1539748D02*
X1613408Y1529842D01*
Y1232662D02*
Y1529842D01*
X1573530Y1235710D02*
X1583182Y1226058D01*
X1605280D01*
X1608582Y1229360D01*
Y1505204D01*
X1581404Y1532382D02*
X1608582Y1505204D01*
X1591818Y1614424D02*
Y1721104D01*
X1598930Y1235710D02*
Y1247394D01*
X1549654Y1296670D02*
X1598930Y1247394D01*
X1279398Y1296670D02*
Y1732534D01*
X1307084Y1760220D01*
Y1789176D01*
X1306576Y1789684D02*
X1307084Y1789176D01*
X1306576Y1789684D02*
Y1875028D01*
X1312418Y1880870D01*
X1624330Y1235710D02*
X1654302Y1265682D01*
Y1773428D01*
X1651762Y1775968D02*
X1654302Y1773428D01*
X1304798Y1268730D02*
X1312926Y1260602D01*
X1304798Y1268730D02*
Y1735582D01*
X1316990Y1747774D01*
Y1788668D01*
X1318006Y1789684D01*
Y1946656D01*
X1340472Y1969122D01*
X1375088D01*
X1401250Y1942960D01*
X1408430D01*
X1409750Y1944280D01*
Y1957660D01*
X1367028Y1941030D02*
X1372678Y1935380D01*
X1361440Y1941030D02*
X1367028D01*
X1326426Y1906016D02*
X1361440Y1941030D01*
X1326426Y1807502D02*
Y1906016D01*
Y1807502D02*
X1331387Y1802540D01*
Y1778335D02*
Y1802540D01*
X1330198Y1777147D02*
X1331387Y1778335D01*
X1330198Y1391158D02*
Y1777147D01*
X2465832Y1060704D02*
Y1258505D01*
X2429710Y1294627D02*
X2465832Y1258505D01*
X2429710Y1294627D02*
Y1363050D01*
X2119376Y1034326D02*
X2131060Y1046010D01*
X2119376Y1001014D02*
Y1034326D01*
Y1001014D02*
X2136140Y984250D01*
Y966470D02*
Y984250D01*
X2389124Y1348994D02*
X2389710Y1349580D01*
Y1363050D01*
X2374710Y1349184D02*
X2377948Y1345946D01*
X2374710Y1349184D02*
Y1363050D01*
X2364710Y1350089D02*
Y1363050D01*
X2360244Y1345622D02*
X2364710Y1350089D01*
X2360244Y1333956D02*
Y1345622D01*
X2004060Y1025690D02*
X2024380Y1046010D01*
X2004060Y966470D02*
Y1025690D01*
X2232914Y1038644D02*
X2240280Y1046010D01*
X2232914Y1016000D02*
Y1038644D01*
X2227834Y1010920D02*
X2232914Y1016000D01*
X2211070Y1010920D02*
X2227834D01*
X2166620Y966470D02*
X2211070Y1010920D01*
X1564750Y1911968D02*
Y1957660D01*
X1555750Y1902968D02*
X1564750Y1911968D01*
X1555750Y1852168D02*
Y1902968D01*
X2367026Y1634744D02*
X2378004D01*
X2384710Y1641450D01*
Y1659550D01*
X2433612Y1667592D02*
X2434710Y1659550D01*
X2433612Y1667592D02*
Y1675384D01*
X2449087Y1690859D01*
X1692910Y1885188D02*
Y1977644D01*
X1686560Y1983994D02*
X1692910Y1977644D01*
X1579880Y1983994D02*
X1686560D01*
X1574750Y1978864D02*
X1579880Y1983994D01*
X1574750Y1957660D02*
Y1978864D01*
X2439710Y1659550D02*
Y1671534D01*
X2439162Y1672082D02*
X2439710Y1671534D01*
X1670558Y1871472D02*
X1684274Y1885188D01*
Y1955038D01*
X1662176Y1977136D02*
X1684274Y1955038D01*
X1584960Y1977136D02*
X1662176D01*
X1579750Y1971926D02*
X1584960Y1977136D01*
X1579750Y1957660D02*
Y1971926D01*
X1598250Y1939160D02*
X1607566D01*
X2474468Y1804924D02*
X2479548Y1810004D01*
X2474468Y1706929D02*
Y1804924D01*
Y1706929D02*
X2480260Y1701137D01*
X2479710Y1659550D02*
Y1666550D01*
X1598250Y1934160D02*
X1611072D01*
X1613154Y1936242D01*
Y1960545D01*
X2482558Y1858010D02*
X2485098Y1855470D01*
Y1806994D02*
Y1855470D01*
X2477621Y1799516D02*
X2485098Y1806994D01*
X2477621Y1709679D02*
Y1799516D01*
Y1709679D02*
X2484710Y1702590D01*
X2488031Y1673632D02*
Y1688509D01*
X2509710Y1659550D02*
X2511019Y1680185D01*
X2510153Y1787373D02*
X2511019Y1680185D01*
X2510153Y1787373D02*
Y1801751D01*
X2504941Y1806963D02*
X2510153Y1801751D01*
X1611630Y1929160D02*
X1634714Y1952244D01*
X1598250Y1929160D02*
X1611630D01*
X2560655Y1708870D02*
Y1769210D01*
X2559710Y1707925D02*
X2560655Y1708870D01*
X2559710Y1659550D02*
Y1707925D01*
X2577846Y1630426D02*
X2590460Y1628800D01*
X2577846Y1630426D02*
Y1643634D01*
X2590800Y1656588D01*
Y1805648D01*
X1598250Y1894160D02*
X1622470D01*
X1636522Y1880108D01*
Y1877568D02*
Y1880108D01*
X1598250Y1889160D02*
X1610452Y1890268D01*
X1621282D01*
X1624838Y1886712D01*
Y1879600D02*
Y1886712D01*
X1615948Y1876298D02*
X1624838Y1879600D01*
X2577846Y1478534D02*
X2578112Y1478800D01*
X2590460D01*
X1598250Y1884160D02*
X1615186D01*
X1615706Y1884680D01*
X2562737Y1468735D02*
X2582672Y1448800D01*
X2590460D01*
X1598250Y1849160D02*
X1613408D01*
X1615948Y1846620D01*
X2419156Y1464774D02*
X2504710Y1379220D01*
Y1363050D02*
Y1379220D01*
X1581632Y1834160D02*
X1598250D01*
X1580896Y1834896D02*
X1581632Y1834160D01*
X1572514Y1829160D02*
X1598250D01*
X1569974Y1826620D02*
X1572514Y1829160D01*
X2404710Y1363050D02*
Y1369568D01*
X1598250Y1824160D02*
X1699074D01*
X1735582Y1787652D01*
Y1354074D02*
Y1787652D01*
X2334768Y1346200D02*
X2339710Y1351142D01*
Y1363050D01*
X1598250Y1814160D02*
X1665640D01*
X1682750Y1797050D01*
Y1540256D02*
Y1797050D01*
Y1540256D02*
X1698498Y1524508D01*
Y1393190D02*
Y1524508D01*
X2326640Y1349248D02*
X2328730D01*
X2334710Y1355228D01*
Y1363050D01*
X2319710Y1327404D02*
Y1363050D01*
X1657350Y1379728D02*
X1709674Y1327404D01*
X1657350Y1379728D02*
Y1782984D01*
X1646174Y1794160D02*
X1657350Y1782984D01*
X1598250Y1794160D02*
X1646174D01*
X1598250Y1784160D02*
X1620520D01*
X1625854Y1778826D01*
X1631950Y1551686D02*
Y1739392D01*
Y1551686D02*
X1634490Y1549146D01*
X1631188Y1392682D02*
Y1530651D01*
X1609598Y1552241D02*
X1631188Y1530651D01*
X1609598Y1552241D02*
Y1599692D01*
X1615948Y1606042D01*
Y1770126D01*
X1611914Y1774160D02*
X1615948Y1770126D01*
X1598250Y1774160D02*
X1611914D01*
X1529750Y1669704D02*
Y1745660D01*
X1522730Y1662684D02*
X1529750Y1669704D01*
X2245861Y1606631D02*
X2252536Y1613306D01*
X2286960Y1613800D02*
X2293960D01*
X2281624Y1618800D02*
X2293960D01*
X2281428Y1618996D02*
X2281624Y1618800D01*
X1974342Y1685798D02*
X2045208Y1614932D01*
X1519750Y1745660D02*
Y1764538D01*
X2293960Y1628800D02*
X2311502D01*
X2314702Y1625600D01*
Y1613662D02*
Y1625600D01*
X2309368Y1608328D02*
X2314702Y1613662D01*
X1479750Y1706880D02*
Y1745660D01*
X2229430Y1633800D02*
X2293960D01*
X2208784Y1613154D02*
X2229430Y1633800D01*
X1468882Y1709928D02*
X1469750Y1710796D01*
Y1745660D01*
X1434750Y1722470D02*
X1435862Y1721358D01*
X1434750Y1722470D02*
Y1745660D01*
X1429750Y1718617D02*
Y1745660D01*
X2354710Y1651210D02*
Y1659550D01*
X2359710Y1650205D02*
Y1659550D01*
X2569710D02*
Y1829562D01*
X2101596D02*
Y1918110D01*
X2099056Y1920650D02*
X2101596Y1918110D01*
X2085900Y1920650D02*
X2099056D01*
X1989620Y2057400D02*
Y2067560D01*
Y2057400D02*
X1992160Y2054860D01*
X2002790D01*
X2075180Y1934920D02*
X2085900Y1933650D01*
X2075180Y1934920D02*
Y1963420D01*
X2085594Y1973834D01*
X2085900Y1940150D02*
X2103120D01*
X2110486Y1932784D01*
Y1885334D02*
Y1932784D01*
X2151126Y1723636D02*
X2235962Y1638800D01*
X2293960D01*
X2140420Y1916214D02*
Y1925320D01*
Y1916214D02*
X2142490Y1914144D01*
X2148840D01*
X2156460Y1906524D01*
Y1778340D02*
Y1906524D01*
Y1778340D02*
X2293960Y1640840D01*
Y1638800D02*
Y1640840D01*
X2085900Y1946650D02*
X2110994D01*
X2115064Y1950720D02*
X2140420D01*
X2569710Y1387602D02*
X2569972D01*
X2427224Y1581912D02*
X2569972Y1439164D01*
X2427224Y1581912D02*
Y1609852D01*
X2130044Y1692402D02*
X2170684Y1651762D01*
X2130044Y1938020D02*
X2132076Y1940052D01*
X2148078D01*
Y1972818D01*
X2146300Y1974596D02*
X2148078Y1972818D01*
X2140420Y1974596D02*
Y1976120D01*
Y1899920D02*
Y1907286D01*
X2151380Y1935988D02*
X2156968Y1930400D01*
Y1912620D02*
Y1930400D01*
Y1912620D02*
X2159210Y1910378D01*
Y1784177D02*
Y1910378D01*
Y1784177D02*
X2273300Y1670088D01*
X2275078D01*
X2318766Y1626400D01*
Y1615186D02*
Y1626400D01*
Y1615186D02*
X2326640Y1607312D01*
X2348484Y1553464D02*
Y1600708D01*
X2563876Y1376680D02*
X2564710Y1375846D01*
Y1363050D02*
Y1375846D01*
X2324710Y1363050D02*
X2325341Y1370680D01*
Y1383792D01*
X2310292Y1548800D02*
X2313121Y1551629D01*
X2293960Y1548800D02*
X2310292D01*
X1802384Y1494780D02*
X1812170D01*
X1794002Y1503162D02*
X1802384Y1494780D01*
X1794002Y1503162D02*
Y1539240D01*
X1799082Y1544320D01*
X2231481D01*
X2262483Y1559814D02*
X2275668D01*
X2281682Y1553800D01*
X2293960D01*
X1801098Y1334780D02*
X1812170D01*
X1796275Y1329957D02*
X1801098Y1334780D01*
X1784713Y1329957D02*
X1796275D01*
X2281936Y1597914D02*
X2282822Y1598800D01*
X2293960D01*
X1796788Y1350780D02*
X1812170D01*
X1798320Y1553248D02*
X2232190D01*
X2234946Y1556004D01*
X2224786Y1574546D02*
Y1591056D01*
X2230120Y1596390D01*
X2248916D01*
X2256326Y1603800D01*
X1906016Y1388618D02*
X1916178Y1398780D01*
X1924170D01*
X1812170Y1366780D02*
X1849120D01*
X1853438Y1371098D01*
Y1445260D01*
X1855978Y1447800D01*
X1871980D01*
X2270183Y1438780D02*
X2277133Y1445730D01*
X2287524Y1443800D02*
X2293960D01*
X1877568Y1370838D02*
Y1414018D01*
Y1370838D02*
X1889626Y1358780D01*
X1924170D01*
X2293960Y1408800D02*
X2303780Y1407530D01*
Y1381704D02*
Y1407530D01*
X1924170Y1390780D02*
X2167079Y1389106D01*
X2179274D01*
X2188946Y1398778D01*
X2240188D01*
X2284237Y1488800D02*
X2293960D01*
X1924170Y1462780D02*
X2185676D01*
X2283740Y1493800D02*
X2293960D01*
X2246718Y1503800D02*
X2293960D01*
X2212802Y1537716D02*
X2246718Y1503800D01*
X1851914Y1537716D02*
X2212802D01*
X1812170Y1470780D02*
X1827862D01*
X2287524Y1518800D02*
X2293960D01*
X2279770Y1511046D02*
X2287524Y1518800D01*
X2256536Y1511046D02*
X2279770D01*
X2251456Y1516126D02*
X2256536Y1511046D01*
X1885564Y1454780D02*
X1898904Y1468120D01*
X1812170Y1454780D02*
X1885564D01*
X1812170Y1462780D02*
X1827524D01*
X1843024Y1478280D01*
X1857756D01*
X1871726Y1464310D01*
X2307536Y1523800D02*
X2313940Y1517396D01*
X2293960Y1523800D02*
X2307536D01*
X1367030Y1804160D02*
X1386250D01*
X1352804Y1789934D02*
X1367030Y1804160D01*
X1352804Y1782572D02*
Y1789934D01*
X1273302Y1755648D02*
X1301496Y1783842D01*
X1273302Y1478026D02*
Y1755648D01*
X1264412Y1469136D02*
X1273302Y1478026D01*
X1264412Y1218692D02*
Y1469136D01*
X1254760Y1209040D02*
X1264412Y1218692D01*
X1361310Y1794160D02*
X1386250D01*
X1414750Y1957660D02*
Y1970733D01*
X1408061Y1977422D02*
X1414750Y1970733D01*
X1377918Y1977422D02*
X1408061D01*
X1372108Y1218692D02*
X1381760Y1209040D01*
X1372108Y1218692D02*
Y1527048D01*
X1377500Y1532440D01*
Y1681422D01*
X1345604Y1713318D02*
X1377500Y1681422D01*
X1345604Y1713318D02*
Y1788565D01*
X1371199Y1814160D01*
X1386250D01*
X1412748Y2177288D02*
X1422400Y2186940D01*
X1412748Y2106168D02*
Y2177288D01*
X1486350Y2174690D02*
X1498600Y2186940D01*
X1486350Y2084636D02*
Y2174690D01*
Y2084636D02*
X1529750Y2041236D01*
Y1957660D02*
Y2041236D01*
X2350008Y916686D02*
X2427224D01*
X2522728Y1012190D02*
Y1044232D01*
X2520950Y1046010D02*
X2522728Y1044232D01*
X1534750Y1659210D02*
Y1745660D01*
X1466850Y1591310D02*
X1534750Y1659210D01*
X1564856Y1613116D02*
Y1707858D01*
X1564750Y1707965D02*
X1564856Y1707858D01*
X1564750Y1707965D02*
Y1745660D01*
X1598250Y1769160D02*
X1613154Y1767840D01*
Y1610614D02*
Y1767840D01*
X1593850Y1591310D02*
X1613154Y1610614D01*
X2286960Y1383117D02*
Y1383800D01*
X2597480Y1638800D02*
Y1646420D01*
X2519710Y1355598D02*
X2521204D01*
X1559228Y1799160D02*
X1574500Y1799250D01*
X1800860Y1007872D02*
X1869440D01*
X1950720D01*
X1869440D02*
X1875028Y1013460D01*
X2506450Y2005390D02*
Y2006308D01*
X2401450Y1917390D02*
X2410460D01*
X2812034Y1824258D02*
Y1889706D01*
X2799155Y1876827D02*
X2812034Y1889706D01*
X2824988Y1902660D01*
X2627450Y2072640D02*
X2656586D01*
X2776728D01*
X2632174Y2048228D02*
X2656586Y2072640D01*
X2408936Y2061390D02*
Y2063242D01*
X2663698Y2062660D02*
X2672842D01*
X2722760D01*
X2410768Y2053390D02*
X2414524Y2057146D01*
X2415045Y2057160D01*
X2663642Y2000504D02*
X2671008Y2007870D01*
X2701798Y2038660D01*
X1277620Y2166222D02*
Y2234400D01*
X1508252Y2177288D02*
Y2234400D01*
X1559560Y2167382D02*
X1564894D01*
X842010Y890270D02*
X855510Y903770D01*
Y853440D02*
Y903770D01*
Y966470D01*
Y1165822D02*
X944118Y1077214D01*
X855510Y1132370D02*
Y1165822D01*
Y1195070D01*
X616458Y2163318D02*
Y2173770D01*
X1306830Y1068070D02*
Y1078738D01*
X1713484Y909574D02*
Y923760D01*
X1957070Y2089912D02*
X1962620D01*
X1399540Y1869160D02*
X1401064Y1867636D01*
X1399540Y1869160D02*
X1436852D01*
X1436930D01*
X1436852D02*
X1436878Y1869186D01*
X1386250Y1869160D02*
X1399540D01*
X1436930D02*
X1436956Y1869186D01*
X1439750Y1871980D01*
X1436878Y1869186D02*
X1436956D01*
X1464056D01*
X2044192Y1046010D02*
Y1074166D01*
X2123694Y1046010D02*
Y1107186D01*
X2130044Y1113536D01*
X2123694Y1046010D02*
Y1107186D01*
Y1123950D01*
X2205228Y1049020D02*
X2208238Y1046010D01*
X2202688Y1051560D02*
X2205228Y1049020D01*
Y1100582D01*
X2286254Y1046010D02*
Y1095248D01*
X1857756Y1044740D02*
Y1059688D01*
X1940306Y1046010D02*
Y1060196D01*
X1908010Y1046010D02*
X1940306D01*
X1943100D01*
X2240280D02*
X2259330D01*
X2268220D01*
X2257552Y1044232D02*
X2259330Y1046010D01*
X2337308Y1049020D02*
X2340318Y1046010D01*
X2331720D02*
X2340318D01*
X2349500D01*
X1607566Y1939160D02*
Y1949704D01*
X2479710Y1666550D02*
X2480260D01*
X2286960Y1613306D02*
Y1613800D01*
Y1623800D02*
Y1624546D01*
X2110994Y1946650D02*
X2113794D01*
X2110994D02*
X2115064Y1950720D01*
X2140420Y1967230D02*
Y1974596D01*
Y1976120D01*
Y1974596D02*
X2146300D01*
X2132838Y1935988D02*
X2148840D01*
X2151380D01*
X2148840D02*
X2150872Y1938020D01*
X2287524Y1443800D02*
Y1445514D01*
X2369820Y1010920D02*
X2521458D01*
X2427224Y916686D02*
X2521458Y1010920D01*
X2522728Y1012190D01*
X2166112Y1941830D02*
X2167420D01*
X2509710Y1399540D02*
Y1413002D01*
Y1399540D02*
X2523970Y1413800D01*
X2540147Y1639062D02*
X2557272D01*
X1631125Y1360875D02*
X1638046Y1367796D01*
Y1529334D01*
X1544066Y1273048D02*
Y1340566D01*
X1538621Y1226656D02*
Y1339621D01*
X1535870Y1203960D02*
Y1340759D01*
X1538036Y1428430D02*
X1549721Y1416745D01*
X1544066Y1340566D02*
X1549721Y1346221D01*
X1538621Y1339621D02*
X1546971Y1347971D01*
X1535870Y1340759D02*
X1544220Y1349109D01*
X1549721Y1346221D02*
Y1416745D01*
X1517770Y1356430D02*
X1524930D01*
X1534000Y1365500D01*
X1544220Y1349109D02*
Y1379066D01*
X1517770Y1396430D02*
X1526856D01*
X1544220Y1379066D01*
X1530320Y1380430D02*
X1532750Y1378000D01*
X1535250D01*
X1517770Y1420430D02*
X1538820D01*
X1546971Y1412279D01*
Y1347971D02*
Y1412279D01*
X1530320Y1412430D02*
X1530390Y1412500D01*
X1535250D01*
X1480387Y1436430D02*
X1489457Y1445500D01*
X1467926Y1436430D02*
X1480387D01*
X1496239Y1445500D02*
X1505309Y1436430D01*
X1517770D01*
X1484630Y1430130D02*
X1492125Y1437625D01*
X1492250Y1419500D02*
X1505220Y1406530D01*
X1505500Y1406250D02*
X1507320Y1404430D01*
X1517770D01*
X1481582Y1226058D02*
X1497330Y1210310D01*
X1484630Y1346200D02*
X1490400Y1340430D01*
X1484630Y1346200D02*
Y1430130D01*
X1481582Y1226058D02*
Y1388872D01*
X1507514Y1348500D02*
X1507583Y1348430D01*
X1492250Y1352000D02*
Y1402250D01*
Y1352000D02*
X1495750Y1348500D01*
X1507514D01*
X1496000Y1378250D02*
X1501820Y1372430D01*
X1517770D01*
X1496000Y1378250D02*
Y1394250D01*
X1500782Y1399032D01*
X1503250Y1384750D02*
X1506930Y1388430D01*
X1503250Y1360250D02*
X1507430Y1364430D01*
X1517770D01*
X1431491Y1337423D02*
Y1392989D01*
X1416304Y1211326D02*
Y1322236D01*
X1431491Y1337423D01*
X1418320Y1412430D02*
X1424250Y1406500D01*
Y1405750D02*
Y1406500D01*
X1429826Y1436430D02*
X1443736Y1450340D01*
Y1527810D01*
X1415728Y1444430D02*
X1424940Y1453642D01*
X1424690Y1503220D02*
X1424940Y1453642D01*
X1376000Y1269491D02*
X1379301Y1266190D01*
X1376000Y1269491D02*
Y1458936D01*
X1380998Y1463934D01*
X1378750Y1365790D02*
X1388110Y1356430D01*
X1378750Y1365790D02*
Y1447838D01*
X1386586Y1455674D01*
X1381750Y1441440D02*
X1387602Y1447292D01*
X1381750Y1387680D02*
X1397000Y1372430D01*
X1381750Y1387680D02*
Y1441440D01*
X1389250Y1409750D02*
Y1414500D01*
Y1409750D02*
X1393110Y1405890D01*
X1393220D01*
X1624070Y1222000D02*
X1636750D01*
X1613408Y1232662D02*
X1624070Y1222000D01*
X1058710Y953169D02*
X1059250Y952630D01*
Y950250D02*
Y952630D01*
X904710Y953169D02*
X904750Y953129D01*
Y950250D02*
Y953129D01*
X1031500Y800560D02*
X1031710Y800770D01*
X1031500Y799039D02*
Y800560D01*
X890500Y1245000D02*
X902500D01*
X904710Y1242790D01*
Y1245870D01*
X931710Y1246040D02*
X932500Y1245250D01*
X943500D01*
X855510Y1245740D02*
X855750Y1245500D01*
X867750D01*
X931250Y1308309D02*
X931710Y1308770D01*
X931250Y1304750D02*
Y1308309D01*
X904710Y1308770D02*
X904750Y1308729D01*
Y1285000D02*
Y1308729D01*
X1106250Y1311010D02*
X1106510Y1311270D01*
X1106250Y1307500D02*
Y1311010D01*
X931710Y1588170D02*
X931750Y1588130D01*
Y1585250D02*
Y1588130D01*
X818000Y1587820D02*
X818350Y1588170D01*
X818000Y1585500D02*
Y1587820D01*
X562500Y2181680D02*
X562610Y2181570D01*
X562500Y2181680D02*
Y2184500D01*
X737739Y2286000D02*
X737750D01*
X737870Y2297620D02*
Y2299170D01*
X737750Y2297500D02*
X737870Y2297620D01*
X737739Y2297511D02*
X737750Y2297500D01*
X737739Y2286000D02*
Y2297511D01*
X838402Y2392120D02*
X849000Y2402718D01*
Y2409820D01*
X838200Y2420620D02*
X849000Y2409820D01*
X807490Y2412000D02*
X807869Y2411620D01*
X803500Y2412000D02*
X807490D01*
X823170Y2405120D02*
X842500D01*
X1318750Y2393829D02*
X1318810Y2393889D01*
X1508250Y2325590D02*
X1508760Y2325080D01*
X1508250Y2325590D02*
Y2327750D01*
X795500Y2384500D02*
X809620Y2398620D01*
X823170D01*
X802370Y2420620D02*
X838200D01*
X796750Y2415000D02*
X802370Y2420620D01*
X793875Y2403875D02*
Y2404625D01*
X796750Y2407500D01*
Y2415000D01*
X712470Y2326170D02*
Y2391220D01*
X726250Y2405000D01*
X753250D01*
X743966Y2405120D02*
X754170D01*
X753540Y2386250D02*
X754170Y2385620D01*
X784000Y2385500D02*
X786500Y2388000D01*
X742786Y2411620D02*
X754170D01*
X739250Y2415157D02*
X742786Y2411620D01*
X739250Y2415157D02*
Y2468190D01*
X746760Y2475700D01*
X764181Y2400870D02*
X766670Y2403360D01*
X742786Y2398620D02*
X745036Y2400870D01*
X742786Y2398620D02*
X754170D01*
X746760Y2492528D02*
X766670Y2472618D01*
Y2403360D02*
Y2472618D01*
X746760Y2492528D02*
Y2502700D01*
X745036Y2400870D02*
X764181D01*
X754620Y2392120D02*
X768370D01*
X773500Y2397250D01*
Y2492789D01*
X754039Y2512250D02*
X773500Y2492789D01*
X755178Y2515000D02*
X776250Y2493928D01*
X753500Y2385500D02*
X784000D01*
X776250Y2493928D02*
X776322D01*
X697300Y2509550D02*
X702750Y2515000D01*
X755178D01*
X711200Y2502700D02*
Y2510200D01*
X713250Y2512250D01*
X754039D01*
X697300Y2478200D02*
Y2509550D01*
Y2478200D02*
X699800Y2475700D01*
X711200D01*
X786500Y2388000D02*
Y2483750D01*
X776322Y2493928D02*
X786500Y2483750D01*
X1318750Y2385500D02*
Y2393829D01*
X1312750Y2376810D02*
Y2379250D01*
X1318500Y2385000D01*
X1312710Y2376770D02*
X1312750Y2376810D01*
X1312710Y2363470D02*
Y2376770D01*
X1418750Y2384750D02*
X1420250D01*
Y2385500D02*
X1420500Y2385750D01*
Y2393800D01*
X1420410Y2393889D02*
X1420500Y2393800D01*
X1418750Y2384500D02*
Y2384750D01*
X1414250Y2376831D02*
X1414310Y2376770D01*
X1414250Y2376831D02*
Y2380000D01*
X1418750Y2384500D01*
X1515910Y2363470D02*
X1516000Y2363380D01*
X1516500Y2366500D02*
Y2384250D01*
X1516930Y2500190D02*
X1536560D01*
X1543250Y2493500D01*
Y2394500D02*
Y2493500D01*
X1533750Y2385000D02*
X1543250Y2394500D01*
X1516250Y2385000D02*
X1516500D01*
X1533750D01*
X1516500Y2384750D02*
Y2385000D01*
Y2407440D01*
X1623610Y2393889D02*
X1632750Y2384750D01*
X1638000D01*
X1617510Y2363470D02*
X1637770Y2383730D01*
X1554480Y2325080D02*
X1568650Y2339250D01*
X1600200Y2314280D02*
Y2337800D01*
X1632000Y2339000D02*
X1645920Y2325080D01*
X1568650Y2339250D02*
X1600000D01*
X1599500Y2339000D02*
X1632000D01*
X1320800Y2325080D02*
X1335470Y2339750D01*
X1351850D02*
X1366520Y2325080D01*
X1335470Y2339750D02*
X1351850D01*
X1255580Y2339500D02*
X1270000Y2325080D01*
X1246000Y2339500D02*
X1255580D01*
X1224280Y2325080D02*
X1238450Y2339250D01*
X1244750D01*
X1623875Y2499875D02*
X1638250Y2485500D01*
Y2385500D02*
Y2485500D01*
X1419500Y2502000D02*
X1437500Y2484000D01*
Y2401750D02*
Y2484000D01*
X1421000Y2385250D02*
X1437500Y2401750D01*
X1319000Y2385750D02*
X1338000Y2404750D01*
X1318625Y2500375D02*
Y2502875D01*
Y2500375D02*
X1338000Y2481000D01*
Y2404750D02*
Y2481000D01*
X1756000Y2318000D02*
X1766500Y2307500D01*
Y2187000D02*
Y2307500D01*
X1743240Y2182460D02*
X1747030Y2186250D01*
X1767250D01*
X1749340Y2204660D02*
Y2209800D01*
Y2204660D02*
X1766000Y2188000D01*
Y2186500D02*
Y2188000D01*
X712500Y2285950D02*
X719051D01*
X724250Y2280750D01*
X732000Y2286000D02*
X737739D01*
X726000Y2280000D02*
X732000Y2286000D01*
X712500Y2285950D02*
Y2299250D01*
X701510Y2185670D02*
X720340Y2204500D01*
X763250Y2203000D02*
X781300Y2184950D01*
X801810D01*
X892810D02*
Y2206690D01*
X765690D02*
X892810D01*
X763500Y2204500D02*
X765690Y2206690D01*
X720340Y2204500D02*
X763250D01*
X904710Y1521460D02*
Y1601470D01*
Y1454150D02*
Y1520460D01*
X855510Y1454150D02*
X883750Y1482390D01*
Y1500750D01*
X903500Y1520500D01*
X1106510Y1476760D02*
Y1525270D01*
X1031710Y1440849D02*
X1072349D01*
X1106250Y1474750D01*
X890500Y1245000D02*
Y1270000D01*
X904750Y1284250D01*
X867750Y1245500D02*
X883000Y1260750D01*
Y1275000D01*
X893000Y1285000D01*
X903000D01*
X931710Y1308770D02*
Y1322070D01*
X1051500Y1307500D02*
X1106250D01*
X1028500Y1284500D02*
X1051500Y1307500D01*
X905250Y1284500D02*
X1028500D01*
X931710Y1195070D02*
X978180D01*
X1013750Y1159500D01*
X1106510Y1103760D02*
Y1118870D01*
X1068990Y1103760D02*
X1106510D01*
X1014250Y1158500D02*
X1068990Y1103760D01*
X931710Y1042670D02*
X949170D01*
X1055591Y1026250D02*
X1058710Y1029370D01*
X906500Y1026250D02*
X1055591D01*
X828510Y1029370D02*
X831629Y1026250D01*
X904000D01*
X828510Y800770D02*
X831250Y798029D01*
X903779D01*
X931710Y814070D02*
X947320D01*
X904961Y799039D02*
X1031500D01*
X931710Y966470D02*
X978280D01*
X1012000Y932750D01*
X1064280Y879470D02*
X1106510D01*
X1012000Y931750D02*
X1064280Y879470D01*
X1418890Y1044750D02*
X1427410Y1053270D01*
X1387000Y1044750D02*
X1418890D01*
X1352410Y1068070D02*
X1376230Y1044250D01*
X1385750D01*
X1650949Y847169D02*
X1651000Y847118D01*
Y839000D02*
Y847118D01*
X1739948Y847169D02*
X1740000Y847117D01*
Y838500D02*
Y847117D01*
X1722000Y890000D02*
X1722000D01*
X1711250Y869669D02*
X1711449Y869470D01*
X1711250Y869669D02*
Y879250D01*
X1722000Y890000D01*
X2715220Y1159250D02*
X2715290Y1159320D01*
X2708500Y1159250D02*
X2715220D01*
X2710930Y1183320D02*
X2727840D01*
X2710930Y1191320D02*
X2727840D01*
X2709000Y1222450D02*
X2716130Y1215320D01*
X2709000Y1222450D02*
Y1233750D01*
X2715514Y1240264D01*
Y1271778D01*
X2692250Y1192426D02*
X2699004Y1185672D01*
X2692250Y1192426D02*
Y1228031D01*
X2699004Y1234785D01*
X2695000Y1199250D02*
X2710930Y1183320D01*
X2695000Y1199250D02*
Y1226500D01*
X2709926Y1241426D01*
Y1494790D01*
X2702250Y1200000D02*
X2710930Y1191320D01*
X2702250Y1200000D02*
Y1225500D01*
X2698750Y1115250D02*
Y1135500D01*
Y1115250D02*
X2702680Y1111320D01*
X2727840D01*
X2852390Y1135320D02*
X2852460Y1135250D01*
X2859750D01*
X2852104Y1151320D02*
X2863500Y1162716D01*
X2845308Y1374394D02*
X2863500Y1356202D01*
Y1162716D02*
Y1356202D01*
X2852390Y1167320D02*
X2852460Y1167250D01*
X2857000D01*
X2769000Y1241250D02*
Y1247500D01*
X2804930Y1231320D02*
X2839840D01*
X2796500Y1239750D02*
X2804930Y1231320D01*
X2770500Y1239750D02*
X2796500D01*
X2769000Y1241250D02*
X2770500Y1239750D01*
X2735642Y1175320D02*
X2751000Y1190678D01*
X2779268Y1203960D02*
X2786888Y1211580D01*
X2782062Y1200462D02*
X2788920Y1207320D01*
X2779268Y1095248D02*
Y1203960D01*
X2782062Y1076960D02*
Y1200462D01*
X2802442Y1191320D02*
X2839840D01*
X2789174Y1185672D02*
X2791526Y1183320D01*
X2839840D01*
X2800500Y1190250D02*
X2801372D01*
X2802442Y1191320D01*
X2800500Y1190250D02*
X2801000Y1190750D01*
X2860040Y1143320D02*
X2876250Y1159530D01*
Y1323500D01*
X1543050Y1591310D02*
X1564856Y1613116D01*
X1568450Y1591310D02*
X1574750Y1597610D01*
X1584198Y1583944D02*
Y1602740D01*
X1597368Y1615910D01*
X1581404Y1532382D02*
Y1604010D01*
X1591818Y1614424D01*
X1578102Y1584960D02*
Y1629664D01*
X1561630Y1771358D02*
X1572260Y1760728D01*
X1577972D01*
X1574750Y1597610D02*
Y1745660D01*
X1390650Y1565910D02*
X1392136Y1564424D01*
Y1456474D02*
Y1564424D01*
X1386500Y1553632D02*
X1386586Y1553718D01*
X1386500Y1551000D02*
Y1553632D01*
X1380998Y1463934D02*
Y1548653D01*
X1380950Y1548701D02*
X1380998Y1548653D01*
X1380950Y1548701D02*
Y1553299D01*
X1380998Y1553347D01*
Y1690116D01*
X1911590Y1318750D02*
X1911620Y1318780D01*
X1905750Y1318750D02*
X1911590D01*
X1936720Y1342780D02*
X1936750Y1342750D01*
X1945000D01*
X1840750Y1428000D02*
Y1429500D01*
X1831594Y1402344D02*
X1840750Y1411500D01*
Y1428000D01*
X1840750Y1428000D01*
X1812170Y1422780D02*
X1812700Y1422250D01*
X1812170Y1422780D02*
X1826970D01*
X1936720D02*
X1936750Y1422750D01*
X1924170Y1414780D02*
X1937280D01*
X1944750Y1422250D01*
X1936750Y1422750D02*
X1944750D01*
X1812170Y1478780D02*
X1819402D01*
X1819492Y1478689D01*
X1911590Y1510750D02*
X1911620Y1510780D01*
X1906000Y1510750D02*
X1911590D01*
X2738250Y1135250D02*
X2769750D01*
X1776260Y1932490D02*
Y1935480D01*
Y1932490D02*
X1795500Y1913250D01*
X1821980Y1919730D02*
Y1935480D01*
X1814750Y1912500D02*
X1821980Y1919730D01*
X1795500Y1912500D02*
X1814750D01*
X1017270Y2338070D02*
X1377918Y1977422D01*
X1378160Y1947250D02*
X1386250Y1939160D01*
X1365000Y1947250D02*
X1378160D01*
X1373840Y1934160D02*
X1386250D01*
X1372678Y1935322D02*
X1373840Y1934160D01*
X1372678Y1935322D02*
Y1935380D01*
X1368090Y1924160D02*
X1386250D01*
X1364500Y1927750D02*
X1368090Y1924160D01*
X1364500Y1927750D02*
Y1934750D01*
X1353394Y1894160D02*
X1386250D01*
X1365771Y1902271D02*
X1367660Y1904160D01*
X1386250D01*
X1401664Y1889160D02*
X1401912Y1888912D01*
X1410500Y1889500D02*
X1411250Y1888750D01*
X1401824Y1889000D02*
X1411000D01*
X1418250Y1911500D02*
X1429750Y1923000D01*
Y1957660D01*
X1405072Y1901500D02*
X1410750D01*
X1386250Y1899160D02*
X1402910D01*
X1405161Y1901411D01*
X1405072Y1901500D02*
X1405161Y1901411D01*
X1412500Y1937250D02*
X1413987D01*
X1405897Y1929160D02*
X1413987Y1937250D01*
X1419750Y1941000D02*
Y1957660D01*
Y1941000D02*
X1423500Y1937250D01*
X1464750Y1902460D02*
X1490150Y1877060D01*
X1534160D02*
X1540256Y1870964D01*
X1490150Y1877060D02*
X1534160D01*
X1454750Y1906686D02*
Y1957660D01*
X1513078Y1775714D02*
Y1848358D01*
X1454750Y1906686D02*
X1513078Y1848358D01*
X1534800Y1888104D02*
X1544828Y1878076D01*
X1534750Y1957660D02*
X1534800Y1957610D01*
Y1888104D02*
Y1957610D01*
X1444750Y1745660D02*
Y1768750D01*
X1448750Y1772750D01*
X1450750Y1773000D02*
X1454750Y1769000D01*
X1449750Y1745660D02*
Y1772750D01*
X1414128Y1728106D02*
X1414500Y1727734D01*
Y1726500D02*
Y1727734D01*
X1414128Y1728106D02*
X1416606D01*
X1419750Y1731250D01*
Y1745660D01*
X1512500Y1700250D02*
Y1729227D01*
X1509750Y1731977D02*
X1512500Y1729227D01*
X1424750Y1706436D02*
Y1745660D01*
Y1706436D02*
X1426935Y1704250D01*
X1429750Y1711750D02*
Y1718618D01*
Y1711750D02*
X1435250Y1706250D01*
Y1679750D02*
Y1706250D01*
Y1679750D02*
X1438552Y1676448D01*
X1461722D01*
X1454571Y1691299D02*
X1454658Y1691386D01*
X1454571Y1690332D02*
Y1691299D01*
X1448750Y1704334D02*
Y1718000D01*
X1439750Y1726946D02*
X1448696Y1718000D01*
X1448750D01*
X1448750Y1718000D02*
X1448750Y1718000D01*
X1468000Y1695130D02*
X1479750Y1706880D01*
X1468000Y1681250D02*
Y1695130D01*
Y1681250D02*
X1470970Y1678280D01*
X1476000D01*
X1497292Y1679994D02*
Y1693143D01*
X1471460Y1672120D02*
X1489418D01*
X1497292Y1679994D01*
X1489750Y1683552D02*
Y1745660D01*
Y1683552D02*
X1490500Y1684302D01*
X1625854Y1745488D02*
X1631950Y1739392D01*
X1625854Y1745488D02*
Y1778826D01*
X1575250Y1774740D02*
X1580750Y1769240D01*
X1575250Y1774740D02*
Y1776000D01*
X1359250Y1711864D02*
X1380998Y1690116D01*
X1359250Y1711864D02*
Y1792100D01*
X1361310Y1794160D01*
X1362000Y1723194D02*
X1370694Y1714500D01*
X1362000Y1723194D02*
Y1787412D01*
X1365250Y1790662D01*
X1430528Y1776222D02*
Y1810972D01*
X1400919Y1809160D02*
X1407758Y1816000D01*
X1425500D01*
X1430528Y1810972D01*
X1422250Y1765250D02*
X1431250D01*
X1436624Y1770624D01*
Y1813560D01*
X1402190Y1779160D02*
X1403350Y1778000D01*
X1414650Y1808350D02*
X1414750Y1808250D01*
X1399540Y1799160D02*
X1412000Y1786700D01*
X1402564Y1766584D02*
X1412000Y1776020D01*
X1414750Y1745660D02*
Y1808250D01*
X1412000Y1776020D02*
Y1786700D01*
X1403350Y1778000D02*
X1403850Y1778500D01*
X1404750D01*
X1356850Y1817884D02*
X1373127Y1834160D01*
X1354074Y1820364D02*
X1372870Y1839160D01*
X1356691Y1836674D02*
X1357115Y1836250D01*
X1358250D01*
X1356691Y1836674D02*
X1359000Y1838983D01*
X1367992Y1844750D02*
X1368044Y1844802D01*
X1366250Y1844750D02*
X1367992D01*
X1572500Y1908354D02*
X1575600Y1905254D01*
Y1899412D02*
Y1905254D01*
X1576980Y1924160D02*
X1598250D01*
X1569591Y1929255D02*
X1611884Y1971548D01*
X1572500Y1919680D02*
X1576980Y1924160D01*
X1569591Y1894840D02*
Y1929255D01*
X1572500Y1908354D02*
Y1919680D01*
X1581090Y1917000D02*
Y1919160D01*
X1598250D01*
X2167250Y1861049D02*
X2167420Y1861219D01*
X2167250Y1859750D02*
Y1861049D01*
X2375500Y1983766D02*
X2389124Y1997390D01*
X2378250Y1976341D02*
X2391299Y1989390D01*
X2381000Y1958790D02*
X2387600Y1965390D01*
X2381000Y1896614D02*
X2403869Y1873745D01*
X2378250Y1893107D02*
Y1976341D01*
X2381000Y1896614D02*
Y1958790D01*
X2387978Y1929000D02*
X2388870Y1929892D01*
X2387500Y1929000D02*
X2387978D01*
X2387000Y1914490D02*
X2392100Y1909390D01*
X2387000Y1914490D02*
Y1928750D01*
X2410460Y1917390D02*
X2417320Y1924250D01*
X2458250D01*
X2526000Y2029390D02*
X2526110Y2029500D01*
X2513450Y2037390D02*
X2528610D01*
X2536250Y2029750D01*
X2513450Y2021390D02*
X2528140D01*
X2536000Y2029250D01*
X2526110Y2029500D02*
X2536250D01*
X2491994Y1943100D02*
X2495804Y1946910D01*
X2501900D01*
X2119884Y1668272D02*
Y1940560D01*
X2130044Y1692402D02*
Y1938020D01*
X2151126Y1723636D02*
Y1859500D01*
X2414000Y1981390D02*
X2414140Y1981250D01*
X2419250D01*
X2526000Y1981390D02*
X2526110Y1981500D01*
X2531500D01*
X2535424Y1908250D02*
X2548750D01*
X2526284Y1917390D02*
X2535424Y1908250D01*
X2548971Y1908221D02*
X2577592Y1879600D01*
X2641411Y2046797D02*
X2658364Y2063750D01*
X2662608D01*
X2663698Y2062660D01*
X2735310Y1982660D02*
X2735470Y1982500D01*
X2743750D01*
X2703750Y1974750D02*
X2705500D01*
X2703750Y1974000D02*
Y1974750D01*
X2705000Y2015500D02*
X2706000Y2016500D01*
X2705000Y2015250D02*
Y2015500D01*
X2705750Y2016750D02*
X2706000Y2016500D01*
X2707500Y2022750D02*
X2714500D01*
X2705750Y2021000D02*
X2707500Y2022750D01*
X2705750Y2016750D02*
Y2021000D01*
X2820910Y1982660D02*
X2834760D01*
X2815750Y1987820D02*
X2820910Y1982660D01*
X2815750Y1987820D02*
Y1991500D01*
X2810250Y2038500D02*
X2822050D01*
X2822210Y2038660D01*
X2811910Y2030660D02*
X2834760D01*
X2807750Y2026500D02*
X2811910Y2030660D01*
X2798750Y2026500D02*
X2807750D01*
X2798500Y2026750D02*
X2810250Y2038500D01*
X2813160Y2022660D02*
X2834760D01*
X2798500Y2026500D02*
X2802500Y2022500D01*
X2813000D01*
X2813160Y2022660D01*
X2685034Y1196492D02*
Y1413510D01*
X2626106Y1444244D02*
X2631440Y1449578D01*
X2693416Y1374394D02*
Y1414526D01*
X2631440Y1449578D02*
X2648966D01*
X2685034Y1413510D01*
X2590460Y1453800D02*
X2654142D01*
X2693416Y1414526D01*
X2606250Y1444708D02*
Y1445750D01*
X2600342Y1438800D02*
X2606250Y1444708D01*
X2524500Y1375810D02*
X2524710Y1375600D01*
X2524500Y1375810D02*
Y1377250D01*
X2368156Y1342250D02*
X2368250D01*
X2369710Y1343804D02*
Y1363050D01*
X2368156Y1342250D02*
X2369710Y1343804D01*
X2360244Y1333956D02*
X2360750Y1334462D01*
Y1334750D01*
X2404500Y1350210D02*
X2404790Y1350500D01*
X2281256Y1439500D02*
X2281936Y1440180D01*
X2280750Y1439500D02*
X2281256D01*
X2306510Y1458800D02*
X2306710Y1459000D01*
X2309250D01*
X2294510Y1453250D02*
X2311349D01*
X2307410Y1471750D02*
X2313250D01*
X2304460Y1468800D02*
X2307410Y1471750D01*
X2307520Y1505250D02*
X2307750D01*
X2303970Y1508800D02*
X2307520Y1505250D01*
X2306510Y1558800D02*
X2306560Y1558750D01*
X2307500D01*
X2314250Y1672560D02*
X2314710Y1672100D01*
X2314250Y1672560D02*
Y1673750D01*
X2361184Y1481328D02*
Y1632204D01*
X2366772Y1484642D02*
Y1624076D01*
X2374630Y1647000D02*
X2375630Y1646000D01*
X2376250D01*
X2378250Y1893107D02*
X2380569Y1890788D01*
X2375500Y1727118D02*
Y1983766D01*
Y1707737D02*
Y1716183D01*
X2372750Y1989016D02*
X2389124Y2005390D01*
X2372750Y1725979D02*
Y1989016D01*
X2380569Y1682681D02*
X2394710Y1668540D01*
X2380569Y1682681D02*
Y1890788D01*
X2548250Y1771956D02*
X2548674Y1771533D01*
X2548250Y1771956D02*
Y1773500D01*
X2548674Y1771533D02*
X2550391Y1773250D01*
X2556615D01*
X2560655Y1769210D01*
X2516250Y1644682D02*
X2519710Y1648142D01*
Y1659550D01*
Y1613916D02*
Y1614040D01*
X2516250Y1641250D02*
Y1644682D01*
X2513375Y1638375D02*
X2516250Y1641250D01*
X2513375Y1620375D02*
X2519710Y1614040D01*
X2510536Y1610106D02*
Y1645666D01*
X2513375Y1620375D02*
Y1638375D01*
X2510536Y1610106D02*
X2552916Y1567726D01*
X2550519Y1587649D02*
Y1619653D01*
Y1587649D02*
X2559271Y1578897D01*
X2557000Y1594340D02*
X2557272Y1594612D01*
X2557000Y1592500D02*
Y1594340D01*
X2557272Y1590728D02*
Y1594612D01*
Y1590728D02*
X2565034Y1582966D01*
X2581292D01*
X2558500Y1603714D02*
X2559304Y1604518D01*
X2558500Y1602750D02*
Y1603714D01*
X2572750Y1518750D02*
X2577700Y1513800D01*
X2513450Y1925390D02*
X2548640D01*
X2559125Y1935875D01*
X1345603Y1819250D02*
X1346010Y1819656D01*
X1343500Y1819250D02*
X1345603D01*
X1341000Y1893512D02*
X1356649Y1909160D01*
X1341000Y1824666D02*
X1346010Y1819656D01*
X1341000Y1824666D02*
Y1893512D01*
X1346750Y1839250D02*
X1347506D01*
Y1844756D01*
X1344000Y1848250D02*
X1347500Y1844750D01*
X1347506Y1844756D01*
X1344000Y1848250D02*
Y1879750D01*
X1348410Y1884160D01*
X1386250D01*
X1347250Y1852500D02*
X1359000Y1840750D01*
Y1838983D02*
Y1840750D01*
X1371340Y1874160D02*
X1386250D01*
X1367250Y1878250D02*
X1371340Y1874160D01*
X1347250Y1852500D02*
Y1874500D01*
X1351000Y1878250D01*
X1367250D01*
X1355500Y1857000D02*
X1358340Y1854160D01*
X1386250D01*
X1353375Y1868125D02*
X1362340Y1859160D01*
X1386250D01*
X1365250Y1868250D02*
X1367200D01*
X2376250Y1646000D02*
X2376750Y1645500D01*
Y1645000D02*
Y1645500D01*
X2404500Y1349500D02*
Y1350210D01*
X2404000Y1349000D02*
X2404500Y1349500D01*
X2249886Y1454450D02*
X2284237Y1488800D01*
X1924170Y1454780D02*
X1924500Y1454450D01*
X2247140Y1457200D02*
X2283740Y1493800D01*
X2185676Y1462780D02*
X2191256Y1457200D01*
X1924500Y1454450D02*
X2249886D01*
X2191256Y1457200D02*
X2247140D01*
X931700Y1453750D02*
X949500D01*
X944880Y2172500D02*
X968000D01*
X970270Y2173770D02*
X994410D01*
X968520Y2146770D02*
X994410D01*
X944880Y2145500D02*
X967250D01*
X1312710Y2551430D02*
X1334180D01*
X1348750Y2566000D01*
X1399740D02*
X1414310Y2551430D01*
X1348750Y2566000D02*
X1399740D01*
X1515910Y2551430D02*
X1536430D01*
X1552500Y2567500D01*
X1601440D02*
X1617510Y2551430D01*
X1552500Y2567500D02*
X1601440D01*
X1402250Y1083030D02*
X1402410Y1082870D01*
X1402250Y1083030D02*
Y1084750D01*
X2817500Y858000D02*
X2820500D01*
X2821020Y858520D02*
X2835820D01*
X2820500Y858000D02*
X2821020Y858520D01*
X2743200Y1143320D02*
X2762250Y1162370D01*
Y1496822D01*
X2739930Y1519142D02*
X2762250Y1496822D01*
X2742754Y1151320D02*
X2759500Y1168066D01*
Y1469854D01*
X2712963Y1516391D02*
X2759500Y1469854D01*
X2707077Y1513641D02*
X2745750Y1474968D01*
Y1208250D02*
Y1474968D01*
Y1208250D02*
X2751000Y1203000D01*
Y1190678D02*
Y1203000D01*
X2727840Y1167320D02*
X2747570D01*
X2754000Y1173750D01*
Y1211500D01*
X2817000Y1969450D02*
X2822210Y1974660D01*
X2817000Y1965000D02*
Y1969450D01*
X2419250Y1981250D02*
X2428500Y1990500D01*
Y1994000D01*
X2499250Y1973390D02*
Y1979250D01*
X2499500Y1977330D02*
Y1980000D01*
X2159762Y1913885D02*
X2167420Y1906227D01*
Y1899920D02*
Y1906227D01*
X2042201Y1944049D02*
Y1959650D01*
X2010194Y1989620D02*
X2021840Y2001266D01*
X2010194Y1944883D02*
X2016760Y1938317D01*
X2010194Y1944883D02*
Y1989620D01*
X2015750Y1962152D02*
Y1974000D01*
X1924170Y1494780D02*
X1933530D01*
X1937553Y1498803D01*
X1940560Y1478780D02*
X1947164Y1485384D01*
Y1524508D01*
X1912970Y1486780D02*
X1924170D01*
X1904750Y1495000D02*
X1912970Y1486780D01*
X1844500Y1530302D02*
X1851914Y1537716D01*
X1827862Y1470780D02*
X1844500Y1487418D01*
Y1530302D01*
X1819492Y1478689D02*
X1830939D01*
X1839250Y1487000D01*
Y1518500D01*
X1812170Y1510780D02*
X1823220D01*
X1832000Y1502000D01*
X1784096Y1330574D02*
X1784713Y1329957D01*
X1787000Y1573894D02*
X1789684Y1576578D01*
X1787000Y1339232D02*
X1790700Y1335532D01*
X1789750Y1544678D02*
X1798320Y1553248D01*
X1789750Y1357818D02*
X1796788Y1350780D01*
X1784096Y1330574D02*
Y1603502D01*
X1787000Y1339232D02*
Y1573894D01*
X1789750Y1357818D02*
Y1544678D01*
X1797250Y1401150D02*
X1799620Y1398780D01*
X1797250Y1401150D02*
Y1406750D01*
Y1412410D02*
X1799620Y1414780D01*
X1797250Y1406750D02*
Y1412410D01*
X1831750Y1393542D02*
X1832864Y1392428D01*
X1831750Y1393542D02*
Y1393750D01*
X1812170Y1382780D02*
X1821780D01*
X1831428Y1392428D01*
X1832864D01*
X1812170Y1342780D02*
X1835220D01*
X1842250Y1335750D01*
X1499750Y1934750D02*
Y1957660D01*
Y1745660D02*
X1499910Y1745500D01*
X1504750D01*
Y1760474D01*
X1404750Y1957660D02*
Y1972500D01*
X1404000D02*
X1404750D01*
X1394250Y1962750D02*
X1404000Y1972500D01*
X2243950Y1402540D02*
Y1402549D01*
X2282250Y1413800D02*
X2293960D01*
X2311349Y1453250D02*
X2311349Y1453250D01*
X2327750D01*
X2332000Y1449000D01*
X2278750Y1417300D02*
X2282250Y1413800D01*
X2275201Y1433800D02*
X2293960D01*
X2243950Y1402549D02*
X2275201Y1433800D01*
X2405372Y1324872D02*
X2414710Y1334210D01*
Y1363050D01*
X2405372Y1324872D02*
X2405380Y1324864D01*
X2344710Y1330960D02*
X2350806Y1324864D01*
X2379710Y1363050D02*
Y1372870D01*
X2384710Y1363050D02*
Y1374140D01*
X2386170Y1375600D02*
X2387250D01*
X2384710Y1374140D02*
X2386170Y1375600D01*
X2365756Y1386824D02*
X2379710Y1372870D01*
X2350806Y1324864D02*
X2405380D01*
X2352802Y1408176D02*
X2359710Y1401268D01*
Y1363050D02*
Y1401268D01*
X2365756Y1386824D02*
Y1429750D01*
X2409710Y1363050D02*
X2409800Y1363140D01*
Y1441614D01*
X2361184Y1481328D02*
X2407050Y1435462D01*
X2366772Y1484642D02*
X2409800Y1441614D01*
X2407050Y1379300D02*
Y1435462D01*
X2404710Y1369568D02*
X2404750D01*
Y1377000D01*
X2407050Y1379300D01*
X2489710Y1340460D02*
Y1363050D01*
X2603020Y1426250D02*
X2603750D01*
X2600470Y1428800D02*
X2603020Y1426250D01*
X2590460Y1483800D02*
X2603550D01*
X2575000Y1557250D02*
Y1558350D01*
X2580450Y1563800D01*
X2504710Y1581040D02*
Y1659550D01*
Y1581040D02*
X2527125Y1558625D01*
X2322250Y1691000D02*
X2334710Y1678540D01*
Y1659550D02*
Y1678540D01*
X2322250Y1691000D02*
Y1828618D01*
X2314702Y1836166D02*
X2322250Y1828618D01*
X2362750Y1673750D02*
X2363820D01*
X2364710Y1659550D02*
Y1671790D01*
X2363285Y1673215D02*
X2364710Y1671790D01*
X2363285Y1673215D02*
X2363820Y1673750D01*
X2369710Y1667510D02*
X2369750Y1667550D01*
Y1990460D01*
X2392680Y2013390D01*
X2372750Y1682111D02*
Y1725979D01*
X2372750Y1725979D01*
X2375500Y1716183D02*
X2375500Y1716183D01*
X2375500Y1716183D02*
Y1727118D01*
X2375500Y1727118D01*
X2374710Y1659550D02*
X2374750Y1659590D01*
Y1680111D01*
X2372750Y1682111D02*
X2374750Y1680111D01*
X2375500Y1683250D02*
X2389710Y1669040D01*
X2375500Y1683250D02*
Y1707737D01*
X2375500Y1707737D01*
X2349710Y1679150D02*
X2360750Y1690190D01*
Y1691000D01*
X2278500Y1427250D02*
X2286950Y1418800D01*
X2293960D01*
D34*
X1981200Y1996440D02*
D03*
Y1940560D02*
D03*
Y1828800D02*
D03*
X1096010Y2211070D02*
D03*
X2794000Y909320D02*
D03*
X2743200D02*
D03*
X2692400Y908050D02*
D03*
X1771650Y942340D02*
D03*
X1045210Y2185670D02*
D03*
X991870Y2414270D02*
D03*
D35*
X1981200Y1971040D02*
D03*
X1559560Y2161540D02*
D03*
Y2186940D02*
D03*
X1584960Y2161540D02*
D03*
Y2186940D02*
D03*
X1610360Y2161540D02*
D03*
Y2186940D02*
D03*
X1635760Y2161540D02*
D03*
X1422400D02*
D03*
Y2186940D02*
D03*
X1447800Y2161540D02*
D03*
Y2186940D02*
D03*
X1473200Y2161540D02*
D03*
Y2186940D02*
D03*
X1498600Y2161540D02*
D03*
X1264920D02*
D03*
Y2186940D02*
D03*
X1290320Y2161540D02*
D03*
Y2186940D02*
D03*
X1315720Y2161540D02*
D03*
Y2186940D02*
D03*
X1341120Y2161540D02*
D03*
X1981200Y1915160D02*
D03*
Y1889760D02*
D03*
Y1854200D02*
D03*
X2110740Y966470D02*
D03*
X2085340D02*
D03*
X2192020D02*
D03*
X2166620D02*
D03*
X2029460D02*
D03*
X2004060D02*
D03*
X2240280Y1090930D02*
D03*
X2265680D02*
D03*
X2321560D02*
D03*
X2346960D02*
D03*
X1096010Y2185670D02*
D03*
Y2160270D02*
D03*
X1833880Y1090930D02*
D03*
X1859280D02*
D03*
X1915160D02*
D03*
X1940560D02*
D03*
X1996440D02*
D03*
X2021840D02*
D03*
X2794000Y883920D02*
D03*
Y858520D02*
D03*
X2077720Y1090930D02*
D03*
X2103120D02*
D03*
X2159000D02*
D03*
X2184400D02*
D03*
X2743200Y883920D02*
D03*
Y858520D02*
D03*
X2405380Y1093470D02*
D03*
X2430780D02*
D03*
X2692400Y882650D02*
D03*
Y857250D02*
D03*
X1771650Y916940D02*
D03*
X613410Y1525270D02*
D03*
Y1322070D02*
D03*
Y1118870D02*
D03*
Y890270D02*
D03*
X2818130Y814070D02*
D03*
X2843530D02*
D03*
X2194560Y2032000D02*
D03*
X2169160Y2057400D02*
D03*
Y2032000D02*
D03*
X2143760Y2057400D02*
D03*
Y2032000D02*
D03*
X2118360Y2057400D02*
D03*
Y2032000D02*
D03*
X2092960Y2057400D02*
D03*
Y2032000D02*
D03*
X2067560Y2057400D02*
D03*
Y2032000D02*
D03*
X2042160Y2057400D02*
D03*
Y2032000D02*
D03*
X1805940Y2133600D02*
D03*
Y2108200D02*
D03*
X1780540Y2133600D02*
D03*
Y2108200D02*
D03*
X1755140Y2133600D02*
D03*
Y2108200D02*
D03*
X1729740Y2133600D02*
D03*
Y2108200D02*
D03*
X1704340Y2133600D02*
D03*
X1045210Y2160270D02*
D03*
X1670050Y1032510D02*
D03*
X1695450Y1007110D02*
D03*
Y1032510D02*
D03*
X1720850Y1007110D02*
D03*
Y1032510D02*
D03*
X1017270Y2338070D02*
D03*
X991870D02*
D03*
X1017270Y2363470D02*
D03*
X991870D02*
D03*
X1017270Y2388870D02*
D03*
X991870D02*
D03*
X1017270Y2414270D02*
D03*
X1381760Y1234440D02*
D03*
Y1209040D02*
D03*
X1356360Y1234440D02*
D03*
Y1209040D02*
D03*
X1330960Y1234440D02*
D03*
Y1209040D02*
D03*
X1305560Y1234440D02*
D03*
Y1209040D02*
D03*
X1280160Y1234440D02*
D03*
Y1209040D02*
D03*
X1254760Y1234440D02*
D03*
X1238250Y1565910D02*
D03*
Y1591310D02*
D03*
X1263650Y1565910D02*
D03*
Y1591310D02*
D03*
X1289050Y1565910D02*
D03*
Y1591310D02*
D03*
X1314450Y1565910D02*
D03*
Y1591310D02*
D03*
X1339850Y1565910D02*
D03*
Y1591310D02*
D03*
X1365250Y1565910D02*
D03*
Y1591310D02*
D03*
X1390650Y1565910D02*
D03*
Y1591310D02*
D03*
X1416050Y1565910D02*
D03*
Y1591310D02*
D03*
X1441450Y1565910D02*
D03*
Y1591310D02*
D03*
X1466850Y1565910D02*
D03*
Y1591310D02*
D03*
X1492250Y1565910D02*
D03*
Y1591310D02*
D03*
X1517650Y1565910D02*
D03*
Y1591310D02*
D03*
X1543050Y1565910D02*
D03*
Y1591310D02*
D03*
X1568450Y1565910D02*
D03*
Y1591310D02*
D03*
X1593850Y1565910D02*
D03*
Y1591310D02*
D03*
X1619250Y1565910D02*
D03*
Y1591310D02*
D03*
X1644650Y1565910D02*
D03*
Y1591310D02*
D03*
X1670050Y1565910D02*
D03*
Y1591310D02*
D03*
X1695450Y1565910D02*
D03*
X1471930Y1210310D02*
D03*
Y1235710D02*
D03*
X1497330Y1210310D02*
D03*
Y1235710D02*
D03*
X1522730Y1210310D02*
D03*
Y1235710D02*
D03*
X1548130Y1210310D02*
D03*
Y1235710D02*
D03*
X1573530Y1210310D02*
D03*
Y1235710D02*
D03*
X1598930Y1210310D02*
D03*
Y1235710D02*
D03*
X1624330Y1210310D02*
D03*
Y1235710D02*
D03*
X1649730Y1210310D02*
D03*
Y1235710D02*
D03*
X1675130Y1210310D02*
D03*
D36*
X1635760Y2186940D02*
D03*
X1498600D02*
D03*
X1341120D02*
D03*
X2136140Y966470D02*
D03*
X2217420D02*
D03*
X2054860D02*
D03*
X2214880Y1090930D02*
D03*
X2296160D02*
D03*
X1808480D02*
D03*
X1889760D02*
D03*
X1971040D02*
D03*
X2052320D02*
D03*
X2133600D02*
D03*
X2379980Y1093470D02*
D03*
X588010Y1525270D02*
D03*
Y1322070D02*
D03*
Y1118870D02*
D03*
Y890270D02*
D03*
X2868930Y814070D02*
D03*
X2194560Y2057400D02*
D03*
X1704340Y2108200D02*
D03*
X1670050Y1007110D02*
D03*
X1254760Y1209040D02*
D03*
X1695450Y1591310D02*
D03*
X1675130Y1235710D02*
D03*
D37*
X994410Y1550270D02*
D03*
Y1347070D02*
D03*
X689610D02*
D03*
X994410Y1143870D02*
D03*
X689610D02*
D03*
X994410Y915270D02*
D03*
X684530D02*
D03*
X689610Y1550270D02*
D03*
D38*
X994410Y1500270D02*
D03*
Y1297070D02*
D03*
X689610D02*
D03*
X994410Y1093870D02*
D03*
X689610D02*
D03*
X994410Y865270D02*
D03*
X684530D02*
D03*
X689610Y1500270D02*
D03*
D39*
X791210Y1322070D02*
D03*
X816610D02*
D03*
X791210Y1118870D02*
D03*
X816610D02*
D03*
X791210Y890270D02*
D03*
X816610D02*
D03*
X791210Y1525270D02*
D03*
X816610D02*
D03*
D40*
X842010Y1322070D02*
D03*
Y1118870D02*
D03*
Y890270D02*
D03*
Y1525270D02*
D03*
D41*
X1673450Y839470D02*
D03*
X1717450D02*
D03*
D42*
X619760Y1656080D02*
D03*
D43*
X650760Y1606080D02*
D03*
D44*
X681760Y1656080D02*
D03*
D45*
X616970Y2539220D02*
D03*
Y2289320D02*
D03*
D46*
X631170Y2358870D02*
D03*
D47*
X602770Y2372720D02*
D03*
X631170Y2386570D02*
D03*
X602770Y2400420D02*
D03*
X631170Y2414270D02*
D03*
X602770Y2428120D02*
D03*
X631170Y2441970D02*
D03*
X602770Y2455820D02*
D03*
X631170Y2469670D02*
D03*
D48*
X1187450Y2082230D02*
D03*
Y1980630D02*
D03*
Y2006030D02*
D03*
Y2031430D02*
D03*
Y2056830D02*
D03*
X704850Y1789230D02*
D03*
X730250D02*
D03*
X958850D02*
D03*
X755650D02*
D03*
X806450D02*
D03*
X781050D02*
D03*
X857250D02*
D03*
X831850D02*
D03*
X908050D02*
D03*
X882650D02*
D03*
X933450D02*
D03*
Y2094230D02*
D03*
X882650D02*
D03*
X908050D02*
D03*
X831850D02*
D03*
X857250D02*
D03*
X781050D02*
D03*
X806450D02*
D03*
X755650D02*
D03*
X958850D02*
D03*
X730250D02*
D03*
X704850D02*
D03*
X1757680Y1981200D02*
D03*
X1806480D02*
D03*
X2066130Y864870D02*
D03*
X2089030D02*
D03*
X2111930D02*
D03*
X2134830D02*
D03*
X2157730D02*
D03*
X2077530Y890270D02*
D03*
X2100430D02*
D03*
X2123330D02*
D03*
X2146230D02*
D03*
X2169130D02*
D03*
X2066130Y915670D02*
D03*
X2089030D02*
D03*
X2111930D02*
D03*
X2134830D02*
D03*
X2157730D02*
D03*
D49*
X1988530Y890270D02*
D03*
X2237730D02*
D03*
D50*
X2608750Y1280000D02*
D03*
X2571250Y1269750D02*
D03*
X2424000Y1486000D02*
D03*
X2248750Y1393250D02*
D03*
X2280611Y1394568D02*
D03*
X2250250Y1372750D02*
D03*
X2281750Y1374250D02*
D03*
X2205750Y1379250D02*
D03*
X2192500Y1388500D02*
D03*
X2694250Y1913750D02*
D03*
X2694158Y1865886D02*
D03*
X2716908Y1778636D02*
D03*
X2627000Y1502750D02*
D03*
X2341750Y1634750D02*
D03*
X2351786Y1622044D02*
D03*
X2356104Y1637284D02*
D03*
X2367026Y1634744D02*
D03*
X2337750Y1619250D02*
D03*
X2366772Y1624076D02*
D03*
X1941500Y1503250D02*
D03*
X1435250Y1978750D02*
D03*
X1545000Y1978000D02*
D03*
X1503750Y1977250D02*
D03*
X1494750Y1983500D02*
D03*
X2383750Y2021250D02*
D03*
X2375250Y2013500D02*
D03*
X2536000Y1735500D02*
D03*
X2408000Y1626250D02*
D03*
X2315113Y1584327D02*
D03*
X1745250Y2342750D02*
D03*
X2542250Y1686500D02*
D03*
X2564000Y1377750D02*
D03*
X2514500Y1349250D02*
D03*
X2444750Y1378500D02*
D03*
X2464750Y1379000D02*
D03*
X2475000Y1380250D02*
D03*
X2452750Y2060000D02*
D03*
X2512500Y1868250D02*
D03*
X2387250Y1689000D02*
D03*
X2412170Y1674640D02*
D03*
X2477500Y1679000D02*
D03*
X2049750Y1845500D02*
D03*
X2046000Y1903250D02*
D03*
X2204750Y1914250D02*
D03*
X2194750Y1975250D02*
D03*
X2171750Y1845750D02*
D03*
X2570250Y1451250D02*
D03*
X2323250Y1441000D02*
D03*
X1826750Y1408250D02*
D03*
X2244250Y1429750D02*
D03*
X2313000Y1425250D02*
D03*
X2258250Y1430500D02*
D03*
X2310250Y1573250D02*
D03*
X2313686Y1596644D02*
D03*
X2309368Y1608328D02*
D03*
X2314750Y1552250D02*
D03*
X2267000Y1571500D02*
D03*
X2271250Y1596340D02*
D03*
X2281936Y1597914D02*
D03*
X2272030Y1549400D02*
D03*
X2254250Y1564640D02*
D03*
X2242820Y1562100D02*
D03*
X1642110Y1932940D02*
D03*
X1625600Y1924050D02*
D03*
X1423670Y1390650D02*
D03*
X1369060Y1188720D02*
D03*
X2901750Y909500D02*
D03*
X2433990Y2021370D02*
D03*
X2577910Y1463800D02*
D03*
X2525230Y1437039D02*
D03*
X1343500Y2340250D02*
D03*
X1843439Y1466050D02*
D03*
X725500Y2279500D02*
D03*
X904750Y1381250D02*
D03*
X1012250Y932250D02*
D03*
X904750Y1026750D02*
D03*
Y799500D02*
D03*
X1031500Y1585500D02*
D03*
X932000Y1381500D02*
D03*
X828500Y1382000D02*
D03*
X945500Y1245250D02*
D03*
X1031500Y1179250D02*
D03*
X904750Y1179500D02*
D03*
X828500D02*
D03*
X949500Y1043750D02*
D03*
X828750Y951000D02*
D03*
X2606250Y1573500D02*
D03*
X2690876Y2050542D02*
D03*
X2663698Y2064004D02*
D03*
X2431542Y2078990D02*
D03*
X2386360Y1975930D02*
D03*
X1370694Y1714500D02*
D03*
X1376370Y1748920D02*
D03*
X1835912Y1446780D02*
D03*
X2269744Y1517396D02*
D03*
X1899920Y1432560D02*
D03*
X1860550Y1442212D02*
D03*
X2321560Y1533800D02*
D03*
X1831594Y1434846D02*
D03*
X1833504Y1374780D02*
D03*
X2170938Y1395476D02*
D03*
X1512062Y1520698D02*
D03*
X2700782Y2054660D02*
D03*
X2597930Y1646420D02*
D03*
X1580750Y1811780D02*
D03*
X2612644Y2013712D02*
D03*
X1499000Y1934750D02*
D03*
X1473708Y1774432D02*
D03*
X2327110Y1586900D02*
D03*
X2309050Y1618960D02*
D03*
X1476967Y1692686D02*
D03*
X1482598Y1581658D02*
D03*
X2236724D02*
D03*
X1947164Y1524508D02*
D03*
X1548384Y1634744D02*
D03*
X2338324Y1542796D02*
D03*
X2671008Y2007870D02*
D03*
X2419604D02*
D03*
X1678686Y1943862D02*
D03*
X2603500Y1822450D02*
D03*
X1510792Y1917446D02*
D03*
X1529334Y1528826D02*
D03*
X1561338Y1224026D02*
D03*
X1502750Y1359000D02*
D03*
X1387602Y1447292D02*
D03*
X1385372Y1348430D02*
D03*
X1425940Y1380430D02*
D03*
X1425702Y1234948D02*
D03*
X1451273Y1213187D02*
D03*
X1502250Y1384000D02*
D03*
X1602994Y1530604D02*
D03*
X1425500Y1364500D02*
D03*
X2449790Y1672100D02*
D03*
X2458836Y1686201D02*
D03*
X2421250Y1690500D02*
D03*
X2452895Y1938020D02*
D03*
X2388870Y1958340D02*
D03*
X2492250Y1644460D02*
D03*
X2500884Y2000758D02*
D03*
X2474214D02*
D03*
X1507490Y1763268D02*
D03*
X1561630Y1771358D02*
D03*
X2845308Y1374394D02*
D03*
X2693416D02*
D03*
X1408684Y1829160D02*
D03*
X1399032Y1676146D02*
D03*
X2633980Y1442720D02*
D03*
X2835402Y1365504D02*
D03*
X1430528Y1776222D02*
D03*
X2510536Y1645666D02*
D03*
X1630426Y1869948D02*
D03*
X2657250Y1610000D02*
D03*
X2457196Y1701911D02*
D03*
X2497836Y1747774D02*
D03*
X2603754Y1958086D02*
D03*
X2416556Y1939036D02*
D03*
X2751328Y1953006D02*
D03*
X2703764Y1952498D02*
D03*
X2579878Y1956054D02*
D03*
X2482342Y1646174D02*
D03*
X2527750Y1682750D02*
D03*
X2557000Y1638500D02*
D03*
X2685034Y1932432D02*
D03*
X2426208Y1916176D02*
D03*
X2799155Y1876827D02*
D03*
X2570860D02*
D03*
X2426970Y1939036D02*
D03*
X2707894Y1937766D02*
D03*
X1529588Y1867662D02*
D03*
X2275840Y1675638D02*
D03*
X2314702Y1836166D02*
D03*
X2090674Y1841754D02*
D03*
X2537968Y1538800D02*
D03*
X1579372Y1869440D02*
D03*
X1905254Y1479804D02*
D03*
X1940566Y1361440D02*
D03*
X2224494Y1618704D02*
D03*
X1559306Y1702308D02*
D03*
X2229358Y1558798D02*
D03*
X2337816Y1402588D02*
D03*
X2075180Y1971548D02*
D03*
X2623058Y1408800D02*
D03*
X1577848Y1883156D02*
D03*
X777964Y2366120D02*
D03*
X2395474Y1331976D02*
D03*
X2396998Y1207770D02*
D03*
X2513838Y1136142D02*
D03*
X2801620Y1105662D02*
D03*
X2101062Y1652550D02*
D03*
X2549144Y1383284D02*
D03*
X2715514Y1271778D02*
D03*
X2818638Y1129030D02*
D03*
X2467356Y1315466D02*
D03*
X2698000Y1135000D02*
D03*
X2816352Y1153922D02*
D03*
X2685034Y1196492D02*
D03*
X2577910Y1381260D02*
D03*
X2370490Y1316520D02*
D03*
X2557412Y1388954D02*
D03*
X1790700Y1335532D02*
D03*
X2319790Y1375600D02*
D03*
X1350010Y1249680D02*
D03*
X1214120Y1878330D02*
D03*
X1413750Y1809750D02*
D03*
X1230884Y1759712D02*
D03*
X2699004Y1185672D02*
D03*
X2837180Y1393444D02*
D03*
X2662428Y1484200D02*
D03*
X2876000Y1324500D02*
D03*
X1409192Y1764792D02*
D03*
X1404750Y1715262D02*
D03*
X909774Y1867154D02*
D03*
X1352804Y1893570D02*
D03*
X1331976Y1810258D02*
D03*
X1364488Y1935480D02*
D03*
X2674620Y1269962D02*
D03*
X2529332Y1324356D02*
D03*
X2712212Y1120648D02*
D03*
X2633472Y1152398D02*
D03*
X2584030Y1291082D02*
D03*
X2676652Y1225042D02*
D03*
X2604211Y1324597D02*
D03*
X2702750Y1225500D02*
D03*
X2590800Y1277366D02*
D03*
X2551938Y1339596D02*
D03*
X2715768Y1226820D02*
D03*
X2575560Y1423800D02*
D03*
X2823532Y1199320D02*
D03*
X2801366Y1177036D02*
D03*
X2502662Y1334770D02*
D03*
X1574500Y1799250D02*
D03*
X2489708Y1064768D02*
D03*
X1993392Y1003554D02*
D03*
X2375408Y1331722D02*
D03*
X2350262Y1343660D02*
D03*
X2742184Y1778762D02*
D03*
X2554224Y1764792D02*
D03*
X2550414Y1753779D02*
D03*
X2740914Y1763014D02*
D03*
X2547112Y1645158D02*
D03*
X2577846Y1599438D02*
D03*
X2649728Y1742186D02*
D03*
X2668524Y1842554D02*
D03*
X2521289Y1800098D02*
D03*
X2648458Y1885442D02*
D03*
X2574036Y1573276D02*
D03*
X2766098Y1765338D02*
D03*
X2771648Y1882394D02*
D03*
X2512314Y1852930D02*
D03*
X2494026Y1673352D02*
D03*
X2504948Y1684274D02*
D03*
X2464308Y1646936D02*
D03*
X2541270Y1702308D02*
D03*
X2530094Y1965390D02*
D03*
X2591054D02*
D03*
Y1845310D02*
D03*
X2469678Y1844512D02*
D03*
X2469388Y1950212D02*
D03*
X2496566Y1964944D02*
D03*
X2735326Y1639062D02*
D03*
X2577846Y1533144D02*
D03*
X2707076Y1924304D02*
D03*
X2458212D02*
D03*
X2681732Y1921002D02*
D03*
X2812034Y1824258D02*
D03*
X2576576Y1588800D02*
D03*
X2861818Y1943862D02*
D03*
X2498598Y1941322D02*
D03*
X2504694Y1763522D02*
D03*
X2822194Y1918660D02*
D03*
X2536000Y1676750D02*
D03*
X2527554Y1642618D02*
D03*
X2613739Y1935730D02*
D03*
X2812750Y1931000D02*
D03*
X2572258Y1634490D02*
D03*
X2485136Y1710182D02*
D03*
X2425946Y2050542D02*
D03*
X2596604Y2040928D02*
D03*
X2663642Y2000504D02*
D03*
X2590546D02*
D03*
X2687828Y2013712D02*
D03*
X1479042Y1391412D02*
D03*
X1443736Y1527810D02*
D03*
X1424690Y1503220D02*
D03*
X1646900Y1478836D02*
D03*
X1502410Y1130808D02*
D03*
X2298700Y1931924D02*
D03*
X1955038Y1928876D02*
D03*
X2278634Y1925574D02*
D03*
X2564130Y1815084D02*
D03*
X2059940Y1834134D02*
D03*
X2001266Y1899412D02*
D03*
X2598420Y1780540D02*
D03*
X2589530Y1088390D02*
D03*
X2552526Y1074594D02*
D03*
X1569720Y1880616D02*
D03*
X1611884Y1971548D02*
D03*
X1725168Y1595374D02*
D03*
X1403604Y1612646D02*
D03*
X1369314Y1775460D02*
D03*
X1323086Y1786636D02*
D03*
X1373378Y1022858D02*
D03*
X1368806Y1785112D02*
D03*
X1312245Y1793494D02*
D03*
X1270508Y1090422D02*
D03*
X1395222Y2003044D02*
D03*
X1436878Y1869186D02*
D03*
X1326896Y1255522D02*
D03*
X1323594Y1941322D02*
D03*
X1471638Y1911896D02*
D03*
X1540256Y1772666D02*
D03*
X1592580Y1753362D02*
D03*
X1591818Y1721104D02*
D03*
X1513078Y1775714D02*
D03*
X1549654Y1296670D02*
D03*
X1279398D02*
D03*
X1312418Y1880870D02*
D03*
X1651762Y1775968D02*
D03*
X1312926Y1260602D02*
D03*
X1330198Y1391158D02*
D03*
X2465832Y1060704D02*
D03*
X2389124Y1348994D02*
D03*
X2377948Y1345946D02*
D03*
X1555750Y1852168D02*
D03*
X2449087Y1690859D02*
D03*
X1692910Y1885188D02*
D03*
X2439162Y1672082D02*
D03*
X1670558Y1871472D02*
D03*
X2479548Y1810004D02*
D03*
X1613154Y1960545D02*
D03*
X2482558Y1858010D02*
D03*
X2504941Y1806963D02*
D03*
X1634714Y1952244D02*
D03*
X1575600Y1899412D02*
D03*
X2590800Y1805648D02*
D03*
X1636522Y1877568D02*
D03*
X2474722Y1637538D02*
D03*
X1615948Y1876298D02*
D03*
X2577846Y1478534D02*
D03*
X1615706Y1884680D02*
D03*
X2562737Y1468735D02*
D03*
X1615948Y1846620D02*
D03*
X2394204Y1644904D02*
D03*
X1580896Y1834896D02*
D03*
X1569974Y1826620D02*
D03*
X1735582Y1354074D02*
D03*
X2334768Y1346200D02*
D03*
X1698498Y1393190D02*
D03*
X2326640Y1349248D02*
D03*
X2319710Y1327404D02*
D03*
X1709674D02*
D03*
X1634490Y1549146D02*
D03*
X1631188Y1392682D02*
D03*
X1522730Y1662684D02*
D03*
X2245861Y1606631D02*
D03*
X2281428Y1618996D02*
D03*
X2045208Y1614932D02*
D03*
X1974342Y1685798D02*
D03*
X1519750Y1764538D02*
D03*
X2208784Y1613154D02*
D03*
X1468882Y1709928D02*
D03*
X1435862Y1721358D02*
D03*
X1461722Y1676448D02*
D03*
X2324608Y1618742D02*
D03*
X2569710Y1829562D02*
D03*
X2101596D02*
D03*
X2002790Y2054860D02*
D03*
X2085594Y1973834D02*
D03*
X2110486Y1885334D02*
D03*
X2569972Y1387602D02*
D03*
Y1439164D02*
D03*
X2427224Y1609852D02*
D03*
X2170684Y1651762D02*
D03*
X2350008Y1467612D02*
D03*
X2325341Y1383792D02*
D03*
X1784096Y1603502D02*
D03*
X1906016Y1388618D02*
D03*
X2299462Y1369314D02*
D03*
X1871980Y1447800D02*
D03*
X2207768Y1437894D02*
D03*
X1877568Y1414018D02*
D03*
X2251456Y1516126D02*
D03*
X1898904Y1468120D02*
D03*
X1871726Y1464310D02*
D03*
X2313940Y1517396D02*
D03*
X1352804Y1782572D02*
D03*
X1301496Y1783842D02*
D03*
X1379301Y1266190D02*
D03*
X2350008Y916686D02*
D03*
X1630000Y1360000D02*
D03*
X1535000Y1366750D02*
D03*
X1535250Y1378000D02*
D03*
Y1412500D02*
D03*
X1493250Y1437000D02*
D03*
X1491500Y1420000D02*
D03*
X1492500Y1403750D02*
D03*
X1501750Y1400000D02*
D03*
X1473500Y1364250D02*
D03*
X1424250Y1405750D02*
D03*
X1433000Y1462500D02*
D03*
X1389250Y1414500D02*
D03*
X1636750Y1222000D02*
D03*
X1059250Y950250D02*
D03*
X904750D02*
D03*
X947500Y814250D02*
D03*
X904750Y1285000D02*
D03*
X931750Y1585250D02*
D03*
X818000Y1585500D02*
D03*
X968000Y2146000D02*
D03*
X968500Y2172000D02*
D03*
X763250Y2204000D02*
D03*
X689250Y2132250D02*
D03*
X562500Y2184500D02*
D03*
X842750Y2405750D02*
D03*
X803500Y2412000D02*
D03*
X1516500Y2384250D02*
D03*
X1508250Y2327750D02*
D03*
X795500Y2384750D02*
D03*
X792250Y2404000D02*
D03*
X1318750Y2385500D02*
D03*
X1420250Y2384750D02*
D03*
X1638000D02*
D03*
X1600000Y2339250D02*
D03*
X1246000Y2339500D02*
D03*
X1766500Y2187000D02*
D03*
X904250Y1520750D02*
D03*
X1105750Y1475250D02*
D03*
X931250Y1304750D02*
D03*
X1014250Y1159250D02*
D03*
X1387000Y1044750D02*
D03*
X1651000Y839000D02*
D03*
X1740000Y838500D02*
D03*
X1722000Y890000D02*
D03*
X2708500Y1159250D02*
D03*
X2744500Y1199500D02*
D03*
X2711000Y1208500D02*
D03*
X2859750Y1135250D02*
D03*
X2857000Y1167250D02*
D03*
X2827290Y1164400D02*
D03*
X2769000Y1247500D02*
D03*
X2789174Y1185672D02*
D03*
X2801000Y1192250D02*
D03*
X2802500Y1224000D02*
D03*
X2770000Y1136000D02*
D03*
X1568750Y1606250D02*
D03*
X1386500Y1551000D02*
D03*
X1832250Y1318250D02*
D03*
X1899250Y1333500D02*
D03*
X1905750Y1318750D02*
D03*
X1945000Y1342750D02*
D03*
X1827250Y1422250D02*
D03*
X1841250Y1429000D02*
D03*
X1944750Y1422750D02*
D03*
X1798250Y1486500D02*
D03*
X1906000Y1510750D02*
D03*
X1796000Y1912750D02*
D03*
X1365000Y1947250D02*
D03*
X1364750Y1902000D02*
D03*
X1410500Y1889500D02*
D03*
X1418250Y1911500D02*
D03*
X1409500Y1902000D02*
D03*
X1412500Y1937250D02*
D03*
X1423750D02*
D03*
X1498750Y1847500D02*
D03*
X1529000Y1889500D02*
D03*
X1449750Y1773250D02*
D03*
X1414500Y1726500D02*
D03*
X1513000Y1700250D02*
D03*
X1428000Y1703750D02*
D03*
X1454571Y1690332D02*
D03*
X1449000Y1703250D02*
D03*
X1476250Y1678000D02*
D03*
X1490500Y1682000D02*
D03*
X1632000Y1764250D02*
D03*
X1575250Y1776000D02*
D03*
X1422250Y1765000D02*
D03*
X1404750Y1778500D02*
D03*
X1358250Y1836250D02*
D03*
X1366250Y1844750D02*
D03*
X1579000Y1917250D02*
D03*
X1607566Y1949704D02*
D03*
X2167250Y1859750D02*
D03*
X2387500Y1929000D02*
D03*
X2536250Y2029500D02*
D03*
X2497750Y1954000D02*
D03*
X2428500Y1994250D02*
D03*
X2531500Y1981500D02*
D03*
X2548750Y1908250D02*
D03*
X2743750Y1982500D02*
D03*
X2703750Y1974000D02*
D03*
X2705000Y2015250D02*
D03*
X2798500Y2026750D02*
D03*
X2815250Y1992000D02*
D03*
X2662000Y1458000D02*
D03*
X2606250Y1445750D02*
D03*
X2474750Y1296750D02*
D03*
X2524500Y1377250D02*
D03*
X2404750Y1294250D02*
D03*
X2368500Y1293750D02*
D03*
X2368250Y1342250D02*
D03*
X2360750Y1334750D02*
D03*
X2280750Y1439500D02*
D03*
X2309250Y1459000D02*
D03*
X2313250Y1471750D02*
D03*
X2270750Y1462500D02*
D03*
X2244500Y1547500D02*
D03*
X2307750Y1505250D02*
D03*
X2307500Y1558750D02*
D03*
X2314250Y1673750D02*
D03*
X2374000Y1582250D02*
D03*
X2386500Y1721750D02*
D03*
X2548250Y1773500D02*
D03*
X2498250Y1721750D02*
D03*
X2519873Y1631080D02*
D03*
X2513750Y1595750D02*
D03*
X2557000Y1592500D02*
D03*
X2558500Y1602750D02*
D03*
X2572750Y1518750D02*
D03*
X2512000Y1424750D02*
D03*
X2150500Y1859750D02*
D03*
X2559000Y1935750D02*
D03*
X1343500Y1819250D02*
D03*
X1346750Y1839250D02*
D03*
X1353500Y1868500D02*
D03*
Y1858750D02*
D03*
X1365250Y1868250D02*
D03*
X2376750Y1645000D02*
D03*
X2404000Y1349000D02*
D03*
X2231500Y1464000D02*
D03*
X949750Y1453250D02*
D03*
X1348750Y2566000D02*
D03*
X1552500Y2567500D02*
D03*
X1402250Y1084250D02*
D03*
X2817500Y858000D02*
D03*
X2753250Y1211750D02*
D03*
X2817000Y1965000D02*
D03*
X2499500Y1980000D02*
D03*
X2042750Y1943750D02*
D03*
X2015750Y1974000D02*
D03*
X1904750Y1495000D02*
D03*
X1838250Y1518500D02*
D03*
X1832000Y1502000D02*
D03*
X1797250Y1406750D02*
D03*
X1831750Y1393750D02*
D03*
X1841750Y1394250D02*
D03*
X1840250Y1336000D02*
D03*
X1394250Y1963500D02*
D03*
X2232750Y1413500D02*
D03*
X2280500Y1404250D02*
D03*
X2279111Y1418069D02*
D03*
X2404000Y1325000D02*
D03*
X2387250Y1375600D02*
D03*
X2365750Y1429500D02*
D03*
X2401500Y1422500D02*
D03*
X2489500Y1339250D02*
D03*
X2603750Y1426250D02*
D03*
X2575000Y1557250D02*
D03*
X2527250Y1558250D02*
D03*
X2360750Y1692000D02*
D03*
X2362750Y1673750D02*
D03*
X2279250Y1428000D02*
D03*
M02*
