%FSLAX44Y44*%
%MOMM*%
G71*
G01*
G75*
G04 Layer_Physical_Order=4*
G04 Layer_Color=16711680*
%ADD10R,1.1000X1.7000*%
%ADD11R,1.5500X0.4500*%
%ADD12R,1.7000X1.1000*%
%ADD13R,1.4000X2.1000*%
%ADD14R,1.2000X1.2000*%
%ADD15R,1.2000X1.2000*%
%ADD16O,0.3000X2.5400*%
%ADD17O,2.5400X0.3000*%
%ADD18R,2.1000X1.4000*%
%ADD19R,1.5500X0.5500*%
%ADD20O,1.7000X0.3500*%
%ADD21O,1.5500X0.2500*%
%ADD22O,0.2500X1.5500*%
%ADD23R,0.5000X3.1000*%
%ADD24R,2.0000X2.5000*%
%ADD25R,2.0000X3.3000*%
%ADD26O,2.1000X0.4500*%
%ADD27R,0.7000X2.0000*%
%ADD28R,1.0000X2.0000*%
%ADD29R,1.2000X2.0000*%
%ADD30R,1.5000X2.0000*%
%ADD31R,2.0000X3.5000*%
%ADD32R,2.0000X1.8000*%
%ADD33C,0.1500*%
%ADD34R,1.5000X1.5000*%
%ADD35C,1.5000*%
%ADD36R,1.5000X1.5000*%
%ADD37C,1.3500*%
%ADD38R,1.2500X1.2500*%
%ADD39C,1.6000*%
%ADD40R,1.6000X1.6000*%
%ADD41C,1.2000*%
%ADD42O,1.5240X4.0640*%
%ADD43O,4.0640X1.5240*%
%ADD44O,1.5240X4.3180*%
%ADD45C,4.7600*%
%ADD46R,1.6900X1.6900*%
%ADD47C,1.6900*%
%ADD48C,1.5240*%
%ADD49C,4.5000*%
%ADD50C,0.7100*%
%ADD51C,1.0160*%
%ADD52C,0.2540*%
%ADD53C,1.9160*%
G04:AMPARAMS|DCode=54|XSize=2.424mm|YSize=2.424mm|CornerRadius=0mm|HoleSize=0mm|Usage=FLASHONLY|Rotation=0.000|XOffset=0mm|YOffset=0mm|HoleType=Round|Shape=Relief|Width=0.254mm|Gap=0.254mm|Entries=4|*
%AMTHD54*
7,0,0,2.4240,1.9160,0.2540,45*
%
%ADD54THD54*%
%ADD55C,1.8160*%
G04:AMPARAMS|DCode=56|XSize=2.274mm|YSize=2.274mm|CornerRadius=0mm|HoleSize=0mm|Usage=FLASHONLY|Rotation=0.000|XOffset=0mm|YOffset=0mm|HoleType=Round|Shape=Relief|Width=0.254mm|Gap=0.254mm|Entries=4|*
%AMTHD56*
7,0,0,2.2740,1.7660,0.2540,45*
%
%ADD56THD56*%
%ADD57C,2.0160*%
G04:AMPARAMS|DCode=58|XSize=2.524mm|YSize=2.524mm|CornerRadius=0mm|HoleSize=0mm|Usage=FLASHONLY|Rotation=0.000|XOffset=0mm|YOffset=0mm|HoleType=Round|Shape=Relief|Width=0.254mm|Gap=0.254mm|Entries=4|*
%AMTHD58*
7,0,0,2.5240,2.0160,0.2540,45*
%
%ADD58THD58*%
%ADD59C,1.7660*%
%ADD60O,1.7780X4.3180*%
%ADD61O,4.3180X1.7780*%
%AMTHOVALD62*
21,1,2.7940,2.2860,0,0,270.0*
1,1,2.2860,0.0000,1.3970*
1,1,2.2860,0.0000,-1.3970*
21,0,2.7940,1.7780,0,0,270.0*
1,0,1.7780,0.0000,1.3970*
1,0,1.7780,0.0000,-1.3970*
4,0,4,-0.0898,1.3072,-0.8980,2.1154,-0.7184,2.2950,0.0898,1.4868,-0.0898,1.3072,0.0*
4,0,4,-0.0898,-1.4868,0.7184,-2.2950,0.8980,-2.1154,0.0898,-1.3072,-0.0898,-1.4868,0.0*
4,0,4,-0.0898,1.4868,0.7184,2.2950,0.8980,2.1154,0.0898,1.3072,-0.0898,1.4868,0.0*
4,0,4,-0.0898,-1.3072,-0.8980,-2.1154,-0.7184,-2.2950,0.0898,-1.4868,-0.0898,-1.3072,0.0*
%
%ADD62THOVALD62*%

%ADD63C,4.2760*%
%ADD64C,2.1060*%
G04:AMPARAMS|DCode=65|XSize=2.424mm|YSize=2.424mm|CornerRadius=0mm|HoleSize=0mm|Usage=FLASHONLY|Rotation=0.000|XOffset=0mm|YOffset=0mm|HoleType=Round|Shape=Relief|Width=0.254mm|Gap=0.254mm|Entries=4|*
%AMTHD65*
7,0,0,2.4240,1.9160,0.2540,45*
%
%ADD65THD65*%
%ADD66C,1.9160*%
%ADD67C,4.2160*%
%ADD68C,2.2060*%
%ADD69C,2.0160*%
%ADD70C,1.3160*%
G04:AMPARAMS|DCode=71|XSize=1.824mm|YSize=1.824mm|CornerRadius=0mm|HoleSize=0mm|Usage=FLASHONLY|Rotation=0.000|XOffset=0mm|YOffset=0mm|HoleType=Round|Shape=Relief|Width=0.254mm|Gap=0.254mm|Entries=4|*
%AMTHD71*
7,0,0,1.8240,1.3160,0.2540,45*
%
%ADD71THD71*%
G04:AMPARAMS|DCode=72|XSize=2.324mm|YSize=2.324mm|CornerRadius=0mm|HoleSize=0mm|Usage=FLASHONLY|Rotation=0.000|XOffset=0mm|YOffset=0mm|HoleType=Round|Shape=Relief|Width=0.254mm|Gap=0.254mm|Entries=4|*
%AMTHD72*
7,0,0,2.3240,1.8160,0.2540,45*
%
%ADD72THD72*%
%AMTHOVALD73*
21,1,2.5400,2.2860,0,0,90.0*
1,1,2.2860,0.0000,-1.2700*
1,1,2.2860,0.0000,1.2700*
21,0,2.5400,1.7780,0,0,90.0*
1,0,1.7780,0.0000,-1.2700*
1,0,1.7780,0.0000,1.2700*
4,0,4,0.0898,-1.1802,0.8980,-1.9884,0.7184,-2.1680,-0.0898,-1.3598,0.0898,-1.1802,0.0*
4,0,4,0.0898,1.3598,-0.7184,2.1680,-0.8980,1.9884,-0.0898,1.1802,0.0898,1.3598,0.0*
4,0,4,0.0898,-1.3598,-0.7184,-2.1680,-0.8980,-1.9884,-0.0898,-1.1802,0.0898,-1.3598,0.0*
4,0,4,0.0898,1.1802,0.8980,1.9884,0.7184,2.1680,-0.0898,1.3598,0.0898,1.1802,0.0*
%
%ADD73THOVALD73*%

%AMTHOVALD74*
21,1,2.5400,2.2860,0,0,180.0*
1,1,2.2860,1.2700,0.0000*
1,1,2.2860,-1.2700,0.0000*
21,0,2.5400,1.7780,0,0,180.0*
1,0,1.7780,1.2700,0.0000*
1,0,1.7780,-1.2700,0.0000*
4,0,4,1.1802,0.0898,1.9884,0.8980,2.1680,0.7184,1.3598,-0.0898,1.1802,0.0898,0.0*
4,0,4,-1.3598,0.0898,-2.1680,-0.7184,-1.9884,-0.8980,-1.1802,-0.0898,-1.3598,0.0898,0.0*
4,0,4,1.3598,0.0898,2.1680,-0.7184,1.9884,-0.8980,1.1802,-0.0898,1.3598,0.0898,0.0*
4,0,4,-1.1802,0.0898,-1.9884,0.8980,-2.1680,0.7184,-1.3598,-0.0898,-1.1802,0.0898,0.0*
%
%ADD74THOVALD74*%

%ADD75O,1.7780X4.5720*%
G04:AMPARAMS|DCode=76|XSize=4.784mm|YSize=4.784mm|CornerRadius=0mm|HoleSize=0mm|Usage=FLASHONLY|Rotation=0.000|XOffset=0mm|YOffset=0mm|HoleType=Round|Shape=Relief|Width=0.254mm|Gap=0.254mm|Entries=4|*
%AMTHD76*
7,0,0,4.7840,4.2760,0.2540,45*
%
%ADD76THD76*%
G04:AMPARAMS|DCode=77|XSize=2.614mm|YSize=2.614mm|CornerRadius=0mm|HoleSize=0mm|Usage=FLASHONLY|Rotation=0.000|XOffset=0mm|YOffset=0mm|HoleType=Round|Shape=Relief|Width=0.254mm|Gap=0.254mm|Entries=4|*
%AMTHD77*
7,0,0,2.6140,2.1060,0.2540,45*
%
%ADD77THD77*%
G04:AMPARAMS|DCode=78|XSize=2.524mm|YSize=2.524mm|CornerRadius=0mm|HoleSize=0mm|Usage=FLASHONLY|Rotation=0.000|XOffset=0mm|YOffset=0mm|HoleType=Round|Shape=Relief|Width=0.254mm|Gap=0.254mm|Entries=4|*
%AMTHD78*
7,0,0,2.5240,2.0160,0.2540,45*
%
%ADD78THD78*%
D10*
X2770340Y1153160D02*
D03*
X2797340D02*
D03*
X2525230Y1409700D02*
D03*
X2552230D02*
D03*
X2615400Y1477010D02*
D03*
X2642400D02*
D03*
X2615400Y1426210D02*
D03*
X2642400D02*
D03*
X2271560Y1532890D02*
D03*
X2244560D02*
D03*
Y1477010D02*
D03*
X2271560D02*
D03*
X2242020Y1445000D02*
D03*
X2269020D02*
D03*
X2327110Y1572260D02*
D03*
X2354110D02*
D03*
X2530310Y1617980D02*
D03*
X2557310D02*
D03*
X2775420Y1209040D02*
D03*
X2802420D02*
D03*
X1632750Y1748790D02*
D03*
X1605750D02*
D03*
X1440980Y1793240D02*
D03*
X1413980D02*
D03*
X1422870Y1845310D02*
D03*
X1449870D02*
D03*
X1422870Y1870710D02*
D03*
X1449870D02*
D03*
X2354110Y1602740D02*
D03*
X2327110D02*
D03*
X2552230Y1450340D02*
D03*
X2525230D02*
D03*
X1351750Y1962150D02*
D03*
X1378750D02*
D03*
X1534630Y1804670D02*
D03*
X1561630D02*
D03*
X831380Y2433320D02*
D03*
X804380D02*
D03*
D12*
X1477010Y1406690D02*
D03*
Y1379690D02*
D03*
X2767330Y2037880D02*
D03*
Y2010880D02*
D03*
X2447290Y2021370D02*
D03*
Y1994370D02*
D03*
X2350770Y1321600D02*
D03*
Y1294600D02*
D03*
X2386330Y1321600D02*
D03*
Y1294600D02*
D03*
X2421890Y1321600D02*
D03*
Y1294600D02*
D03*
X2493010Y1321600D02*
D03*
Y1294600D02*
D03*
Y1428280D02*
D03*
Y1401280D02*
D03*
X2265680Y1373340D02*
D03*
Y1400340D02*
D03*
X2386330Y1599400D02*
D03*
Y1626400D02*
D03*
X2626360Y1598460D02*
D03*
Y1571460D02*
D03*
X2498090Y1626400D02*
D03*
Y1599400D02*
D03*
X2524760Y1721650D02*
D03*
Y1694650D02*
D03*
X2473960Y1721650D02*
D03*
Y1694650D02*
D03*
X2402840Y1721650D02*
D03*
Y1694650D02*
D03*
X2341880Y1720380D02*
D03*
Y1693380D02*
D03*
X2032000Y1872780D02*
D03*
Y1845780D02*
D03*
X2067560Y1872780D02*
D03*
Y1845780D02*
D03*
X2057400Y1916900D02*
D03*
Y1943900D02*
D03*
X2797810Y1965160D02*
D03*
Y1992160D02*
D03*
X2482850Y1980730D02*
D03*
Y1953730D02*
D03*
X1856740Y1394930D02*
D03*
Y1421930D02*
D03*
Y1493050D02*
D03*
Y1466050D02*
D03*
X1882140Y1481290D02*
D03*
Y1508290D02*
D03*
Y1308570D02*
D03*
Y1335570D02*
D03*
X1856740D02*
D03*
Y1308570D02*
D03*
X1446530Y1452410D02*
D03*
Y1425410D02*
D03*
X1497330Y1695920D02*
D03*
Y1722920D02*
D03*
X1461770Y1786090D02*
D03*
Y1813090D02*
D03*
X1507490D02*
D03*
Y1786090D02*
D03*
X1548130Y1892770D02*
D03*
Y1919770D02*
D03*
X1497330Y1892770D02*
D03*
Y1919770D02*
D03*
X1441450D02*
D03*
Y1892770D02*
D03*
X2386330Y1423200D02*
D03*
Y1396200D02*
D03*
X1624330Y1909280D02*
D03*
Y1936280D02*
D03*
D33*
X2570222Y1269750D02*
X2571250Y1270778D01*
Y1262118D02*
Y1270778D01*
Y1262118D02*
X2698059Y1135309D01*
X2570222Y1269750D02*
X2571250D01*
X2700892Y1149858D02*
X2727706D01*
X2570336Y1280414D02*
X2700892Y1149858D01*
X2473960Y1280414D02*
X2570336D01*
X2677715Y1177036D02*
X2801366D01*
X2571543Y1283208D02*
X2677715Y1177036D01*
X2554224Y1283208D02*
X2571543D01*
X2252900Y1404150D02*
X2268220D01*
X2249500Y1400750D02*
X2252900Y1404150D01*
X2249500Y1400250D02*
Y1400750D01*
X2232750Y1387250D02*
X2271678D01*
X2208776Y1411224D02*
X2232750Y1387250D01*
X1880362Y1411224D02*
X2208776D01*
X2271678Y1387250D02*
X2278634Y1394206D01*
X2249250Y1396250D02*
Y1400000D01*
X2249500Y1400250D01*
X2279543Y1394500D02*
X2280682D01*
Y1394568D01*
X2280611D02*
X2280682D01*
X2278861Y1393818D02*
X2279543Y1394500D01*
X2263820Y1372750D02*
X2268220Y1377150D01*
X2250250Y1372750D02*
X2263820D01*
X2279186Y1362500D02*
X2300478Y1383792D01*
X2242250Y1362500D02*
X2279186D01*
X2230049Y1374701D02*
X2242250Y1362500D01*
X2232750Y1359750D02*
X2289898D01*
X1945006Y1357000D02*
X2291037D01*
X1845513Y1354250D02*
X2292176D01*
X1842762Y1351500D02*
X2293315D01*
X1840021Y1348740D02*
X2312453D01*
X2214500Y1378000D02*
X2232750Y1359750D01*
X1940566Y1361440D02*
X1945006Y1357000D01*
X1839404Y1360359D02*
X1845513Y1354250D01*
X1838101Y1356161D02*
X1842762Y1351500D01*
X1835351Y1353411D02*
X1840021Y1348740D01*
X2207230Y1392520D02*
X2214500Y1385250D01*
Y1378000D02*
Y1385250D01*
X2196223Y1403777D02*
X2207230Y1392770D01*
Y1392520D02*
Y1392770D01*
X1841527Y1403777D02*
X2196223D01*
X2206000Y1379982D02*
Y1389750D01*
X2194724Y1401026D02*
X2206000Y1389750D01*
X1881086Y1401026D02*
X2194724D01*
X2293349Y1351534D02*
X2315718D01*
X2293315Y1351500D02*
X2293349Y1351534D01*
X2292254Y1354328D02*
X2321560D01*
X2292176Y1354250D02*
X2292254Y1354328D01*
X2291787Y1357750D02*
X2321680D01*
X2291037Y1357000D02*
X2291787Y1357750D01*
X2289898Y1359750D02*
X2299462Y1369314D01*
X2321680Y1357750D02*
X2332800Y1368871D01*
X2230049Y1374701D02*
X2230049D01*
X2196320Y1408430D02*
X2230049Y1374701D01*
X1835912Y1408430D02*
X2196320D01*
X2692908Y1913636D02*
X2693022Y1913750D01*
X2675457Y1913636D02*
X2692908D01*
X2693022Y1913750D02*
X2694250D01*
X2694750Y1865250D02*
X2716908Y1843092D01*
Y1778636D02*
Y1843092D01*
X2615400Y1490900D02*
X2627000Y1502500D01*
X2615400Y1477010D02*
Y1490900D01*
X2628430Y1445019D02*
X2634500Y1451089D01*
Y1507478D01*
X2628430Y1440421D02*
Y1445019D01*
Y1440421D02*
X2631230Y1437621D01*
Y1416972D02*
Y1437621D01*
X2623058Y1408800D02*
X2631230Y1416972D01*
X2617216Y1524762D02*
X2634500Y1507478D01*
X2323153Y1635000D02*
X2341250D01*
X2322851Y1635301D02*
X2323153Y1635000D01*
X2345491Y1622044D02*
X2351786D01*
X2337524Y1630011D02*
X2345491Y1622044D01*
X2355558Y1646212D02*
X2367026Y1634744D01*
X2350000Y1634750D02*
Y1640578D01*
Y1634750D02*
X2353016Y1631734D01*
X2359114D01*
X2356104Y1637284D02*
X2358644D01*
X2352466Y1643462D02*
X2358644Y1637284D01*
X2359114Y1631734D02*
X2366772Y1624076D01*
X2173224Y1649730D02*
X2362962D01*
X2192487Y1655301D02*
X2382520D01*
X2217420Y1658620D02*
X2388698D01*
X2322641Y1630011D02*
X2337524D01*
X2332566Y1640578D02*
X2350000D01*
X2331012Y1643462D02*
X2352466D01*
X2091144Y1646212D02*
X2355558D01*
X2223516Y1662430D02*
X2436406D01*
X2277364Y1665732D02*
X2490470D01*
X2324400Y1638000D02*
X2329987D01*
X2332566Y1640578D01*
X2328352Y1640802D02*
X2331012Y1643462D01*
X2382520Y1655301D02*
X2385471Y1652350D01*
X2388698Y1658620D02*
X2394204Y1653114D01*
X2324348Y1638052D02*
X2324400Y1638000D01*
X2609810Y1570190D02*
X2618740D01*
X2606055Y1573945D02*
X2609810Y1570190D01*
X2644440Y1597190D02*
X2655750Y1608500D01*
X2010743Y1569720D02*
X2250440D01*
X1957193Y1516170D02*
X2010743Y1569720D01*
X1954920Y1516170D02*
X1957193D01*
X1941625Y1502875D02*
X1954920Y1516170D01*
X1520850Y1962150D02*
X1569720D01*
X1507458Y1975542D02*
X1520850Y1962150D01*
X1503750Y1975542D02*
X1507458D01*
X1503750D02*
Y1977250D01*
X1492250Y1992750D02*
X1690490D01*
X1488948Y1989448D02*
X1492250Y1992750D01*
X1488948Y1969516D02*
Y1989448D01*
X1690490Y1992750D02*
X1805940Y2108200D01*
X2428339Y1683661D02*
X2456296D01*
X2420871Y1691129D02*
X2428339Y1683661D01*
X2536000Y1733360D02*
Y1735500D01*
X2504694Y1763522D02*
X2536000Y1734500D01*
X2537822Y1743321D02*
X2577809Y1703334D01*
X2537822Y1743321D02*
Y1751929D01*
X2540571Y1744460D02*
X2580559Y1704473D01*
X2540571Y1744460D02*
Y1754061D01*
X2577809Y1628864D02*
Y1703334D01*
X2580559Y1626311D02*
Y1704473D01*
X2507625Y1782126D02*
X2537822Y1751929D01*
X2196022Y1782126D02*
X2507625D01*
X2378202Y1609852D02*
X2427224D01*
X2372614Y1615440D02*
X2378202Y1609852D01*
X2381600Y1599400D02*
X2385000Y1596000D01*
X2381600Y1599400D02*
X2386330D01*
X2397760Y1634744D02*
X2410004Y1626250D01*
X2408000D02*
X2410004D01*
X2315113Y1583500D02*
Y1584327D01*
Y1583500D02*
X2315528D01*
X2311351Y1578800D02*
X2312549D01*
X2308950Y1581201D02*
X2311351Y1578800D01*
X2308950Y1581201D02*
Y1582399D01*
X2306995Y1584354D02*
X2308950Y1582399D01*
X2315528Y1583500D02*
X2316734Y1584706D01*
X2315506Y1590119D02*
X2319236Y1593850D01*
X2265638Y1590119D02*
X2315506D01*
X2242274Y1584354D02*
X2306995D01*
X2534666Y1674666D02*
Y1678686D01*
X2527554Y1667554D02*
X2534666Y1674666D01*
X2527554Y1642618D02*
Y1667554D01*
X2542250Y1686500D02*
X2544000Y1684750D01*
Y1675320D02*
Y1684750D01*
X2541351Y1672671D02*
X2544000Y1675320D01*
X2564000Y1376804D02*
Y1377750D01*
X2563876Y1376680D02*
X2564000Y1376804D01*
X2516642Y1350000D02*
X2628478D01*
X2515616Y1351026D02*
X2516642Y1350000D01*
X2526438Y1345437D02*
X2619977D01*
X2524700Y1343700D02*
X2526438Y1345437D01*
X2500300Y1343700D02*
X2524700D01*
X2498562Y1345437D02*
X2500300Y1343700D01*
X2514500Y1349250D02*
Y1349910D01*
X2515616Y1351026D01*
X2464750Y1379000D02*
X2498562Y1345437D01*
X2472651Y1385750D02*
X2472701Y1385800D01*
X2467499Y1385750D02*
X2472651D01*
X2466799Y1385050D02*
X2467499Y1385750D01*
X2344712Y1346492D02*
X2383270Y1385050D01*
X2466799D01*
X2479561Y1383538D02*
X2538178D01*
X2477299Y1385800D02*
X2479561Y1383538D01*
X2472701Y1385800D02*
X2477299D01*
X2454750Y2060000D02*
X2457096Y2057654D01*
X2532192Y1885442D02*
X2648458D01*
X2515000Y1868250D02*
X2532192Y1885442D01*
X2512500Y1868250D02*
X2515000D01*
X2512314Y1852930D02*
X2541778Y1882394D01*
X2388250Y1689250D02*
X2393650Y1694650D01*
X2406099Y1680250D02*
X2406139Y1680210D01*
X2391936Y1680250D02*
X2406099D01*
X2391896Y1680210D02*
X2391936Y1680250D01*
X2181185Y1785366D02*
X2286341Y1680210D01*
X2406139D02*
X2431034D01*
X2439162Y1672082D01*
X2180336Y1762760D02*
X2277364Y1665732D01*
X2143252Y1742694D02*
X2223516Y1662430D01*
X2394204Y1644904D02*
Y1653114D01*
X2391156Y1639316D02*
X2448306D01*
X2385471Y1645001D02*
X2391156Y1639316D01*
X2477500Y1681500D02*
Y1690250D01*
X2473750Y1694000D02*
X2477500Y1690250D01*
X2046750Y1904500D02*
X2059150Y1916900D01*
X2046000Y1872750D02*
Y1901500D01*
X2067560Y1872780D02*
Y1884060D01*
X2067625Y1884125D01*
X2048250Y1903500D02*
X2067625Y1884125D01*
X1914906Y1953260D02*
X2321814D01*
X1907621Y1960545D02*
X1914906Y1953260D01*
X2321814D02*
X2416751Y1858323D01*
X2057654Y1931924D02*
X2298700D01*
X1991614Y1925574D02*
X2278634D01*
X2037334Y1432560D02*
X2050394Y1419500D01*
X2324000Y1406491D02*
Y1438750D01*
Y1406491D02*
X2340318Y1390172D01*
X2320500Y1441000D02*
X2323250D01*
X1835732Y1408250D02*
X1835912Y1408430D01*
X1826750Y1408250D02*
X1835732D01*
X2555250Y1619000D02*
Y1637000D01*
X2557250Y1638750D02*
Y1644120D01*
X2227627Y1407700D02*
X2238799D01*
X2221353Y1413974D02*
X2227627Y1407700D01*
X2244019Y1412920D02*
X2276278D01*
X2238799Y1407700D02*
X2244019Y1412920D01*
X2069901Y1422599D02*
X2264782D01*
X2244560Y1430690D02*
Y1446530D01*
X2256250Y1429000D02*
X2256750Y1428500D01*
X2287123Y1411732D02*
X2294890D01*
X2278861Y1393818D02*
Y1393979D01*
X2278634Y1394206D02*
X2278861Y1393979D01*
X2050288Y1442212D02*
X2069901Y1422599D01*
X2403750Y1539000D02*
X2421500Y1556750D01*
X2342377Y1539000D02*
X2403750D01*
X2340623Y1537246D02*
X2342377Y1539000D01*
X2336025Y1537246D02*
X2340623D01*
X2332774Y1540497D02*
X2336025Y1537246D01*
X2332774Y1540497D02*
Y1544457D01*
X2262378Y1565402D02*
X2311400D01*
X2254883Y1572897D02*
X2262378Y1565402D01*
X2340623Y1548346D02*
Y1548377D01*
X2327110Y1561890D02*
X2340623Y1548377D01*
X2327110Y1561890D02*
Y1572260D01*
X2399706Y1545250D02*
X2415206Y1560750D01*
X2371500Y1545250D02*
X2399706D01*
X2343874Y1545095D02*
X2371226D01*
X2296160Y1560068D02*
X2311234Y1544994D01*
X2340623Y1548346D02*
X2343874Y1545095D01*
X2247652Y1587369D02*
X2314071D01*
X2337816Y1402588D02*
Y1530604D01*
X2262197Y1576053D02*
X2264650Y1573600D01*
X2250440Y1569720D02*
X2252980Y1567180D01*
X1998709Y1576053D02*
X2262197D01*
X2264650Y1573600D02*
X2267500Y1570750D01*
X2263048Y1592709D02*
X2265638Y1590119D01*
X2255858Y1608328D02*
X2309368D01*
X2275078Y1612646D02*
X2281428Y1618996D01*
X2217420Y1612646D02*
X2275078D01*
X2007758Y1572897D02*
X2254883D01*
X1483741Y1580515D02*
X2235581D01*
X2226310Y1565910D02*
X2232660D01*
X2140204Y1479804D02*
X2226310Y1565910D01*
X1905254Y1479804D02*
X2140204D01*
X2236470Y1562100D02*
X2245652D01*
X2232660Y1565910D02*
X2236470Y1562100D01*
X2231898Y1556258D02*
X2263902D01*
X2229358Y1558798D02*
X2231898Y1556258D01*
X2263902D02*
X2267712Y1560068D01*
X1445260Y1774190D02*
X1449070D01*
X1640971Y1932940D02*
X1642110D01*
X1637630Y1936280D02*
X1640971Y1932940D01*
X1643380Y1944338D02*
X1680940Y1906778D01*
X1625600Y1909280D02*
Y1923034D01*
X1624330Y1909280D02*
X1625600D01*
X1478280Y1390650D02*
X1479042Y1391412D01*
X1421506Y1390650D02*
X1478280D01*
X1328420Y1188720D02*
X1369060D01*
X1308100Y1209040D02*
X1328420Y1188720D01*
X1305560Y1209040D02*
X1308100D01*
X2802420Y1203960D02*
Y1217261D01*
X2433990Y2021370D02*
X2447290D01*
X2770340Y1134780D02*
Y1148080D01*
X2642400Y1426210D02*
Y1439510D01*
X2498260Y1721650D02*
X2525000D01*
X2498090Y1599400D02*
X2511391D01*
X2525230Y1437039D02*
Y1450340D01*
X2386090Y1721400D02*
X2403750D01*
X2525230Y1409700D02*
Y1423000D01*
X2340750Y1721650D02*
X2365341D01*
X2479709Y1294600D02*
X2493010D01*
X2386330Y1423200D02*
X2399630D01*
X2408589Y1294600D02*
X2421890D01*
X2044099Y1943900D02*
X2057400D01*
X2244560Y1532890D02*
Y1546190D01*
X2050750Y1845780D02*
X2067560D01*
X2032000D02*
X2048500D01*
X1624330Y1936280D02*
X1637630D01*
X1843439Y1466050D02*
X1856740D01*
X1632750Y1748790D02*
Y1762090D01*
X1882140Y1335570D02*
X1895441D01*
X1843439Y1308570D02*
X1856740D01*
X1351750Y1948849D02*
Y1962150D01*
X1497330Y1695920D02*
X1510630D01*
X1433230Y1452410D02*
X1446530D01*
X2433990Y1994370D02*
X2447290D01*
X2057400Y1916900D02*
X2059150D01*
X2271560Y1463710D02*
Y1477010D01*
X2032000Y1872780D02*
X2046000Y1872750D01*
X1843439Y1394930D02*
X1856740D01*
X1446410Y1425410D02*
X1446530D01*
X2408250Y1321600D02*
X2421890D01*
X2552230Y1399540D02*
Y1409700D01*
X2549690Y1397000D02*
X2552230Y1399540D01*
X2507488Y1397000D02*
X2549690D01*
X2503208Y1401280D02*
X2507488Y1397000D01*
X2493010Y1401280D02*
X2503208D01*
X2422144D02*
X2493010D01*
X2417064Y1396200D02*
X2422144Y1401280D01*
X2386330Y1396200D02*
X2417064D01*
X2498090Y1626400D02*
X2507958D01*
X2511298Y1623060D01*
Y1619250D02*
Y1623060D01*
X2004060Y966470D02*
X2013712Y976122D01*
X2075688D01*
X2085340Y966470D01*
X2096436Y931164D02*
X2111930Y915670D01*
X2064766Y931164D02*
X2096436D01*
X2029460Y966470D02*
X2064766Y931164D01*
X996188Y2136648D02*
X1045210Y2185670D01*
X975868Y2136648D02*
X996188D01*
X933450Y2094230D02*
X975868Y2136648D01*
X2648712Y2078990D02*
X2663698Y2064004D01*
X2431542Y2078990D02*
X2648712D01*
X2393650Y1694650D02*
X2402840D01*
X1314450Y1658256D02*
X1370694Y1714500D01*
X1314450Y1591310D02*
Y1658256D01*
X1406398Y1789430D02*
X1412710D01*
X1835912Y1446780D02*
Y1468120D01*
X1841462Y1473670D01*
X2140166D01*
X2188234Y1521738D01*
X2265402D01*
X2269744Y1517396D01*
X1899920Y1432560D02*
X2037334D01*
X1860550Y1442212D02*
X2050288D01*
X2281936Y1439753D02*
Y1440180D01*
X2300478Y1417320D02*
Y1464818D01*
X2294890Y1411732D02*
X2300478Y1417320D01*
X1890776Y1429512D02*
X1894840Y1425448D01*
X1841500Y1429512D02*
X1890776D01*
X2321560Y1500632D02*
Y1533800D01*
X1834134Y1434846D02*
X1856486Y1457198D01*
X1831594Y1434846D02*
X1834134D01*
X1833504Y1374780D02*
X1865762D01*
X1886458Y1395476D01*
X2170938D01*
X1466850Y1565910D02*
X1512062Y1520698D01*
X2697788Y2057654D02*
X2700782Y2054660D01*
X2457096Y2057654D02*
X2697788D01*
X704850Y2094230D02*
X735584Y2063496D01*
Y1975612D02*
Y2063496D01*
Y1975612D02*
X824484Y1886712D01*
X1362629Y1850217D02*
X1368044Y1844802D01*
X1317507Y1820672D02*
X1347052Y1850217D01*
X812492Y1820672D02*
X1317507D01*
X781050Y1789230D02*
X812492Y1820672D01*
X2376000Y2013712D02*
X2612644D01*
X1470914Y1919770D02*
X1497330D01*
X1459776Y1930908D02*
X1470914Y1919770D01*
X1378750Y1939593D02*
Y1962150D01*
X1461770Y1786090D02*
X1470698D01*
X2327110Y1586900D02*
Y1602740D01*
X1466626Y1692686D02*
X1476967D01*
X1365250Y1591310D02*
X1466626Y1692686D01*
X1404366Y1691386D02*
X1454658D01*
X1339850Y1626870D02*
X1404366Y1691386D01*
X1339850Y1591310D02*
Y1626870D01*
X1482598Y1581658D02*
X1483741Y1580515D01*
X2235581D02*
X2236724Y1581658D01*
X1947164Y1524508D02*
X1998709Y1576053D01*
X2314071Y1587369D02*
X2316734Y1584706D01*
X2245062Y1589959D02*
X2247652Y1587369D01*
X1763095Y1589959D02*
X2245062D01*
X1718310Y1634744D02*
X1763095Y1589959D01*
X1548384Y1634744D02*
X1718310D01*
X2239420Y1587208D02*
X2242274Y1584354D01*
X1718856Y1587208D02*
X2239420D01*
X1705102Y1600962D02*
X1718856Y1587208D01*
X1573538Y1600962D02*
X1705102D01*
X2419604Y2007870D02*
X2671008D01*
X1678686Y1943862D02*
X1693418Y1929130D01*
X1927606D01*
X882650Y1789230D02*
X910875Y1817455D01*
X1325711D01*
X1346628Y1838372D01*
X1497330Y1722920D02*
X1507490Y1733080D01*
X1441450Y1919770D02*
X1454950Y1906270D01*
X1503680D01*
X1510792Y1913382D01*
Y1917446D01*
X1502111Y1923111D02*
X1516181D01*
X1519522Y1919770D01*
X1548130D01*
X1492250Y1565910D02*
X1529334Y1528826D01*
X1561338Y1224026D02*
X1562354Y1223010D01*
X1586230D01*
X1598930Y1210310D01*
X1596698Y1537049D02*
X1615907Y1556258D01*
X1685798D01*
X1695450Y1565910D01*
X1314450Y1520444D02*
X1387602Y1447292D01*
X1314450Y1520444D02*
Y1565910D01*
X1238250Y1495552D02*
Y1565910D01*
Y1495552D02*
X1385372Y1348430D01*
X1561280Y1198060D02*
X1573530Y1210310D01*
X1452886Y1198060D02*
X1561280D01*
X1425702Y1225243D02*
X1452886Y1198060D01*
X1425702Y1225243D02*
Y1234948D01*
X1538630Y1200810D02*
X1548130Y1210310D01*
X1463650Y1200810D02*
X1538630D01*
X1451273Y1213187D02*
X1463650Y1200810D01*
X1506474Y1339342D02*
X1600200D01*
X1684782Y1254760D01*
Y1219962D02*
Y1254760D01*
X1675130Y1210310D02*
X1684782Y1219962D01*
X2482850Y1953730D02*
X2497750D01*
X2530310Y1617980D02*
Y1631281D01*
X2456296Y1683661D02*
X2458836Y1686201D01*
X2448323Y1933448D02*
X2452895Y1938020D01*
X2413762Y1933448D02*
X2448323D01*
X2388870Y1958340D02*
X2413762Y1933448D01*
X2474214Y2000758D02*
X2500884D01*
X795528Y2063750D02*
X931926Y1927352D01*
X795528Y2063750D02*
Y2099564D01*
X787400Y2107692D02*
X795528Y2099564D01*
X743712Y2107692D02*
X787400D01*
X730250Y2094230D02*
X743712Y2107692D01*
X1378750Y1962150D02*
Y1965198D01*
X910336Y2015744D02*
X1371202D01*
X831850Y2094230D02*
X910336Y2015744D01*
X2693416Y1374394D02*
X2845308D01*
X755650Y1789230D02*
X819096Y1852676D01*
X1344055D01*
X1344346Y1852968D01*
X1384877D02*
X1408684Y1829160D01*
X1289050Y1591310D02*
X1298702Y1581658D01*
X1346200D01*
X1349502Y1584960D01*
Y1626616D01*
X1399032Y1676146D01*
X2633980Y1371600D02*
Y1442720D01*
Y1371600D02*
X2640076Y1365504D01*
X2835402D01*
X1430312Y1776006D02*
X1430528Y1776222D01*
X1430312Y1718856D02*
Y1776006D01*
X1416050Y1704594D02*
X1430312Y1718856D01*
X1393444Y1704594D02*
X1416050D01*
X1375918Y1722120D02*
X1393444Y1704594D01*
X1367790Y1722120D02*
X1375918D01*
X1263650Y1617980D02*
X1367790Y1722120D01*
X1263650Y1591310D02*
Y1617980D01*
X1238250Y1591310D02*
Y1601978D01*
X1362456Y1726184D01*
X1381252D01*
X1398270Y1709166D01*
X1411224D01*
X1422146Y1720088D01*
X1263650Y1565910D02*
X1273302Y1575562D01*
X1321308D01*
X1327150Y1569720D01*
Y1564640D02*
Y1569720D01*
Y1564640D02*
X1335532Y1556258D01*
X1347216D01*
X1355598Y1564640D01*
Y1571752D01*
X1359256Y1575410D01*
X1370990D01*
X1380998Y1565402D01*
X2490470Y1665732D02*
X2510536Y1645666D01*
X1759598Y1762760D02*
X2180336D01*
X1639240Y1883118D02*
X1759598Y1762760D01*
X1632166Y1883118D02*
X1639240D01*
X1630426Y1881378D02*
X1632166Y1883118D01*
X1630426Y1869948D02*
Y1881378D01*
X2618740Y1597190D02*
X2644440D01*
X2457196Y1701911D02*
Y1739900D01*
X2465070Y1747774D01*
X2497836D01*
X2416556Y1939036D02*
X2472690Y1995170D01*
X2699757Y1956505D02*
X2703764Y1952498D01*
X2677442Y1956505D02*
X2699757D01*
X2673435Y1952498D02*
X2677442Y1956505D01*
X2583434Y1952498D02*
X2673435D01*
X2579878Y1956054D02*
X2583434Y1952498D01*
X2482342Y1646174D02*
X2491151Y1637365D01*
X2521965Y1640840D02*
Y1678432D01*
X2527808Y1684274D01*
X2524760Y1694650D02*
X2548610D01*
X2557272Y1685988D01*
X2672917Y1916176D02*
X2675457Y1913636D01*
X2426208Y1916176D02*
X2672917D01*
X2570860Y1876827D02*
X2799155D01*
X2426970Y1939036D02*
X2432050Y1944116D01*
X2475230D01*
X2483574Y1935772D01*
X2526068D01*
X2534493Y1944197D01*
X2701463D01*
X2707894Y1937766D01*
X1477995Y1707896D02*
X1581912D01*
X1628140Y1661668D01*
X1782572D01*
X1814439Y1629801D01*
X2317351D01*
X2319891Y1627261D01*
X2328281D01*
X2336771Y1618771D01*
X1529588Y1867662D02*
X1536954Y1875028D01*
X1584960D01*
X1589278Y1870710D01*
X1618742D01*
X1622552Y1874520D01*
Y1879600D01*
X1628821Y1885869D01*
X1640379D01*
X1753073Y1773174D01*
X2178304D01*
X2275840Y1675638D01*
X1605750Y1748790D02*
Y1758772D01*
X2493010Y1428280D02*
X2503770D01*
X2537968Y1538800D02*
Y1633982D01*
X2534920Y1637030D02*
X2537968Y1633982D01*
X2477645Y1631988D02*
X2480272Y1634615D01*
X2455634Y1631988D02*
X2477645D01*
X2448306Y1639316D02*
X2455634Y1631988D01*
X2385471Y1645001D02*
Y1652350D01*
X2187615Y1660173D02*
X2192487Y1655301D01*
X2083025Y1660173D02*
X2187615D01*
X2007870Y1735328D02*
X2083025Y1660173D01*
X1713484Y1735328D02*
X2007870D01*
X1579372Y1869440D02*
X1713484Y1735328D01*
X2281682Y1404874D02*
X2297214Y1389342D01*
X2330450D01*
X2332800Y1386992D01*
Y1368871D02*
Y1386992D01*
X2217085Y1621455D02*
X2219835Y1618704D01*
X2224494D01*
X2313686Y1596644D02*
X2314918Y1597876D01*
Y1620992D01*
X2311364Y1624546D02*
X2314918Y1620992D01*
X1559306Y1702308D02*
X1605026Y1656588D01*
X2267712Y1560068D02*
X2296160D01*
X2075180Y1971548D02*
X2085594Y1961134D01*
X2098294D01*
X2169160Y2032000D01*
X2575560Y1524762D02*
X2617216D01*
X2570988Y1580134D02*
Y1604518D01*
X2583434Y1616964D01*
Y1711960D01*
X2544826Y1750568D02*
X2583434Y1711960D01*
X2544826Y1750568D02*
Y1757172D01*
X2511552Y1790446D02*
X2544826Y1757172D01*
X2466340Y1790446D02*
X2511552D01*
X2456180Y1800606D02*
X2466340Y1790446D01*
X1982724Y1800606D02*
X2456180D01*
X1887091Y1896239D02*
X1982724Y1800606D01*
X1590931Y1896239D02*
X1887091D01*
X1577848Y1883156D02*
X1590931Y1896239D01*
X641584Y2403856D02*
X772414D01*
X631170Y2414270D02*
X641584Y2403856D01*
X2395474Y1331976D02*
X2396998Y1330452D01*
Y1207770D02*
Y1330452D01*
X2085340Y966470D02*
X2102834Y948977D01*
X2149126D01*
X2166620Y966470D01*
X2513838Y1136142D02*
X2544318Y1105662D01*
X2801620D01*
X2383790Y1634744D02*
X2397760D01*
X2382721Y1635813D02*
X2383790Y1634744D01*
X2184864Y1657423D02*
X2189736Y1652550D01*
X2105934Y1657423D02*
X2184864D01*
X2101062Y1652550D02*
X2105934Y1657423D01*
X2549144Y1383284D02*
X2573274Y1359154D01*
X2628138D01*
X2715514Y1271778D01*
X2467356Y1287018D02*
X2473960Y1280414D01*
X2467356Y1287018D02*
Y1315466D01*
X2552140Y1450250D02*
X2567750D01*
X2376370Y1321600D02*
X2386330D01*
X2371290Y1316520D02*
X2376370Y1321600D01*
X2370490Y1316520D02*
X2371290D01*
X2543594Y1388954D02*
X2557412D01*
X2538178Y1383538D02*
X2543594Y1388954D01*
X2344712Y1339380D02*
Y1346492D01*
X2341880Y1336548D02*
X2344712Y1339380D01*
X1906016Y1336548D02*
X2341880D01*
X1899412Y1343152D02*
X1906016Y1336548D01*
X1832864Y1343152D02*
X1899412D01*
X1825244Y1335532D02*
X1832864Y1343152D01*
X1790700Y1335532D02*
X1825244D01*
X2350770Y1321600D02*
X2358521D01*
X2369858Y1332937D01*
X1350010Y1249680D02*
X1457960D01*
X1471930Y1235710D01*
X1214120Y1878330D02*
X1217676Y1874774D01*
X1407414D01*
X2699004Y1185672D02*
X2789174D01*
X2746424Y1484200D02*
X2837180Y1393444D01*
X2662428Y1484200D02*
X2746424D01*
X2597404Y1400048D02*
Y1435862D01*
Y1400048D02*
X2673604Y1323848D01*
X2875750D01*
X1325880Y1764792D02*
X1409192D01*
X1313813Y1776859D02*
X1325880Y1764792D01*
X743712Y1776859D02*
X1313813D01*
X741680Y1778891D02*
X743712Y1776859D01*
X741680Y1778891D02*
Y1794002D01*
X736600Y1799082D02*
X741680Y1794002D01*
X714702Y1799082D02*
X736600D01*
X704850Y1789230D02*
X714702Y1799082D01*
X1376642Y1743370D02*
X1404750Y1715262D01*
X772420Y1743370D02*
X1376642D01*
X738553Y1777236D02*
X772420Y1743370D01*
X738553Y1777236D02*
Y1780927D01*
X730250Y1789230D02*
X738553Y1780927D01*
X745998Y1784858D02*
Y1844294D01*
Y1784858D02*
X751246Y1779610D01*
X796830D01*
X806450Y1789230D01*
X909774Y1867154D02*
X1353000D01*
X1337919Y1806587D02*
Y1823059D01*
X1336040Y1804708D02*
X1337919Y1806587D01*
X929678Y1804708D02*
X1336040D01*
X923798Y1798828D02*
X929678Y1804708D01*
X923798Y1789008D02*
Y1798828D01*
X914400Y1779610D02*
X923798Y1789008D01*
X866870Y1779610D02*
X914400D01*
X857250Y1789230D02*
X866870Y1779610D01*
X887984Y1893570D02*
X1352804D01*
X745236Y2036318D02*
X887984Y1893570D01*
X745236Y2036318D02*
Y2098040D01*
X751078Y2103882D01*
X771398D01*
X781050Y2094230D01*
X946177Y1801957D02*
X1338580D01*
X933450Y1789230D02*
X946177Y1801957D01*
X908050Y1789230D02*
X929078Y1810258D01*
X1331976D01*
X847090Y2104390D02*
X857250Y2094230D01*
X828040Y2104390D02*
X847090D01*
X822198Y2098548D02*
X828040Y2104390D01*
X822198Y2044446D02*
Y2098548D01*
Y2044446D02*
X931164Y1935480D01*
X1364488D01*
X2674620Y1269962D02*
Y1274011D01*
X2614623Y1334008D02*
X2674620Y1274011D01*
X2567940Y1334008D02*
X2614623D01*
X2558288Y1324356D02*
X2567940Y1334008D01*
X2529332Y1324356D02*
X2558288D01*
X2665222Y1120648D02*
X2712212D01*
X2633472Y1152398D02*
X2665222Y1120648D01*
X2584030Y1291082D02*
X2610612D01*
X2676652Y1225042D01*
X2604211Y1324597D02*
X2703154Y1225654D01*
X2696972Y1219492D02*
X2700020Y1216444D01*
X2670363Y1219492D02*
X2696972D01*
X2609949Y1279906D02*
X2670363Y1219492D01*
X2551938Y1339596D02*
X2619710D01*
X2715768Y1243538D01*
Y1226820D02*
Y1243538D01*
X2712848Y1278508D02*
X2722263D01*
X2575560Y1415796D02*
X2712848Y1278508D01*
X2575560Y1415796D02*
Y1423800D01*
X2823532Y1199320D02*
Y1216557D01*
X2502662Y1334770D02*
X2554224Y1283208D01*
X1569036Y1801622D02*
X1574500Y1799250D01*
X1561630Y1804670D02*
Y1820461D01*
X2489708Y971804D02*
Y1064768D01*
X2369312Y851408D02*
X2489708Y971804D01*
X2102492Y851408D02*
X2369312D01*
X2089030Y864870D02*
X2102492Y851408D01*
X1993392Y1003554D02*
X2180336D01*
X2217420Y966470D01*
X2361438Y1317752D02*
X2375408Y1331722D01*
X2361438Y1313180D02*
Y1317752D01*
X2358898Y1310640D02*
X2361438Y1313180D01*
X2303780Y1310640D02*
X2358898D01*
X2093214Y1100074D02*
X2303780Y1310640D01*
X2093214Y1086612D02*
Y1100074D01*
X2087880Y1081278D02*
X2093214Y1086612D01*
X1924812Y1081278D02*
X2087880D01*
X1915160Y1090930D02*
X1924812Y1081278D01*
X1833880Y1090930D02*
X2064766Y1321816D01*
X2325370D01*
X2336546Y1332992D01*
X2346960D01*
X2349754Y1335786D01*
Y1343152D01*
X2350262Y1343660D01*
X2728214Y1764792D02*
X2742184Y1778762D01*
X2554224Y1764792D02*
X2728214D01*
X2550414Y1753779D02*
X2555331Y1758696D01*
X2733548D01*
X2737866Y1763014D01*
X2740914D01*
X2544102Y1642148D02*
X2547112Y1645158D01*
X2544102Y1612862D02*
Y1642148D01*
Y1612862D02*
X2552446Y1604518D01*
X2559304D01*
X2577846Y1599438D02*
Y1602740D01*
X2649728Y1674622D01*
Y1742186D01*
X2598890Y1772920D02*
X2668524Y1842554D01*
X2564130Y1772920D02*
X2598890D01*
X2536952Y1800098D02*
X2564130Y1772920D01*
X2521289Y1800098D02*
X2536952D01*
X2574036Y1573276D02*
X2766098Y1765338D01*
X2769020Y1879766D02*
X2771648Y1882394D01*
X2645639Y1879766D02*
X2769020D01*
X2643011Y1882394D02*
X2645639Y1879766D01*
X2541778Y1882394D02*
X2643011D01*
X2494026Y1673352D02*
X2504948Y1684274D01*
X2464308Y1646936D02*
X2471166Y1653794D01*
X2494280D01*
X2507958Y1640116D01*
X2514092Y1653540D02*
X2516378Y1651254D01*
X2514092Y1653540D02*
Y1702308D01*
X2541270D01*
X2530094Y1965390D02*
X2591054D01*
X2590256Y1844512D02*
X2591054Y1845310D01*
X2469678Y1844512D02*
X2590256D01*
X2469388Y1950212D02*
Y1958594D01*
X2475738Y1964944D01*
X2496566D01*
X2629408Y1533144D02*
X2735326Y1639062D01*
X2577846Y1533144D02*
X2629408D01*
X2576576Y1588800D02*
X2812034Y1824258D01*
X2858732Y1946948D02*
X2861818Y1943862D01*
X2504224Y1946948D02*
X2858732D01*
X2498598Y1941322D02*
X2504224Y1946948D01*
X2811620Y1908086D02*
X2822194Y1918660D01*
X2568374Y1935730D02*
X2613739D01*
X2687395Y1937982D02*
X2694107Y1931271D01*
X2812500D01*
X2572258Y1634490D02*
Y1699108D01*
X2561183Y1710182D02*
X2572258Y1699108D01*
X2485136Y1710182D02*
X2561183D01*
X2425946Y2050542D02*
X2586990D01*
X2590546Y2000504D02*
X2663642D01*
X1339850Y1565910D02*
X1352100Y1578160D01*
X1423104D01*
X1431544Y1569720D01*
Y1540002D02*
Y1569720D01*
Y1540002D02*
X1443736Y1527810D01*
X1660398Y1575562D02*
X1670050Y1565910D01*
X1590040Y1575562D02*
X1660398D01*
X1584198Y1569720D02*
X1590040Y1575562D01*
X602770Y2372720D02*
X616620Y2358870D01*
X631170D01*
X1328928Y1130808D02*
X1502410D01*
X1264666Y1195070D02*
X1328928Y1130808D01*
X1264666Y1195070D02*
Y1224534D01*
X1254760Y1234440D02*
X1264666Y1224534D01*
X958850Y2094230D02*
X1004570D01*
X1096010Y2185670D01*
X2054606Y1928876D02*
X2057654Y1931924D01*
X1955038Y1928876D02*
X2054606D01*
X1981200Y1915160D02*
X1991614Y1925574D01*
X2564130Y1815084D02*
X2606040D01*
X2609088Y1818132D01*
Y1827300D01*
X2606040Y1830348D02*
X2609088Y1827300D01*
X2587230Y1830348D02*
X2606040D01*
X2059940Y1834134D02*
X2080768D01*
X2001266Y1874482D02*
Y1899412D01*
X2482827Y1847263D02*
X2517864D01*
X2523034Y1852432D01*
X2592239D01*
X2613080Y1831591D01*
Y1795199D02*
Y1831591D01*
X2598420Y1780540D02*
X2613080Y1795199D01*
X2589530Y1088390D02*
X2794000Y883920D01*
X2552526Y1074594D02*
X2743200Y883920D01*
X613410Y890270D02*
X638410Y865270D01*
X684530D01*
X709530Y890270D01*
X791210D01*
X613410Y1118870D02*
X638410Y1093870D01*
X689610D01*
X714610Y1118870D01*
X791210D01*
X613410Y1322070D02*
X638410Y1297070D01*
X689610D01*
X714610Y1322070D01*
X791210D01*
X613410Y1525270D02*
X638410Y1500270D01*
X689610D01*
X714610Y1525270D01*
X791210D01*
X1488948Y1969516D02*
X1501394Y1957070D01*
X1550416D01*
X1569974Y1937512D01*
X1569720Y1880616D02*
X1569974Y1880870D01*
X1611884Y1971548D02*
X1796828D01*
X1806480Y1981200D01*
X1707896Y1612646D02*
X1725168Y1595374D01*
X1354582Y1790192D02*
X1369314Y1775460D01*
X1326642Y1790192D02*
X1354582D01*
X1323086Y1786636D02*
X1326642Y1790192D01*
X1373378Y1022858D02*
X1685798D01*
X1695450Y1032510D01*
X1360424Y1793494D02*
X1368806Y1785112D01*
X1312245Y1793494D02*
X1360424D01*
X1270508Y1090422D02*
X1328420Y1032510D01*
X1670050D01*
X1395222Y2003044D02*
Y2027936D01*
X1538478Y2171192D01*
X1748028D01*
X1755140Y2164080D01*
Y2133600D02*
Y2164080D01*
X1473708Y1774432D02*
Y1783080D01*
X1470698Y1786090D02*
X1473708Y1783080D01*
X1422870Y1870710D02*
Y1893532D01*
X1441450Y1912112D01*
Y1919770D01*
X1502918Y1255522D02*
X1522730Y1235710D01*
X1326896Y1255522D02*
X1502918D01*
X1372870Y1941322D02*
X1386840Y1927352D01*
X1456182D01*
X1471638Y1911896D01*
X1540256Y1772666D02*
X1559560Y1753362D01*
X1592580D01*
X1548130Y1235710D02*
X1560094D01*
X1536192Y1721104D02*
X1591818D01*
X1513078Y1744218D02*
X1536192Y1721104D01*
X1513078Y1744218D02*
Y1775714D01*
X1279398Y1296670D02*
X1549654D01*
X1651762Y1775968D02*
Y1787398D01*
X1577048Y1862112D02*
X1651762Y1787398D01*
X1526286Y1862112D02*
X1577048D01*
X1524038Y1864360D02*
X1526286Y1862112D01*
X1524038Y1864360D02*
Y1871980D01*
X1533690Y1881632D01*
X1559560D01*
X1567180Y1889252D01*
X1543304Y1951736D02*
X1567180Y1927860D01*
X1640230Y1245210D02*
X1649730Y1235710D01*
X1580286Y1245210D02*
X1640230D01*
X1565148Y1260348D02*
X1580286Y1245210D01*
X1333246Y1260348D02*
X1565148D01*
X1331722Y1261872D02*
X1333246Y1260348D01*
X1314196Y1261872D02*
X1331722D01*
X1312926Y1260602D02*
X1314196Y1261872D01*
X1330198Y1391158D02*
X1399794Y1321562D01*
X1589278D01*
X1675130Y1235710D01*
X2111930Y864870D02*
X2121582Y855218D01*
X2313178D01*
X2360930Y902970D01*
Y955802D01*
X2465832Y1060704D01*
X2321560Y1090930D02*
X2438146Y1207516D01*
Y1351280D01*
X2431288Y1358138D02*
X2438146Y1351280D01*
X2398268Y1358138D02*
X2431288D01*
X2389124Y1348994D02*
X2398268Y1358138D01*
X2240280Y1090930D02*
X2261362Y1112012D01*
X2319847D01*
X2435352Y1227517D01*
Y1336294D01*
X2428240Y1343406D02*
X2435352Y1336294D01*
X2159000Y1090930D02*
X2210308Y1142238D01*
X2344928D01*
X2432558Y1229868D01*
Y1330960D01*
X2423160Y1340358D02*
X2432558Y1330960D01*
X2368750Y1340358D02*
X2423160D01*
X2339322Y1330132D02*
X2356420D01*
X2328212Y1319022D02*
X2339322Y1330132D01*
X2305812Y1319022D02*
X2328212D01*
X2077720Y1090930D02*
X2305812Y1319022D01*
X1555750Y1852168D02*
X1574800D01*
X1629719Y1797249D01*
Y1788838D02*
Y1797249D01*
Y1788838D02*
X1686785Y1731772D01*
X2005584D01*
X2091144Y1646212D01*
X2449087Y1690859D02*
Y1727906D01*
X2443480Y1733512D02*
X2449087Y1727906D01*
X2238873Y1733512D02*
X2443480D01*
X2184225Y1788160D02*
X2238873Y1733512D01*
X1782318Y1788160D02*
X2184225D01*
X1692910Y1877568D02*
X1782318Y1788160D01*
X1692910Y1877568D02*
Y1885188D01*
X1756664Y1785366D02*
X2181185D01*
X1670558Y1871472D02*
X1756664Y1785366D01*
X1607566Y1949704D02*
X1617988D01*
X1626078Y1957794D01*
X1640332D01*
X1642326Y1955800D01*
X1645158D01*
X1675892Y1925066D01*
X1925066D01*
X2469642Y1817370D02*
X2477008Y1810004D01*
X2479548D01*
X1613154Y1960545D02*
X1907621D01*
X2416751Y1858323D02*
X2482245D01*
X2482558Y1858010D01*
X2502432Y1804454D02*
X2504941Y1806963D01*
X2468918Y1804454D02*
X2502432D01*
X2459811Y1813560D02*
X2468918Y1804454D01*
X2022856Y1813560D02*
X2459811D01*
X1992376Y1844040D02*
X2022856Y1813560D01*
X1976374Y1844040D02*
X1992376D01*
X1901444Y1918970D02*
X1976374Y1844040D01*
X1675638Y1918970D02*
X1901444D01*
X1642364Y1952244D02*
X1675638Y1918970D01*
X1634714Y1952244D02*
X1642364D01*
X1575600Y1899412D02*
X1887903D01*
X1983313Y1804002D01*
X2458368D01*
X2463708Y1798662D01*
X2510232D01*
X2514437Y1805648D02*
X2590800D01*
X2510201Y1801412D02*
X2514437Y1805648D01*
X2466458Y1801412D02*
X2510201D01*
X2458375Y1809496D02*
X2466458Y1801412D01*
X2019504Y1809496D02*
X2458375D01*
X1990700Y1838300D02*
X2019504Y1809496D01*
X1971040Y1838300D02*
X1990700D01*
X1902562Y1906778D02*
X1971040Y1838300D01*
X1680940Y1906778D02*
X1902562D01*
X1636522Y1877568D02*
X1771396Y1742694D01*
X2143252D01*
X2436406Y1662430D02*
X2461298Y1637538D01*
X2474722D01*
X1610106Y1882140D02*
X1615948Y1876298D01*
X1610106Y1882140D02*
Y1887728D01*
X1615867Y1893489D01*
X1789511D01*
X1887220Y1795780D01*
X2195830D01*
X2204466Y1787144D01*
X2507488D01*
X2540571Y1754061D01*
X2567752Y1613504D02*
X2580559Y1626311D01*
X2567752Y1584391D02*
Y1613504D01*
X2577846Y1478534D02*
Y1503934D01*
X1615706Y1884680D02*
X1621765Y1890738D01*
X1709966D01*
X1809750Y1790954D01*
X2187194D01*
X2196022Y1782126D01*
X2565002Y1616058D02*
X2577809Y1628864D01*
X2565002Y1589406D02*
Y1616058D01*
X1615948Y1846620D02*
X1723430Y1739138D01*
X2136902D01*
X2217420Y1658620D01*
X1569720Y1834896D02*
X1580896D01*
X1564386Y1829562D02*
X1569720Y1834896D01*
X1564386Y1819656D02*
Y1829562D01*
Y1819656D02*
X1621536Y1762506D01*
Y1713484D02*
Y1762506D01*
Y1713484D02*
X1642872Y1692148D01*
X1735582Y1354074D02*
X1737669Y1356161D01*
X1838101D01*
X2315718Y1351534D02*
X2323592Y1343660D01*
X2332228D01*
X2334768Y1346200D01*
X1698498Y1393190D02*
X1731329Y1360359D01*
X1839404D01*
X2321560Y1354328D02*
X2326640Y1349248D01*
X1634490Y1549146D02*
X1798066Y1385570D01*
X1865630D01*
X1881086Y1401026D01*
X2340318Y1341120D02*
Y1390172D01*
X2338515Y1339317D02*
X2340318Y1341120D01*
X2321876Y1339317D02*
X2338515D01*
X2312453Y1348740D02*
X2321876Y1339317D01*
X1823840Y1353411D02*
X1835351D01*
X1818872Y1348442D02*
X1823840Y1353411D01*
X1675428Y1348442D02*
X1818872D01*
X1631188Y1392682D02*
X1675428Y1348442D01*
X1522730Y1662684D02*
X1538590Y1646824D01*
X2211362Y1618704D02*
X2217420Y1612646D01*
X2045208Y1614932D02*
X2048980Y1618704D01*
X1631696Y1685798D02*
X1974342D01*
X1611376Y1706118D02*
X1631696Y1685798D01*
X1611376Y1706118D02*
Y1721104D01*
X1587500Y1744980D02*
X1611376Y1721104D01*
X1539308Y1744980D02*
X1587500D01*
X1519750Y1764538D02*
X1539308Y1744980D01*
X2247514Y1599984D02*
X2255858Y1608328D01*
X1796175Y1599984D02*
X2247514D01*
X1787106Y1609052D02*
X1796175Y1599984D01*
X2205012Y1609382D02*
X2208784Y1613154D01*
X1473931Y1701546D02*
X1478280D01*
X1468628Y1696243D02*
X1473931Y1701546D01*
X1594775Y1715419D02*
X1630746Y1679448D01*
X1486830Y1715419D02*
X1594775D01*
X1480891Y1721358D02*
X1486830Y1715419D01*
X1435862Y1721358D02*
X1480891D01*
X1461722Y1676448D02*
X1497183Y1640987D01*
X1717855D01*
X1766134Y1592709D01*
X2263048D01*
X2319236Y1593850D02*
Y1613370D01*
X2324608Y1618742D01*
X2320101Y1632551D02*
X2322641Y1630011D01*
X1821595Y1632551D02*
X2320101D01*
X1787398Y1666748D02*
X1821595Y1632551D01*
X1634892Y1666748D02*
X1787398D01*
X1588971Y1712669D02*
X1634892Y1666748D01*
X1480851Y1712669D02*
X1588971D01*
X1475606Y1717914D02*
X1480851Y1712669D01*
X2002790Y2054860D02*
X2035302Y2022348D01*
X2134108D01*
X2143760Y2032000D01*
X2085594Y1973834D02*
X2134108Y2022348D01*
X2569972Y1387602D02*
Y1439164D01*
X2171192Y1651762D02*
X2173224Y1649730D01*
X2170684Y1651762D02*
X2171192D01*
X2350008Y1467612D02*
X2381250Y1436370D01*
X2516886D01*
X2524506Y1428750D01*
X2557526D01*
X2563876Y1422400D01*
Y1376680D02*
Y1422400D01*
X2300478Y1383792D02*
X2325341D01*
X1784096Y1603502D02*
X1790365Y1597233D01*
X2253190D01*
X2257848Y1601891D01*
X2277959D01*
X2281936Y1597914D01*
X1906016Y1388618D02*
X2192250D01*
X1871980Y1447800D02*
X2192782D01*
X2202688Y1437894D01*
X2207768D01*
X1877568Y1414018D02*
X1880362Y1411224D01*
X2204466Y1469136D02*
X2251456Y1516126D01*
X1899920Y1469136D02*
X2204466D01*
X1898904Y1468120D02*
X1899920Y1469136D01*
X1871726Y1464310D02*
X1873504Y1462532D01*
X2203196D01*
X2235708Y1495044D01*
X2309876D01*
X2313940Y1499108D01*
Y1517396D01*
X1351202Y1780970D02*
X1352804Y1782572D01*
X1304368Y1780970D02*
X1351202D01*
X1301496Y1783842D02*
X1304368Y1780970D01*
X1300480Y1266190D02*
X1379301D01*
X1294892Y1260602D02*
X1300480Y1266190D01*
X1294892Y1223772D02*
Y1260602D01*
X1280160Y1209040D02*
X1294892Y1223772D01*
X2054860Y966470D02*
X2067814D01*
X2103374Y930910D01*
X2335784D01*
X2350008Y916686D01*
X1498770Y1919770D02*
X1499108Y1920108D01*
X1502111Y1923111D01*
X1497330Y1919770D02*
X1498770D01*
X1499108D01*
Y1920108D01*
Y1934750D01*
X1507490Y1733080D02*
Y1763268D01*
Y1781340D01*
Y1786090D01*
X1555491Y1781340D02*
X1561630Y1787479D01*
Y1802892D02*
Y1804670D01*
Y1802892D02*
X1569036Y1801622D01*
X1561630Y1787479D02*
Y1802892D01*
X2458212Y1924304D02*
X2678430D01*
X2707076D01*
X2678430D02*
X2681732Y1921002D01*
X2613489Y1937982D02*
X2687395D01*
X2425946Y2050542D02*
X2586990D01*
X2690876D01*
X2586990D02*
X2596604Y2040928D01*
X2612644Y2013712D02*
X2687828D01*
X1422870Y1845310D02*
Y1869186D01*
Y1870710D01*
Y1869186D02*
X1436878D01*
X2271560Y1532890D02*
X2272030Y1545590D01*
X2557250Y1644120D02*
X2557272Y1644142D01*
Y1685988D01*
X1504000Y1359916D02*
X1629750D01*
X1535532Y1367468D02*
X1646900Y1478836D01*
X1584198Y1553198D02*
Y1569720D01*
X1481000Y1450000D02*
X1584198Y1553198D01*
X1493824Y1436574D02*
X1594299Y1537049D01*
X1596698D01*
X1481000Y1440250D02*
Y1450000D01*
X1477010Y1406690D02*
X1485440D01*
X1491500Y1412750D01*
Y1420000D01*
X1494250Y1411611D02*
Y1414901D01*
X1497050Y1417701D01*
Y1424200D01*
X1481000Y1440250D02*
X1497050Y1424200D01*
X1492500Y1404000D02*
Y1409861D01*
X1494250Y1411611D01*
X1473500Y1364250D02*
X1474871D01*
Y1375871D01*
X1478690Y1379690D01*
X1477010D02*
X1478690D01*
X1495250Y1350566D02*
X1506474Y1339342D01*
X1602994Y1500494D02*
Y1530604D01*
X1504442Y1401942D02*
X1602994Y1500494D01*
X1504442Y1401942D02*
Y1402192D01*
X1502000Y1399750D02*
X1504442Y1402192D01*
X1495250Y1350566D02*
Y1377000D01*
X1501500Y1383250D01*
X1425500Y1404500D02*
X1446410Y1425410D01*
X1433000Y1452640D02*
X1433230Y1452410D01*
X1433000Y1452640D02*
Y1462500D01*
X1289050Y1500950D02*
Y1565910D01*
Y1500950D02*
X1425250Y1364750D01*
X1624070Y1222000D02*
X1636750D01*
X1560094Y1235710D02*
X1570044Y1225760D01*
X1614490D01*
X1619250Y1221000D01*
X1636000D01*
X602770Y2428120D02*
X777380D01*
X632170Y2384570D02*
X795000D01*
X803500Y2412500D02*
X803750Y2412750D01*
Y2432250D01*
X777380Y2428120D02*
X802750Y2402750D01*
X777964Y2366120D02*
X796620D01*
X802750Y2372250D01*
Y2402750D01*
X772500Y2404000D02*
X792250D01*
X831450Y2434050D02*
X843000Y2422500D01*
Y2406000D02*
Y2422500D01*
X2700020Y1216444D02*
X2728306D01*
X2744500Y1200250D01*
Y1199500D02*
Y1200250D01*
X2590800Y1277366D02*
X2660416Y1207750D01*
X2710500D01*
X2769000Y1247000D02*
Y1247500D01*
X2753771Y1247000D02*
X2769000D01*
X2722263Y1278508D02*
X2753771Y1247000D01*
X2628478Y1350000D02*
X2741228Y1237250D01*
X2802839D01*
X2823532Y1216557D01*
X2619977Y1345437D02*
X2732165Y1233250D01*
X2802000D01*
X2802250Y1217431D02*
X2802420Y1217261D01*
X2802000Y1233250D02*
X2816352Y1218898D01*
X2801372Y1190250D02*
X2801620Y1190498D01*
X2800500Y1190250D02*
X2801372D01*
X2816352Y1153922D02*
Y1218898D01*
X2800500Y1190250D02*
X2801000Y1190750D01*
X2685034Y1196492D02*
X2689776Y1191750D01*
X2797808D01*
X2798308Y1191250D01*
X2802250Y1217431D02*
Y1220750D01*
X2802500Y1221000D01*
Y1224000D01*
X2727706Y1149858D02*
X2748534Y1129030D01*
X2818638D01*
X2770000Y1135119D02*
X2770340Y1134780D01*
X2770000Y1135119D02*
Y1136000D01*
X1403604Y1612646D02*
X1707896D01*
X1569000Y1605500D02*
X1573538Y1600962D01*
X1365000Y1562910D02*
X1424690Y1503220D01*
X1386500Y1551000D02*
Y1553632D01*
X1380998Y1556752D02*
Y1565402D01*
Y1556752D02*
X1386750Y1551000D01*
X1833759Y1318250D02*
X1843439Y1308570D01*
X1832250Y1318250D02*
X1833759D01*
X1709674Y1327404D02*
X2319710D01*
X1895441Y1335570D02*
X1897511Y1333500D01*
X1899250D01*
X1827250Y1421930D02*
X1856740D01*
X1931460Y1413974D02*
X2221353D01*
X1894840Y1425448D02*
X1919986D01*
X1931460Y1413974D01*
X1881500Y1510750D02*
X1887625D01*
X1899875D02*
X1906000D01*
X1887625D02*
X1890125Y1508250D01*
X1897375D01*
X1899875Y1510750D01*
X1838250Y1518750D02*
X1953611D01*
X2007758Y1572897D01*
X1323594Y1941322D02*
X1372870D01*
X1351750Y1948849D02*
X1353349Y1947250D01*
X1365000D01*
X755650Y2094230D02*
X948630Y1901250D01*
X1363000D01*
X1364750Y1899500D01*
X1312418Y1880870D02*
X1413120D01*
X1418250Y1886000D01*
X1410500Y1889500D02*
X1411250Y1888750D01*
X824484Y1886712D02*
X1407462D01*
X1409500Y1888750D01*
X1418250Y1886000D02*
Y1910500D01*
X931926Y1927352D02*
X1382951D01*
X1408803Y1901500D01*
X1413987Y1937250D02*
X1414272Y1937535D01*
X1412500Y1937250D02*
X1413987D01*
X1412750Y1939057D02*
X1414272Y1937535D01*
X1412750Y1939057D02*
Y1974196D01*
X1371202Y2015744D02*
X1412750Y1974196D01*
X1378750Y1939593D02*
X1387435Y1930908D01*
X1459776D01*
X1438986Y1951736D02*
X1543304D01*
X1425439Y1938189D02*
X1438986Y1951736D01*
X1497330Y1881920D02*
Y1892770D01*
Y1881920D02*
X1498750Y1880500D01*
X1441450Y1892770D02*
X1462730D01*
X1493500Y1862000D01*
Y1852750D02*
Y1862000D01*
Y1852750D02*
X1494000D01*
X1498000Y1848750D01*
X1498750Y1847500D02*
Y1880500D01*
X1449870Y1870710D02*
X1467790D01*
X1491250Y1847250D01*
X1449870Y1845310D02*
X1455680Y1839500D01*
X1491500D01*
X1498500Y1846500D01*
X1461770Y1813090D02*
X1471090D01*
X1498750Y1840750D01*
Y1846750D01*
X1507490Y1813090D02*
Y1838510D01*
X1499000Y1847000D02*
X1507490Y1838510D01*
X1534630Y1804670D02*
Y1819120D01*
X1506500Y1847250D02*
X1534630Y1819120D01*
X1491250Y1847250D02*
X1506500D01*
X1548130Y1911630D02*
Y1919770D01*
X1543110Y1906610D02*
X1548130Y1911630D01*
X1534110Y1906610D02*
X1543110D01*
X1521287Y1893787D02*
X1534110Y1906610D01*
X1521287Y1860804D02*
X1561630Y1820461D01*
X1521287Y1860804D02*
Y1893787D01*
X1531770Y1892770D02*
X1548130D01*
X1528500Y1889500D02*
X1531770Y1892770D01*
X1449070Y1774190D02*
X1449750Y1773510D01*
Y1773250D02*
Y1773510D01*
X1414500Y1726500D02*
Y1727734D01*
X1230884Y1759712D02*
X1380788D01*
X1412766Y1727734D01*
X1414500D01*
X1510630Y1695920D02*
X1513000Y1698289D01*
Y1700250D01*
X1428000Y1703750D02*
X1432250D01*
X1446414Y1717914D01*
X1475606D01*
X1454571Y1691299D02*
X1454658Y1691386D01*
X1454571Y1690332D02*
Y1691299D01*
X1440257Y1696243D02*
X1468628D01*
X1438750Y1698000D02*
Y1703750D01*
X1444928Y1709928D01*
X1468882D01*
X1438750Y1697750D02*
X1440257Y1696243D01*
X1449000Y1703250D02*
X1471745D01*
X1472791Y1704296D01*
X1474395D01*
X1477995Y1707896D01*
X1476500Y1677243D02*
X1476507D01*
X1509945Y1643805D01*
X1478280Y1701546D02*
X1484000Y1695826D01*
X1519804Y1674500D02*
X1544730Y1649574D01*
X1484000Y1678500D02*
Y1695826D01*
Y1678500D02*
X1488000Y1674500D01*
X1519804D01*
X1490500Y1682000D02*
Y1684302D01*
Y1681500D02*
X1540744D01*
X1568805Y1653439D01*
X1569974Y1826620D02*
X1577594D01*
X1676252Y1727962D01*
X1632000Y1762841D02*
X1632750Y1762090D01*
X1632000Y1762841D02*
Y1764250D01*
X1414250Y1807994D02*
X1414272Y1807972D01*
X1414250Y1807994D02*
Y1867938D01*
X1407414Y1874774D02*
X1414250Y1867938D01*
X1413250Y1795500D02*
Y1798860D01*
X1412710Y1794960D02*
X1413250Y1795500D01*
X1412710Y1789430D02*
Y1794960D01*
X1440750Y1778700D02*
X1445260Y1774190D01*
X1440750Y1778700D02*
Y1791710D01*
X1439710Y1792750D02*
X1440750Y1791710D01*
X1422146Y1720088D02*
Y1763014D01*
X1422250Y1763118D01*
X1403850Y1778500D02*
X1404750D01*
X1403350Y1778000D02*
X1404750Y1779400D01*
Y1787782D01*
X1406398Y1789430D01*
X1356691Y1836674D02*
X1357115Y1836250D01*
X1358250D01*
X1367992Y1844750D02*
X1368044Y1844802D01*
X1366250Y1844750D02*
X1367992D01*
X1569720Y1962150D02*
X1572750Y1959120D01*
X1575970Y1909280D02*
X1624330D01*
X1572750Y1912500D02*
X1575970Y1909280D01*
X1567180Y1889252D02*
Y1927860D01*
X1569974Y1880870D02*
Y1937512D01*
X1572750Y1912500D02*
Y1959120D01*
X1609865Y1944154D02*
X1610049Y1944338D01*
X1643380D01*
X1579125Y1916875D02*
X1606404Y1944154D01*
X1609865D01*
X2476340Y1853750D02*
X2482827Y1847263D01*
X2387978Y1929000D02*
X2388870Y1929892D01*
X2387500Y1929000D02*
X2387978D01*
X1925066Y1925066D02*
X2032762Y1817370D01*
X2469642D01*
X2602192Y1821142D02*
X2603500Y1822450D01*
X1927606Y1929130D02*
X2035594Y1821142D01*
X2580856Y1823974D02*
X2587230Y1830348D01*
X2080768Y1834134D02*
X2090928Y1823974D01*
X2035594Y1821142D02*
X2602192D01*
X2090928Y1823974D02*
X2580856D01*
X2101596Y1829562D02*
X2569710D01*
X2001266Y1874482D02*
X2021998Y1853750D01*
X2090674Y1841754D02*
X2096262Y1836166D01*
X2314702D01*
X2021998Y1853750D02*
X2476340D01*
X2428500Y1994250D02*
X2433870D01*
X2549414Y1908086D02*
X2811620D01*
X2549250Y1908250D02*
X2549414Y1908086D01*
X2472690Y1995170D02*
X2585244D01*
X2607500Y1962000D02*
X2742334D01*
X2751328Y1953006D01*
X2585244Y1995170D02*
X2604500Y1975914D01*
Y1959000D02*
Y1975914D01*
Y1959000D02*
X2607500Y1962000D01*
X2797810Y1992160D02*
X2815410D01*
X2767330Y2037880D02*
X2787370D01*
X2798500Y2026750D01*
X2642400Y1439510D02*
X2660890Y1458000D01*
X2642400Y1477010D02*
X2661410Y1458000D01*
X2660890D02*
X2661410D01*
X2662000D01*
X2606250Y1444708D02*
Y1445750D01*
X2597404Y1435862D02*
X2606250Y1444708D01*
X2477559Y1296750D02*
X2479709Y1294600D01*
X2474750Y1296750D02*
X2477559D01*
X2408240Y1294250D02*
X2408589Y1294600D01*
X2404750Y1294250D02*
X2408240D01*
X2350770Y1294600D02*
X2351870Y1293500D01*
X2368250D01*
X2385230D02*
X2386330Y1294600D01*
X2368500Y1293500D02*
X2385230D01*
X2369858Y1332937D02*
Y1336040D01*
X2368156Y1342250D02*
X2368250D01*
X2369858Y1336040D02*
X2370518Y1336700D01*
X2370549D01*
X2371375Y1337526D01*
X2398388D01*
X2360750Y1334462D02*
Y1334750D01*
X2356420Y1330132D02*
X2360750Y1334462D01*
X2269250Y1444220D02*
X2271560Y1446530D01*
X2281256Y1439500D02*
X2281936Y1440180D01*
X2280750Y1439500D02*
X2281256D01*
X2300478Y1464818D02*
X2307410Y1471750D01*
X2313250D01*
X2270750Y1462899D02*
X2271560Y1463710D01*
X2270750Y1462500D02*
Y1462899D01*
X2268203Y1457198D02*
X2268451Y1456950D01*
X2277878D01*
X2321560Y1500632D01*
X2244500Y1546250D02*
X2244560Y1546190D01*
X2244500Y1546250D02*
Y1547500D01*
X2319261Y1539350D02*
X2328900D01*
X2337500Y1530750D01*
X2337750D01*
X2311234Y1544994D02*
X2311256D01*
X2316750Y1539500D01*
X2319111D01*
X2319261Y1539350D01*
X2312549Y1578800D02*
X2319528Y1571821D01*
X2310250Y1573250D02*
X2316778Y1566722D01*
X2311400Y1565402D02*
X2314028Y1562774D01*
X2319528Y1561592D02*
Y1571821D01*
Y1561592D02*
X2338324Y1542796D01*
X2316778Y1560453D02*
Y1566722D01*
Y1560453D02*
X2332774Y1544457D01*
X2314028Y1555714D02*
X2314500Y1555242D01*
X2314028Y1555714D02*
Y1562774D01*
X2386330Y1594830D02*
Y1599400D01*
X2374000Y1582500D02*
X2386330Y1594830D01*
X2354110Y1601890D02*
Y1602740D01*
Y1572260D02*
X2364010D01*
X2373875Y1582125D02*
X2374000Y1582000D01*
X2354110Y1601890D02*
X2373875Y1582125D01*
X2364010Y1572260D02*
X2373875Y1582125D01*
X2374000Y1582250D01*
X2377549Y1652550D02*
X2382721Y1647378D01*
X2189736Y1652550D02*
X2377549D01*
X2382721Y1635813D02*
Y1647378D01*
X2365341Y1721650D02*
X2365440Y1721750D01*
X2386500D01*
X2548250Y1771956D02*
Y1773500D01*
X2510232Y1798662D02*
X2535644Y1773250D01*
X2546956D01*
X2548674Y1771533D01*
X2492241Y1721750D02*
X2498250D01*
X2473960Y1721650D02*
X2492341D01*
X2492241Y1721750D02*
X2492341Y1721650D01*
X2530090Y1631500D02*
X2530310Y1631281D01*
X2520925Y1639800D02*
X2521965Y1640840D01*
X2519873Y1631500D02*
X2530090D01*
X2519873Y1631080D02*
Y1631500D01*
X2516408Y1639800D02*
X2520925D01*
X2480272Y1634615D02*
X2515112D01*
X2517547Y1637050D01*
X2491151Y1637365D02*
X2513973D01*
X2516408Y1639800D01*
X2507958Y1640116D02*
X2512834D01*
X2516378Y1643659D02*
Y1651254D01*
X2512834Y1640116D02*
X2516378Y1643659D01*
X2517547Y1637050D02*
X2524716D01*
X2524530Y1637030D02*
X2524550Y1637050D01*
X2524530Y1637030D02*
X2534920D01*
X2511391Y1599400D02*
X2513750Y1597040D01*
Y1595750D02*
Y1597040D01*
X2557000Y1592500D02*
Y1594340D01*
X2541351Y1606899D02*
Y1672671D01*
Y1606899D02*
X2555455Y1592795D01*
X2557272Y1594612D01*
X2558500Y1603714D02*
X2559304Y1604518D01*
X2558500Y1602750D02*
Y1603714D01*
X2507301Y1424750D02*
X2512000D01*
X2503770Y1428280D02*
X2507301Y1424750D01*
X2513750Y1423000D02*
X2525230D01*
X2110486Y1885334D02*
X2136320Y1859500D01*
X2150250D01*
X2682494Y1929892D02*
X2685034Y1932432D01*
X2388870Y1929892D02*
X2682494D01*
X1343500Y1819250D02*
X1345603D01*
X1338580Y1801957D02*
X1343500Y1806877D01*
Y1817146D01*
X1346010Y1819656D01*
X1356517Y1836500D02*
X1356691Y1836674D01*
X1337919Y1823059D02*
X1348560Y1833700D01*
X1349049D01*
X1351849Y1836500D01*
X1356517D01*
X1347052Y1850217D02*
X1362629D01*
X1344346Y1852968D02*
X1384877D01*
X745998Y1844294D02*
X757954Y1856250D01*
X1351000D01*
X1353500Y1858750D01*
X2362962Y1649730D02*
X2372614Y1640078D01*
Y1615440D02*
Y1640078D01*
X2377948Y1345946D02*
X2380488Y1343406D01*
X2428240D01*
X1856486Y1457198D02*
X2268203D01*
X2231500Y1464000D02*
X2244250D01*
X2244560Y1464310D01*
Y1477010D01*
X2559000Y1935750D02*
X2568354D01*
X2767460Y1209040D02*
X2775420D01*
X2764750Y1211750D02*
X2767460Y1209040D01*
X2753000Y1211750D02*
X2753250D01*
X2764750D01*
X2797340Y1153160D02*
X2808000Y1142500D01*
X2821750D01*
X2826750Y1147500D01*
Y1163250D01*
X2797810Y1965160D02*
X2816840D01*
X2743750Y1987300D02*
X2767330Y2010880D01*
X2743750Y1982250D02*
Y1982500D01*
Y1987300D01*
X2482850Y1980730D02*
X2498770D01*
X2043949Y1943750D02*
X2044099Y1943900D01*
X2042750Y1943750D02*
X2043949D01*
X1981200Y1996440D02*
X1994560D01*
X2016500Y1974500D01*
X1882140Y1481290D02*
X1891290D01*
X1904750Y1494750D01*
X1840950Y1493050D02*
X1856740D01*
X1832000Y1502000D02*
X1840950Y1493050D01*
X1831750Y1393542D02*
X1832864Y1392428D01*
X1831750Y1393542D02*
Y1393750D01*
X1832864Y1392428D02*
Y1395114D01*
X1841527Y1403777D01*
X1842760Y1394250D02*
X1843439Y1394930D01*
X1841750Y1394250D02*
X1842760D01*
X1882140Y1308570D02*
X1895070D01*
X1905500Y1319000D01*
X1840430Y1335570D02*
X1856740D01*
X1840250Y1336000D02*
X1843010D01*
X1590141Y1758772D02*
X1590281Y1758912D01*
X1581228Y1758772D02*
X1590141D01*
X1605610Y1758912D02*
X1605750Y1758772D01*
X1590281Y1758912D02*
X1605610D01*
X1568500Y1771500D02*
X1581228Y1758772D01*
X1561750Y1771500D02*
X1568500D01*
X1561630Y1771358D02*
Y1787479D01*
X1507490Y1781340D02*
X1555491D01*
X1484630Y1786090D02*
X1507490D01*
X1465470Y1805250D02*
X1484630Y1786090D01*
X1413250Y1798860D02*
X1419640Y1805250D01*
X1465470D01*
X1378750Y1962150D02*
X1393150D01*
X2234000Y1413750D02*
X2235920Y1415670D01*
X2277170D02*
Y1416170D01*
X2235920Y1415670D02*
X2277170D01*
X2256750Y1428500D02*
X2264290D01*
X2269250Y1433459D01*
Y1444220D01*
X2264782Y1422599D02*
X2281936Y1439753D01*
X2276278Y1412920D02*
X2277449Y1411750D01*
X2286711D01*
X2398388Y1337526D02*
X2404000Y1331914D01*
X2405350Y1324500D02*
X2408250Y1321600D01*
X2404000Y1324750D02*
Y1325000D01*
Y1331914D01*
X2371636Y1396200D02*
X2386330D01*
X2399630Y1423200D02*
X2400331Y1422500D01*
X2401500D01*
X2493010Y1321600D02*
Y1335240D01*
X2489750Y1338500D02*
X2493010Y1335240D01*
X2603710Y1426210D02*
X2615400D01*
X2562737Y1587142D02*
X2565002Y1589406D01*
X2565487Y1582127D02*
X2567752Y1584391D01*
X2565487Y1516293D02*
X2577846Y1503934D01*
X2568448Y1577594D02*
X2570988Y1580134D01*
X2568448Y1531874D02*
X2575560Y1524762D01*
X2562737Y1468735D02*
Y1587142D01*
X2565487Y1516293D02*
Y1582127D01*
X2568448Y1531874D02*
Y1577594D01*
X2527250Y1558250D02*
Y1559102D01*
X2527000Y1559352D02*
X2527250Y1559102D01*
X2527000Y1559352D02*
Y1603548D01*
X2511298Y1619250D02*
X2527000Y1603548D01*
X2421500Y1556750D02*
X2525000D01*
X2415206Y1560750D02*
X2524500D01*
X2376750Y1635980D02*
X2386330Y1626400D01*
X2382100Y1626250D02*
X2391500D01*
X2376750Y1635980D02*
Y1645000D01*
Y1645250D01*
X2286341Y1680210D02*
X2391896D01*
X2341880Y1693380D02*
X2342760Y1692500D01*
X2360500D01*
X2050394Y1419500D02*
X2270000D01*
X2278000Y1427500D01*
X2048980Y1618704D02*
X2211362D01*
X1605026Y1656588D02*
X1776162D01*
X1808204Y1624546D01*
X2311364D01*
X1568805Y1653439D02*
X1769061D01*
X1801045Y1621455D01*
X2217085D01*
X1544730Y1649574D02*
X1765676D01*
X1792586Y1622664D01*
X1982868Y1609382D02*
X2205012D01*
X1975750Y1616500D02*
X1982868Y1609382D01*
X1792586Y1622664D02*
Y1622664D01*
Y1622664D02*
X1798750Y1616500D01*
X1975750D01*
X1538590Y1646824D02*
X1758426D01*
X1798619Y1606631D01*
X2245861D01*
X1509945Y1643805D02*
X1752445D01*
X1787106Y1609144D01*
Y1609052D02*
Y1609144D01*
X1676252Y1727962D02*
X2003288D01*
X2090448Y1640802D01*
X2328352D01*
X1642872Y1692148D02*
X2032852D01*
X2086948Y1638052D01*
X2324348D01*
X1630746Y1679448D02*
X2038302D01*
X2082449Y1635301D01*
X2322851D01*
X2365750Y1402086D02*
X2371636Y1396200D01*
X2365750Y1402086D02*
Y1429500D01*
D34*
X1981200Y1996440D02*
D03*
Y1940560D02*
D03*
Y1828800D02*
D03*
X1096010Y2211070D02*
D03*
X2794000Y909320D02*
D03*
X2743200D02*
D03*
X2692400Y908050D02*
D03*
X1771650Y942340D02*
D03*
X1045210Y2185670D02*
D03*
X991870Y2414270D02*
D03*
D35*
X1981200Y1971040D02*
D03*
X1559560Y2161540D02*
D03*
Y2186940D02*
D03*
X1584960Y2161540D02*
D03*
Y2186940D02*
D03*
X1610360Y2161540D02*
D03*
Y2186940D02*
D03*
X1635760Y2161540D02*
D03*
X1422400D02*
D03*
Y2186940D02*
D03*
X1447800Y2161540D02*
D03*
Y2186940D02*
D03*
X1473200Y2161540D02*
D03*
Y2186940D02*
D03*
X1498600Y2161540D02*
D03*
X1264920D02*
D03*
Y2186940D02*
D03*
X1290320Y2161540D02*
D03*
Y2186940D02*
D03*
X1315720Y2161540D02*
D03*
Y2186940D02*
D03*
X1341120Y2161540D02*
D03*
X1981200Y1915160D02*
D03*
Y1889760D02*
D03*
Y1854200D02*
D03*
X2110740Y966470D02*
D03*
X2085340D02*
D03*
X2192020D02*
D03*
X2166620D02*
D03*
X2029460D02*
D03*
X2004060D02*
D03*
X2240280Y1090930D02*
D03*
X2265680D02*
D03*
X2321560D02*
D03*
X2346960D02*
D03*
X1096010Y2185670D02*
D03*
Y2160270D02*
D03*
X1833880Y1090930D02*
D03*
X1859280D02*
D03*
X1915160D02*
D03*
X1940560D02*
D03*
X1996440D02*
D03*
X2021840D02*
D03*
X2794000Y883920D02*
D03*
Y858520D02*
D03*
X2077720Y1090930D02*
D03*
X2103120D02*
D03*
X2159000D02*
D03*
X2184400D02*
D03*
X2743200Y883920D02*
D03*
Y858520D02*
D03*
X2405380Y1093470D02*
D03*
X2430780D02*
D03*
X2692400Y882650D02*
D03*
Y857250D02*
D03*
X1771650Y916940D02*
D03*
X613410Y1525270D02*
D03*
Y1322070D02*
D03*
Y1118870D02*
D03*
Y890270D02*
D03*
X2818130Y814070D02*
D03*
X2843530D02*
D03*
X2194560Y2032000D02*
D03*
X2169160Y2057400D02*
D03*
Y2032000D02*
D03*
X2143760Y2057400D02*
D03*
Y2032000D02*
D03*
X2118360Y2057400D02*
D03*
Y2032000D02*
D03*
X2092960Y2057400D02*
D03*
Y2032000D02*
D03*
X2067560Y2057400D02*
D03*
Y2032000D02*
D03*
X2042160Y2057400D02*
D03*
Y2032000D02*
D03*
X1805940Y2133600D02*
D03*
Y2108200D02*
D03*
X1780540Y2133600D02*
D03*
Y2108200D02*
D03*
X1755140Y2133600D02*
D03*
Y2108200D02*
D03*
X1729740Y2133600D02*
D03*
Y2108200D02*
D03*
X1704340Y2133600D02*
D03*
X1045210Y2160270D02*
D03*
X1670050Y1032510D02*
D03*
X1695450Y1007110D02*
D03*
Y1032510D02*
D03*
X1720850Y1007110D02*
D03*
Y1032510D02*
D03*
X1017270Y2338070D02*
D03*
X991870D02*
D03*
X1017270Y2363470D02*
D03*
X991870D02*
D03*
X1017270Y2388870D02*
D03*
X991870D02*
D03*
X1017270Y2414270D02*
D03*
X1381760Y1234440D02*
D03*
Y1209040D02*
D03*
X1356360Y1234440D02*
D03*
Y1209040D02*
D03*
X1330960Y1234440D02*
D03*
Y1209040D02*
D03*
X1305560Y1234440D02*
D03*
Y1209040D02*
D03*
X1280160Y1234440D02*
D03*
Y1209040D02*
D03*
X1254760Y1234440D02*
D03*
X1238250Y1565910D02*
D03*
Y1591310D02*
D03*
X1263650Y1565910D02*
D03*
Y1591310D02*
D03*
X1289050Y1565910D02*
D03*
Y1591310D02*
D03*
X1314450Y1565910D02*
D03*
Y1591310D02*
D03*
X1339850Y1565910D02*
D03*
Y1591310D02*
D03*
X1365250Y1565910D02*
D03*
Y1591310D02*
D03*
X1390650Y1565910D02*
D03*
Y1591310D02*
D03*
X1416050Y1565910D02*
D03*
Y1591310D02*
D03*
X1441450Y1565910D02*
D03*
Y1591310D02*
D03*
X1466850Y1565910D02*
D03*
Y1591310D02*
D03*
X1492250Y1565910D02*
D03*
Y1591310D02*
D03*
X1517650Y1565910D02*
D03*
Y1591310D02*
D03*
X1543050Y1565910D02*
D03*
Y1591310D02*
D03*
X1568450Y1565910D02*
D03*
Y1591310D02*
D03*
X1593850Y1565910D02*
D03*
Y1591310D02*
D03*
X1619250Y1565910D02*
D03*
Y1591310D02*
D03*
X1644650Y1565910D02*
D03*
Y1591310D02*
D03*
X1670050Y1565910D02*
D03*
Y1591310D02*
D03*
X1695450Y1565910D02*
D03*
X1471930Y1210310D02*
D03*
Y1235710D02*
D03*
X1497330Y1210310D02*
D03*
Y1235710D02*
D03*
X1522730Y1210310D02*
D03*
Y1235710D02*
D03*
X1548130Y1210310D02*
D03*
Y1235710D02*
D03*
X1573530Y1210310D02*
D03*
Y1235710D02*
D03*
X1598930Y1210310D02*
D03*
Y1235710D02*
D03*
X1624330Y1210310D02*
D03*
Y1235710D02*
D03*
X1649730Y1210310D02*
D03*
Y1235710D02*
D03*
X1675130Y1210310D02*
D03*
D36*
X1635760Y2186940D02*
D03*
X1498600D02*
D03*
X1341120D02*
D03*
X2136140Y966470D02*
D03*
X2217420D02*
D03*
X2054860D02*
D03*
X2214880Y1090930D02*
D03*
X2296160D02*
D03*
X1808480D02*
D03*
X1889760D02*
D03*
X1971040D02*
D03*
X2052320D02*
D03*
X2133600D02*
D03*
X2379980Y1093470D02*
D03*
X588010Y1525270D02*
D03*
Y1322070D02*
D03*
Y1118870D02*
D03*
Y890270D02*
D03*
X2868930Y814070D02*
D03*
X2194560Y2057400D02*
D03*
X1704340Y2108200D02*
D03*
X1670050Y1007110D02*
D03*
X1254760Y1209040D02*
D03*
X1695450Y1591310D02*
D03*
X1675130Y1235710D02*
D03*
D37*
X994410Y1550270D02*
D03*
Y1347070D02*
D03*
X689610D02*
D03*
X994410Y1143870D02*
D03*
X689610D02*
D03*
X994410Y915270D02*
D03*
X684530D02*
D03*
X689610Y1550270D02*
D03*
D38*
X994410Y1500270D02*
D03*
Y1297070D02*
D03*
X689610D02*
D03*
X994410Y1093870D02*
D03*
X689610D02*
D03*
X994410Y865270D02*
D03*
X684530D02*
D03*
X689610Y1500270D02*
D03*
D39*
X791210Y1322070D02*
D03*
X816610D02*
D03*
X791210Y1118870D02*
D03*
X816610D02*
D03*
X791210Y890270D02*
D03*
X816610D02*
D03*
X791210Y1525270D02*
D03*
X816610D02*
D03*
D40*
X842010Y1322070D02*
D03*
Y1118870D02*
D03*
Y890270D02*
D03*
Y1525270D02*
D03*
D41*
X1673450Y839470D02*
D03*
X1717450D02*
D03*
D42*
X619760Y1656080D02*
D03*
D43*
X650760Y1606080D02*
D03*
D44*
X681760Y1656080D02*
D03*
D45*
X616970Y2539220D02*
D03*
Y2289320D02*
D03*
D46*
X631170Y2358870D02*
D03*
D47*
X602770Y2372720D02*
D03*
X631170Y2386570D02*
D03*
X602770Y2400420D02*
D03*
X631170Y2414270D02*
D03*
X602770Y2428120D02*
D03*
X631170Y2441970D02*
D03*
X602770Y2455820D02*
D03*
X631170Y2469670D02*
D03*
D48*
X1187450Y2082230D02*
D03*
Y1980630D02*
D03*
Y2006030D02*
D03*
Y2031430D02*
D03*
Y2056830D02*
D03*
X704850Y1789230D02*
D03*
X730250D02*
D03*
X958850D02*
D03*
X755650D02*
D03*
X806450D02*
D03*
X781050D02*
D03*
X857250D02*
D03*
X831850D02*
D03*
X908050D02*
D03*
X882650D02*
D03*
X933450D02*
D03*
Y2094230D02*
D03*
X882650D02*
D03*
X908050D02*
D03*
X831850D02*
D03*
X857250D02*
D03*
X781050D02*
D03*
X806450D02*
D03*
X755650D02*
D03*
X958850D02*
D03*
X730250D02*
D03*
X704850D02*
D03*
X1757680Y1981200D02*
D03*
X1806480D02*
D03*
X2066130Y864870D02*
D03*
X2089030D02*
D03*
X2111930D02*
D03*
X2134830D02*
D03*
X2157730D02*
D03*
X2077530Y890270D02*
D03*
X2100430D02*
D03*
X2123330D02*
D03*
X2146230D02*
D03*
X2169130D02*
D03*
X2066130Y915670D02*
D03*
X2089030D02*
D03*
X2111930D02*
D03*
X2134830D02*
D03*
X2157730D02*
D03*
D49*
X1988530Y890270D02*
D03*
X2237730D02*
D03*
D50*
X2608750Y1280000D02*
D03*
X2571250Y1269750D02*
D03*
X2424000Y1486000D02*
D03*
X2248750Y1393250D02*
D03*
X2280611Y1394568D02*
D03*
X2250250Y1372750D02*
D03*
X2281750Y1374250D02*
D03*
X2205750Y1379250D02*
D03*
X2192500Y1388500D02*
D03*
X2694250Y1913750D02*
D03*
X2694158Y1865886D02*
D03*
X2716908Y1778636D02*
D03*
X2627000Y1502750D02*
D03*
X2341750Y1634750D02*
D03*
X2351786Y1622044D02*
D03*
X2356104Y1637284D02*
D03*
X2367026Y1634744D02*
D03*
X2337750Y1619250D02*
D03*
X2366772Y1624076D02*
D03*
X1941500Y1503250D02*
D03*
X1435250Y1978750D02*
D03*
X1545000Y1978000D02*
D03*
X1503750Y1977250D02*
D03*
X1494750Y1983500D02*
D03*
X2383750Y2021250D02*
D03*
X2375250Y2013500D02*
D03*
X2536000Y1735500D02*
D03*
X2408000Y1626250D02*
D03*
X2315113Y1584327D02*
D03*
X1745250Y2342750D02*
D03*
X2542250Y1686500D02*
D03*
X2564000Y1377750D02*
D03*
X2514500Y1349250D02*
D03*
X2444750Y1378500D02*
D03*
X2464750Y1379000D02*
D03*
X2475000Y1380250D02*
D03*
X2452750Y2060000D02*
D03*
X2512500Y1868250D02*
D03*
X2387250Y1689000D02*
D03*
X2412170Y1674640D02*
D03*
X2477500Y1679000D02*
D03*
X2049750Y1845500D02*
D03*
X2046000Y1903250D02*
D03*
X2204750Y1914250D02*
D03*
X2194750Y1975250D02*
D03*
X2171750Y1845750D02*
D03*
X2570250Y1451250D02*
D03*
X2323250Y1441000D02*
D03*
X1826750Y1408250D02*
D03*
X2244250Y1429750D02*
D03*
X2313000Y1425250D02*
D03*
X2258250Y1430500D02*
D03*
X2310250Y1573250D02*
D03*
X2313686Y1596644D02*
D03*
X2309368Y1608328D02*
D03*
X2314750Y1552250D02*
D03*
X2267000Y1571500D02*
D03*
X2271250Y1596340D02*
D03*
X2281936Y1597914D02*
D03*
X2272030Y1549400D02*
D03*
X2254250Y1564640D02*
D03*
X2242820Y1562100D02*
D03*
X1642110Y1932940D02*
D03*
X1625600Y1924050D02*
D03*
X1423670Y1390650D02*
D03*
X1369060Y1188720D02*
D03*
X2901750Y909500D02*
D03*
X2433990Y2021370D02*
D03*
X2577910Y1463800D02*
D03*
X2525230Y1437039D02*
D03*
X1343500Y2340250D02*
D03*
X1843439Y1466050D02*
D03*
X725500Y2279500D02*
D03*
X904750Y1381250D02*
D03*
X1012250Y932250D02*
D03*
X904750Y1026750D02*
D03*
Y799500D02*
D03*
X1031500Y1585500D02*
D03*
X932000Y1381500D02*
D03*
X828500Y1382000D02*
D03*
X945500Y1245250D02*
D03*
X1031500Y1179250D02*
D03*
X904750Y1179500D02*
D03*
X828500D02*
D03*
X949500Y1043750D02*
D03*
X828750Y951000D02*
D03*
X2606250Y1573500D02*
D03*
X2690876Y2050542D02*
D03*
X2663698Y2064004D02*
D03*
X2431542Y2078990D02*
D03*
X2386360Y1975930D02*
D03*
X1370694Y1714500D02*
D03*
X1376370Y1748920D02*
D03*
X1835912Y1446780D02*
D03*
X2269744Y1517396D02*
D03*
X1899920Y1432560D02*
D03*
X1860550Y1442212D02*
D03*
X2321560Y1533800D02*
D03*
X1831594Y1434846D02*
D03*
X1833504Y1374780D02*
D03*
X2170938Y1395476D02*
D03*
X1512062Y1520698D02*
D03*
X2700782Y2054660D02*
D03*
X2597930Y1646420D02*
D03*
X1580750Y1811780D02*
D03*
X2612644Y2013712D02*
D03*
X1499000Y1934750D02*
D03*
X1473708Y1774432D02*
D03*
X2327110Y1586900D02*
D03*
X2309050Y1618960D02*
D03*
X1476967Y1692686D02*
D03*
X1482598Y1581658D02*
D03*
X2236724D02*
D03*
X1947164Y1524508D02*
D03*
X1548384Y1634744D02*
D03*
X2338324Y1542796D02*
D03*
X2671008Y2007870D02*
D03*
X2419604D02*
D03*
X1678686Y1943862D02*
D03*
X2603500Y1822450D02*
D03*
X1510792Y1917446D02*
D03*
X1529334Y1528826D02*
D03*
X1561338Y1224026D02*
D03*
X1502750Y1359000D02*
D03*
X1387602Y1447292D02*
D03*
X1385372Y1348430D02*
D03*
X1425940Y1380430D02*
D03*
X1425702Y1234948D02*
D03*
X1451273Y1213187D02*
D03*
X1502250Y1384000D02*
D03*
X1602994Y1530604D02*
D03*
X1425500Y1364500D02*
D03*
X2449790Y1672100D02*
D03*
X2458836Y1686201D02*
D03*
X2421250Y1690500D02*
D03*
X2452895Y1938020D02*
D03*
X2388870Y1958340D02*
D03*
X2492250Y1644460D02*
D03*
X2500884Y2000758D02*
D03*
X2474214D02*
D03*
X1507490Y1763268D02*
D03*
X1561630Y1771358D02*
D03*
X2845308Y1374394D02*
D03*
X2693416D02*
D03*
X1408684Y1829160D02*
D03*
X1399032Y1676146D02*
D03*
X2633980Y1442720D02*
D03*
X2835402Y1365504D02*
D03*
X1430528Y1776222D02*
D03*
X2510536Y1645666D02*
D03*
X1630426Y1869948D02*
D03*
X2657250Y1610000D02*
D03*
X2457196Y1701911D02*
D03*
X2497836Y1747774D02*
D03*
X2603754Y1958086D02*
D03*
X2416556Y1939036D02*
D03*
X2751328Y1953006D02*
D03*
X2703764Y1952498D02*
D03*
X2579878Y1956054D02*
D03*
X2482342Y1646174D02*
D03*
X2527750Y1682750D02*
D03*
X2557000Y1638500D02*
D03*
X2685034Y1932432D02*
D03*
X2426208Y1916176D02*
D03*
X2799155Y1876827D02*
D03*
X2570860D02*
D03*
X2426970Y1939036D02*
D03*
X2707894Y1937766D02*
D03*
X1529588Y1867662D02*
D03*
X2275840Y1675638D02*
D03*
X2314702Y1836166D02*
D03*
X2090674Y1841754D02*
D03*
X2537968Y1538800D02*
D03*
X1579372Y1869440D02*
D03*
X1905254Y1479804D02*
D03*
X1940566Y1361440D02*
D03*
X2224494Y1618704D02*
D03*
X1559306Y1702308D02*
D03*
X2229358Y1558798D02*
D03*
X2337816Y1402588D02*
D03*
X2075180Y1971548D02*
D03*
X2623058Y1408800D02*
D03*
X1577848Y1883156D02*
D03*
X777964Y2366120D02*
D03*
X2395474Y1331976D02*
D03*
X2396998Y1207770D02*
D03*
X2513838Y1136142D02*
D03*
X2801620Y1105662D02*
D03*
X2101062Y1652550D02*
D03*
X2549144Y1383284D02*
D03*
X2715514Y1271778D02*
D03*
X2818638Y1129030D02*
D03*
X2467356Y1315466D02*
D03*
X2698000Y1135000D02*
D03*
X2816352Y1153922D02*
D03*
X2685034Y1196492D02*
D03*
X2577910Y1381260D02*
D03*
X2370490Y1316520D02*
D03*
X2557412Y1388954D02*
D03*
X1790700Y1335532D02*
D03*
X2319790Y1375600D02*
D03*
X1350010Y1249680D02*
D03*
X1214120Y1878330D02*
D03*
X1413750Y1809750D02*
D03*
X1230884Y1759712D02*
D03*
X2699004Y1185672D02*
D03*
X2837180Y1393444D02*
D03*
X2662428Y1484200D02*
D03*
X2876000Y1324500D02*
D03*
X1409192Y1764792D02*
D03*
X1404750Y1715262D02*
D03*
X909774Y1867154D02*
D03*
X1352804Y1893570D02*
D03*
X1331976Y1810258D02*
D03*
X1364488Y1935480D02*
D03*
X2674620Y1269962D02*
D03*
X2529332Y1324356D02*
D03*
X2712212Y1120648D02*
D03*
X2633472Y1152398D02*
D03*
X2584030Y1291082D02*
D03*
X2676652Y1225042D02*
D03*
X2604211Y1324597D02*
D03*
X2702750Y1225500D02*
D03*
X2590800Y1277366D02*
D03*
X2551938Y1339596D02*
D03*
X2715768Y1226820D02*
D03*
X2575560Y1423800D02*
D03*
X2823532Y1199320D02*
D03*
X2801366Y1177036D02*
D03*
X2502662Y1334770D02*
D03*
X1574500Y1799250D02*
D03*
X2489708Y1064768D02*
D03*
X1993392Y1003554D02*
D03*
X2375408Y1331722D02*
D03*
X2350262Y1343660D02*
D03*
X2742184Y1778762D02*
D03*
X2554224Y1764792D02*
D03*
X2550414Y1753779D02*
D03*
X2740914Y1763014D02*
D03*
X2547112Y1645158D02*
D03*
X2577846Y1599438D02*
D03*
X2649728Y1742186D02*
D03*
X2668524Y1842554D02*
D03*
X2521289Y1800098D02*
D03*
X2648458Y1885442D02*
D03*
X2574036Y1573276D02*
D03*
X2766098Y1765338D02*
D03*
X2771648Y1882394D02*
D03*
X2512314Y1852930D02*
D03*
X2494026Y1673352D02*
D03*
X2504948Y1684274D02*
D03*
X2464308Y1646936D02*
D03*
X2541270Y1702308D02*
D03*
X2530094Y1965390D02*
D03*
X2591054D02*
D03*
Y1845310D02*
D03*
X2469678Y1844512D02*
D03*
X2469388Y1950212D02*
D03*
X2496566Y1964944D02*
D03*
X2735326Y1639062D02*
D03*
X2577846Y1533144D02*
D03*
X2707076Y1924304D02*
D03*
X2458212D02*
D03*
X2681732Y1921002D02*
D03*
X2812034Y1824258D02*
D03*
X2576576Y1588800D02*
D03*
X2861818Y1943862D02*
D03*
X2498598Y1941322D02*
D03*
X2504694Y1763522D02*
D03*
X2822194Y1918660D02*
D03*
X2536000Y1676750D02*
D03*
X2527554Y1642618D02*
D03*
X2613739Y1935730D02*
D03*
X2812750Y1931000D02*
D03*
X2572258Y1634490D02*
D03*
X2485136Y1710182D02*
D03*
X2425946Y2050542D02*
D03*
X2596604Y2040928D02*
D03*
X2663642Y2000504D02*
D03*
X2590546D02*
D03*
X2687828Y2013712D02*
D03*
X1479042Y1391412D02*
D03*
X1443736Y1527810D02*
D03*
X1424690Y1503220D02*
D03*
X1646900Y1478836D02*
D03*
X1502410Y1130808D02*
D03*
X2298700Y1931924D02*
D03*
X1955038Y1928876D02*
D03*
X2278634Y1925574D02*
D03*
X2564130Y1815084D02*
D03*
X2059940Y1834134D02*
D03*
X2001266Y1899412D02*
D03*
X2598420Y1780540D02*
D03*
X2589530Y1088390D02*
D03*
X2552526Y1074594D02*
D03*
X1569720Y1880616D02*
D03*
X1611884Y1971548D02*
D03*
X1725168Y1595374D02*
D03*
X1403604Y1612646D02*
D03*
X1369314Y1775460D02*
D03*
X1323086Y1786636D02*
D03*
X1373378Y1022858D02*
D03*
X1368806Y1785112D02*
D03*
X1312245Y1793494D02*
D03*
X1270508Y1090422D02*
D03*
X1395222Y2003044D02*
D03*
X1436878Y1869186D02*
D03*
X1326896Y1255522D02*
D03*
X1323594Y1941322D02*
D03*
X1471638Y1911896D02*
D03*
X1540256Y1772666D02*
D03*
X1592580Y1753362D02*
D03*
X1591818Y1721104D02*
D03*
X1513078Y1775714D02*
D03*
X1549654Y1296670D02*
D03*
X1279398D02*
D03*
X1312418Y1880870D02*
D03*
X1651762Y1775968D02*
D03*
X1312926Y1260602D02*
D03*
X1330198Y1391158D02*
D03*
X2465832Y1060704D02*
D03*
X2389124Y1348994D02*
D03*
X2377948Y1345946D02*
D03*
X1555750Y1852168D02*
D03*
X2449087Y1690859D02*
D03*
X1692910Y1885188D02*
D03*
X2439162Y1672082D02*
D03*
X1670558Y1871472D02*
D03*
X2479548Y1810004D02*
D03*
X1613154Y1960545D02*
D03*
X2482558Y1858010D02*
D03*
X2504941Y1806963D02*
D03*
X1634714Y1952244D02*
D03*
X1575600Y1899412D02*
D03*
X2590800Y1805648D02*
D03*
X1636522Y1877568D02*
D03*
X2474722Y1637538D02*
D03*
X1615948Y1876298D02*
D03*
X2577846Y1478534D02*
D03*
X1615706Y1884680D02*
D03*
X2562737Y1468735D02*
D03*
X1615948Y1846620D02*
D03*
X2394204Y1644904D02*
D03*
X1580896Y1834896D02*
D03*
X1569974Y1826620D02*
D03*
X1735582Y1354074D02*
D03*
X2334768Y1346200D02*
D03*
X1698498Y1393190D02*
D03*
X2326640Y1349248D02*
D03*
X2319710Y1327404D02*
D03*
X1709674D02*
D03*
X1634490Y1549146D02*
D03*
X1631188Y1392682D02*
D03*
X1522730Y1662684D02*
D03*
X2245861Y1606631D02*
D03*
X2281428Y1618996D02*
D03*
X2045208Y1614932D02*
D03*
X1974342Y1685798D02*
D03*
X1519750Y1764538D02*
D03*
X2208784Y1613154D02*
D03*
X1468882Y1709928D02*
D03*
X1435862Y1721358D02*
D03*
X1461722Y1676448D02*
D03*
X2324608Y1618742D02*
D03*
X2569710Y1829562D02*
D03*
X2101596D02*
D03*
X2002790Y2054860D02*
D03*
X2085594Y1973834D02*
D03*
X2110486Y1885334D02*
D03*
X2569972Y1387602D02*
D03*
Y1439164D02*
D03*
X2427224Y1609852D02*
D03*
X2170684Y1651762D02*
D03*
X2350008Y1467612D02*
D03*
X2325341Y1383792D02*
D03*
X1784096Y1603502D02*
D03*
X1906016Y1388618D02*
D03*
X2299462Y1369314D02*
D03*
X1871980Y1447800D02*
D03*
X2207768Y1437894D02*
D03*
X1877568Y1414018D02*
D03*
X2251456Y1516126D02*
D03*
X1898904Y1468120D02*
D03*
X1871726Y1464310D02*
D03*
X2313940Y1517396D02*
D03*
X1352804Y1782572D02*
D03*
X1301496Y1783842D02*
D03*
X1379301Y1266190D02*
D03*
X2350008Y916686D02*
D03*
X1630000Y1360000D02*
D03*
X1535000Y1366750D02*
D03*
X1535250Y1378000D02*
D03*
Y1412500D02*
D03*
X1493250Y1437000D02*
D03*
X1491500Y1420000D02*
D03*
X1492500Y1403750D02*
D03*
X1501750Y1400000D02*
D03*
X1473500Y1364250D02*
D03*
X1424250Y1405750D02*
D03*
X1433000Y1462500D02*
D03*
X1389250Y1414500D02*
D03*
X1636750Y1222000D02*
D03*
X1059250Y950250D02*
D03*
X904750D02*
D03*
X947500Y814250D02*
D03*
X904750Y1285000D02*
D03*
X931750Y1585250D02*
D03*
X818000Y1585500D02*
D03*
X968000Y2146000D02*
D03*
X968500Y2172000D02*
D03*
X763250Y2204000D02*
D03*
X689250Y2132250D02*
D03*
X562500Y2184500D02*
D03*
X842750Y2405750D02*
D03*
X803500Y2412000D02*
D03*
X1516500Y2384250D02*
D03*
X1508250Y2327750D02*
D03*
X795500Y2384750D02*
D03*
X792250Y2404000D02*
D03*
X1318750Y2385500D02*
D03*
X1420250Y2384750D02*
D03*
X1638000D02*
D03*
X1600000Y2339250D02*
D03*
X1246000Y2339500D02*
D03*
X1766500Y2187000D02*
D03*
X904250Y1520750D02*
D03*
X1105750Y1475250D02*
D03*
X931250Y1304750D02*
D03*
X1014250Y1159250D02*
D03*
X1387000Y1044750D02*
D03*
X1651000Y839000D02*
D03*
X1740000Y838500D02*
D03*
X1722000Y890000D02*
D03*
X2708500Y1159250D02*
D03*
X2744500Y1199500D02*
D03*
X2711000Y1208500D02*
D03*
X2859750Y1135250D02*
D03*
X2857000Y1167250D02*
D03*
X2827290Y1164400D02*
D03*
X2769000Y1247500D02*
D03*
X2789174Y1185672D02*
D03*
X2801000Y1192250D02*
D03*
X2802500Y1224000D02*
D03*
X2770000Y1136000D02*
D03*
X1568750Y1606250D02*
D03*
X1386500Y1551000D02*
D03*
X1832250Y1318250D02*
D03*
X1899250Y1333500D02*
D03*
X1905750Y1318750D02*
D03*
X1945000Y1342750D02*
D03*
X1827250Y1422250D02*
D03*
X1841250Y1429000D02*
D03*
X1944750Y1422750D02*
D03*
X1798250Y1486500D02*
D03*
X1906000Y1510750D02*
D03*
X1796000Y1912750D02*
D03*
X1365000Y1947250D02*
D03*
X1364750Y1902000D02*
D03*
X1410500Y1889500D02*
D03*
X1418250Y1911500D02*
D03*
X1409500Y1902000D02*
D03*
X1412500Y1937250D02*
D03*
X1423750D02*
D03*
X1498750Y1847500D02*
D03*
X1529000Y1889500D02*
D03*
X1449750Y1773250D02*
D03*
X1414500Y1726500D02*
D03*
X1513000Y1700250D02*
D03*
X1428000Y1703750D02*
D03*
X1454571Y1690332D02*
D03*
X1449000Y1703250D02*
D03*
X1476250Y1678000D02*
D03*
X1490500Y1682000D02*
D03*
X1632000Y1764250D02*
D03*
X1575250Y1776000D02*
D03*
X1422250Y1765000D02*
D03*
X1404750Y1778500D02*
D03*
X1358250Y1836250D02*
D03*
X1366250Y1844750D02*
D03*
X1579000Y1917250D02*
D03*
X1607566Y1949704D02*
D03*
X2167250Y1859750D02*
D03*
X2387500Y1929000D02*
D03*
X2536250Y2029500D02*
D03*
X2497750Y1954000D02*
D03*
X2428500Y1994250D02*
D03*
X2531500Y1981500D02*
D03*
X2548750Y1908250D02*
D03*
X2743750Y1982500D02*
D03*
X2703750Y1974000D02*
D03*
X2705000Y2015250D02*
D03*
X2798500Y2026750D02*
D03*
X2815250Y1992000D02*
D03*
X2662000Y1458000D02*
D03*
X2606250Y1445750D02*
D03*
X2474750Y1296750D02*
D03*
X2524500Y1377250D02*
D03*
X2404750Y1294250D02*
D03*
X2368500Y1293750D02*
D03*
X2368250Y1342250D02*
D03*
X2360750Y1334750D02*
D03*
X2280750Y1439500D02*
D03*
X2309250Y1459000D02*
D03*
X2313250Y1471750D02*
D03*
X2270750Y1462500D02*
D03*
X2244500Y1547500D02*
D03*
X2307750Y1505250D02*
D03*
X2307500Y1558750D02*
D03*
X2314250Y1673750D02*
D03*
X2374000Y1582250D02*
D03*
X2386500Y1721750D02*
D03*
X2548250Y1773500D02*
D03*
X2498250Y1721750D02*
D03*
X2519873Y1631080D02*
D03*
X2513750Y1595750D02*
D03*
X2557000Y1592500D02*
D03*
X2558500Y1602750D02*
D03*
X2572750Y1518750D02*
D03*
X2512000Y1424750D02*
D03*
X2150500Y1859750D02*
D03*
X2559000Y1935750D02*
D03*
X1343500Y1819250D02*
D03*
X1346750Y1839250D02*
D03*
X1353500Y1868500D02*
D03*
Y1858750D02*
D03*
X1365250Y1868250D02*
D03*
X2376750Y1645000D02*
D03*
X2404000Y1349000D02*
D03*
X2231500Y1464000D02*
D03*
X949750Y1453250D02*
D03*
X1348750Y2566000D02*
D03*
X1552500Y2567500D02*
D03*
X1402250Y1084250D02*
D03*
X2817500Y858000D02*
D03*
X2753250Y1211750D02*
D03*
X2817000Y1965000D02*
D03*
X2499500Y1980000D02*
D03*
X2042750Y1943750D02*
D03*
X2015750Y1974000D02*
D03*
X1904750Y1495000D02*
D03*
X1838250Y1518500D02*
D03*
X1832000Y1502000D02*
D03*
X1797250Y1406750D02*
D03*
X1831750Y1393750D02*
D03*
X1841750Y1394250D02*
D03*
X1840250Y1336000D02*
D03*
X1394250Y1963500D02*
D03*
X2232750Y1413500D02*
D03*
X2280500Y1404250D02*
D03*
X2279111Y1418069D02*
D03*
X2404000Y1325000D02*
D03*
X2387250Y1375600D02*
D03*
X2365750Y1429500D02*
D03*
X2401500Y1422500D02*
D03*
X2489500Y1339250D02*
D03*
X2603750Y1426250D02*
D03*
X2575000Y1557250D02*
D03*
X2527250Y1558250D02*
D03*
X2360750Y1692000D02*
D03*
X2362750Y1673750D02*
D03*
X2279250Y1428000D02*
D03*
M02*
